<svg xmlns="http://www.w3.org/2000/svg" xmlns:xlink="http://www.w3.org/1999/xlink" version="1.2" width="215.90mm" height="279.40mm" viewBox="0 0 153.5737 198.7425">
<!-- Page: 1/1 -->
<text transform="translate(9.0337, 6.3236)" font-family="Century Schoolbook L" font-size="2.1999" text-anchor="start" fill="currentColor">
<tspan>
 </tspan>
</text>
<text transform="translate(65.6796, 9.9697)" font-family="Century Schoolbook L" font-weight="bold" font-size="3.1113" text-anchor="start" fill="currentColor">
<tspan>
神的兒子親愛救主</tspan>
</text>
<text transform="translate(69.2647, 13.4697)" font-family="Century Schoolbook L" font-weight="bold" font-size="2.1999" text-anchor="start" fill="currentColor">
<tspan>
讚美主－祂的高舉</tspan>
</text>
<text transform="translate(133.1660, 17.9510)" font-family="Century Schoolbook L" font-size="5.8739" text-anchor="start" fill="currentColor">
<tspan>
C111</tspan>
</text>
<text transform="translate(9.0337, 20.4143)" font-family="Century Schoolbook L" font-weight="bold" font-style="italic" font-size="2.1999" text-anchor="start" fill="currentColor">
<tspan>
(吉他: Capo 3)</tspan>
</text>
<rect transform="translate(100.8393, 28.8782)" x="0.0000" y="-2.0000" width="0.2212" height="4.0000" ry="0.0000" fill="currentColor"/>
<rect transform="translate(9.0337, 31.8782)" x="10.6853" y="-0.1082" width="1.9719" height="0.2164" ry="0.1082" fill="currentColor"/>
<line transform="translate(9.0337, 30.8782)" stroke-linejoin="round" stroke-linecap="round" stroke-width="0.1164" stroke="currentColor" x1="0.0582" y1="-0.0000" x2="138.1582" y2="-0.0000"/>
<line transform="translate(9.0337, 29.8782)" stroke-linejoin="round" stroke-linecap="round" stroke-width="0.1164" stroke="currentColor" x1="0.0582" y1="-0.0000" x2="138.1582" y2="-0.0000"/>
<line transform="translate(9.0337, 28.8782)" stroke-linejoin="round" stroke-linecap="round" stroke-width="0.1164" stroke="currentColor" x1="0.0582" y1="-0.0000" x2="138.1582" y2="-0.0000"/>
<line transform="translate(9.0337, 27.8782)" stroke-linejoin="round" stroke-linecap="round" stroke-width="0.1164" stroke="currentColor" x1="0.0582" y1="-0.0000" x2="138.1582" y2="-0.0000"/>
<line transform="translate(9.0337, 26.8782)" stroke-linejoin="round" stroke-linecap="round" stroke-width="0.1164" stroke="currentColor" x1="0.0582" y1="-0.0000" x2="138.1582" y2="-0.0000"/>
<rect transform="translate(51.6381, 28.8782)" x="0.0000" y="-2.0000" width="0.2212" height="4.0000" ry="0.0000" fill="currentColor"/>
<rect transform="translate(27.4595, 28.8782)" x="0.0000" y="-2.0000" width="0.2212" height="4.0000" ry="0.0000" fill="currentColor"/>
<rect transform="translate(147.0289, 28.8782)" x="0.0000" y="-2.0000" width="0.2212" height="4.0000" ry="0.0000" fill="currentColor"/>
<rect transform="translate(76.9355, 28.8782)" x="0.0000" y="-2.0000" width="0.2212" height="4.0000" ry="0.0000" fill="currentColor"/>
<rect transform="translate(124.0246, 28.8782)" x="0.0000" y="-2.0000" width="0.2212" height="4.0000" ry="0.0000" fill="currentColor"/>
<rect transform="translate(110.3518, 28.8782)" x="-0.0757" y="-2.0000" width="0.1514" height="3.3269" ry="0.0500" fill="currentColor"/>
<text transform="translate(108.5324, 36.2520)" font-family="Century Schoolbook L" font-size="2.4695" text-anchor="start" fill="currentColor">
<tspan>
救</tspan>
</text>
<path transform="translate(109.1128, 30.3782) scale(0.0040, -0.0040)" d="M214 140c59 0 115 -32 115 -97c0 -72 -54 -121 -101 -149c-35 -21 -74 -34 -114 -34c-59 0 -114 32 -114 97c0 72 54 121 101 149c35 21 73 34 113 34z" fill="currentColor"/>
<rect transform="translate(118.5979, 28.8782)" x="-0.0757" y="0.1731" width="0.1514" height="3.1602" ry="0.0500" fill="currentColor"/>
<text transform="translate(117.9419, 36.2520)" font-family="Century Schoolbook L" font-size="2.4695" text-anchor="start" fill="currentColor">
<tspan>
我</tspan>
</text>
<path transform="translate(118.5223, 28.8782) scale(0.0040, -0.0040)" d="M214 140c59 0 115 -32 115 -97c0 -72 -54 -121 -101 -149c-35 -21 -74 -34 -114 -34c-59 0 -114 32 -114 97c0 72 54 121 101 149c35 21 73 34 113 34z" fill="currentColor"/>
<text transform="translate(118.5223, 25.3782)" font-family="sans-serif" font-size="1.9603" text-anchor="start" fill="currentColor">
<tspan>
G</tspan>
</text>
<text transform="translate(120.0587, 25.3782)" font-family="sans-serif" font-size="1.9603" text-anchor="start" fill="currentColor">
<tspan/>
</text>
<text transform="translate(120.0587, 25.3782)" font-family="sans-serif" font-size="1.9603" text-anchor="start" fill="currentColor">
<tspan/>
</text>
<text transform="translate(120.0587, 24.4873)" font-family="sans-serif" font-size="1.3858" text-anchor="start" fill="currentColor">
<tspan/>
</text>
<rect transform="translate(113.9635, 28.8782)" x="-0.0757" y="-2.0000" width="0.1514" height="3.3269" ry="0.0500" fill="currentColor"/>
<text transform="translate(112.1442, 36.2520)" font-family="Century Schoolbook L" font-size="2.4695" text-anchor="start" fill="currentColor">
<tspan>
贖</tspan>
</text>
<path transform="translate(112.7246, 30.3782) scale(0.0040, -0.0040)" d="M214 140c59 0 115 -32 115 -97c0 -72 -54 -121 -101 -149c-35 -21 -74 -34 -114 -34c-59 0 -114 32 -114 97c0 72 54 121 101 149c35 21 73 34 113 34z" fill="currentColor"/>
<path transform="translate(110.4274, 26.9282) scale(0.0040, -0.0040)" d="M0 0c0 -197 209 -334 209 -531c0 -71 -15 -140 -41 -206c-5 -9 -14 -13 -22 -13c-14 0 -29 12 -26 30c27 60 43 124 43 189c0 102 -93 206 -163 281h-19v250h19z" fill="currentColor"/>
<rect transform="translate(90.9211, 28.8782)" x="-0.0757" y="-3.0000" width="0.1514" height="3.3269" ry="0.0500" fill="currentColor"/>
<text transform="translate(89.1017, 36.2520)" font-family="Century Schoolbook L" font-size="2.4695" text-anchor="start" fill="currentColor">
<tspan>
你</tspan>
</text>
<path transform="translate(89.6821, 29.3782) scale(0.0040, -0.0040)" d="M214 140c59 0 115 -32 115 -97c0 -72 -54 -121 -101 -149c-35 -21 -74 -34 -114 -34c-59 0 -114 32 -114 97c0 72 54 121 101 149c35 21 73 34 113 34z" fill="currentColor"/>
<rect transform="translate(21.2866, 28.8782)" x="-0.0757" y="0.1747" width="0.1514" height="3.1522" ry="0.0500" fill="currentColor"/>
<rect transform="translate(85.2882, 28.8782)" x="-0.0757" y="-2.5000" width="0.1514" height="3.3269" ry="0.0500" fill="currentColor"/>
<text transform="translate(83.4689, 36.2520)" font-family="Century Schoolbook L" font-size="2.4695" text-anchor="start" fill="currentColor">
<tspan>
用</tspan>
</text>
<path transform="translate(84.0493, 29.8782) scale(0.0040, -0.0040)" d="M214 140c59 0 115 -32 115 -97c0 -72 -54 -121 -101 -149c-35 -21 -74 -34 -114 -34c-59 0 -114 32 -114 97c0 72 54 121 101 149c35 21 73 34 113 34z" fill="currentColor"/>
<rect transform="translate(102.5289, 28.8782)" x="-0.0757" y="-0.3269" width="0.1514" height="3.3269" ry="0.0500" fill="currentColor"/>
<path transform="translate(104.2093, 28.3782) scale(0.0040, -0.0040)" d="M0 0c0 30 25 55 55 55s55 -25 55 -55s-25 -55 -55 -55s-55 25 -55 55z" fill="currentColor"/>
<text transform="translate(101.8728, 36.2520)" font-family="Century Schoolbook L" font-size="2.4695" text-anchor="start" fill="currentColor">
<tspan>
血</tspan>
</text>
<path transform="translate(102.4532, 28.3782) scale(0.0040, -0.0040)" d="M214 140c59 0 115 -32 115 -97c0 -72 -54 -121 -101 -149c-35 -21 -74 -34 -114 -34c-59 0 -114 32 -114 97c0 72 54 121 101 149c35 21 73 34 113 34z" fill="currentColor"/>
<text transform="translate(102.4532, 25.3782)" font-family="sans-serif" font-size="1.9603" text-anchor="start" fill="currentColor">
<tspan>
D</tspan>
</text>
<text transform="translate(103.9470, 25.3782)" font-family="sans-serif" font-size="1.9603" text-anchor="start" fill="currentColor">
<tspan/>
</text>
<text transform="translate(103.9470, 25.3782)" font-family="sans-serif" font-size="1.9603" text-anchor="start" fill="currentColor">
<tspan/>
</text>
<text transform="translate(103.9470, 24.4873)" font-family="sans-serif" font-size="1.3858" text-anchor="start" fill="currentColor">
<tspan/>
</text>
<rect transform="translate(95.4126, 28.8782)" x="-0.0757" y="0.1731" width="0.1514" height="3.1602" ry="0.0500" fill="currentColor"/>
<text transform="translate(94.7566, 36.2520)" font-family="Century Schoolbook L" font-size="2.4695" text-anchor="start" fill="currentColor">
<tspan>
寶</tspan>
</text>
<path transform="translate(95.3370, 28.8782) scale(0.0040, -0.0040)" d="M214 140c59 0 115 -32 115 -97c0 -72 -54 -121 -101 -149c-35 -21 -74 -34 -114 -34c-59 0 -114 32 -114 97c0 72 54 121 101 149c35 21 73 34 113 34z" fill="currentColor"/>
<rect transform="translate(25.0104, 28.8782)" x="-0.0757" y="-0.1747" width="0.1514" height="2.5015" ry="0.0500" fill="currentColor"/>
<path transform="translate(23.7715, 31.3782) scale(0.0040, -0.0040)" d="M214 140c59 0 115 -32 115 -97c0 -72 -54 -121 -101 -149c-35 -21 -74 -34 -114 -34c-59 0 -114 32 -114 97c0 72 54 121 101 149c35 21 73 34 113 34z" fill="currentColor"/>
<path transform="translate(144.7318, 25.9282) scale(0.0040, -0.0040)" d="M0 0c0 -197 209 -334 209 -531c0 -71 -15 -140 -41 -206c-5 -9 -14 -13 -22 -13c-14 0 -29 12 -26 30c27 60 43 124 43 189c0 102 -93 206 -163 281h-19v250h19z" fill="currentColor"/>
<rect transform="translate(144.6561, 28.8782)" x="-0.0757" y="-3.0000" width="0.1514" height="3.3269" ry="0.0500" fill="currentColor"/>
<polygon transform="translate(21.2110, 29.0600)" stroke-linejoin="round" stroke-linecap="round" stroke-width="0.1000" fill="currentColor" stroke="currentColor" points="3.8251 -0.5536 3.8251 -0.1736 0.0500 0.1900 0.0500 -0.1900"/>
<path transform="translate(20.0477, 28.8782)" stroke-width="0.0931" stroke-linejoin="round" stroke-linecap="round" stroke="currentColor" fill="currentColor" d="M0.7710 4.5586C1.9194 5.1768 3.8105 4.6689 4.4947 3.5586L4.4947 3.5586C3.7743 4.5340 1.8831 5.0419 0.7710 4.5586z"/>
<polygon transform="translate(70.6636, 27.6964)" stroke-linejoin="round" stroke-linecap="round" stroke-width="0.1000" fill="currentColor" stroke="currentColor" points="3.8251 -0.8264 3.8251 -0.4464 0.0500 0.1900 0.0500 -0.1900"/>
<path transform="translate(69.5004, 28.8782)" stroke-width="0.0931" stroke-linejoin="round" stroke-linecap="round" stroke="currentColor" fill="currentColor" d="M0.7710 3.5586C1.9194 4.1768 3.8105 3.6689 4.4947 2.5586L4.4947 2.5586C3.7743 3.5340 1.8831 4.0419 0.7710 3.5586z"/>
<rect transform="translate(126.7445, 28.8782)" x="-0.0757" y="-3.0000" width="0.1514" height="3.3269" ry="0.0500" fill="currentColor"/>
<text transform="translate(124.9251, 36.2520)" font-family="Century Schoolbook L" font-size="2.4695" text-anchor="start" fill="currentColor">
<tspan>
們</tspan>
</text>
<path transform="translate(125.5055, 29.3782) scale(0.0040, -0.0040)" d="M214 140c59 0 115 -32 115 -97c0 -72 -54 -121 -101 -149c-35 -21 -74 -34 -114 -34c-59 0 -114 32 -114 97c0 72 54 121 101 149c35 21 73 34 113 34z" fill="currentColor"/>
<text transform="translate(125.5055, 25.3782)" font-family="sans-serif" font-size="1.9603" text-anchor="start" fill="currentColor">
<tspan>
D</tspan>
</text>
<text transform="translate(126.9993, 25.3782)" font-family="sans-serif" font-size="1.9603" text-anchor="start" fill="currentColor">
<tspan/>
</text>
<text transform="translate(126.9993, 25.3782)" font-family="sans-serif" font-size="1.9603" text-anchor="start" fill="currentColor">
<tspan/>
</text>
<text transform="translate(126.9993, 24.4873)" font-family="sans-serif" font-size="1.3858" text-anchor="start" fill="currentColor">
<tspan/>
</text>
<text transform="translate(142.8368, 36.2520)" font-family="Century Schoolbook L" font-size="2.4695" text-anchor="start" fill="currentColor">
<tspan>
和</tspan>
</text>
<path transform="translate(143.4172, 29.3782) scale(0.0040, -0.0040)" d="M214 140c59 0 115 -32 115 -97c0 -72 -54 -121 -101 -149c-35 -21 -74 -34 -114 -34c-59 0 -114 32 -114 97c0 72 54 121 101 149c35 21 73 34 113 34z" fill="currentColor"/>
<rect transform="translate(137.7602, 28.8782)" x="-0.0757" y="-2.5000" width="0.1514" height="3.3269" ry="0.0500" fill="currentColor"/>
<path transform="translate(138.2773, 29.3782) scale(0.0040, -0.0040)" d="M0 0c0 30 25 55 55 55s55 -25 55 -55s-25 -55 -55 -55s-55 25 -55 55z" fill="currentColor"/>
<text transform="translate(135.9409, 36.2520)" font-family="Century Schoolbook L" font-size="2.4695" text-anchor="start" fill="currentColor">
<tspan>
死</tspan>
</text>
<path transform="translate(136.5213, 29.8782) scale(0.0040, -0.0040)" d="M214 140c59 0 115 -32 115 -97c0 -72 -54 -121 -101 -149c-35 -21 -74 -34 -114 -34c-59 0 -114 32 -114 97c0 72 54 121 101 149c35 21 73 34 113 34z" fill="currentColor"/>
<text transform="translate(136.5213, 25.3782)" font-family="sans-serif" font-size="1.9603" text-anchor="start" fill="currentColor">
<tspan>
A</tspan>
</text>
<text transform="translate(137.8443, 25.3782)" font-family="sans-serif" font-size="1.9603" text-anchor="start" fill="currentColor">
<tspan/>
</text>
<text transform="translate(137.8443, 25.3782)" font-family="sans-serif" font-size="1.9603" text-anchor="start" fill="currentColor">
<tspan/>
</text>
<text transform="translate(137.8443, 24.4873)" font-family="sans-serif" font-size="1.3858" text-anchor="start" fill="currentColor">
<tspan/>
</text>
<text transform="translate(137.8443, 24.4873)" font-family="sans-serif" font-size="1.3858" text-anchor="start" fill="currentColor">
<tspan>
7</tspan>
</text>
<rect transform="translate(132.1273, 28.8782)" x="-0.0757" y="-2.0000" width="0.1514" height="3.3269" ry="0.0500" fill="currentColor"/>
<text transform="translate(130.3080, 36.2520)" font-family="Century Schoolbook L" font-size="2.4695" text-anchor="start" fill="currentColor">
<tspan>
脫</tspan>
</text>
<path transform="translate(130.8884, 30.3782) scale(0.0040, -0.0040)" d="M214 140c59 0 115 -32 115 -97c0 -72 -54 -121 -101 -149c-35 -21 -74 -34 -114 -34c-59 0 -114 32 -114 97c0 72 54 121 101 149c35 21 73 34 113 34z" fill="currentColor"/>
<text transform="translate(45.2586, 36.2520)" font-family="Century Schoolbook L" font-size="2.4695" text-anchor="start" fill="currentColor">
<tspan>
親</tspan>
</text>
<path transform="translate(45.8390, 29.3782) scale(0.0040, -0.0040)" d="M214 140c59 0 115 -32 115 -97c0 -72 -54 -121 -101 -149c-35 -21 -74 -34 -114 -34c-59 0 -114 32 -114 97c0 72 54 121 101 149c35 21 73 34 113 34z" fill="currentColor"/>
<path transform="translate(9.8338, 29.8782) scale(0.0040, -0.0040)" d="M379 264c3 0 7 1 10 1c157 0 258 -129 258 -263c0 -77 -33 -155 -108 -211c-22 -16 -46 -29 -72 -37c3 -33 4 -66 4 -99c0 -21 0 -41 -1 -62c-7 -121 -91 -229 -211 -229c-108 0 -196 88 -196 197c0 58 54 103 113 103c54 0 95 -47 95 -103c0 -52 -43 -95 -95 -95
c-9 0 -18 1 -27 4c25 -37 66 -61 113 -61c95 0 156 93 162 191c1 19 2 38 2 57c0 29 -1 58 -3 87c-29 -5 -58 -8 -88 -8c-189 0 -333 173 -333 376c0 177 129 308 244 443c-20 62 -40 124 -48 189c-7 52 -7 105 -7 158c0 114 54 221 147 288c4 3 8 4 12 4c5 0 9 -2 13 -5
c72 -83 135 -243 135 -356c0 -142 -84 -255 -176 -364c21 -68 40 -136 57 -205zM463 -201c65 24 110 94 110 161c0 88 -64 175 -167 188c24 -114 44 -227 57 -349zM77 25c0 -133 128 -243 261 -243c27 0 55 1 81 5c-13 126 -35 244 -60 362c-79 -8 -124 -60 -124 -118
c0 -43 25 -88 80 -120c5 -5 7 -11 7 -17c0 -12 -10 -23 -23 -23c-3 0 -7 1 -10 2c-81 43 -118 115 -118 186c0 89 60 177 163 200c-14 57 -30 113 -47 169c-105 -122 -210 -243 -210 -403zM403 1038c-99 -46 -161 -145 -161 -254c0 -71 21 -130 39 -188
c78 97 142 199 142 324c0 51 -4 72 -20 118z" fill="currentColor"/>
<rect transform="translate(41.4451, 28.8782)" x="-0.0757" y="-2.5000" width="0.1514" height="3.3269" ry="0.0500" fill="currentColor"/>
<text transform="translate(38.3880, 36.2520)" font-family="Century Schoolbook L" font-size="2.4695" text-anchor="start" fill="currentColor">
<tspan>
子、</tspan>
</text>
<path transform="translate(40.2061, 29.8782) scale(0.0040, -0.0040)" d="M214 140c59 0 115 -32 115 -97c0 -72 -54 -121 -101 -149c-35 -21 -74 -34 -114 -34c-59 0 -114 32 -114 97c0 72 54 121 101 149c35 21 73 34 113 34z" fill="currentColor"/>
<text transform="translate(40.2061, 25.3782)" font-family="sans-serif" font-size="1.9603" text-anchor="start" fill="currentColor">
<tspan>
C</tspan>
</text>
<text transform="translate(41.5718, 25.3782)" font-family="sans-serif" font-size="1.9603" text-anchor="start" fill="currentColor">
<tspan/>
</text>
<text transform="translate(41.5718, 25.3782)" font-family="sans-serif" font-size="1.9603" text-anchor="start" fill="currentColor">
<tspan/>
</text>
<text transform="translate(41.5718, 24.4873)" font-family="sans-serif" font-size="1.3858" text-anchor="start" fill="currentColor">
<tspan/>
</text>
<path transform="translate(20.0477, 32.3782) scale(0.0040, -0.0040)" d="M214 140c59 0 115 -32 115 -97c0 -72 -54 -121 -101 -149c-35 -21 -74 -34 -114 -34c-59 0 -114 32 -114 97c0 72 54 121 101 149c35 21 73 34 113 34z" fill="currentColor"/>
<rect transform="translate(35.8122, 28.8782)" x="-0.0757" y="-2.0000" width="0.1514" height="3.3269" ry="0.0500" fill="currentColor"/>
<text transform="translate(33.9929, 36.2520)" font-family="Century Schoolbook L" font-size="2.4695" text-anchor="start" fill="currentColor">
<tspan>
兒</tspan>
</text>
<path transform="translate(34.5732, 30.3782) scale(0.0040, -0.0040)" d="M214 140c59 0 115 -32 115 -97c0 -72 -54 -121 -101 -149c-35 -21 -74 -34 -114 -34c-59 0 -114 32 -114 97c0 72 54 121 101 149c35 21 73 34 113 34z" fill="currentColor"/>
<rect transform="translate(53.2990, 28.8782)" x="-0.0757" y="0.1731" width="0.1514" height="3.1602" ry="0.0500" fill="currentColor"/>
<path transform="translate(54.9794, 28.3782) scale(0.0040, -0.0040)" d="M0 0c0 30 25 55 55 55s55 -25 55 -55s-25 -55 -55 -55s-55 25 -55 55z" fill="currentColor"/>
<text transform="translate(52.6430, 36.2520)" font-family="Century Schoolbook L" font-size="2.4695" text-anchor="start" fill="currentColor">
<tspan>
愛</tspan>
</text>
<path transform="translate(53.2233, 28.8782) scale(0.0040, -0.0040)" d="M214 140c59 0 115 -32 115 -97c0 -72 -54 -121 -101 -149c-35 -21 -74 -34 -114 -34c-59 0 -114 32 -114 97c0 72 54 121 101 149c35 21 73 34 113 34z" fill="currentColor"/>
<text transform="translate(53.2233, 25.3782)" font-family="sans-serif" font-size="1.9603" text-anchor="start" fill="currentColor">
<tspan>
G</tspan>
</text>
<text transform="translate(54.7598, 25.3782)" font-family="sans-serif" font-size="1.9603" text-anchor="start" fill="currentColor">
<tspan/>
</text>
<text transform="translate(54.7598, 25.3782)" font-family="sans-serif" font-size="1.9603" text-anchor="start" fill="currentColor">
<tspan/>
</text>
<text transform="translate(54.7598, 24.4873)" font-family="sans-serif" font-size="1.3858" text-anchor="start" fill="currentColor">
<tspan/>
</text>
<rect transform="translate(47.0779, 28.8782)" x="-0.0757" y="-3.0000" width="0.1514" height="3.3269" ry="0.0500" fill="currentColor"/>
<rect transform="translate(30.1793, 28.8782)" x="-0.0757" y="-2.0000" width="0.1514" height="3.3269" ry="0.0500" fill="currentColor"/>
<text transform="translate(28.3600, 36.2520)" font-family="Century Schoolbook L" font-size="2.4695" text-anchor="start" fill="currentColor">
<tspan>
的</tspan>
</text>
<path transform="translate(28.9404, 30.3782) scale(0.0040, -0.0040)" d="M214 140c59 0 115 -32 115 -97c0 -72 -54 -121 -101 -149c-35 -21 -74 -34 -114 -34c-59 0 -114 32 -114 97c0 72 54 121 101 149c35 21 73 34 113 34z" fill="currentColor"/>
<text transform="translate(20.0477, 25.3782)" font-family="sans-serif" font-size="1.9603" text-anchor="start" fill="currentColor">
<tspan>
G</tspan>
</text>
<text transform="translate(21.5842, 25.3782)" font-family="sans-serif" font-size="1.9603" text-anchor="start" fill="currentColor">
<tspan/>
</text>
<text transform="translate(21.5842, 25.3782)" font-family="sans-serif" font-size="1.9603" text-anchor="start" fill="currentColor">
<tspan/>
</text>
<text transform="translate(21.5842, 24.4873)" font-family="sans-serif" font-size="1.3858" text-anchor="start" fill="currentColor">
<tspan/>
</text>
<path transform="translate(69.5004, 31.3782) scale(0.0040, -0.0040)" d="M214 140c59 0 115 -32 115 -97c0 -72 -54 -121 -101 -149c-35 -21 -74 -34 -114 -34c-59 0 -114 32 -114 97c0 72 54 121 101 149c35 21 73 34 113 34z" fill="currentColor"/>
<text transform="translate(69.5004, 36.2520)" font-family="Century Schoolbook L" font-size="2.4695" text-anchor="start" fill="currentColor">
<tspan>
你</tspan>
</text>
<rect transform="translate(70.7393, 28.8782)" x="-0.0757" y="-1.1942" width="0.1514" height="3.5211" ry="0.0500" fill="currentColor"/>
<text transform="translate(17.1698, 36.2520)" font-family="Century Schoolbook L" font-weight="bold" font-size="2.1999" text-anchor="start" fill="currentColor">
<tspan>
1.</tspan>
</text>
<path transform="translate(73.2241, 30.3782) scale(0.0040, -0.0040)" d="M214 140c59 0 115 -32 115 -97c0 -72 -54 -121 -101 -149c-35 -21 -74 -34 -114 -34c-59 0 -114 32 -114 97c0 72 54 121 101 149c35 21 73 34 113 34z" fill="currentColor"/>
<rect transform="translate(74.4631, 28.8782)" x="-0.0757" y="-1.8058" width="0.1514" height="3.1326" ry="0.0500" fill="currentColor"/>
<text transform="translate(78.4164, 25.3782)" font-family="sans-serif" font-size="1.9603" text-anchor="start" fill="currentColor">
<tspan>
A</tspan>
</text>
<text transform="translate(79.7394, 25.3782)" font-family="sans-serif" font-size="1.9603" text-anchor="start" fill="currentColor">
<tspan/>
</text>
<text transform="translate(79.7394, 25.3782)" font-family="sans-serif" font-size="1.9603" text-anchor="start" fill="currentColor">
<tspan/>
</text>
<text transform="translate(79.7394, 24.4873)" font-family="sans-serif" font-size="1.3858" text-anchor="start" fill="currentColor">
<tspan/>
</text>
<text transform="translate(79.7394, 24.4873)" font-family="sans-serif" font-size="1.3858" text-anchor="start" fill="currentColor">
<tspan>
7</tspan>
</text>
<path transform="translate(78.4164, 29.8782) scale(0.0040, -0.0040)" d="M214 140c59 0 115 -32 115 -97c0 -72 -54 -121 -101 -149c-35 -21 -74 -34 -114 -34c-59 0 -114 32 -114 97c0 72 54 121 101 149c35 21 73 34 113 34z" fill="currentColor"/>
<rect transform="translate(79.6553, 28.8782)" x="-0.0757" y="-2.5000" width="0.1514" height="3.3269" ry="0.0500" fill="currentColor"/>
<text transform="translate(77.8360, 36.2520)" font-family="Century Schoolbook L" font-size="2.4695" text-anchor="start" fill="currentColor">
<tspan>
曾</tspan>
</text>
<path transform="translate(13.4743, 28.8782) scale(0.0040, -0.0040)" d="M31 37l-2 -62v-11c0 -22 2 -43 5 -64c43 38 89 80 89 137c0 32 -14 65 -42 65c-31 0 -49 -32 -50 -65zM-16 -140l-14 590c9 5 20 8 30 8s21 -3 30 -8l-8 -340c25 24 59 38 94 38c50 0 84 -50 84 -104c0 -78 -83 -117 -141 -169c-17 -15 -25 -44 -49 -44
c-15 0 -26 13 -26 29z" fill="currentColor"/>
<path transform="translate(14.4148, 27.3782) scale(0.0040, -0.0040)" d="M31 37l-2 -62v-11c0 -22 2 -43 5 -64c43 38 89 80 89 137c0 32 -14 65 -42 65c-31 0 -49 -32 -50 -65zM-16 -140l-14 590c9 5 20 8 30 8s21 -3 30 -8l-8 -340c25 24 59 38 94 38c50 0 84 -50 84 -104c0 -78 -83 -117 -141 -169c-17 -15 -25 -44 -49 -44
c-15 0 -26 13 -26 29z" fill="currentColor"/>
<path transform="translate(59.9544, 30.3782) scale(0.0040, -0.0040)" d="M214 140c59 0 115 -32 115 -97c0 -72 -54 -121 -101 -149c-35 -21 -74 -34 -114 -34c-59 0 -114 32 -114 97c0 72 54 121 101 149c35 21 73 34 113 34z" fill="currentColor"/>
<text transform="translate(59.3740, 36.2520)" font-family="Century Schoolbook L" font-size="2.4695" text-anchor="start" fill="currentColor">
<tspan>
救</tspan>
</text>
<rect transform="translate(61.1934, 28.8782)" x="-0.0757" y="-2.0000" width="0.1514" height="3.3269" ry="0.0500" fill="currentColor"/>
<path transform="translate(61.2690, 26.9282) scale(0.0040, -0.0040)" d="M0 0c0 -197 209 -334 209 -531c0 -71 -15 -140 -41 -206c-5 -9 -14 -13 -22 -13c-14 0 -29 12 -26 30c27 60 43 124 43 189c0 102 -93 206 -163 281h-19v250h19z" fill="currentColor"/>
<path transform="translate(16.3648, 28.8782) scale(0.0040, -0.0040)" d="M356 30c-48 0 -72 40 -72 72c0 37 26 75 70 75c3 0 6 -1 9 -1c-26 36 -67 59 -113 59c-107 0 -113 -74 -113 -189c0 -15 1 -30 1 -46s-1 -31 -1 -46c0 -115 6 -189 113 -189c78 0 133 70 151 149c2 8 8 11 14 11c7 0 15 -5 15 -14c0 -95 -103 -176 -180 -176
c-68 0 -137 20 -184 70c-49 52 -66 124 -66 195s17 143 66 195c47 50 116 70 184 70c86 0 156 -67 171 -153c1 -4 1 -9 1 -13c0 -38 -30 -69 -66 -69z" fill="currentColor"/>
<text transform="translate(20.0477, 36.2520)" font-family="Century Schoolbook L" font-size="2.4695" text-anchor="start" fill="currentColor">
<tspan>
神</tspan>
</text>
<rect transform="translate(65.3564, 28.8782)" x="-0.0757" y="-2.0000" width="0.1514" height="3.3269" ry="0.0500" fill="currentColor"/>
<text transform="translate(62.2994, 36.2520)" font-family="Century Schoolbook L" font-size="2.4695" text-anchor="start" fill="currentColor">
<tspan>
主，</tspan>
</text>
<path transform="translate(64.1175, 30.3782) scale(0.0040, -0.0040)" d="M214 140c59 0 115 -32 115 -97c0 -72 -54 -121 -101 -149c-35 -21 -74 -34 -114 -34c-59 0 -114 32 -114 97c0 72 54 121 101 149c35 21 73 34 113 34z" fill="currentColor"/>
<rect transform="translate(125.8879, 42.8806)" x="0.0000" y="-2.0000" width="0.2212" height="4.0000" ry="0.0000" fill="currentColor"/>
<rect transform="translate(27.8175, 42.8806)" x="0.0000" y="-2.0000" width="0.2212" height="4.0000" ry="0.0000" fill="currentColor"/>
<rect transform="translate(146.5516, 42.8806)" x="0.0000" y="-2.0000" width="0.6986" height="4.0000" ry="0.0000" fill="currentColor"/>
<rect transform="translate(145.9811, 42.8806)" x="0.0000" y="-2.0000" width="0.2212" height="4.0000" ry="0.0000" fill="currentColor"/>
<rect transform="translate(94.2522, 42.8806)" x="0.0000" y="-2.0000" width="0.2212" height="4.0000" ry="0.0000" fill="currentColor"/>
<rect transform="translate(109.6832, 42.8806)" x="0.0000" y="-2.0000" width="0.2212" height="4.0000" ry="0.0000" fill="currentColor"/>
<rect transform="translate(76.9027, 42.8806)" x="0.0000" y="-2.0000" width="0.2212" height="4.0000" ry="0.0000" fill="currentColor"/>
<rect transform="translate(136.4738, 42.8806)" x="0.0000" y="-2.0000" width="0.2212" height="4.0000" ry="0.0000" fill="currentColor"/>
<rect transform="translate(43.5993, 42.8806)" x="0.0000" y="-2.0000" width="0.2212" height="4.0000" ry="0.0000" fill="currentColor"/>
<line transform="translate(9.0337, 44.8806)" stroke-linejoin="round" stroke-linecap="round" stroke-width="0.1164" stroke="currentColor" x1="0.0582" y1="-0.0000" x2="138.1582" y2="-0.0000"/>
<line transform="translate(9.0337, 43.8806)" stroke-linejoin="round" stroke-linecap="round" stroke-width="0.1164" stroke="currentColor" x1="0.0582" y1="-0.0000" x2="138.1582" y2="-0.0000"/>
<line transform="translate(9.0337, 42.8806)" stroke-linejoin="round" stroke-linecap="round" stroke-width="0.1164" stroke="currentColor" x1="0.0582" y1="-0.0000" x2="138.1582" y2="-0.0000"/>
<line transform="translate(9.0337, 41.8806)" stroke-linejoin="round" stroke-linecap="round" stroke-width="0.1164" stroke="currentColor" x1="0.0582" y1="-0.0000" x2="138.1582" y2="-0.0000"/>
<line transform="translate(9.0337, 40.8806)" stroke-linejoin="round" stroke-linecap="round" stroke-width="0.1164" stroke="currentColor" x1="0.0582" y1="-0.0000" x2="138.1582" y2="-0.0000"/>
<rect transform="translate(9.0337, 45.8806)" x="19.5389" y="-0.1082" width="1.9719" height="0.2164" ry="0.1082" fill="currentColor"/>
<rect transform="translate(9.0337, 45.8806)" x="53.0814" y="-0.1082" width="1.9719" height="0.2164" ry="0.1082" fill="currentColor"/>
<rect transform="translate(9.0337, 45.8806)" x="105.5676" y="-0.1082" width="1.9719" height="0.2164" ry="0.1082" fill="currentColor"/>
<rect transform="translate(9.0337, 45.8806)" x="122.2501" y="-0.1082" width="2.0978" height="0.2164" ry="0.1082" fill="currentColor"/>
<rect transform="translate(9.0337, 45.8806)" x="128.1742" y="-0.1082" width="2.0978" height="0.2164" ry="0.1082" fill="currentColor"/>
<rect transform="translate(61.3600, 42.8806)" x="0.0000" y="-2.0000" width="0.2212" height="4.0000" ry="0.0000" fill="currentColor"/>
<path transform="translate(69.9239, 43.8806) scale(0.0040, -0.0040)" d="M214 140c59 0 115 -32 115 -97c0 -72 -54 -121 -101 -149c-35 -21 -74 -34 -114 -34c-59 0 -114 32 -114 97c0 72 54 121 101 149c35 21 73 34 113 34z" fill="currentColor"/>
<text transform="translate(69.3435, 49.5305)" font-family="Century Schoolbook L" font-size="2.4695" text-anchor="start" fill="currentColor">
<tspan>
戴</tspan>
</text>
<rect transform="translate(71.1629, 42.8806)" x="-0.0757" y="-2.5000" width="0.1514" height="3.3269" ry="0.0500" fill="currentColor"/>
<rect transform="translate(67.4228, 42.8806)" x="-0.0757" y="-1.5000" width="0.1514" height="3.3269" ry="0.0500" fill="currentColor"/>
<text transform="translate(65.6035, 49.5305)" font-family="Century Schoolbook L" font-size="2.4695" text-anchor="start" fill="currentColor">
<tspan>
你</tspan>
</text>
<path transform="translate(66.1838, 44.8806) scale(0.0040, -0.0040)" d="M214 140c59 0 115 -32 115 -97c0 -72 -54 -121 -101 -149c-35 -21 -74 -34 -114 -34c-59 0 -114 32 -114 97c0 72 54 121 101 149c35 21 73 34 113 34z" fill="currentColor"/>
<rect transform="translate(78.2190, 42.8806)" x="-0.0757" y="-0.8269" width="0.1514" height="3.3269" ry="0.0500" fill="currentColor"/>
<path transform="translate(79.8994, 41.3806) scale(0.0040, -0.0040)" d="M0 0c0 30 25 55 55 55s55 -25 55 -55s-25 -55 -55 -55s-55 25 -55 55z" fill="currentColor"/>
<text transform="translate(77.5630, 49.5305)" font-family="Century Schoolbook L" font-size="2.4695" text-anchor="start" fill="currentColor">
<tspan>
耀</tspan>
</text>
<path transform="translate(78.1434, 41.8806) scale(0.0040, -0.0040)" d="M214 140c59 0 115 -32 115 -97c0 -72 -54 -121 -101 -149c-35 -21 -74 -34 -114 -34c-59 0 -114 32 -114 97c0 72 54 121 101 149c35 21 73 34 113 34z" fill="currentColor"/>
<text transform="translate(78.1434, 39.3380)" font-family="sans-serif" font-size="1.9603" text-anchor="start" fill="currentColor">
<tspan>
D</tspan>
</text>
<text transform="translate(79.6371, 39.3380)" font-family="sans-serif" font-size="1.9603" text-anchor="start" fill="currentColor">
<tspan/>
</text>
<text transform="translate(79.6371, 39.3380)" font-family="sans-serif" font-size="1.9603" text-anchor="start" fill="currentColor">
<tspan/>
</text>
<text transform="translate(79.6371, 38.4471)" font-family="sans-serif" font-size="1.3858" text-anchor="start" fill="currentColor">
<tspan/>
</text>
<text transform="translate(79.6371, 38.4471)" font-family="sans-serif" font-size="1.3858" text-anchor="start" fill="currentColor">
<tspan>
7</tspan>
</text>
<rect transform="translate(73.6545, 42.8806)" x="-0.0757" y="-0.3269" width="0.1514" height="3.3269" ry="0.0500" fill="currentColor"/>
<text transform="translate(72.9984, 49.5305)" font-family="Century Schoolbook L" font-size="2.4695" text-anchor="start" fill="currentColor">
<tspan>
榮</tspan>
</text>
<path transform="translate(73.5788, 42.3806) scale(0.0040, -0.0040)" d="M214 140c59 0 115 -32 115 -97c0 -72 -54 -121 -101 -149c-35 -21 -74 -34 -114 -34c-59 0 -114 32 -114 97c0 72 54 121 101 149c35 21 73 34 113 34z" fill="currentColor"/>
<text transform="translate(51.1545, 49.5305)" font-family="Century Schoolbook L" font-size="2.4695" text-anchor="start" fill="currentColor">
<tspan>
見：</tspan>
</text>
<path transform="translate(52.9726, 43.8806) scale(0.0040, -0.0040)" d="M214 140c59 0 115 -32 115 -97c0 -72 -54 -121 -101 -149c-35 -21 -74 -34 -114 -34c-59 0 -114 32 -114 97c0 72 54 121 101 149c35 21 73 34 113 34z" fill="currentColor"/>
<path transform="translate(50.1241, 40.4306) scale(0.0040, -0.0040)" d="M0 0c0 -197 209 -334 209 -531c0 -71 -15 -140 -41 -206c-5 -9 -14 -13 -22 -13c-14 0 -29 12 -26 30c27 60 43 124 43 189c0 102 -93 206 -163 281h-19v250h19z" fill="currentColor"/>
<rect transform="translate(50.0484, 42.8806)" x="-0.0757" y="-2.5000" width="0.1514" height="3.3269" ry="0.0500" fill="currentColor"/>
<text transform="translate(48.2291, 49.5305)" font-family="Century Schoolbook L" font-size="2.4695" text-anchor="start" fill="currentColor">
<tspan>
看</tspan>
</text>
<path transform="translate(48.8095, 43.8806) scale(0.0040, -0.0040)" d="M214 140c59 0 115 -32 115 -97c0 -72 -54 -121 -101 -149c-35 -21 -74 -34 -114 -34c-59 0 -114 32 -114 97c0 72 54 121 101 149c35 21 73 34 113 34z" fill="currentColor"/>
<rect transform="translate(45.9220, 42.8806)" x="-0.0757" y="-3.0000" width="0.1514" height="3.3269" ry="0.0500" fill="currentColor"/>
<path transform="translate(46.4392, 43.3806) scale(0.0040, -0.0040)" d="M0 0c0 30 25 55 55 55s55 -25 55 -55s-25 -55 -55 -55s-55 25 -55 55z" fill="currentColor"/>
<rect transform="translate(63.6827, 42.8806)" x="-0.0757" y="-0.5000" width="0.1514" height="3.3269" ry="0.0500" fill="currentColor"/>
<text transform="translate(61.8634, 49.5305)" font-family="Century Schoolbook L" font-size="2.4695" text-anchor="start" fill="currentColor">
<tspan>
今</tspan>
</text>
<path transform="translate(62.4438, 45.8806) scale(0.0040, -0.0040)" d="M214 140c59 0 115 -32 115 -97c0 -72 -54 -121 -101 -149c-35 -21 -74 -34 -114 -34c-59 0 -114 32 -114 97c0 72 54 121 101 149c35 21 73 34 113 34z" fill="currentColor"/>
<text transform="translate(62.4438, 39.3380)" font-family="sans-serif" font-size="1.9603" text-anchor="start" fill="currentColor">
<tspan>
A</tspan>
</text>
<text transform="translate(63.7668, 39.3380)" font-family="sans-serif" font-size="1.9603" text-anchor="start" fill="currentColor">
<tspan/>
</text>
<text transform="translate(63.7668, 39.3380)" font-family="sans-serif" font-size="1.9603" text-anchor="start" fill="currentColor">
<tspan>
m</tspan>
</text>
<text transform="translate(65.6447, 38.4471)" font-family="sans-serif" font-size="1.3858" text-anchor="start" fill="currentColor">
<tspan/>
</text>
<rect transform="translate(59.9465, 42.8806)" x="-0.0757" y="-1.2027" width="0.1514" height="3.0295" ry="0.0500" fill="currentColor"/>
<path transform="translate(58.7076, 44.8806) scale(0.0040, -0.0040)" d="M214 140c59 0 115 -32 115 -97c0 -72 -54 -121 -101 -149c-35 -21 -74 -34 -114 -34c-59 0 -114 32 -114 97c0 72 54 121 101 149c35 21 73 34 113 34z" fill="currentColor"/>
<rect transform="translate(57.7942, 42.8806)" x="-0.0757" y="-1.7973" width="0.1514" height="2.6242" ry="0.0500" fill="currentColor"/>
<text transform="translate(56.5553, 49.5305)" font-family="Century Schoolbook L" font-size="2.4695" text-anchor="start" fill="currentColor">
<tspan>
現</tspan>
</text>
<path transform="translate(56.5553, 43.8806) scale(0.0040, -0.0040)" d="M214 140c59 0 115 -32 115 -97c0 -72 -54 -121 -101 -149c-35 -21 -74 -34 -114 -34c-59 0 -114 32 -114 97c0 72 54 121 101 149c35 21 73 34 113 34z" fill="currentColor"/>
<rect transform="translate(54.2115, 42.8806)" x="-0.0757" y="-2.5000" width="0.1514" height="3.3269" ry="0.0500" fill="currentColor"/>
<rect transform="translate(112.0059, 42.8806)" x="-0.0757" y="-2.0000" width="0.1514" height="3.3269" ry="0.0500" fill="currentColor"/>
<text transform="translate(108.9489, 49.5305)" font-family="Century Schoolbook L" font-size="2.4695" text-anchor="start" fill="currentColor">
<tspan>
位。</tspan>
</text>
<path transform="translate(110.7670, 44.3806) scale(0.0040, -0.0040)" d="M214 140c59 0 115 -32 115 -97c0 -72 -54 -121 -101 -149c-35 -21 -74 -34 -114 -34c-59 0 -114 32 -114 97c0 72 54 121 101 149c35 21 73 34 113 34z" fill="currentColor"/>
<text transform="translate(110.7670, 39.3380)" font-family="sans-serif" font-size="1.9603" text-anchor="start" fill="currentColor">
<tspan>
G</tspan>
</text>
<text transform="translate(112.3034, 39.3380)" font-family="sans-serif" font-size="1.9603" text-anchor="start" fill="currentColor">
<tspan/>
</text>
<text transform="translate(112.3034, 39.3380)" font-family="sans-serif" font-size="1.9603" text-anchor="start" fill="currentColor">
<tspan/>
</text>
<text transform="translate(112.3034, 38.4471)" font-family="sans-serif" font-size="1.3858" text-anchor="start" fill="currentColor">
<tspan/>
</text>
<rect transform="translate(107.2301, 42.8806)" x="-0.0757" y="-2.5000" width="0.1514" height="3.3269" ry="0.0500" fill="currentColor"/>
<text transform="translate(105.4108, 49.5305)" font-family="Century Schoolbook L" font-size="2.4695" text-anchor="start" fill="currentColor">
<tspan>
座</tspan>
</text>
<path transform="translate(105.9912, 43.8806) scale(0.0040, -0.0040)" d="M214 140c59 0 115 -32 115 -97c0 -72 -54 -121 -101 -149c-35 -21 -74 -34 -114 -34c-59 0 -114 32 -114 97c0 72 54 121 101 149c35 21 73 34 113 34z" fill="currentColor"/>
<rect transform="translate(103.7400, 42.8806)" x="-0.0757" y="-3.0000" width="0.1514" height="3.3269" ry="0.0500" fill="currentColor"/>
<text transform="translate(101.9207, 49.5305)" font-family="Century Schoolbook L" font-size="2.4695" text-anchor="start" fill="currentColor">
<tspan>
上</tspan>
</text>
<polygon transform="translate(24.1761, 41.0624)" stroke-linejoin="round" stroke-linecap="round" stroke-width="0.1000" fill="currentColor" stroke="currentColor" points="2.2537 0.4464 2.2537 0.8264 0.0500 0.1900 0.0500 -0.1900"/>
<path transform="translate(23.0128, 42.8806)" stroke-width="0.0931" stroke-linejoin="round" stroke-linecap="round" stroke="currentColor" fill="currentColor" d="M0.4727 2.5586C0.7921 3.3962 1.7789 3.8547 2.6250 3.5586L2.6250 3.5586C1.8377 3.7280 0.8509 3.2695 0.4727 2.5586z"/>
<polygon transform="translate(57.7185, 41.0624)" stroke-linejoin="round" stroke-linecap="round" stroke-width="0.1000" fill="currentColor" stroke="currentColor" points="2.2537 0.4464 2.2537 0.8264 0.0500 0.1900 0.0500 -0.1900"/>
<path transform="translate(56.5553, 42.8806)" stroke-width="0.0931" stroke-linejoin="round" stroke-linecap="round" stroke="currentColor" fill="currentColor" d="M0.4964 2.2086C0.8563 3.0097 1.8385 3.3975 2.6487 3.0586L2.6487 3.0586C1.8898 3.2676 0.9077 2.8797 0.4964 2.2086z"/>
<text transform="translate(95.4357, 39.3380)" font-family="sans-serif" font-size="1.9603" text-anchor="start" fill="currentColor">
<tspan>
G</tspan>
</text>
<text transform="translate(96.9722, 39.3380)" font-family="sans-serif" font-size="1.9603" text-anchor="start" fill="currentColor">
<tspan/>
</text>
<text transform="translate(96.9722, 39.3380)" font-family="sans-serif" font-size="1.9603" text-anchor="start" fill="currentColor">
<tspan/>
</text>
<text transform="translate(96.9722, 38.4471)" font-family="sans-serif" font-size="1.3858" text-anchor="start" fill="currentColor">
<tspan/>
</text>
<rect transform="translate(91.8348, 42.8806)" x="-0.0757" y="-3.0000" width="0.1514" height="3.3269" ry="0.0500" fill="currentColor"/>
<text transform="translate(90.0155, 49.5305)" font-family="Century Schoolbook L" font-size="2.4695" text-anchor="start" fill="currentColor">
<tspan>
並</tspan>
</text>
<path transform="translate(90.5959, 43.3806) scale(0.0040, -0.0040)" d="M214 140c59 0 115 -32 115 -97c0 -72 -54 -121 -101 -149c-35 -21 -74 -34 -114 -34c-59 0 -114 32 -114 97c0 72 54 121 101 149c35 21 73 34 113 34z" fill="currentColor"/>
<rect transform="translate(86.5085, 42.8806)" x="-0.0757" y="-0.3269" width="0.1514" height="3.3269" ry="0.0500" fill="currentColor"/>
<text transform="translate(84.6147, 49.5305)" font-family="Century Schoolbook L" font-size="2.4695" text-anchor="start" fill="currentColor">
<tspan>
冕，</tspan>
</text>
<path transform="translate(86.4328, 42.3806) scale(0.0040, -0.0040)" d="M214 140c59 0 115 -32 115 -97c0 -72 -54 -121 -101 -149c-35 -21 -74 -34 -114 -34c-59 0 -114 32 -114 97c0 72 54 121 101 149c35 21 73 34 113 34z" fill="currentColor"/>
<path transform="translate(82.4211, 45.8306) scale(0.0040, -0.0040)" d="M0 0h-19v250h19c96 59 223 149 223 259c0 56 -15 111 -41 161c-3 18 11 30 25 30c8 0 17 -4 22 -13c25 -56 41 -116 41 -178c0 -204 -270 -305 -270 -509z" fill="currentColor"/>
<rect transform="translate(82.3454, 42.8806)" x="-0.0757" y="-0.3269" width="0.1514" height="3.3269" ry="0.0500" fill="currentColor"/>
<text transform="translate(81.6894, 49.5305)" font-family="Century Schoolbook L" font-size="2.4695" text-anchor="start" fill="currentColor">
<tspan>
冠</tspan>
</text>
<path transform="translate(82.2697, 42.3806) scale(0.0040, -0.0040)" d="M214 140c59 0 115 -32 115 -97c0 -72 -54 -121 -101 -149c-35 -21 -74 -34 -114 -34c-59 0 -114 32 -114 97c0 72 54 121 101 149c35 21 73 34 113 34z" fill="currentColor"/>
<path transform="translate(102.5011, 43.3806) scale(0.0040, -0.0040)" d="M214 140c59 0 115 -32 115 -97c0 -72 -54 -121 -101 -149c-35 -21 -74 -34 -114 -34c-59 0 -114 32 -114 97c0 72 54 121 101 149c35 21 73 34 113 34z" fill="currentColor"/>
<text transform="translate(102.5011, 39.3380)" font-family="sans-serif" font-size="1.9603" text-anchor="start" fill="currentColor">
<tspan>
C</tspan>
</text>
<text transform="translate(103.8668, 39.3380)" font-family="sans-serif" font-size="1.9603" text-anchor="start" fill="currentColor">
<tspan/>
</text>
<text transform="translate(103.8668, 39.3380)" font-family="sans-serif" font-size="1.9603" text-anchor="start" fill="currentColor">
<tspan/>
</text>
<text transform="translate(103.8668, 38.4471)" font-family="sans-serif" font-size="1.3858" text-anchor="start" fill="currentColor">
<tspan/>
</text>
<rect transform="translate(99.9999, 42.8806)" x="-0.0757" y="-2.0000" width="0.1514" height="3.3269" ry="0.0500" fill="currentColor"/>
<text transform="translate(98.1806, 49.5305)" font-family="Century Schoolbook L" font-size="2.4695" text-anchor="start" fill="currentColor">
<tspan>
天</tspan>
</text>
<path transform="translate(98.7610, 44.3806) scale(0.0040, -0.0040)" d="M214 140c59 0 115 -32 115 -97c0 -72 -54 -121 -101 -149c-35 -21 -74 -34 -114 -34c-59 0 -114 32 -114 97c0 72 54 121 101 149c35 21 73 34 113 34z" fill="currentColor"/>
<rect transform="translate(95.5114, 42.8806)" x="-0.0757" y="0.1731" width="0.1514" height="3.1602" ry="0.0500" fill="currentColor"/>
<text transform="translate(94.8553, 49.5305)" font-family="Century Schoolbook L" font-size="2.4695" text-anchor="start" fill="currentColor">
<tspan>
登</tspan>
</text>
<path transform="translate(95.4357, 42.8806) scale(0.0040, -0.0040)" d="M214 140c59 0 115 -32 115 -97c0 -72 -54 -121 -101 -149c-35 -21 -74 -34 -114 -34c-59 0 -114 32 -114 97c0 72 54 121 101 149c35 21 73 34 113 34z" fill="currentColor"/>
<rect transform="translate(132.9563, 42.8806)" x="-0.0757" y="-0.5000" width="0.1514" height="3.2518" ry="0.0500" fill="currentColor"/>
<text transform="translate(131.0950, 49.5305)" font-family="Century Schoolbook L" font-size="2.4695" text-anchor="start" fill="currentColor">
<tspan>
座</tspan>
</text>
<path transform="translate(131.6335, 45.8806) scale(0.0040, -0.0040)" d="M312 63c0 23 -20 40 -41 40c-4 0 -7 -1 -11 -2c-30 -8 -75 -38 -111 -61s-81 -52 -101 -76c-7 -8 -10 -17 -10 -27c0 -23 19 -40 40 -40c4 0 8 1 12 2c30 8 75 38 111 61s81 52 101 76c7 8 10 17 10 27zM258 140c51 0 92 -23 92 -78c0 -19 -4 -38 -10 -56
c-11 -38 -31 -75 -64 -97c-53 -36 -112 -49 -185 -49c-51 0 -91 23 -91 78c0 19 4 38 10 56c11 38 30 75 63 97c53 36 112 49 185 49z" fill="currentColor"/>
<text transform="translate(131.6335, 39.3380)" font-family="sans-serif" font-size="1.9603" text-anchor="start" fill="currentColor">
<tspan>
D</tspan>
</text>
<text transform="translate(133.1272, 39.3380)" font-family="sans-serif" font-size="1.9603" text-anchor="start" fill="currentColor">
<tspan/>
</text>
<text transform="translate(133.1272, 39.3380)" font-family="sans-serif" font-size="1.9603" text-anchor="start" fill="currentColor">
<tspan/>
</text>
<text transform="translate(133.1272, 38.4471)" font-family="sans-serif" font-size="1.3858" text-anchor="start" fill="currentColor">
<tspan/>
</text>
<text transform="translate(133.1272, 38.4471)" font-family="sans-serif" font-size="1.3858" text-anchor="start" fill="currentColor">
<tspan>
7</tspan>
</text>
<rect transform="translate(128.2946, 42.8806)" x="-0.0757" y="-1.0000" width="0.1514" height="3.2518" ry="0.0500" fill="currentColor"/>
<text transform="translate(126.4333, 49.5305)" font-family="Century Schoolbook L" font-size="2.4695" text-anchor="start" fill="currentColor">
<tspan>
上</tspan>
</text>
<path transform="translate(126.9717, 45.3806) scale(0.0040, -0.0040)" d="M312 63c0 23 -20 40 -41 40c-4 0 -7 -1 -11 -2c-30 -8 -75 -38 -111 -61s-81 -52 -101 -76c-7 -8 -10 -17 -10 -27c0 -23 19 -40 40 -40c4 0 8 1 12 2c30 8 75 38 111 61s81 52 101 76c7 8 10 17 10 27zM258 140c51 0 92 -23 92 -78c0 -19 -4 -38 -10 -56
c-11 -38 -31 -75 -64 -97c-53 -36 -112 -49 -185 -49c-51 0 -91 23 -91 78c0 19 4 38 10 56c11 38 30 75 63 97c53 36 112 49 185 49z" fill="currentColor"/>
<text transform="translate(126.9717, 39.3380)" font-family="sans-serif" font-size="1.9603" text-anchor="start" fill="currentColor">
<tspan>
G</tspan>
</text>
<text transform="translate(128.5082, 39.3380)" font-family="sans-serif" font-size="1.9603" text-anchor="start" fill="currentColor">
<tspan/>
</text>
<text transform="translate(128.5082, 39.3380)" font-family="sans-serif" font-size="1.9603" text-anchor="start" fill="currentColor">
<tspan/>
</text>
<text transform="translate(128.5082, 38.4471)" font-family="sans-serif" font-size="1.3858" text-anchor="start" fill="currentColor">
<tspan/>
</text>
<path transform="translate(142.8556, 42.8806) scale(0.0040, -0.0040)" d="M-24 -119c0 31 14 43 46 43c30 0 69 -9 106 -23l-126 151c-7 9 -11 17 -11 26c0 34 51 66 88 101c23 22 36 51 36 81c0 25 -9 50 -26 70l-31 37c-3 4 -4 8 -4 12c0 10 9 18 19 18c5 0 9 -1 13 -6l149 -178c7 -9 11 -17 11 -26c0 -34 -52 -66 -89 -101
c-23 -22 -35 -51 -35 -81c0 -25 9 -51 26 -71l79 -94c3 -4 4 -8 4 -12c0 -10 -9 -18 -19 -18c-5 0 -9 2 -13 7c-16 19 -57 33 -89 33c-41 0 -55 -23 -55 -65c0 -33 11 -73 27 -92c6 -7 0 -15 -7 -15c-2 0 -5 2 -7 4c-44 53 -92 145 -92 199z" fill="currentColor"/>
<rect transform="translate(138.8804, 42.8806)" x="-0.0757" y="-0.0000" width="0.1514" height="3.2518" ry="0.0500" fill="currentColor"/>
<path transform="translate(139.3975, 46.3806) scale(0.0040, -0.0040)" d="M0 0c0 30 25 55 55 55s55 -25 55 -55s-25 -55 -55 -55s-55 25 -55 55z" fill="currentColor"/>
<text transform="translate(135.7814, 49.5305)" font-family="Century Schoolbook L" font-size="2.4695" text-anchor="start" fill="currentColor">
<tspan>
位。</tspan>
</text>
<path transform="translate(137.5576, 46.3806) scale(0.0040, -0.0040)" d="M312 63c0 23 -20 40 -41 40c-4 0 -7 -1 -11 -2c-30 -8 -75 -38 -111 -61s-81 -52 -101 -76c-7 -8 -10 -17 -10 -27c0 -23 19 -40 40 -40c4 0 8 1 12 2c30 8 75 38 111 61s81 52 101 76c7 8 10 17 10 27zM258 140c51 0 92 -23 92 -78c0 -19 -4 -38 -10 -56
c-11 -38 -31 -75 -64 -97c-53 -36 -112 -49 -185 -49c-51 0 -91 23 -91 78c0 19 4 38 10 56c11 38 30 75 63 97c53 36 112 49 185 49z" fill="currentColor"/>
<text transform="translate(137.5576, 39.3380)" font-family="sans-serif" font-size="1.9603" text-anchor="start" fill="currentColor">
<tspan>
G</tspan>
</text>
<text transform="translate(139.0940, 39.3380)" font-family="sans-serif" font-size="1.9603" text-anchor="start" fill="currentColor">
<tspan/>
</text>
<text transform="translate(139.0940, 39.3380)" font-family="sans-serif" font-size="1.9603" text-anchor="start" fill="currentColor">
<tspan/>
</text>
<text transform="translate(139.0940, 38.4471)" font-family="sans-serif" font-size="1.3858" text-anchor="start" fill="currentColor">
<tspan/>
</text>
<path transform="translate(13.4743, 42.8806) scale(0.0040, -0.0040)" d="M31 37l-2 -62v-11c0 -22 2 -43 5 -64c43 38 89 80 89 137c0 32 -14 65 -42 65c-31 0 -49 -32 -50 -65zM-16 -140l-14 590c9 5 20 8 30 8s21 -3 30 -8l-8 -340c25 24 59 38 94 38c50 0 84 -50 84 -104c0 -78 -83 -117 -141 -169c-17 -15 -25 -44 -49 -44
c-15 0 -26 13 -26 29z" fill="currentColor"/>
<path transform="translate(14.4148, 41.3806) scale(0.0040, -0.0040)" d="M31 37l-2 -62v-11c0 -22 2 -43 5 -64c43 38 89 80 89 137c0 32 -14 65 -42 65c-31 0 -49 -32 -50 -65zM-16 -140l-14 590c9 5 20 8 30 8s21 -3 30 -8l-8 -340c25 24 59 38 94 38c50 0 84 -50 84 -104c0 -78 -83 -117 -141 -169c-17 -15 -25 -44 -49 -44
c-15 0 -26 13 -26 29z" fill="currentColor"/>
<path transform="translate(9.8338, 43.8806) scale(0.0040, -0.0040)" d="M379 264c3 0 7 1 10 1c157 0 258 -129 258 -263c0 -77 -33 -155 -108 -211c-22 -16 -46 -29 -72 -37c3 -33 4 -66 4 -99c0 -21 0 -41 -1 -62c-7 -121 -91 -229 -211 -229c-108 0 -196 88 -196 197c0 58 54 103 113 103c54 0 95 -47 95 -103c0 -52 -43 -95 -95 -95
c-9 0 -18 1 -27 4c25 -37 66 -61 113 -61c95 0 156 93 162 191c1 19 2 38 2 57c0 29 -1 58 -3 87c-29 -5 -58 -8 -88 -8c-189 0 -333 173 -333 376c0 177 129 308 244 443c-20 62 -40 124 -48 189c-7 52 -7 105 -7 158c0 114 54 221 147 288c4 3 8 4 12 4c5 0 9 -2 13 -5
c72 -83 135 -243 135 -356c0 -142 -84 -255 -176 -364c21 -68 40 -136 57 -205zM463 -201c65 24 110 94 110 161c0 88 -64 175 -167 188c24 -114 44 -227 57 -349zM77 25c0 -133 128 -243 261 -243c27 0 55 1 81 5c-13 126 -35 244 -60 362c-79 -8 -124 -60 -124 -118
c0 -43 25 -88 80 -120c5 -5 7 -11 7 -17c0 -12 -10 -23 -23 -23c-3 0 -7 1 -10 2c-81 43 -118 115 -118 186c0 89 60 177 163 200c-14 57 -30 113 -47 169c-105 -122 -210 -243 -210 -403zM403 1038c-99 -46 -161 -145 -161 -254c0 -71 21 -130 39 -188
c78 97 142 199 142 324c0 51 -4 72 -20 118z" fill="currentColor"/>
<text transform="translate(8.0521, 39.7880)" font-family="Century Schoolbook L" font-size="1.7463" text-anchor="start" fill="currentColor">
<tspan>
6</tspan>
</text>
<rect transform="translate(123.3992, 42.8806)" x="-0.0757" y="-1.5000" width="0.1514" height="3.3269" ry="0.0500" fill="currentColor"/>
<text transform="translate(121.5798, 49.5305)" font-family="Century Schoolbook L" font-size="2.4695" text-anchor="start" fill="currentColor">
<tspan>
天</tspan>
</text>
<path transform="translate(122.1602, 44.8806) scale(0.0040, -0.0040)" d="M214 140c59 0 115 -32 115 -97c0 -72 -54 -121 -101 -149c-35 -21 -74 -34 -114 -34c-59 0 -114 32 -114 97c0 72 54 121 101 149c35 21 73 34 113 34z" fill="currentColor"/>
<rect transform="translate(119.9091, 42.8806)" x="-0.0757" y="-2.0000" width="0.1514" height="3.3269" ry="0.0500" fill="currentColor"/>
<text transform="translate(118.0897, 49.5305)" font-family="Century Schoolbook L" font-size="2.4695" text-anchor="start" fill="currentColor">
<tspan>
登</tspan>
</text>
<path transform="translate(118.6701, 44.3806) scale(0.0040, -0.0040)" d="M214 140c59 0 115 -32 115 -97c0 -72 -54 -121 -101 -149c-35 -21 -74 -34 -114 -34c-59 0 -114 32 -114 97c0 72 54 121 101 149c35 21 73 34 113 34z" fill="currentColor"/>
<text transform="translate(118.6701, 39.3380)" font-family="sans-serif" font-size="1.9603" text-anchor="start" fill="currentColor">
<tspan>
C</tspan>
</text>
<text transform="translate(120.0359, 39.3380)" font-family="sans-serif" font-size="1.9603" text-anchor="start" fill="currentColor">
<tspan/>
</text>
<text transform="translate(120.0359, 39.3380)" font-family="sans-serif" font-size="1.9603" text-anchor="start" fill="currentColor">
<tspan>
m</tspan>
</text>
<text transform="translate(121.9137, 38.4471)" font-family="sans-serif" font-size="1.3858" text-anchor="start" fill="currentColor">
<tspan/>
</text>
<rect transform="translate(116.1690, 42.8806)" x="-0.0757" y="-0.0000" width="0.1514" height="3.3269" ry="0.0500" fill="currentColor"/>
<text transform="translate(114.3497, 49.5305)" font-family="Century Schoolbook L" font-size="2.4695" text-anchor="start" fill="currentColor">
<tspan>
並</tspan>
</text>
<path transform="translate(114.9300, 46.3806) scale(0.0040, -0.0040)" d="M214 140c59 0 115 -32 115 -97c0 -72 -54 -121 -101 -149c-35 -21 -74 -34 -114 -34c-59 0 -114 32 -114 97c0 72 54 121 101 149c35 21 73 34 113 34z" fill="currentColor"/>
<path transform="translate(32.6414, 45.3806) scale(0.0040, -0.0040)" d="M214 140c59 0 115 -32 115 -97c0 -72 -54 -121 -101 -149c-35 -21 -74 -34 -114 -34c-59 0 -114 32 -114 97c0 72 54 121 101 149c35 21 73 34 113 34z" fill="currentColor"/>
<rect transform="translate(30.1403, 42.8806)" x="-0.0757" y="-0.0000" width="0.1514" height="3.3269" ry="0.0500" fill="currentColor"/>
<text transform="translate(28.3209, 49.5305)" font-family="Century Schoolbook L" font-size="2.4695" text-anchor="start" fill="currentColor">
<tspan>
的</tspan>
</text>
<path transform="translate(28.9013, 46.3806) scale(0.0040, -0.0040)" d="M214 140c59 0 115 -32 115 -97c0 -72 -54 -121 -101 -149c-35 -21 -74 -34 -114 -34c-59 0 -114 32 -114 97c0 72 54 121 101 149c35 21 73 34 113 34z" fill="currentColor"/>
<text transform="translate(28.9013, 39.3380)" font-family="sans-serif" font-size="1.9603" text-anchor="start" fill="currentColor">
<tspan>
G</tspan>
</text>
<text transform="translate(30.4378, 39.3380)" font-family="sans-serif" font-size="1.9603" text-anchor="start" fill="currentColor">
<tspan/>
</text>
<text transform="translate(30.4378, 39.3380)" font-family="sans-serif" font-size="1.9603" text-anchor="start" fill="currentColor">
<tspan/>
</text>
<text transform="translate(30.4378, 38.4471)" font-family="sans-serif" font-size="1.3858" text-anchor="start" fill="currentColor">
<tspan/>
</text>
<rect transform="translate(26.4041, 42.8806)" x="-0.0757" y="-1.2027" width="0.1514" height="3.5295" ry="0.0500" fill="currentColor"/>
<text transform="translate(44.1027, 49.5305)" font-family="Century Schoolbook L" font-size="2.4695" text-anchor="start" fill="currentColor">
<tspan>
樂</tspan>
</text>
<path transform="translate(44.6831, 43.3806) scale(0.0040, -0.0040)" d="M214 140c59 0 115 -32 115 -97c0 -72 -54 -121 -101 -149c-35 -21 -74 -34 -114 -34c-59 0 -114 32 -114 97c0 72 54 121 101 149c35 21 73 34 113 34z" fill="currentColor"/>
<text transform="translate(44.6831, 39.3380)" font-family="sans-serif" font-size="1.9603" text-anchor="start" fill="currentColor">
<tspan>
C</tspan>
</text>
<text transform="translate(46.0488, 39.3380)" font-family="sans-serif" font-size="1.9603" text-anchor="start" fill="currentColor">
<tspan/>
</text>
<text transform="translate(46.0488, 39.3380)" font-family="sans-serif" font-size="1.9603" text-anchor="start" fill="currentColor">
<tspan/>
</text>
<text transform="translate(46.0488, 38.4471)" font-family="sans-serif" font-size="1.3858" text-anchor="start" fill="currentColor">
<tspan/>
</text>
<path transform="translate(38.4216, 44.3806) scale(0.0040, -0.0040)" d="M198 -329c-12 0 -21 9 -21 21v138l-79 -30v-154c0 -12 -9 -21 -21 -21s-21 9 -21 21v138l-22 -8c-3 -1 -6 -2 -9 -2c-13 0 -25 11 -25 25v54c0 10 6 20 16 24l40 15v155l-22 -9c-3 -1 -6 -1 -9 -1c-13 0 -25 11 -25 25v54c0 10 6 19 16 23l40 15v154c0 12 9 21 21 21
s21 -9 21 -21v-138l79 30v154c0 12 9 21 21 21s21 -9 21 -21v-138l22 8c3 1 6 2 9 2c13 0 25 -11 25 -25v-54c0 -10 -6 -20 -16 -24l-40 -15v-155l22 9c3 1 6 1 9 1c13 0 25 -11 25 -25v-54c0 -10 -6 -19 -16 -23l-40 -15v-154c0 -12 -9 -21 -21 -21zM98 62v-154l79 30v154z
" fill="currentColor"/>
<rect transform="translate(41.1105, 42.8806)" x="-0.0757" y="-2.0000" width="0.1514" height="3.3269" ry="0.0500" fill="currentColor"/>
<text transform="translate(39.2912, 49.5305)" font-family="Century Schoolbook L" font-size="2.4695" text-anchor="start" fill="currentColor">
<tspan>
歡</tspan>
</text>
<path transform="translate(39.8716, 44.3806) scale(0.0040, -0.0040)" d="M214 140c59 0 115 -32 115 -97c0 -72 -54 -121 -101 -149c-35 -21 -74 -34 -114 -34c-59 0 -114 32 -114 97c0 72 54 121 101 149c35 21 73 34 113 34z" fill="currentColor"/>
<rect transform="translate(37.6204, 42.8806)" x="-0.0757" y="-2.0000" width="0.1514" height="3.3269" ry="0.0500" fill="currentColor"/>
<text transform="translate(35.8011, 49.5305)" font-family="Century Schoolbook L" font-size="2.4695" text-anchor="start" fill="currentColor">
<tspan>
徒</tspan>
</text>
<path transform="translate(36.3815, 44.3806) scale(0.0040, -0.0040)" d="M214 140c59 0 115 -32 115 -97c0 -72 -54 -121 -101 -149c-35 -21 -74 -34 -114 -34c-59 0 -114 32 -114 97c0 72 54 121 101 149c35 21 73 34 113 34z" fill="currentColor"/>
<rect transform="translate(33.8804, 42.8806)" x="-0.0757" y="-1.0000" width="0.1514" height="3.3269" ry="0.0500" fill="currentColor"/>
<text transform="translate(32.0610, 49.5305)" font-family="Century Schoolbook L" font-size="2.4695" text-anchor="start" fill="currentColor">
<tspan>
聖</tspan>
</text>
<path transform="translate(23.0128, 44.3806) scale(0.0040, -0.0040)" d="M214 140c59 0 115 -32 115 -97c0 -72 -54 -121 -101 -149c-35 -21 -74 -34 -114 -34c-59 0 -114 32 -114 97c0 72 54 121 101 149c35 21 73 34 113 34z" fill="currentColor"/>
<rect transform="translate(19.0377, 42.8806)" x="-0.0757" y="-2.0000" width="0.1514" height="3.2518" ry="0.0500" fill="currentColor"/>
<path transform="translate(19.5548, 44.3806) scale(0.0040, -0.0040)" d="M0 0c0 30 25 55 55 55s55 -25 55 -55s-25 -55 -55 -55s-55 25 -55 55z" fill="currentColor"/>
<text transform="translate(15.9387, 49.5305)" font-family="Century Schoolbook L" font-size="2.4695" text-anchor="start" fill="currentColor">
<tspan>
罪；</tspan>
</text>
<path transform="translate(17.7148, 44.3806) scale(0.0040, -0.0040)" d="M312 63c0 23 -20 40 -41 40c-4 0 -7 -1 -11 -2c-30 -8 -75 -38 -111 -61s-81 -52 -101 -76c-7 -8 -10 -17 -10 -27c0 -23 19 -40 40 -40c4 0 8 1 12 2c30 8 75 38 111 61s81 52 101 76c7 8 10 17 10 27zM258 140c51 0 92 -23 92 -78c0 -19 -4 -38 -10 -56
c-11 -38 -31 -75 -64 -97c-53 -36 -112 -49 -185 -49c-51 0 -91 23 -91 78c0 19 4 38 10 56c11 38 30 75 63 97c53 36 112 49 185 49z" fill="currentColor"/>
<text transform="translate(17.7148, 39.3380)" font-family="sans-serif" font-size="1.9603" text-anchor="start" fill="currentColor">
<tspan>
D</tspan>
</text>
<text transform="translate(19.2086, 39.3380)" font-family="sans-serif" font-size="1.9603" text-anchor="start" fill="currentColor">
<tspan/>
</text>
<text transform="translate(19.2086, 39.3380)" font-family="sans-serif" font-size="1.9603" text-anchor="start" fill="currentColor">
<tspan/>
</text>
<text transform="translate(19.2086, 38.4471)" font-family="sans-serif" font-size="1.3858" text-anchor="start" fill="currentColor">
<tspan/>
</text>
<text transform="translate(19.2086, 38.4471)" font-family="sans-serif" font-size="1.3858" text-anchor="start" fill="currentColor">
<tspan>
7</tspan>
</text>
<path transform="translate(25.1652, 45.3806) scale(0.0040, -0.0040)" d="M214 140c59 0 115 -32 115 -97c0 -72 -54 -121 -101 -149c-35 -21 -74 -34 -114 -34c-59 0 -114 32 -114 97c0 72 54 121 101 149c35 21 73 34 113 34z" fill="currentColor"/>
<text transform="translate(23.0128, 49.5305)" font-family="Century Schoolbook L" font-size="2.4695" text-anchor="start" fill="currentColor">
<tspan>
你</tspan>
</text>
<rect transform="translate(24.2518, 42.8806)" x="-0.0757" y="-1.7973" width="0.1514" height="3.1242" ry="0.0500" fill="currentColor"/>
<text transform="translate(64.3980, 57.8806)" font-family="Century Schoolbook L" font-weight="bold" font-size="2.1999" text-anchor="start" fill="currentColor">
<tspan>
2.</tspan>
</text>
<text transform="translate(66.8759, 57.8806)" font-family="Century Schoolbook L" font-size="2.1999" text-anchor="start" fill="currentColor">
<tspan>
父的愛心將你高升， </tspan>
</text>
<text transform="translate(66.8759, 60.8806)" font-family="Century Schoolbook L" font-size="2.1999" text-anchor="start" fill="currentColor">
<tspan>
賜你榮耀、尊貴、權能。 </tspan>
</text>
<text transform="translate(66.8759, 63.8806)" font-family="Century Schoolbook L" font-size="2.1999" text-anchor="start" fill="currentColor">
<tspan>
使你坐祂右邊； </tspan>
</text>
<text transform="translate(66.8759, 66.8806)" font-family="Century Schoolbook L" font-size="2.1999" text-anchor="start" fill="currentColor">
<tspan>
現今頌讚、智慧、豐富， </tspan>
</text>
<text transform="translate(66.8759, 69.8806)" font-family="Century Schoolbook L" font-size="2.1999" text-anchor="start" fill="currentColor">
<tspan>
完全屬你，親愛救主！ </tspan>
</text>
<text transform="translate(66.8759, 72.8806)" font-family="Century Schoolbook L" font-size="2.1999" text-anchor="start" fill="currentColor">
<tspan>
你的年日無限。 </tspan>
</text>
<text transform="translate(66.8759, 74.8806)" font-family="Century Schoolbook L" font-size="1.5560" text-anchor="start" fill="currentColor">
<tspan>
 </tspan>
</text>
<text transform="translate(64.3980, 77.8806)" font-family="Century Schoolbook L" font-weight="bold" font-size="2.1999" text-anchor="start" fill="currentColor">
<tspan>
3.</tspan>
</text>
<text transform="translate(66.8759, 77.8806)" font-family="Century Schoolbook L" font-size="2.1999" text-anchor="start" fill="currentColor">
<tspan>
召會的頭，你坐那裡， </tspan>
</text>
<text transform="translate(66.8759, 80.8806)" font-family="Century Schoolbook L" font-size="2.1999" text-anchor="start" fill="currentColor">
<tspan>
賜福給你所有肢體， </tspan>
</text>
<text transform="translate(66.8759, 83.8806)" font-family="Century Schoolbook L" font-size="2.1999" text-anchor="start" fill="currentColor">
<tspan>
你的是我們的： </tspan>
</text>
<text transform="translate(66.8759, 86.8806)" font-family="Century Schoolbook L" font-size="2.1999" text-anchor="start" fill="currentColor">
<tspan>
你是我們生命、能力， </tspan>
</text>
<text transform="translate(66.8759, 89.8806)" font-family="Century Schoolbook L" font-size="2.1999" text-anchor="start" fill="currentColor">
<tspan>
你使我們堅定站立， </tspan>
</text>
<text transform="translate(66.8759, 92.8806)" font-family="Century Schoolbook L" font-size="2.1999" text-anchor="start" fill="currentColor">
<tspan>
勝過一切仇敵。 </tspan>
</text>
<text transform="translate(66.8759, 94.8806)" font-family="Century Schoolbook L" font-size="1.5560" text-anchor="start" fill="currentColor">
<tspan>
 </tspan>
</text>
<text transform="translate(64.3980, 97.8806)" font-family="Century Schoolbook L" font-weight="bold" font-size="2.1999" text-anchor="start" fill="currentColor">
<tspan>
4.</tspan>
</text>
<text transform="translate(66.8759, 97.8806)" font-family="Century Schoolbook L" font-size="2.1999" text-anchor="start" fill="currentColor">
<tspan>
榮耀日子不久來臨， </tspan>
</text>
<text transform="translate(66.8759, 100.8806)" font-family="Century Schoolbook L" font-size="2.1999" text-anchor="start" fill="currentColor">
<tspan>
你的新婦就要上升， </tspan>
</text>
<text transform="translate(66.8759, 103.8806)" font-family="Century Schoolbook L" font-size="2.1999" text-anchor="start" fill="currentColor">
<tspan>
鑑賞你的美麗。 </tspan>
</text>
<text transform="translate(66.8759, 106.8806)" font-family="Century Schoolbook L" font-size="2.1999" text-anchor="start" fill="currentColor">
<tspan>
何等可樂！看見了你， </tspan>
</text>
<text transform="translate(66.8759, 109.8806)" font-family="Century Schoolbook L" font-size="2.1999" text-anchor="start" fill="currentColor">
<tspan>
聽見你認我們屬你， </tspan>
</text>
<text transform="translate(66.8759, 112.8806)" font-family="Century Schoolbook L" font-size="2.1999" text-anchor="start" fill="currentColor">
<tspan>
並永同你安息。 </tspan>
</text>
<text transform="translate(66.8759, 114.8806)" font-family="Century Schoolbook L" font-size="1.5560" text-anchor="start" fill="currentColor">
<tspan>
 </tspan>
</text>
<text transform="translate(69.8622, 189.4189)" font-family="Trebuchet MS" font-size="2.1999" text-anchor="start" fill="currentColor">
<tspan>
www.hymnal.net</tspan>
</text>
<text transform="translate(78.1419, 192.4189)" font-family="Century Schoolbook L" font-size="2.1999" text-anchor="start" fill="currentColor">
<tspan/>
</text>
</svg>
