<svg xmlns="http://www.w3.org/2000/svg" xmlns:xlink="http://www.w3.org/1999/xlink" version="1.2" width="215.90mm" height="279.40mm" viewBox="0.0000 -0.0000 153.5737 198.7425">
<style type="text/css">
<![CDATA[
tspan { white-space: pre; }
]]>
</style>
<g transform="translate(51.5528, 12.4322)">
<text font-family="serif" font-weight="bold" font-size="3.1113" text-anchor="start" fill="currentColor">
<tspan>We’re Ninety-Three Million Miles From</tspan>
</text>
</g>
<g transform="translate(66.0637, 15.9322)">
<text font-family="serif" font-weight="bold" font-size="2.2001" text-anchor="start" fill="currentColor">
<tspan>Gospel — God’s Creation</tspan>
</text>
</g>
<g transform="translate(9.0337, 18.3926)">
<text font-family="serif" font-weight="bold" font-style="italic" font-size="2.2001" text-anchor="start" fill="currentColor">
<tspan>(Guitar)</tspan>
</text>
</g>
<g transform="translate(33.4078, 27.4231)">
<rect x="0.0000" y="-2.0000" width="0.2212" height="4.0000" ry="0.0000" fill="currentColor"/>
</g>
<g transform="translate(9.0337, 30.4231)">
<rect x="10.8927" y="-0.1082" width="1.9512" height="0.2164" ry="0.1082" fill="currentColor"/>
</g>
<g transform="translate(9.0337, 31.4231)">
<rect x="10.8927" y="-0.1082" width="1.9512" height="0.2164" ry="0.1082" fill="currentColor"/>
</g>
<g transform="translate(9.0337, 29.4231)">
<line stroke-linejoin="round" stroke-linecap="round" stroke-width="0.1164" stroke="currentColor" x1="0.0582" y1="0" x2="138.1582" y2="0"/>
</g>
<g transform="translate(9.0337, 28.4231)">
<line stroke-linejoin="round" stroke-linecap="round" stroke-width="0.1164" stroke="currentColor" x1="0.0582" y1="0" x2="138.1582" y2="0"/>
</g>
<g transform="translate(9.0337, 27.4231)">
<line stroke-linejoin="round" stroke-linecap="round" stroke-width="0.1164" stroke="currentColor" x1="0.0582" y1="0" x2="138.1582" y2="0"/>
</g>
<g transform="translate(9.0337, 26.4231)">
<line stroke-linejoin="round" stroke-linecap="round" stroke-width="0.1164" stroke="currentColor" x1="0.0582" y1="0" x2="138.1582" y2="0"/>
</g>
<g transform="translate(9.0337, 25.4231)">
<line stroke-linejoin="round" stroke-linecap="round" stroke-width="0.1164" stroke="currentColor" x1="0.0582" y1="0" x2="138.1582" y2="0"/>
</g>
<g transform="translate(147.0289, 27.4231)">
<rect x="0.0000" y="-2.0000" width="0.2212" height="4.0000" ry="0.0000" fill="currentColor"/>
</g>
<g transform="translate(89.8434, 27.4231)">
<rect x="0.0000" y="-2.0000" width="0.2212" height="4.0000" ry="0.0000" fill="currentColor"/>
</g>
<g transform="translate(113.8810, 27.4231)">
<path stroke-width="0.0931" stroke-linejoin="round" stroke-linecap="round" stroke="currentColor" fill="currentColor" d="M0.5883 2.5527C1.8324 4.0133 5.8881 4.6004 7.4953 3.5527L7.4953 3.5527C5.9081 4.4622 1.8524 3.8750 0.5883 2.5527z"/>
</g>
<g transform="translate(20.2516, 24.8649)">
<text font-family="sans" font-size="1.9604" text-anchor="start" fill="currentColor">
<tspan>A</tspan>
</text>
</g>
<g transform="translate(21.5747, 23.9740)">
<text font-family="sans" font-size="1.3856" text-anchor="start" fill="currentColor">
<tspan>7</tspan>
</text>
</g>
<g transform="translate(20.2516, 31.4231)">
<path transform="scale(0.0040, -0.0040)" d="M0 -43c0 92 111 181 211 181c65 0 115 -37 115 -95c0 -88 -106 -181 -215 -181c-70 0 -111 41 -111 95z" fill="currentColor"/>
</g>
<g transform="translate(9.8338, 28.4231)">
<path transform="scale(0.0040, -0.0040)" d="M647 2c0 -114 -75 -214 -180 -248c3 -33 4 -66 4 -99c0 -21 0 -41 -1 -62c-7 -122 -92 -229 -211 -229c-108 0 -196 88 -196 197c0 58 54 103 113 103c54 0 95 -47 95 -103c0 -52 -43 -95 -95 -95c-9 0 -18 1 -27 4c25 -37 66 -61 113 -61c93 0 156 91 162 191
c1 19 2 38 2 57c0 29 -1 58 -3 87c-28 -5 -54 -8 -79 -8c-242 0 -342 222 -342 376c0 177 129 308 244 443c-33 100 -55 169 -55 347c0 186 141 292 159 292c33 0 148 -208 148 -361c0 -142 -84 -255 -176 -364c21 -68 40 -136 57 -205c3 0 8 1 11 1
c156 0 257 -129 257 -263zM406 148c28 -133 49 -269 57 -349c73 27 109 93 109 160c0 86 -58 175 -166 189zM77 25c0 -111 96 -243 275 -243c21 0 44 1 67 5c-7 66 -27 208 -60 362c-79 -8 -124 -60 -124 -118c0 -43 25 -88 80 -120c5 -5 7 -11 7 -17c0 -12 -10 -23 -23 -23
c-16 0 -128 62 -128 188c0 89 60 177 163 200c-14 57 -30 113 -47 169c-105 -122 -210 -243 -210 -403zM424 920c0 61 -20 118 -21 118c-31 -14 -161 -85 -161 -253c0 -53 15 -113 39 -189c71 88 143 196 143 324z" fill="currentColor"/>
</g>
<g transform="translate(13.2188, 25.4231)">
<path transform="scale(0.0040, -0.0040)" d="M0 116c0 10 6 19 16 23l40 15v154c0 12 9 21 21 21s21 -9 21 -21v-138l79 30v154c0 12 9 21 21 21s21 -9 21 -21v-138l22 8c3 1 6 2 9 2c13 0 25 -11 25 -25v-54c0 -10 -6 -20 -16 -24l-40 -15v-155l22 9c3 1 6 1 9 1c13 0 25 -11 25 -25v-54c0 -10 -6 -19 -16 -23
l-40 -15v-154c0 -12 -9 -21 -21 -21s-21 9 -21 21v138l-79 -30v-154c0 -12 -9 -21 -21 -21s-21 9 -21 21v138l-22 -8c-3 -1 -6 -2 -9 -2c-13 0 -25 11 -25 25v54c0 10 6 20 16 24l40 15v155l-22 -9c-3 -1 -6 -1 -9 -1c-13 0 -25 11 -25 25v54zM177 92l-79 -30v-154l79 30
v154z" fill="currentColor"/>
</g>
<g transform="translate(14.3188, 26.9231)">
<path transform="scale(0.0040, -0.0040)" d="M0 116c0 10 6 19 16 23l40 15v154c0 12 9 21 21 21s21 -9 21 -21v-138l79 30v154c0 12 9 21 21 21s21 -9 21 -21v-138l22 8c3 1 6 2 9 2c13 0 25 -11 25 -25v-54c0 -10 -6 -20 -16 -24l-40 -15v-155l22 9c3 1 6 1 9 1c13 0 25 -11 25 -25v-54c0 -10 -6 -19 -16 -23
l-40 -15v-154c0 -12 -9 -21 -21 -21s-21 9 -21 21v138l-79 -30v-154c0 -12 -9 -21 -21 -21s-21 9 -21 21v138l-22 -8c-3 -1 -6 -2 -9 -2c-13 0 -25 11 -25 25v54c0 10 6 20 16 24l40 15v155l-22 -9c-3 -1 -6 -1 -9 -1c-13 0 -25 11 -25 25v54zM177 92l-79 -30v-154l79 30
v154z" fill="currentColor"/>
</g>
<g transform="translate(16.5687, 27.4231)">
<path transform="scale(0.0040, -0.0040)" d="M430 -89c0 -21 -49 -176 -180 -176c-145 0 -250 88 -250 265c0 63 18 265 250 265c114 0 172 -112 172 -166c0 -38 -30 -69 -66 -69c-30 0 -72 23 -72 72c0 37 26 75 70 75c3 0 6 -1 9 -1c-26 36 -67 59 -113 59c-107 0 -113 -74 -113 -189c0 -15 1 -30 1 -46
s-1 -31 -1 -46c0 -115 6 -189 113 -189c78 0 133 70 151 149c2 8 8 11 14 11c7 0 15 -5 15 -14z" fill="currentColor"/>
</g>
<g transform="translate(17.9358, 34.1484)">
<text font-family="serif" font-size="2.4697" text-anchor="start" fill="currentColor">
<tspan>We’re</tspan>
</text>
</g>
<g transform="translate(15.2714, 34.1484)">
<text font-family="serif" font-weight="bold" font-size="2.2001" text-anchor="start" fill="currentColor">
<tspan>1.</tspan>
</text>
</g>
<g transform="translate(21.4768, 27.4231)">
<rect x="-0.0757" y="-0.0000" width="0.1514" height="3.8286" ry="0.0500" fill="currentColor"/>
</g>
<g transform="translate(99.5668, 27.4231)">
<path stroke-width="0.0931" stroke-linejoin="round" stroke-linecap="round" stroke="currentColor" fill="currentColor" d="M1.5008 2.0000C2.4370 2.8553 6.0209 2.8553 6.9571 2.0000L6.9571 2.0000C6.0209 2.7156 2.4370 2.7156 1.5008 2.0000z"/>
</g>
<g transform="translate(100.7163, 25.6049)">
<polygon stroke-linejoin="round" stroke-linecap="round" stroke-width="0.1000" fill="currentColor" stroke="currentColor" points="14.4155 -0.1900 14.4155 0.1900 0.0500 0.1900 0.0500 -0.1900"/>
</g>
<g transform="translate(36.2751, 24.8649)">
<text font-family="sans" font-size="1.9604" text-anchor="start" fill="currentColor">
<tspan>D</tspan>
</text>
</g>
<g transform="translate(36.2751, 29.9231)">
<path transform="scale(0.0040, -0.0040)" d="M0 -43c0 92 111 181 211 181c65 0 115 -37 115 -95c0 -88 -106 -181 -215 -181c-70 0 -111 41 -111 95z" fill="currentColor"/>
</g>
<g transform="translate(34.7916, 34.1484)">
<text font-family="serif" font-size="2.4697" text-anchor="start" fill="currentColor">
<tspan>nine</tspan>
</text>
</g>
<g transform="translate(37.5002, 27.4231)">
<rect x="-0.0757" y="-0.8182" width="0.1514" height="3.1468" ry="0.0500" fill="currentColor"/>
</g>
<g transform="translate(43.4322, 29.9231)">
<path transform="scale(0.0040, -0.0040)" d="M0 -43c0 92 111 181 211 181c65 0 115 -37 115 -95c0 -88 -106 -181 -215 -181c-70 0 -111 41 -111 95z" fill="currentColor"/>
</g>
<g transform="translate(42.7168, 34.1484)">
<text font-family="serif" font-size="2.4697" text-anchor="start" fill="currentColor">
<tspan>ty-</tspan>
</text>
</g>
<g transform="translate(44.6573, 27.4231)">
<rect x="-0.0757" y="-0.8182" width="0.1514" height="3.1468" ry="0.0500" fill="currentColor"/>
</g>
<g transform="translate(70.2909, 34.1484)">
<rect x="0.0000" y="-0.5714" width="0.6600" height="0.1514" ry="0.0466" fill="currentColor"/>
</g>
<g transform="translate(50.5892, 29.9231)">
<path transform="scale(0.0040, -0.0040)" d="M0 -43c0 92 111 181 211 181c65 0 115 -37 115 -95c0 -88 -106 -181 -215 -181c-70 0 -111 41 -111 95z" fill="currentColor"/>
</g>
<g transform="translate(48.7642, 34.1484)">
<text font-family="serif" font-size="2.4697" text-anchor="start" fill="currentColor">
<tspan>three</tspan>
</text>
</g>
<g transform="translate(51.8144, 27.4231)">
<rect x="-0.0757" y="-1.0000" width="0.1514" height="3.3286" ry="0.0500" fill="currentColor"/>
</g>
<g transform="translate(63.6025, 29.9231)">
<path transform="scale(0.0040, -0.0040)" d="M0 -43c0 92 111 181 211 181c65 0 115 -37 115 -95c0 -88 -106 -181 -215 -181c-70 0 -111 41 -111 95z" fill="currentColor"/>
</g>
<g transform="translate(62.6098, 34.1484)">
<text font-family="serif" font-size="2.4697" text-anchor="start" fill="currentColor">
<tspan>mil</tspan>
</text>
</g>
<g transform="translate(64.8277, 27.4231)">
<rect x="-0.0757" y="-1.0000" width="0.1514" height="3.3286" ry="0.0500" fill="currentColor"/>
</g>
<g transform="translate(76.6158, 29.9231)">
<path transform="scale(0.0040, -0.0040)" d="M0 -43c0 92 111 181 211 181c65 0 115 -37 115 -95c0 -88 -106 -181 -215 -181c-70 0 -111 41 -111 95z" fill="currentColor"/>
</g>
<g transform="translate(75.3457, 34.1484)">
<text font-family="serif" font-size="2.4697" text-anchor="start" fill="currentColor">
<tspan>lion</tspan>
</text>
</g>
<g transform="translate(77.8410, 27.4231)">
<rect x="-0.0757" y="-1.0000" width="0.1514" height="3.3286" ry="0.0500" fill="currentColor"/>
</g>
<g transform="translate(40.5582, 34.1484)">
<rect x="0.0000" y="-0.5714" width="0.6600" height="0.1514" ry="0.0466" fill="currentColor"/>
</g>
<g transform="translate(99.5668, 28.9231)">
<path transform="scale(0.0040, -0.0040)" d="M0 -43c0 92 111 181 211 181c65 0 115 -37 115 -95c0 -88 -106 -181 -215 -181c-70 0 -111 41 -111 95z" fill="currentColor"/>
</g>
<g transform="translate(99.5668, 34.1484)">
<text font-family="serif" font-size="2.4697" text-anchor="start" fill="currentColor">
<tspan>miles</tspan>
</text>
</g>
<g transform="translate(100.7920, 27.4231)">
<rect x="-0.0757" y="-1.8182" width="0.1514" height="3.1468" ry="0.0500" fill="currentColor"/>
</g>
<g transform="translate(37.4246, 26.6049)">
<polygon stroke-linejoin="round" stroke-linecap="round" stroke-width="0.1000" fill="currentColor" stroke="currentColor" points="7.2584 -0.1900 7.2584 0.1900 0.0500 0.1900 0.0500 -0.1900"/>
</g>
<g transform="translate(106.7239, 28.9231)">
<path transform="scale(0.0040, -0.0040)" d="M0 -43c0 92 111 181 211 181c65 0 115 -37 115 -95c0 -88 -106 -181 -215 -181c-70 0 -111 41 -111 95z" fill="currentColor"/>
</g>
<g transform="translate(107.9490, 27.4231)">
<rect x="-0.0757" y="-1.8182" width="0.1514" height="3.1468" ry="0.0500" fill="currentColor"/>
</g>
<g transform="translate(113.8810, 28.9231)">
<path transform="scale(0.0040, -0.0040)" d="M0 -43c0 92 111 181 211 181c65 0 115 -37 115 -95c0 -88 -106 -181 -215 -181c-70 0 -111 41 -111 95z" fill="currentColor"/>
</g>
<g transform="translate(113.8810, 34.1484)">
<text font-family="serif" font-size="2.4697" text-anchor="start" fill="currentColor">
<tspan>from....</tspan>
</text>
</g>
<g transform="translate(115.1061, 27.4231)">
<rect x="-0.0757" y="-1.8182" width="0.1514" height="3.1468" ry="0.0500" fill="currentColor"/>
</g>
<g transform="translate(120.7880, 29.9231)">
<path transform="scale(0.0040, -0.0040)" d="M0 -43c0 92 111 181 211 181c65 0 115 -37 115 -95c0 -88 -106 -181 -215 -181c-70 0 -111 41 -111 95z" fill="currentColor"/>
</g>
<g transform="translate(122.0132, 27.4231)">
<rect x="-0.0757" y="-1.0000" width="0.1514" height="3.3286" ry="0.0500" fill="currentColor"/>
</g>
<g transform="translate(133.8013, 29.9231)">
<path transform="scale(0.0040, -0.0040)" d="M0 -43c0 92 111 181 211 181c65 0 115 -37 115 -95c0 -88 -106 -181 -215 -181c-70 0 -111 41 -111 95z" fill="currentColor"/>
</g>
<g transform="translate(132.1897, 34.1484)">
<text font-family="serif" font-size="2.4697" text-anchor="start" fill="currentColor">
<tspan>(Not</tspan>
</text>
</g>
<g transform="translate(135.0265, 27.4231)">
<rect x="-0.0757" y="-1.0000" width="0.1514" height="3.3286" ry="0.0500" fill="currentColor"/>
</g>
<g transform="translate(92.7107, 27.4231)">
<path transform="scale(0.0040, -0.0040)" d="M70 205c81 0 46 -96 90 -96c14 0 50 42 56 55c4 7 10 11 17 11s14 -4 17 -11l-119 -414c-9 -8 -21 -12 -32 -12s-23 4 -32 12l118 326c-33 -12 -66 -22 -101 -22c-58 0 -86 40 -86 79c0 36 24 72 72 72z" fill="currentColor"/>
</g>
<g transform="translate(59.2916, 39.6424)">
<rect x="0.0000" y="-2.0000" width="0.2212" height="4.0000" ry="0.0000" fill="currentColor"/>
</g>
<g transform="translate(9.0337, 42.6424)">
<rect x="83.9246" y="-0.1082" width="1.9512" height="0.2164" ry="0.1082" fill="currentColor"/>
</g>
<g transform="translate(9.0337, 43.6424)">
<rect x="83.9246" y="-0.1082" width="1.9512" height="0.2164" ry="0.1082" fill="currentColor"/>
</g>
<g transform="translate(9.0337, 41.6424)">
<line stroke-linejoin="round" stroke-linecap="round" stroke-width="0.1164" stroke="currentColor" x1="0.0582" y1="0" x2="138.1582" y2="0"/>
</g>
<g transform="translate(9.0337, 40.6424)">
<line stroke-linejoin="round" stroke-linecap="round" stroke-width="0.1164" stroke="currentColor" x1="0.0582" y1="0" x2="138.1582" y2="0"/>
</g>
<g transform="translate(9.0337, 39.6424)">
<line stroke-linejoin="round" stroke-linecap="round" stroke-width="0.1164" stroke="currentColor" x1="0.0582" y1="0" x2="138.1582" y2="0"/>
</g>
<g transform="translate(9.0337, 38.6424)">
<line stroke-linejoin="round" stroke-linecap="round" stroke-width="0.1164" stroke="currentColor" x1="0.0582" y1="0" x2="138.1582" y2="0"/>
</g>
<g transform="translate(9.0337, 37.6424)">
<line stroke-linejoin="round" stroke-linecap="round" stroke-width="0.1164" stroke="currentColor" x1="0.0582" y1="0" x2="138.1582" y2="0"/>
</g>
<g transform="translate(147.0289, 39.6424)">
<rect x="0.0000" y="-2.0000" width="0.2212" height="4.0000" ry="0.0000" fill="currentColor"/>
</g>
<g transform="translate(103.3850, 39.6424)">
<rect x="0.0000" y="-2.0000" width="0.2212" height="4.0000" ry="0.0000" fill="currentColor"/>
</g>
<g transform="translate(132.0585, 46.3677)">
<rect x="0.0000" y="-0.5714" width="0.6600" height="0.1514" ry="0.0466" fill="currentColor"/>
</g>
<g transform="translate(9.8338, 40.6424)">
<path transform="scale(0.0040, -0.0040)" d="M647 2c0 -114 -75 -214 -180 -248c3 -33 4 -66 4 -99c0 -21 0 -41 -1 -62c-7 -122 -92 -229 -211 -229c-108 0 -196 88 -196 197c0 58 54 103 113 103c54 0 95 -47 95 -103c0 -52 -43 -95 -95 -95c-9 0 -18 1 -27 4c25 -37 66 -61 113 -61c93 0 156 91 162 191
c1 19 2 38 2 57c0 29 -1 58 -3 87c-28 -5 -54 -8 -79 -8c-242 0 -342 222 -342 376c0 177 129 308 244 443c-33 100 -55 169 -55 347c0 186 141 292 159 292c33 0 148 -208 148 -361c0 -142 -84 -255 -176 -364c21 -68 40 -136 57 -205c3 0 8 1 11 1
c156 0 257 -129 257 -263zM406 148c28 -133 49 -269 57 -349c73 27 109 93 109 160c0 86 -58 175 -166 189zM77 25c0 -111 96 -243 275 -243c21 0 44 1 67 5c-7 66 -27 208 -60 362c-79 -8 -124 -60 -124 -118c0 -43 25 -88 80 -120c5 -5 7 -11 7 -17c0 -12 -10 -23 -23 -23
c-16 0 -128 62 -128 188c0 89 60 177 163 200c-14 57 -30 113 -47 169c-105 -122 -210 -243 -210 -403zM424 920c0 61 -20 118 -21 118c-31 -14 -161 -85 -161 -253c0 -53 15 -113 39 -189c71 88 143 196 143 324z" fill="currentColor"/>
</g>
<g transform="translate(13.2188, 37.6424)">
<path transform="scale(0.0040, -0.0040)" d="M0 116c0 10 6 19 16 23l40 15v154c0 12 9 21 21 21s21 -9 21 -21v-138l79 30v154c0 12 9 21 21 21s21 -9 21 -21v-138l22 8c3 1 6 2 9 2c13 0 25 -11 25 -25v-54c0 -10 -6 -20 -16 -24l-40 -15v-155l22 9c3 1 6 1 9 1c13 0 25 -11 25 -25v-54c0 -10 -6 -19 -16 -23
l-40 -15v-154c0 -12 -9 -21 -21 -21s-21 9 -21 21v138l-79 -30v-154c0 -12 -9 -21 -21 -21s-21 9 -21 21v138l-22 -8c-3 -1 -6 -2 -9 -2c-13 0 -25 11 -25 25v54c0 10 6 20 16 24l40 15v155l-22 -9c-3 -1 -6 -1 -9 -1c-13 0 -25 11 -25 25v54zM177 92l-79 -30v-154l79 30
v154z" fill="currentColor"/>
</g>
<g transform="translate(14.3188, 39.1424)">
<path transform="scale(0.0040, -0.0040)" d="M0 116c0 10 6 19 16 23l40 15v154c0 12 9 21 21 21s21 -9 21 -21v-138l79 30v154c0 12 9 21 21 21s21 -9 21 -21v-138l22 8c3 1 6 2 9 2c13 0 25 -11 25 -25v-54c0 -10 -6 -20 -16 -24l-40 -15v-155l22 9c3 1 6 1 9 1c13 0 25 -11 25 -25v-54c0 -10 -6 -19 -16 -23
l-40 -15v-154c0 -12 -9 -21 -21 -21s-21 9 -21 21v138l-79 -30v-154c0 -12 -9 -21 -21 -21s-21 9 -21 21v138l-22 -8c-3 -1 -6 -2 -9 -2c-13 0 -25 11 -25 25v54c0 10 6 20 16 24l40 15v155l-22 -9c-3 -1 -6 -1 -9 -1c-13 0 -25 11 -25 25v54zM177 92l-79 -30v-154l79 30
v154z" fill="currentColor"/>
</g>
<g transform="translate(8.1802, 36.5719)">
<text font-family="serif" font-size="1.7463" text-anchor="start" fill="currentColor">
<tspan>3</tspan>
</text>
</g>
<g transform="translate(17.9187, 37.0842)">
<text font-family="sans" font-size="1.9604" text-anchor="start" fill="currentColor">
<tspan>A</tspan>
</text>
</g>
<g transform="translate(19.2418, 36.1933)">
<text font-family="sans" font-size="1.3856" text-anchor="start" fill="currentColor">
<tspan>7</tspan>
</text>
</g>
<g transform="translate(17.9187, 41.6424)">
<path transform="scale(0.0040, -0.0040)" d="M0 -43c0 92 111 181 211 181c65 0 115 -37 115 -95c0 -88 -106 -181 -215 -181c-70 0 -111 41 -111 95z" fill="currentColor"/>
</g>
<g transform="translate(16.1578, 46.3677)">
<text font-family="serif" font-size="2.4697" text-anchor="start" fill="currentColor">
<tspan>roast</tspan>
</text>
</g>
<g transform="translate(19.1439, 39.6424)">
<rect x="-0.0757" y="-1.0000" width="0.1514" height="2.8286" ry="0.0500" fill="currentColor"/>
</g>
<g transform="translate(109.1989, 46.3677)">
<rect x="0.0000" y="-0.5714" width="0.6600" height="0.1514" ry="0.0466" fill="currentColor"/>
</g>
<g transform="translate(23.5484, 41.6424)">
<path transform="scale(0.0040, -0.0040)" d="M0 -43c0 92 111 181 211 181c65 0 115 -37 115 -95c0 -88 -106 -181 -215 -181c-70 0 -111 41 -111 95z" fill="currentColor"/>
</g>
<g transform="translate(23.0251, 46.3677)">
<text font-family="serif" font-size="2.4697" text-anchor="start" fill="currentColor">
<tspan>ed</tspan>
</text>
</g>
<g transform="translate(24.7735, 39.6424)">
<rect x="-0.0757" y="-1.0000" width="0.1514" height="2.8286" ry="0.0500" fill="currentColor"/>
</g>
<g transform="translate(106.8290, 38.8242)">
<polygon stroke-linejoin="round" stroke-linecap="round" stroke-width="0.1000" fill="currentColor" stroke="currentColor" points="5.7310 -0.1900 5.7310 0.1900 0.0500 0.1900 0.0500 -0.1900"/>
</g>
<g transform="translate(29.1781, 41.6424)">
<path transform="scale(0.0040, -0.0040)" d="M0 -43c0 92 111 181 211 181c65 0 115 -37 115 -95c0 -88 -106 -181 -215 -181c-70 0 -111 41 -111 95z" fill="currentColor"/>
</g>
<g transform="translate(28.8682, 46.3677)">
<text font-family="serif" font-size="2.4697" text-anchor="start" fill="currentColor">
<tspan>to</tspan>
</text>
</g>
<g transform="translate(30.4032, 39.6424)">
<rect x="-0.0757" y="-1.5000" width="0.1514" height="3.3286" ry="0.0500" fill="currentColor"/>
</g>
<g transform="translate(39.1367, 41.6424)">
<path transform="scale(0.0040, -0.0040)" d="M0 -43c0 92 111 181 211 181c65 0 115 -37 115 -95c0 -88 -106 -181 -215 -181c-70 0 -111 41 -111 95z" fill="currentColor"/>
</g>
<g transform="translate(37.4397, 46.3677)">
<text font-family="serif" font-size="2.4697" text-anchor="start" fill="currentColor">
<tspan>toast</tspan>
</text>
</g>
<g transform="translate(40.3618, 39.6424)">
<rect x="-0.0757" y="-1.5000" width="0.1514" height="3.3286" ry="0.0500" fill="currentColor"/>
</g>
<g transform="translate(49.0952, 41.6424)">
<path transform="scale(0.0040, -0.0040)" d="M0 -43c0 92 111 181 211 181c65 0 115 -37 115 -95c0 -88 -106 -181 -215 -181c-70 0 -111 41 -111 95z" fill="currentColor"/>
</g>
<g transform="translate(48.7213, 46.3677)">
<text font-family="serif" font-size="2.4697" text-anchor="start" fill="currentColor">
<tspan>or</tspan>
</text>
</g>
<g transform="translate(50.3204, 39.6424)">
<rect x="-0.0757" y="-1.5000" width="0.1514" height="3.3286" ry="0.0500" fill="currentColor"/>
</g>
<g transform="translate(61.5861, 37.0842)">
<text font-family="sans" font-size="1.9604" text-anchor="start" fill="currentColor">
<tspan>D</tspan>
</text>
</g>
<g transform="translate(61.5861, 39.6424)">
<path transform="scale(0.0040, -0.0040)" d="M70 205c81 0 46 -96 90 -96c14 0 50 42 56 55c4 7 10 11 17 11s14 -4 17 -11l-119 -414c-9 -8 -21 -12 -32 -12s-23 4 -32 12l118 326c-33 -12 -66 -22 -101 -22c-58 0 -86 40 -86 79c0 36 24 72 72 72z" fill="currentColor"/>
</g>
<g transform="translate(66.9148, 39.6424)">
<path stroke-width="0.0931" stroke-linejoin="round" stroke-linecap="round" stroke="currentColor" fill="currentColor" d="M1.5008 2.0000C2.2766 2.7816 4.6539 2.7816 5.4297 2.0000L5.4297 2.0000C4.6539 2.6418 2.2766 2.6418 1.5008 2.0000z"/>
</g>
<g transform="translate(66.9148, 41.1424)">
<path transform="scale(0.0040, -0.0040)" d="M0 -43c0 92 111 181 211 181c65 0 115 -37 115 -95c0 -88 -106 -181 -215 -181c-70 0 -111 41 -111 95z" fill="currentColor"/>
</g>
<g transform="translate(66.9148, 46.3677)">
<text font-family="serif" font-size="2.4697" text-anchor="start" fill="currentColor">
<tspan>fro</tspan>
</text>
</g>
<g transform="translate(68.1400, 39.6424)">
<rect x="-0.0757" y="-1.8182" width="0.1514" height="3.1468" ry="0.0500" fill="currentColor"/>
</g>
<g transform="translate(73.1052, 46.3677)">
<rect x="0.0000" y="-0.5714" width="0.6600" height="0.1514" ry="0.0466" fill="currentColor"/>
</g>
<g transform="translate(72.5445, 41.1424)">
<path transform="scale(0.0040, -0.0040)" d="M0 -43c0 92 111 181 211 181c65 0 115 -37 115 -95c0 -88 -106 -181 -215 -181c-70 0 -111 41 -111 95z" fill="currentColor"/>
</g>
<g transform="translate(73.7697, 39.6424)">
<rect x="-0.0757" y="-1.8182" width="0.1514" height="3.1468" ry="0.0500" fill="currentColor"/>
</g>
<g transform="translate(68.0643, 37.8242)">
<polygon stroke-linejoin="round" stroke-linecap="round" stroke-width="0.1000" fill="currentColor" stroke="currentColor" points="11.3607 -0.1900 11.3607 0.1900 0.0500 0.1900 0.0500 -0.1900"/>
</g>
<g transform="translate(78.1742, 41.1424)">
<path transform="scale(0.0040, -0.0040)" d="M0 -43c0 92 111 181 211 181c65 0 115 -37 115 -95c0 -88 -106 -181 -215 -181c-70 0 -111 41 -111 95z" fill="currentColor"/>
</g>
<g transform="translate(77.0961, 46.3677)">
<text font-family="serif" font-size="2.4697" text-anchor="start" fill="currentColor">
<tspan>zen</tspan>
</text>
</g>
<g transform="translate(79.3994, 39.6424)">
<rect x="-0.0757" y="-1.8182" width="0.1514" height="3.1468" ry="0.0500" fill="currentColor"/>
</g>
<g transform="translate(83.5750, 42.1424)">
<path transform="scale(0.0040, -0.0040)" d="M0 -43c0 92 111 181 211 181c65 0 115 -37 115 -95c0 -88 -106 -181 -215 -181c-70 0 -111 41 -111 95z" fill="currentColor"/>
</g>
<g transform="translate(81.0031, 46.3677)">
<text font-family="serif" font-size="2.4697" text-anchor="start" fill="currentColor">
<tspan>numb)</tspan>
</text>
</g>
<g transform="translate(84.8002, 39.6424)">
<rect x="-0.0757" y="-1.0000" width="0.1514" height="3.3286" ry="0.0500" fill="currentColor"/>
</g>
<g transform="translate(93.2836, 43.6424)">
<path transform="scale(0.0040, -0.0040)" d="M0 -43c0 92 111 181 211 181c65 0 115 -37 115 -95c0 -88 -106 -181 -215 -181c-70 0 -111 41 -111 95z" fill="currentColor"/>
</g>
<g transform="translate(90.9678, 46.3677)">
<text font-family="serif" font-size="2.4697" text-anchor="start" fill="currentColor">
<tspan>We’re</tspan>
</text>
</g>
<g transform="translate(94.5087, 39.6424)">
<rect x="-0.0757" y="-0.0000" width="0.1514" height="3.8286" ry="0.0500" fill="currentColor"/>
</g>
<g transform="translate(105.6795, 42.1424)">
<path transform="scale(0.0040, -0.0040)" d="M0 -43c0 92 111 181 211 181c65 0 115 -37 115 -95c0 -88 -106 -181 -215 -181c-70 0 -111 41 -111 95z" fill="currentColor"/>
</g>
<g transform="translate(104.1960, 46.3677)">
<text font-family="serif" font-size="2.4697" text-anchor="start" fill="currentColor">
<tspan>nine</tspan>
</text>
</g>
<g transform="translate(106.9047, 39.6424)">
<rect x="-0.0757" y="-0.8182" width="0.1514" height="3.1468" ry="0.0500" fill="currentColor"/>
</g>
<g transform="translate(111.3092, 42.1424)">
<path transform="scale(0.0040, -0.0040)" d="M0 -43c0 92 111 181 211 181c65 0 115 -37 115 -95c0 -88 -106 -181 -215 -181c-70 0 -111 41 -111 95z" fill="currentColor"/>
</g>
<g transform="translate(110.5939, 46.3677)">
<text font-family="serif" font-size="2.4697" text-anchor="start" fill="currentColor">
<tspan>ty-</tspan>
</text>
</g>
<g transform="translate(112.5344, 39.6424)">
<rect x="-0.0757" y="-0.8182" width="0.1514" height="3.1468" ry="0.0500" fill="currentColor"/>
</g>
<g transform="translate(21.6728, 46.3677)">
<rect x="0.0000" y="-0.5714" width="0.6600" height="0.1514" ry="0.0466" fill="currentColor"/>
</g>
<g transform="translate(116.9389, 42.1424)">
<path transform="scale(0.0040, -0.0040)" d="M0 -43c0 92 111 181 211 181c65 0 115 -37 115 -95c0 -88 -106 -181 -215 -181c-70 0 -111 41 -111 95z" fill="currentColor"/>
</g>
<g transform="translate(115.1139, 46.3677)">
<text font-family="serif" font-size="2.4697" text-anchor="start" fill="currentColor">
<tspan>three</tspan>
</text>
</g>
<g transform="translate(118.1641, 39.6424)">
<rect x="-0.0757" y="-1.0000" width="0.1514" height="3.3286" ry="0.0500" fill="currentColor"/>
</g>
<g transform="translate(19.0682, 38.6424)">
<polygon stroke-linejoin="round" stroke-linecap="round" stroke-width="0.1000" fill="currentColor" stroke="currentColor" points="5.7310 -0.1900 5.7310 0.1900 0.0500 0.1900 0.0500 -0.1900"/>
</g>
<g transform="translate(126.8975, 42.1424)">
<path transform="scale(0.0040, -0.0040)" d="M0 -43c0 92 111 181 211 181c65 0 115 -37 115 -95c0 -88 -106 -181 -215 -181c-70 0 -111 41 -111 95z" fill="currentColor"/>
</g>
<g transform="translate(125.9048, 46.3677)">
<text font-family="serif" font-size="2.4697" text-anchor="start" fill="currentColor">
<tspan>mil</tspan>
</text>
</g>
<g transform="translate(128.1226, 39.6424)">
<rect x="-0.0757" y="-1.0000" width="0.1514" height="3.3286" ry="0.0500" fill="currentColor"/>
</g>
<g transform="translate(136.8561, 42.1424)">
<path transform="scale(0.0040, -0.0040)" d="M0 -43c0 92 111 181 211 181c65 0 115 -37 115 -95c0 -88 -106 -181 -215 -181c-70 0 -111 41 -111 95z" fill="currentColor"/>
</g>
<g transform="translate(135.5859, 46.3677)">
<text font-family="serif" font-size="2.4697" text-anchor="start" fill="currentColor">
<tspan>lion</tspan>
</text>
</g>
<g transform="translate(138.0812, 39.6424)">
<rect x="-0.0757" y="-1.0000" width="0.1514" height="3.3286" ry="0.0500" fill="currentColor"/>
</g>
<g transform="translate(64.7488, 51.8617)">
<rect x="0.0000" y="-2.0000" width="0.2212" height="4.0000" ry="0.0000" fill="currentColor"/>
</g>
<g transform="translate(9.0337, 53.8617)">
<line stroke-linejoin="round" stroke-linecap="round" stroke-width="0.1164" stroke="currentColor" x1="0.0582" y1="0" x2="138.1582" y2="0"/>
</g>
<g transform="translate(9.0337, 52.8617)">
<line stroke-linejoin="round" stroke-linecap="round" stroke-width="0.1164" stroke="currentColor" x1="0.0582" y1="0" x2="138.1582" y2="0"/>
</g>
<g transform="translate(9.0337, 51.8617)">
<line stroke-linejoin="round" stroke-linecap="round" stroke-width="0.1164" stroke="currentColor" x1="0.0582" y1="0" x2="138.1582" y2="0"/>
</g>
<g transform="translate(9.0337, 50.8617)">
<line stroke-linejoin="round" stroke-linecap="round" stroke-width="0.1164" stroke="currentColor" x1="0.0582" y1="0" x2="138.1582" y2="0"/>
</g>
<g transform="translate(9.0337, 49.8617)">
<line stroke-linejoin="round" stroke-linecap="round" stroke-width="0.1164" stroke="currentColor" x1="0.0582" y1="0" x2="138.1582" y2="0"/>
</g>
<g transform="translate(146.5516, 51.8617)">
<rect x="0.0000" y="-2.0000" width="0.6986" height="4.0000" ry="0.0000" fill="currentColor"/>
</g>
<g transform="translate(145.9811, 51.8617)">
<rect x="0.0000" y="-2.0000" width="0.2212" height="4.0000" ry="0.0000" fill="currentColor"/>
</g>
<g transform="translate(114.6209, 51.8617)">
<rect x="0.0000" y="-2.0000" width="0.2212" height="4.0000" ry="0.0000" fill="currentColor"/>
</g>
<g transform="translate(9.8338, 52.8617)">
<path transform="scale(0.0040, -0.0040)" d="M647 2c0 -114 -75 -214 -180 -248c3 -33 4 -66 4 -99c0 -21 0 -41 -1 -62c-7 -122 -92 -229 -211 -229c-108 0 -196 88 -196 197c0 58 54 103 113 103c54 0 95 -47 95 -103c0 -52 -43 -95 -95 -95c-9 0 -18 1 -27 4c25 -37 66 -61 113 -61c93 0 156 91 162 191
c1 19 2 38 2 57c0 29 -1 58 -3 87c-28 -5 -54 -8 -79 -8c-242 0 -342 222 -342 376c0 177 129 308 244 443c-33 100 -55 169 -55 347c0 186 141 292 159 292c33 0 148 -208 148 -361c0 -142 -84 -255 -176 -364c21 -68 40 -136 57 -205c3 0 8 1 11 1
c156 0 257 -129 257 -263zM406 148c28 -133 49 -269 57 -349c73 27 109 93 109 160c0 86 -58 175 -166 189zM77 25c0 -111 96 -243 275 -243c21 0 44 1 67 5c-7 66 -27 208 -60 362c-79 -8 -124 -60 -124 -118c0 -43 25 -88 80 -120c5 -5 7 -11 7 -17c0 -12 -10 -23 -23 -23
c-16 0 -128 62 -128 188c0 89 60 177 163 200c-14 57 -30 113 -47 169c-105 -122 -210 -243 -210 -403zM424 920c0 61 -20 118 -21 118c-31 -14 -161 -85 -161 -253c0 -53 15 -113 39 -189c71 88 143 196 143 324z" fill="currentColor"/>
</g>
<g transform="translate(13.2188, 49.8617)">
<path transform="scale(0.0040, -0.0040)" d="M0 116c0 10 6 19 16 23l40 15v154c0 12 9 21 21 21s21 -9 21 -21v-138l79 30v154c0 12 9 21 21 21s21 -9 21 -21v-138l22 8c3 1 6 2 9 2c13 0 25 -11 25 -25v-54c0 -10 -6 -20 -16 -24l-40 -15v-155l22 9c3 1 6 1 9 1c13 0 25 -11 25 -25v-54c0 -10 -6 -19 -16 -23
l-40 -15v-154c0 -12 -9 -21 -21 -21s-21 9 -21 21v138l-79 -30v-154c0 -12 -9 -21 -21 -21s-21 9 -21 21v138l-22 -8c-3 -1 -6 -2 -9 -2c-13 0 -25 11 -25 25v54c0 10 6 20 16 24l40 15v155l-22 -9c-3 -1 -6 -1 -9 -1c-13 0 -25 11 -25 25v54zM177 92l-79 -30v-154l79 30
v154z" fill="currentColor"/>
</g>
<g transform="translate(14.3188, 51.3617)">
<path transform="scale(0.0040, -0.0040)" d="M0 116c0 10 6 19 16 23l40 15v154c0 12 9 21 21 21s21 -9 21 -21v-138l79 30v154c0 12 9 21 21 21s21 -9 21 -21v-138l22 8c3 1 6 2 9 2c13 0 25 -11 25 -25v-54c0 -10 -6 -20 -16 -24l-40 -15v-155l22 9c3 1 6 1 9 1c13 0 25 -11 25 -25v-54c0 -10 -6 -19 -16 -23
l-40 -15v-154c0 -12 -9 -21 -21 -21s-21 9 -21 21v138l-79 -30v-154c0 -12 -9 -21 -21 -21s-21 9 -21 21v138l-22 -8c-3 -1 -6 -2 -9 -2c-13 0 -25 11 -25 25v54c0 10 6 20 16 24l40 15v155l-22 -9c-3 -1 -6 -1 -9 -1c-13 0 -25 11 -25 25v54zM177 92l-79 -30v-154l79 30
v154z" fill="currentColor"/>
</g>
<g transform="translate(8.1802, 48.7912)">
<text font-family="serif" font-size="1.7463" text-anchor="start" fill="currentColor">
<tspan>6</tspan>
</text>
</g>
<g transform="translate(108.3124, 51.8617)">
<path stroke-width="0.0931" stroke-linejoin="round" stroke-linecap="round" stroke="currentColor" fill="currentColor" d="M1.5008 3.0000C2.5659 3.9016 7.4987 3.9016 8.5638 3.0000L8.5638 3.0000C7.4987 3.7619 2.5659 3.7619 1.5008 3.0000z"/>
</g>
<g transform="translate(17.9187, 49.3034)">
<text font-family="sans" font-size="1.9604" text-anchor="start" fill="currentColor">
<tspan>D</tspan>
</text>
</g>
<g transform="translate(17.9187, 51.8617)">
<path transform="scale(0.0040, -0.0040)" d="M70 205c81 0 46 -96 90 -96c14 0 50 42 56 55c4 7 10 11 17 11s14 -4 17 -11l-119 -414c-9 -8 -21 -12 -32 -12s-23 4 -32 12l118 326c-33 -12 -66 -22 -101 -22c-58 0 -86 40 -86 79c0 36 24 72 72 72z" fill="currentColor"/>
</g>
<g transform="translate(23.6762, 53.3617)">
<path transform="scale(0.0040, -0.0040)" d="M0 -43c0 92 111 181 211 181c65 0 115 -37 115 -95c0 -88 -106 -181 -215 -181c-70 0 -111 41 -111 95z" fill="currentColor"/>
</g>
<g transform="translate(23.6762, 57.7181)">
<text font-family="serif" font-size="2.4697" text-anchor="start" fill="currentColor">
<tspan>miles</tspan>
</text>
</g>
<g transform="translate(24.9014, 51.8617)">
<rect x="-0.0757" y="-1.8182" width="0.1514" height="3.1468" ry="0.0500" fill="currentColor"/>
</g>
<g transform="translate(29.7347, 53.3617)">
<path transform="scale(0.0040, -0.0040)" d="M0 -43c0 92 111 181 211 181c65 0 115 -37 115 -95c0 -88 -106 -181 -215 -181c-70 0 -111 41 -111 95z" fill="currentColor"/>
</g>
<g transform="translate(30.9598, 51.8617)">
<rect x="-0.0757" y="-1.8182" width="0.1514" height="3.1468" ry="0.0500" fill="currentColor"/>
</g>
<g transform="translate(91.2865, 50.8617)">
<polygon stroke-linejoin="round" stroke-linecap="round" stroke-width="0.1000" fill="currentColor" stroke="currentColor" points="18.2767 -0.1900 18.2767 0.1900 0.0500 0.1900 0.0500 -0.1900"/>
</g>
<g transform="translate(35.7931, 53.3617)">
<path transform="scale(0.0040, -0.0040)" d="M0 -43c0 92 111 181 211 181c65 0 115 -37 115 -95c0 -88 -106 -181 -215 -181c-70 0 -111 41 -111 95z" fill="currentColor"/>
</g>
<g transform="translate(35.7931, 57.7181)">
<text font-family="serif" font-size="2.4697" text-anchor="start" fill="currentColor">
<tspan>from</tspan>
</text>
</g>
<g transform="translate(37.0182, 51.8617)">
<rect x="-0.0757" y="-1.8182" width="0.1514" height="3.1468" ry="0.0500" fill="currentColor"/>
</g>
<g transform="translate(41.6015, 54.3617)">
<path transform="scale(0.0040, -0.0040)" d="M0 -43c0 92 111 181 211 181c65 0 115 -37 115 -95c0 -88 -106 -181 -215 -181c-70 0 -111 41 -111 95z" fill="currentColor"/>
</g>
<g transform="translate(42.8267, 51.8617)">
<rect x="-0.0757" y="-1.0000" width="0.1514" height="3.3286" ry="0.0500" fill="currentColor"/>
</g>
<g transform="translate(81.2311, 57.7181)">
<rect x="0.0000" y="-0.5714" width="0.6600" height="0.1514" ry="0.0466" fill="currentColor"/>
</g>
<g transform="translate(52.4176, 54.3617)">
<path transform="scale(0.0040, -0.0040)" d="M0 -43c0 92 111 181 211 181c65 0 115 -37 115 -95c0 -88 -106 -181 -215 -181c-70 0 -111 41 -111 95z" fill="currentColor"/>
</g>
<g transform="translate(50.6567, 57.7181)">
<text font-family="serif" font-size="2.4697" text-anchor="start" fill="currentColor">
<tspan>Nine</tspan>
</text>
</g>
<g transform="translate(53.6428, 51.8617)">
<rect x="-0.0757" y="-0.8182" width="0.1514" height="3.1468" ry="0.0500" fill="currentColor"/>
</g>
<g transform="translate(79.1697, 50.0434)">
<polygon stroke-linejoin="round" stroke-linecap="round" stroke-width="0.1000" fill="currentColor" stroke="currentColor" points="6.1598 -0.1900 6.1598 0.1900 0.0500 0.1900 0.0500 -0.1900"/>
</g>
<g transform="translate(58.4761, 54.3617)">
<path transform="scale(0.0040, -0.0040)" d="M0 -43c0 92 111 181 211 181c65 0 115 -37 115 -95c0 -88 -106 -181 -215 -181c-70 0 -111 41 -111 95z" fill="currentColor"/>
</g>
<g transform="translate(57.7607, 57.7181)">
<text font-family="serif" font-size="2.4697" text-anchor="start" fill="currentColor">
<tspan>ty-</tspan>
</text>
</g>
<g transform="translate(59.7012, 51.8617)">
<rect x="-0.0757" y="-0.8182" width="0.1514" height="3.1468" ry="0.0500" fill="currentColor"/>
</g>
<g transform="translate(67.2041, 53.3617)">
<path transform="scale(0.0040, -0.0040)" d="M0 -43c0 92 111 181 211 181c65 0 115 -37 115 -95c0 -88 -106 -181 -215 -181c-70 0 -111 41 -111 95z" fill="currentColor"/>
</g>
<g transform="translate(65.3791, 57.7181)">
<text font-family="serif" font-size="2.4697" text-anchor="start" fill="currentColor">
<tspan>three</tspan>
</text>
</g>
<g transform="translate(68.4293, 51.8617)">
<rect x="-0.0757" y="-2.0000" width="0.1514" height="3.3286" ry="0.0500" fill="currentColor"/>
</g>
<g transform="translate(56.2901, 57.7181)">
<rect x="0.0000" y="-0.5714" width="0.6600" height="0.1514" ry="0.0466" fill="currentColor"/>
</g>
<g transform="translate(78.0202, 53.3617)">
<path transform="scale(0.0040, -0.0040)" d="M0 -43c0 92 111 181 211 181c65 0 115 -37 115 -95c0 -88 -106 -181 -215 -181c-70 0 -111 41 -111 95z" fill="currentColor"/>
</g>
<g transform="translate(77.0275, 57.7181)">
<text font-family="serif" font-size="2.4697" text-anchor="start" fill="currentColor">
<tspan>mil</tspan>
</text>
</g>
<g transform="translate(79.2453, 51.8617)">
<rect x="-0.0757" y="-1.8182" width="0.1514" height="3.1468" ry="0.0500" fill="currentColor"/>
</g>
<g transform="translate(84.0786, 53.3617)">
<path transform="scale(0.0040, -0.0040)" d="M0 -43c0 92 111 181 211 181c65 0 115 -37 115 -95c0 -88 -106 -181 -215 -181c-70 0 -111 41 -111 95z" fill="currentColor"/>
</g>
<g transform="translate(85.3038, 51.8617)">
<rect x="-0.0757" y="-1.8182" width="0.1514" height="3.1468" ry="0.0500" fill="currentColor"/>
</g>
<g transform="translate(53.5671, 51.0434)">
<polygon stroke-linejoin="round" stroke-linecap="round" stroke-width="0.1000" fill="currentColor" stroke="currentColor" points="6.1598 -0.1900 6.1598 0.1900 0.0500 0.1900 0.0500 -0.1900"/>
</g>
<g transform="translate(90.1371, 49.3034)">
<text font-family="sans" font-size="1.9604" text-anchor="start" fill="currentColor">
<tspan>A</tspan>
</text>
</g>
<g transform="translate(91.4601, 48.4125)">
<text font-family="sans" font-size="1.3856" text-anchor="start" fill="currentColor">
<tspan>7</tspan>
</text>
</g>
<g transform="translate(90.1371, 53.8617)">
<path transform="scale(0.0040, -0.0040)" d="M0 -43c0 92 111 181 211 181c65 0 115 -37 115 -95c0 -88 -106 -181 -215 -181c-70 0 -111 41 -111 95z" fill="currentColor"/>
</g>
<g transform="translate(88.0987, 57.7181)">
<text font-family="serif" font-size="2.4697" text-anchor="start" fill="currentColor">
<tspan>miles</tspan>
</text>
</g>
<g transform="translate(91.3622, 51.8617)">
<rect x="-0.0757" y="-1.0000" width="0.1514" height="2.8286" ry="0.0500" fill="currentColor"/>
</g>
<g transform="translate(96.1955, 53.8617)">
<path transform="scale(0.0040, -0.0040)" d="M0 -43c0 92 111 181 211 181c65 0 115 -37 115 -95c0 -88 -106 -181 -215 -181c-70 0 -111 41 -111 95z" fill="currentColor"/>
</g>
<g transform="translate(94.4559, 57.7181)">
<text font-family="serif" font-size="2.4697" text-anchor="start" fill="currentColor">
<tspan>from</tspan>
</text>
</g>
<g transform="translate(97.4207, 51.8617)">
<rect x="-0.0757" y="-1.0000" width="0.1514" height="2.8286" ry="0.0500" fill="currentColor"/>
</g>
<g transform="translate(35.7931, 51.8617)">
<path stroke-width="0.0931" stroke-linejoin="round" stroke-linecap="round" stroke="currentColor" fill="currentColor" d="M0.5768 2.5527C1.6496 3.9171 4.9180 4.4797 6.3853 3.5527L6.3853 3.5527C4.9417 4.3421 1.6733 3.7794 0.5768 2.5527z"/>
</g>
<g transform="translate(102.2540, 53.8617)">
<path transform="scale(0.0040, -0.0040)" d="M0 -43c0 92 111 181 211 181c65 0 115 -37 115 -95c0 -88 -106 -181 -215 -181c-70 0 -111 41 -111 95z" fill="currentColor"/>
</g>
<g transform="translate(101.3893, 57.7181)">
<text font-family="serif" font-size="2.4697" text-anchor="start" fill="currentColor">
<tspan>the</tspan>
</text>
</g>
<g transform="translate(103.4791, 51.8617)">
<rect x="-0.0757" y="-1.0000" width="0.1514" height="2.8286" ry="0.0500" fill="currentColor"/>
</g>
<g transform="translate(108.3124, 54.3617)">
<path transform="scale(0.0040, -0.0040)" d="M0 -43c0 92 111 181 211 181c65 0 115 -37 115 -95c0 -88 -106 -181 -215 -181c-70 0 -111 41 -111 95z" fill="currentColor"/>
</g>
<g transform="translate(108.3124, 57.7181)">
<text font-family="serif" font-size="2.4697" text-anchor="start" fill="currentColor">
<tspan>sun!</tspan>
</text>
</g>
<g transform="translate(109.5376, 51.8617)">
<rect x="-0.0757" y="-1.0000" width="0.1514" height="3.3286" ry="0.0500" fill="currentColor"/>
</g>
<g transform="translate(23.6762, 51.8617)">
<path stroke-width="0.0931" stroke-linejoin="round" stroke-linecap="round" stroke="currentColor" fill="currentColor" d="M1.5008 2.0000C2.3263 2.8067 5.0330 2.8067 5.8584 2.0000L5.8584 2.0000C5.0330 2.6669 2.3263 2.6669 1.5008 2.0000z"/>
</g>
<g transform="translate(117.0762, 49.3034)">
<text font-family="sans" font-size="1.9604" text-anchor="start" fill="currentColor">
<tspan>D</tspan>
</text>
</g>
<g transform="translate(117.0762, 54.3617)">
<path transform="scale(0.0040, -0.0040)" d="M76 -103c39 0 197 107 224 139c7 8 10 18 10 27c0 21 -17 40 -40 40c-39 0 -197 -107 -224 -139c-7 -8 -10 -18 -10 -27c0 -21 17 -40 40 -40zM0 -63c0 40 15 201 253 201c43 0 93 -10 93 -75c0 -40 -15 -201 -253 -201c-43 0 -93 10 -93 75z" fill="currentColor"/>
</g>
<g transform="translate(118.9013, 54.3617)">
<path transform="scale(0.0040, -0.0040)" d="M0 0c0 30 25 55 55 55s55 -25 55 -55s-25 -55 -55 -55s-55 25 -55 55z" fill="currentColor"/>
</g>
<g transform="translate(118.3842, 51.8617)">
<rect x="-0.0757" y="-1.0000" width="0.1514" height="3.2545" ry="0.0500" fill="currentColor"/>
</g>
<g transform="translate(24.8257, 50.0434)">
<polygon stroke-linejoin="round" stroke-linecap="round" stroke-width="0.1000" fill="currentColor" stroke="currentColor" points="12.2182 -0.1900 12.2182 0.1900 0.0500 0.1900 0.0500 -0.1900"/>
</g>
<g transform="translate(135.5158, 51.8617)">
<path transform="scale(0.0040, -0.0040)" d="M-9 78c0 59 124 84 124 182c0 25 -9 50 -26 70l-31 37c-3 4 -4 8 -4 12c0 10 9 18 19 18c5 0 9 -1 13 -6l149 -178c7 -9 11 -17 11 -26c0 -59 -124 -84 -124 -182c0 -25 9 -51 26 -71l79 -94c3 -4 4 -8 4 -12c0 -10 -9 -18 -19 -18c-11 0 -38 40 -102 40
c-23 0 -55 -4 -55 -65s29 -94 29 -98c0 -5 -4 -9 -9 -9c-14 0 -99 130 -99 203c0 41 26 43 46 43c30 0 69 -9 106 -23l-126 151c-7 9 -11 17 -11 26z" fill="currentColor"/>
</g>
<g transform="translate(82.8085, 57.7181)">
<text font-family="serif" font-size="2.4697" text-anchor="start" fill="currentColor">
<tspan>lion</tspan>
</text>
</g>
<g transform="translate(57.7187, 66.8617)">
<text font-family="serif" font-weight="bold" font-size="2.2001" text-anchor="start" fill="currentColor">
<tspan>2.</tspan>
</text>
</g>
<g transform="translate(59.9832, 66.8617)">
<text font-family="serif" font-size="2.2001" text-anchor="start" fill="currentColor">
<tspan>The awesome earth is tilted twenty-three— </tspan>
</text>
</g>
<g transform="translate(59.9832, 69.8617)">
<text font-family="serif" font-size="2.2001" text-anchor="start" fill="currentColor">
<tspan>For winter and summer—variety! </tspan>
</text>
</g>
<g transform="translate(59.9832, 72.8617)">
<text font-family="serif" font-size="2.2001" text-anchor="start" fill="currentColor">
<tspan>The awesome earth is tilted twenty-three— </tspan>
</text>
</g>
<g transform="translate(59.9832, 75.8617)">
<text font-family="serif" font-size="2.2001" text-anchor="start" fill="currentColor">
<tspan>Yes, it’s tilted twenty-three degrees. </tspan>
</text>
</g>
<g transform="translate(59.9832, 77.8617)">
<text font-family="serif" font-size="1.5557" text-anchor="start" fill="currentColor">
<tspan> </tspan>
</text>
</g>
<g transform="translate(57.7187, 80.8617)">
<text font-family="serif" font-weight="bold" font-size="2.2001" text-anchor="start" fill="currentColor">
<tspan>3.</tspan>
</text>
</g>
<g transform="translate(59.9832, 80.8617)">
<text font-family="serif" font-size="2.2001" text-anchor="start" fill="currentColor">
<tspan>We’re circling the sun consistently; </tspan>
</text>
</g>
<g transform="translate(59.9832, 83.8617)">
<text font-family="serif" font-size="2.2001" text-anchor="start" fill="currentColor">
<tspan>Three hundred sixty-five days—reliably! </tspan>
</text>
</g>
<g transform="translate(59.9832, 86.8617)">
<text font-family="serif" font-size="2.2001" text-anchor="start" fill="currentColor">
<tspan>We’re circling the sun consistently; </tspan>
</text>
</g>
<g transform="translate(59.9832, 89.8617)">
<text font-family="serif" font-size="2.2001" text-anchor="start" fill="currentColor">
<tspan>Going sixty-seven thousand miles an hour. </tspan>
</text>
</g>
<g transform="translate(59.9832, 91.8617)">
<text font-family="serif" font-size="1.5557" text-anchor="start" fill="currentColor">
<tspan> </tspan>
</text>
</g>
<g transform="translate(57.7187, 94.8617)">
<text font-family="serif" font-weight="bold" font-size="2.2001" text-anchor="start" fill="currentColor">
<tspan>4.</tspan>
</text>
</g>
<g transform="translate(59.9832, 94.8617)">
<text font-family="serif" font-size="2.2001" text-anchor="start" fill="currentColor">
<tspan>God made the earth’s orbit—just right! </tspan>
</text>
</g>
<g transform="translate(59.9832, 97.8617)">
<text font-family="serif" font-size="2.2001" text-anchor="start" fill="currentColor">
<tspan>It’s scientific—accurate—precise! </tspan>
</text>
</g>
<g transform="translate(59.9832, 100.8617)">
<text font-family="serif" font-size="2.2001" text-anchor="start" fill="currentColor">
<tspan>God made the earth’s orbit—just right! </tspan>
</text>
</g>
<g transform="translate(59.9832, 103.8617)">
<text font-family="serif" font-size="2.2001" text-anchor="start" fill="currentColor">
<tspan>Now isn’t it a beautiful sight? </tspan>
</text>
</g>
<g transform="translate(59.9832, 105.8617)">
<text font-family="serif" font-size="1.5557" text-anchor="start" fill="currentColor">
<tspan> </tspan>
</text>
</g>
<g transform="translate(43.8041, 191.9677)">
<text font-family="Trebuchet MS" font-size="2.2001" text-anchor="start" fill="currentColor">
<tspan>www.hymnal.net; </tspan>
</text>
</g>
<g transform="translate(62.5000, 191.9677)">
<text font-family="Trebuchet MS" font-size="2.2001" text-anchor="start" fill="currentColor">
<tspan>©</tspan>
</text>
</g>
<g transform="translate(64.6792, 191.9677)">
<text font-family="Trebuchet MS" font-size="2.2001" text-anchor="start" fill="currentColor">
<tspan> 2013 Bible StorySongs, Inc. Used by permission.</tspan>
</text>
</g>
</svg>
