<svg xmlns="http://www.w3.org/2000/svg" xmlns:xlink="http://www.w3.org/1999/xlink" version="1.2" width="215.90mm" height="279.40mm" viewBox="0.0000 -0.0000 153.5737 198.7425">
<style type="text/css">
<![CDATA[
tspan { white-space: pre; }
]]>
</style>
<g transform="translate(49.2695, 12.4322)">
<text font-family="serif" font-weight="bold" font-size="3.1113" text-anchor="start" fill="currentColor">
<tspan>Listen, listen, your conscience speaks to you</tspan>
</text>
</g>
<g transform="translate(50.2298, 15.9322)">
<text font-family="serif" font-weight="bold" font-size="2.2001" text-anchor="start" fill="currentColor">
<tspan>Principles on How to Be a Proper Human Being — General</tspan>
</text>
</g>
<g transform="translate(9.0337, 18.3969)">
<text font-family="serif" font-weight="bold" font-style="italic" font-size="2.2001" text-anchor="start" fill="currentColor">
<tspan>(Guitar: Capo 3)</tspan>
</text>
</g>
<g transform="translate(85.1505, 28.0574)">
<rect x="0.0000" y="-2.0000" width="0.2212" height="4.0000" ry="0.0000" fill="currentColor"/>
</g>
<g transform="translate(9.0337, 30.0574)">
<line stroke-linejoin="round" stroke-linecap="round" stroke-width="0.1164" stroke="currentColor" x1="0.0582" y1="0" x2="138.1582" y2="0"/>
</g>
<g transform="translate(9.0337, 29.0574)">
<line stroke-linejoin="round" stroke-linecap="round" stroke-width="0.1164" stroke="currentColor" x1="0.0582" y1="0" x2="138.1582" y2="0"/>
</g>
<g transform="translate(9.0337, 28.0574)">
<line stroke-linejoin="round" stroke-linecap="round" stroke-width="0.1164" stroke="currentColor" x1="0.0582" y1="0" x2="138.1582" y2="0"/>
</g>
<g transform="translate(9.0337, 27.0574)">
<line stroke-linejoin="round" stroke-linecap="round" stroke-width="0.1164" stroke="currentColor" x1="0.0582" y1="0" x2="138.1582" y2="0"/>
</g>
<g transform="translate(9.0337, 26.0574)">
<line stroke-linejoin="round" stroke-linecap="round" stroke-width="0.1164" stroke="currentColor" x1="0.0582" y1="0" x2="138.1582" y2="0"/>
</g>
<g transform="translate(147.0289, 28.0574)">
<rect x="0.0000" y="-2.0000" width="0.2212" height="4.0000" ry="0.0000" fill="currentColor"/>
</g>
<g transform="translate(19.9331, 24.4734)">
<text font-family="sans" font-size="1.9604" text-anchor="start" fill="currentColor">
<tspan>G</tspan>
</text>
</g>
<g transform="translate(19.9331, 29.5574)">
<path transform="scale(0.0040, -0.0040)" d="M0 -43c0 92 111 181 211 181c65 0 115 -37 115 -95c0 -88 -106 -181 -215 -181c-70 0 -111 41 -111 95z" fill="currentColor"/>
</g>
<g transform="translate(9.8338, 29.0574)">
<path transform="scale(0.0040, -0.0040)" d="M647 2c0 -114 -75 -214 -180 -248c3 -33 4 -66 4 -99c0 -21 0 -41 -1 -62c-7 -122 -92 -229 -211 -229c-108 0 -196 88 -196 197c0 58 54 103 113 103c54 0 95 -47 95 -103c0 -52 -43 -95 -95 -95c-9 0 -18 1 -27 4c25 -37 66 -61 113 -61c93 0 156 91 162 191
c1 19 2 38 2 57c0 29 -1 58 -3 87c-28 -5 -54 -8 -79 -8c-242 0 -342 222 -342 376c0 177 129 308 244 443c-33 100 -55 169 -55 347c0 186 141 292 159 292c33 0 148 -208 148 -361c0 -142 -84 -255 -176 -364c21 -68 40 -136 57 -205c3 0 8 1 11 1
c156 0 257 -129 257 -263zM406 148c28 -133 49 -269 57 -349c73 27 109 93 109 160c0 86 -58 175 -166 189zM77 25c0 -111 96 -243 275 -243c21 0 44 1 67 5c-7 66 -27 208 -60 362c-79 -8 -124 -60 -124 -118c0 -43 25 -88 80 -120c5 -5 7 -11 7 -17c0 -12 -10 -23 -23 -23
c-16 0 -128 62 -128 188c0 89 60 177 163 200c-14 57 -30 113 -47 169c-105 -122 -210 -243 -210 -403zM424 920c0 61 -20 118 -21 118c-31 -14 -161 -85 -161 -253c0 -53 15 -113 39 -189c71 88 143 196 143 324z" fill="currentColor"/>
</g>
<g transform="translate(13.3595, 28.0574)">
<path transform="scale(0.0040, -0.0040)" d="M31 37l-2 -62v-11c0 -22 2 -43 5 -64c43 38 89 80 89 137c0 32 -14 65 -42 65c-31 0 -49 -32 -50 -65zM-30 450c9 5 20 8 30 8s21 -3 30 -8l-8 -340c25 24 59 38 94 38c50 0 84 -50 84 -104c0 -78 -83 -117 -141 -169c-17 -15 -25 -44 -49 -44c-15 0 -26 13 -26 29z" fill="currentColor"/>
</g>
<g transform="translate(14.3001, 26.5574)">
<path transform="scale(0.0040, -0.0040)" d="M31 37l-2 -62v-11c0 -22 2 -43 5 -64c43 38 89 80 89 137c0 32 -14 65 -42 65c-31 0 -49 -32 -50 -65zM-30 450c9 5 20 8 30 8s21 -3 30 -8l-8 -340c25 24 59 38 94 38c50 0 84 -50 84 -104c0 -78 -83 -117 -141 -169c-17 -15 -25 -44 -49 -44c-15 0 -26 13 -26 29z" fill="currentColor"/>
</g>
<g transform="translate(16.2501, 28.0574)">
<path transform="scale(0.0040, -0.0040)" d="M430 -89c0 -21 -49 -176 -180 -176c-145 0 -250 88 -250 265c0 63 18 265 250 265c114 0 172 -112 172 -166c0 -38 -30 -69 -66 -69c-30 0 -72 23 -72 72c0 37 26 75 70 75c3 0 6 -1 9 -1c-26 36 -67 59 -113 59c-107 0 -113 -74 -113 -189c0 -15 1 -30 1 -46
s-1 -31 -1 -46c0 -115 6 -189 113 -189c78 0 133 70 151 149c2 8 8 11 14 11c7 0 15 -5 15 -14z" fill="currentColor"/>
</g>
<g transform="translate(19.0043, 33.5479)">
<text font-family="serif" font-size="2.4697" text-anchor="start" fill="currentColor">
<tspan>Lis</tspan>
</text>
</g>
<g transform="translate(16.3398, 33.5479)">
<text font-family="serif" font-weight="bold" font-size="2.2001" text-anchor="start" fill="currentColor">
<tspan>1.</tspan>
</text>
</g>
<g transform="translate(21.1582, 28.0574)">
<rect x="-0.0757" y="-2.0000" width="0.1514" height="3.3286" ry="0.0500" fill="currentColor"/>
</g>
<g transform="translate(35.6653, 30.5574)">
<path transform="scale(0.0040, -0.0040)" d="M0 -43c0 92 111 181 211 181c65 0 115 -37 115 -95c0 -88 -106 -181 -215 -181c-70 0 -111 41 -111 95z" fill="currentColor"/>
</g>
<g transform="translate(34.5018, 33.5479)">
<text font-family="serif" font-size="2.4697" text-anchor="start" fill="currentColor">
<tspan>ten,</tspan>
</text>
</g>
<g transform="translate(36.8904, 28.0574)">
<rect x="-0.0757" y="-1.0000" width="0.1514" height="3.3286" ry="0.0500" fill="currentColor"/>
</g>
<g transform="translate(92.4017, 33.5479)">
<rect x="0.0000" y="-0.5714" width="0.6600" height="0.1514" ry="0.0466" fill="currentColor"/>
</g>
<g transform="translate(51.8975, 29.5574)">
<path transform="scale(0.0040, -0.0040)" d="M0 -43c0 92 111 181 211 181c65 0 115 -37 115 -95c0 -88 -106 -181 -215 -181c-70 0 -111 41 -111 95z" fill="currentColor"/>
</g>
<g transform="translate(51.3742, 33.5479)">
<text font-family="serif" font-size="2.4697" text-anchor="start" fill="currentColor">
<tspan>lis</tspan>
</text>
</g>
<g transform="translate(53.1226, 28.0574)">
<rect x="-0.0757" y="-2.0000" width="0.1514" height="3.3286" ry="0.0500" fill="currentColor"/>
</g>
<g transform="translate(89.7240, 25.2392)">
<polygon stroke-linejoin="round" stroke-linecap="round" stroke-width="0.1000" fill="currentColor" stroke="currentColor" points="26.2759 -0.1900 26.2759 0.1900 0.0500 0.1900 0.0500 -0.1900"/>
</g>
<g transform="translate(67.6297, 30.5574)">
<path transform="scale(0.0040, -0.0040)" d="M0 -43c0 92 111 181 211 181c65 0 115 -37 115 -95c0 -88 -106 -181 -215 -181c-70 0 -111 41 -111 95z" fill="currentColor"/>
</g>
<g transform="translate(66.4663, 33.5479)">
<text font-family="serif" font-size="2.4697" text-anchor="start" fill="currentColor">
<tspan>ten,</tspan>
</text>
</g>
<g transform="translate(68.8549, 28.0574)">
<rect x="-0.0757" y="-0.8213" width="0.1514" height="3.1500" ry="0.0500" fill="currentColor"/>
</g>
<g transform="translate(76.2712, 30.0574)">
<path transform="scale(0.0040, -0.0040)" d="M0 -43c0 92 111 181 211 181c65 0 115 -37 115 -95c0 -88 -106 -181 -215 -181c-70 0 -111 41 -111 95z" fill="currentColor"/>
</g>
<g transform="translate(74.6597, 33.5479)">
<text font-family="serif" font-size="2.4697" text-anchor="start" fill="currentColor">
<tspan>your</tspan>
</text>
</g>
<g transform="translate(77.4964, 28.0574)">
<rect x="-0.0757" y="-1.1787" width="0.1514" height="3.0073" ry="0.0500" fill="currentColor"/>
</g>
<g transform="translate(68.7792, 27.2392)">
<polygon stroke-linejoin="round" stroke-linecap="round" stroke-width="0.1000" fill="currentColor" stroke="currentColor" points="8.7429 -0.5536 8.7429 -0.1736 0.0500 0.1900 0.0500 -0.1900"/>
</g>
<g transform="translate(88.5745, 29.5574)">
<path transform="scale(0.0040, -0.0040)" d="M0 -43c0 92 111 181 211 181c65 0 115 -37 115 -95c0 -88 -106 -181 -215 -181c-70 0 -111 41 -111 95z" fill="currentColor"/>
</g>
<g transform="translate(87.4324, 33.5479)">
<text font-family="serif" font-size="2.4697" text-anchor="start" fill="currentColor">
<tspan>con</tspan>
</text>
</g>
<g transform="translate(89.7996, 28.0574)">
<rect x="-0.0757" y="-2.8182" width="0.1514" height="4.1468" ry="0.0500" fill="currentColor"/>
</g>
<g transform="translate(59.7639, 33.5479)">
<rect x="0.0000" y="-0.5714" width="0.6600" height="0.1514" ry="0.0466" fill="currentColor"/>
</g>
<g transform="translate(97.4660, 28.0574)">
<path transform="scale(0.0040, -0.0040)" d="M0 -43c0 92 111 181 211 181c65 0 115 -37 115 -95c0 -88 -106 -181 -215 -181c-70 0 -111 41 -111 95z" fill="currentColor"/>
</g>
<g transform="translate(94.4460, 33.5479)">
<text font-family="serif" font-size="2.4697" text-anchor="start" fill="currentColor">
<tspan>science</tspan>
</text>
</g>
<g transform="translate(98.6912, 28.0574)">
<rect x="-0.0757" y="-2.8182" width="0.1514" height="2.6468" ry="0.0500" fill="currentColor"/>
</g>
<g transform="translate(106.1075, 24.4734)">
<text font-family="sans" font-size="1.9604" text-anchor="start" fill="currentColor">
<tspan>C</tspan>
</text>
</g>
<g transform="translate(106.1075, 28.5574)">
<path transform="scale(0.0040, -0.0040)" d="M0 -43c0 92 111 181 211 181c65 0 115 -37 115 -95c0 -88 -106 -181 -215 -181c-70 0 -111 41 -111 95z" fill="currentColor"/>
</g>
<g transform="translate(103.4290, 33.5479)">
<text font-family="serif" font-size="2.4697" text-anchor="start" fill="currentColor">
<tspan>speaks</tspan>
</text>
</g>
<g transform="translate(107.3327, 28.0574)">
<rect x="-0.0757" y="-2.8182" width="0.1514" height="3.1468" ry="0.0500" fill="currentColor"/>
</g>
<g transform="translate(28.0022, 33.5479)">
<rect x="0.0000" y="-0.5714" width="0.6600" height="0.1514" ry="0.0466" fill="currentColor"/>
</g>
<g transform="translate(114.7491, 29.0574)">
<path transform="scale(0.0040, -0.0040)" d="M0 -43c0 92 111 181 211 181c65 0 115 -37 115 -95c0 -88 -106 -181 -215 -181c-70 0 -111 41 -111 95z" fill="currentColor"/>
</g>
<g transform="translate(114.4392, 33.5479)">
<text font-family="serif" font-size="2.4697" text-anchor="start" fill="currentColor">
<tspan>to</tspan>
</text>
</g>
<g transform="translate(115.9742, 28.0574)">
<rect x="-0.0757" y="-2.8182" width="0.1514" height="3.6468" ry="0.0500" fill="currentColor"/>
</g>
<g transform="translate(123.3906, 24.4734)">
<text font-family="sans" font-size="1.9604" text-anchor="start" fill="currentColor">
<tspan>G</tspan>
</text>
</g>
<g transform="translate(123.3906, 29.5574)">
<path transform="scale(0.0040, -0.0040)" d="M76 -103c39 0 197 107 224 139c7 8 10 18 10 27c0 21 -17 40 -40 40c-39 0 -197 -107 -224 -139c-7 -8 -10 -18 -10 -27c0 -21 17 -40 40 -40zM0 -63c0 40 15 201 253 201c43 0 93 -10 93 -75c0 -40 -15 -201 -253 -201c-43 0 -93 10 -93 75z" fill="currentColor"/>
</g>
<g transform="translate(121.9272, 33.5479)">
<text font-family="serif" font-size="2.4697" text-anchor="start" fill="currentColor">
<tspan>you.</tspan>
</text>
</g>
<g transform="translate(124.6987, 28.0574)">
<rect x="-0.0757" y="-2.0000" width="0.1514" height="3.2545" ry="0.0500" fill="currentColor"/>
</g>
<g transform="translate(84.1528, 40.0574)">
<rect x="0.0000" y="-2.0000" width="0.2212" height="4.0000" ry="0.0000" fill="currentColor"/>
</g>
<g transform="translate(9.0337, 43.0574)">
<rect x="58.2219" y="-0.1082" width="1.9512" height="0.2164" ry="0.1082" fill="currentColor"/>
</g>
<g transform="translate(9.0337, 43.0574)">
<rect x="24.3845" y="-0.1082" width="1.9512" height="0.2164" ry="0.1082" fill="currentColor"/>
</g>
<g transform="translate(9.0337, 42.0574)">
<line stroke-linejoin="round" stroke-linecap="round" stroke-width="0.1164" stroke="currentColor" x1="0.0582" y1="0" x2="138.1582" y2="0"/>
</g>
<g transform="translate(9.0337, 41.0574)">
<line stroke-linejoin="round" stroke-linecap="round" stroke-width="0.1164" stroke="currentColor" x1="0.0582" y1="0" x2="138.1582" y2="0"/>
</g>
<g transform="translate(9.0337, 40.0574)">
<line stroke-linejoin="round" stroke-linecap="round" stroke-width="0.1164" stroke="currentColor" x1="0.0582" y1="0" x2="138.1582" y2="0"/>
</g>
<g transform="translate(9.0337, 39.0574)">
<line stroke-linejoin="round" stroke-linecap="round" stroke-width="0.1164" stroke="currentColor" x1="0.0582" y1="0" x2="138.1582" y2="0"/>
</g>
<g transform="translate(9.0337, 38.0574)">
<line stroke-linejoin="round" stroke-linecap="round" stroke-width="0.1164" stroke="currentColor" x1="0.0582" y1="0" x2="138.1582" y2="0"/>
</g>
<g transform="translate(147.0289, 40.0574)">
<rect x="0.0000" y="-2.0000" width="0.2212" height="4.0000" ry="0.0000" fill="currentColor"/>
</g>
<g transform="translate(9.8338, 41.0574)">
<path transform="scale(0.0040, -0.0040)" d="M647 2c0 -114 -75 -214 -180 -248c3 -33 4 -66 4 -99c0 -21 0 -41 -1 -62c-7 -122 -92 -229 -211 -229c-108 0 -196 88 -196 197c0 58 54 103 113 103c54 0 95 -47 95 -103c0 -52 -43 -95 -95 -95c-9 0 -18 1 -27 4c25 -37 66 -61 113 -61c93 0 156 91 162 191
c1 19 2 38 2 57c0 29 -1 58 -3 87c-28 -5 -54 -8 -79 -8c-242 0 -342 222 -342 376c0 177 129 308 244 443c-33 100 -55 169 -55 347c0 186 141 292 159 292c33 0 148 -208 148 -361c0 -142 -84 -255 -176 -364c21 -68 40 -136 57 -205c3 0 8 1 11 1
c156 0 257 -129 257 -263zM406 148c28 -133 49 -269 57 -349c73 27 109 93 109 160c0 86 -58 175 -166 189zM77 25c0 -111 96 -243 275 -243c21 0 44 1 67 5c-7 66 -27 208 -60 362c-79 -8 -124 -60 -124 -118c0 -43 25 -88 80 -120c5 -5 7 -11 7 -17c0 -12 -10 -23 -23 -23
c-16 0 -128 62 -128 188c0 89 60 177 163 200c-14 57 -30 113 -47 169c-105 -122 -210 -243 -210 -403zM424 920c0 61 -20 118 -21 118c-31 -14 -161 -85 -161 -253c0 -53 15 -113 39 -189c71 88 143 196 143 324z" fill="currentColor"/>
</g>
<g transform="translate(13.3595, 40.0574)">
<path transform="scale(0.0040, -0.0040)" d="M31 37l-2 -62v-11c0 -22 2 -43 5 -64c43 38 89 80 89 137c0 32 -14 65 -42 65c-31 0 -49 -32 -50 -65zM-30 450c9 5 20 8 30 8s21 -3 30 -8l-8 -340c25 24 59 38 94 38c50 0 84 -50 84 -104c0 -78 -83 -117 -141 -169c-17 -15 -25 -44 -49 -44c-15 0 -26 13 -26 29z" fill="currentColor"/>
</g>
<g transform="translate(14.3001, 38.5574)">
<path transform="scale(0.0040, -0.0040)" d="M31 37l-2 -62v-11c0 -22 2 -43 5 -64c43 38 89 80 89 137c0 32 -14 65 -42 65c-31 0 -49 -32 -50 -65zM-30 450c9 5 20 8 30 8s21 -3 30 -8l-8 -340c25 24 59 38 94 38c50 0 84 -50 84 -104c0 -78 -83 -117 -141 -169c-17 -15 -25 -44 -49 -44c-15 0 -26 13 -26 29z" fill="currentColor"/>
</g>
<g transform="translate(8.1802, 36.9869)">
<text font-family="serif" font-size="1.7463" text-anchor="start" fill="currentColor">
<tspan>3</tspan>
</text>
</g>
<g transform="translate(17.6001, 37.4715)">
<text font-family="sans" font-size="1.9604" text-anchor="start" fill="currentColor">
<tspan>D</tspan>
</text>
</g>
<g transform="translate(19.0939, 36.5806)">
<text font-family="sans" font-size="1.3856" text-anchor="start" fill="currentColor">
<tspan>7</tspan>
</text>
</g>
<g transform="translate(17.6001, 42.0574)">
<path transform="scale(0.0040, -0.0040)" d="M0 -43c0 92 111 181 211 181c65 0 115 -37 115 -95c0 -88 -106 -181 -215 -181c-70 0 -111 41 -111 95z" fill="currentColor"/>
</g>
<g transform="translate(17.4396, 45.5484)">
<text font-family="serif" font-size="2.4697" text-anchor="start" fill="currentColor">
<tspan>If</tspan>
</text>
</g>
<g transform="translate(18.8253, 40.0574)">
<rect x="-0.0757" y="-1.5000" width="0.1514" height="3.3286" ry="0.0500" fill="currentColor"/>
</g>
<g transform="translate(33.7434, 43.0574)">
<path transform="scale(0.0040, -0.0040)" d="M0 -43c0 92 111 181 211 181c65 0 115 -37 115 -95c0 -88 -106 -181 -215 -181c-70 0 -111 41 -111 95z" fill="currentColor"/>
</g>
<g transform="translate(32.5373, 45.5484)">
<text font-family="serif" font-size="2.4697" text-anchor="start" fill="currentColor">
<tspan>you</tspan>
</text>
</g>
<g transform="translate(34.9686, 40.0574)">
<rect x="-0.0757" y="-0.0015" width="0.1514" height="2.8301" ry="0.0500" fill="currentColor"/>
</g>
<g transform="translate(42.5905, 42.5574)">
<path transform="scale(0.0040, -0.0040)" d="M0 -43c0 92 111 181 211 181c65 0 115 -37 115 -95c0 -88 -106 -181 -215 -181c-70 0 -111 41 -111 95z" fill="currentColor"/>
</g>
<g transform="translate(41.3204, 45.5484)">
<text font-family="serif" font-size="2.4697" text-anchor="start" fill="currentColor">
<tspan>will</tspan>
</text>
</g>
<g transform="translate(43.8157, 40.0574)">
<rect x="-0.0757" y="-0.1803" width="0.1514" height="2.5089" ry="0.0500" fill="currentColor"/>
</g>
<g transform="translate(88.8033, 37.2392)">
<polygon stroke-linejoin="round" stroke-linecap="round" stroke-width="0.1000" fill="currentColor" stroke="currentColor" points="26.6426 0.4464 26.6426 0.8264 0.0500 0.1900 0.0500 -0.1900"/>
</g>
<g transform="translate(51.4376, 42.0574)">
<path transform="scale(0.0040, -0.0040)" d="M0 -43c0 92 111 181 211 181c65 0 115 -37 115 -95c0 -88 -106 -181 -215 -181c-70 0 -111 41 -111 95z" fill="currentColor"/>
</g>
<g transform="translate(50.9143, 45.5484)">
<text font-family="serif" font-size="2.4697" text-anchor="start" fill="currentColor">
<tspan>lis</tspan>
</text>
</g>
<g transform="translate(52.6627, 40.0574)">
<rect x="-0.0757" y="-1.5000" width="0.1514" height="3.3286" ry="0.0500" fill="currentColor"/>
</g>
<g transform="translate(67.5809, 43.0574)">
<path transform="scale(0.0040, -0.0040)" d="M0 -43c0 92 111 181 211 181c65 0 115 -37 115 -95c0 -88 -106 -181 -215 -181c-70 0 -111 41 -111 95z" fill="currentColor"/>
</g>
<g transform="translate(66.4175, 45.5484)">
<text font-family="serif" font-size="2.4697" text-anchor="start" fill="currentColor">
<tspan>ten,</tspan>
</text>
</g>
<g transform="translate(68.8060, 40.0574)">
<rect x="-0.0757" y="-0.5000" width="0.1514" height="3.3286" ry="0.0500" fill="currentColor"/>
</g>
<g transform="translate(59.5096, 45.5484)">
<rect x="0.0000" y="-0.5714" width="0.6600" height="0.1514" ry="0.0466" fill="currentColor"/>
</g>
<g transform="translate(87.6539, 40.5574)">
<path transform="scale(0.0040, -0.0040)" d="M0 -43c0 92 111 181 211 181c65 0 115 -37 115 -95c0 -88 -106 -181 -215 -181c-70 0 -111 41 -111 95z" fill="currentColor"/>
</g>
<g transform="translate(85.3594, 45.5484)">
<text font-family="serif" font-size="2.4697" text-anchor="start" fill="currentColor">
<tspan>you’ll</tspan>
</text>
</g>
<g transform="translate(88.8790, 40.0574)">
<rect x="-0.0757" y="-2.8164" width="0.1514" height="3.1450" ry="0.0500" fill="currentColor"/>
</g>
<g transform="translate(96.5009, 40.5574)">
<path transform="scale(0.0040, -0.0040)" d="M0 -43c0 92 111 181 211 181c65 0 115 -37 115 -95c0 -88 -106 -181 -215 -181c-70 0 -111 41 -111 95z" fill="currentColor"/>
</g>
<g transform="translate(94.3985, 45.5484)">
<text font-family="serif" font-size="2.4697" text-anchor="start" fill="currentColor">
<tspan>know</tspan>
</text>
</g>
<g transform="translate(97.7261, 40.0574)">
<rect x="-0.0757" y="-2.6055" width="0.1514" height="2.9341" ry="0.0500" fill="currentColor"/>
</g>
<g transform="translate(34.8929, 40.0574)">
<polygon stroke-linejoin="round" stroke-linecap="round" stroke-width="0.1000" fill="currentColor" stroke="currentColor" points="8.9484 -0.3718 8.9484 0.0082 0.0500 0.1900 0.0500 -0.1900"/>
</g>
<g transform="translate(105.3480, 41.0574)">
<path transform="scale(0.0040, -0.0040)" d="M0 -43c0 92 111 181 211 181c65 0 115 -37 115 -95c0 -88 -106 -181 -215 -181c-70 0 -111 41 -111 95z" fill="currentColor"/>
</g>
<g transform="translate(103.5870, 45.5484)">
<text font-family="serif" font-size="2.4697" text-anchor="start" fill="currentColor">
<tspan>what</tspan>
</text>
</g>
<g transform="translate(106.5731, 40.0574)">
<rect x="-0.0757" y="-2.3945" width="0.1514" height="3.2231" ry="0.0500" fill="currentColor"/>
</g>
<g transform="translate(114.1951, 41.5574)">
<path transform="scale(0.0040, -0.0040)" d="M0 -43c0 92 111 181 211 181c65 0 115 -37 115 -95c0 -88 -106 -181 -215 -181c-70 0 -111 41 -111 95z" fill="currentColor"/>
</g>
<g transform="translate(113.8852, 45.5484)">
<text font-family="serif" font-size="2.4697" text-anchor="start" fill="currentColor">
<tspan>to</tspan>
</text>
</g>
<g transform="translate(115.4202, 40.0574)">
<rect x="-0.0757" y="-2.1836" width="0.1514" height="3.5122" ry="0.0500" fill="currentColor"/>
</g>
<g transform="translate(122.7921, 37.4715)">
<text font-family="sans" font-size="1.9604" text-anchor="start" fill="currentColor">
<tspan>G</tspan>
</text>
</g>
<g transform="translate(122.7921, 42.5574)">
<path transform="scale(0.0040, -0.0040)" d="M76 -103c39 0 197 107 224 139c7 8 10 18 10 27c0 21 -17 40 -40 40c-39 0 -197 -107 -224 -139c-7 -8 -10 -18 -10 -27c0 -21 17 -40 40 -40zM0 -63c0 40 15 201 253 201c43 0 93 -10 93 -75c0 -40 -15 -201 -253 -201c-43 0 -93 10 -93 75z" fill="currentColor"/>
</g>
<g transform="translate(121.9476, 45.5484)">
<text font-family="serif" font-size="2.4697" text-anchor="start" fill="currentColor">
<tspan>do.</tspan>
</text>
</g>
<g transform="translate(124.1002, 40.0574)">
<rect x="-0.0757" y="-1.0000" width="0.1514" height="3.2545" ry="0.0500" fill="currentColor"/>
</g>
<g transform="translate(84.1841, 52.0574)">
<rect x="0.0000" y="-2.0000" width="0.2212" height="4.0000" ry="0.0000" fill="currentColor"/>
</g>
<g transform="translate(9.0337, 54.0574)">
<line stroke-linejoin="round" stroke-linecap="round" stroke-width="0.1164" stroke="currentColor" x1="0.0582" y1="0" x2="138.1582" y2="0"/>
</g>
<g transform="translate(9.0337, 53.0574)">
<line stroke-linejoin="round" stroke-linecap="round" stroke-width="0.1164" stroke="currentColor" x1="0.0582" y1="0" x2="138.1582" y2="0"/>
</g>
<g transform="translate(9.0337, 52.0574)">
<line stroke-linejoin="round" stroke-linecap="round" stroke-width="0.1164" stroke="currentColor" x1="0.0582" y1="0" x2="138.1582" y2="0"/>
</g>
<g transform="translate(9.0337, 51.0574)">
<line stroke-linejoin="round" stroke-linecap="round" stroke-width="0.1164" stroke="currentColor" x1="0.0582" y1="0" x2="138.1582" y2="0"/>
</g>
<g transform="translate(9.0337, 50.0574)">
<line stroke-linejoin="round" stroke-linecap="round" stroke-width="0.1164" stroke="currentColor" x1="0.0582" y1="0" x2="138.1582" y2="0"/>
</g>
<g transform="translate(147.0289, 52.0574)">
<rect x="0.0000" y="-2.0000" width="0.2212" height="4.0000" ry="0.0000" fill="currentColor"/>
</g>
<g transform="translate(86.4638, 57.0278)">
<text font-family="serif" font-size="2.4697" text-anchor="start" fill="currentColor">
<tspan>you</tspan>
</text>
</g>
<g transform="translate(9.8338, 53.0574)">
<path transform="scale(0.0040, -0.0040)" d="M647 2c0 -114 -75 -214 -180 -248c3 -33 4 -66 4 -99c0 -21 0 -41 -1 -62c-7 -122 -92 -229 -211 -229c-108 0 -196 88 -196 197c0 58 54 103 113 103c54 0 95 -47 95 -103c0 -52 -43 -95 -95 -95c-9 0 -18 1 -27 4c25 -37 66 -61 113 -61c93 0 156 91 162 191
c1 19 2 38 2 57c0 29 -1 58 -3 87c-28 -5 -54 -8 -79 -8c-242 0 -342 222 -342 376c0 177 129 308 244 443c-33 100 -55 169 -55 347c0 186 141 292 159 292c33 0 148 -208 148 -361c0 -142 -84 -255 -176 -364c21 -68 40 -136 57 -205c3 0 8 1 11 1
c156 0 257 -129 257 -263zM406 148c28 -133 49 -269 57 -349c73 27 109 93 109 160c0 86 -58 175 -166 189zM77 25c0 -111 96 -243 275 -243c21 0 44 1 67 5c-7 66 -27 208 -60 362c-79 -8 -124 -60 -124 -118c0 -43 25 -88 80 -120c5 -5 7 -11 7 -17c0 -12 -10 -23 -23 -23
c-16 0 -128 62 -128 188c0 89 60 177 163 200c-14 57 -30 113 -47 169c-105 -122 -210 -243 -210 -403zM424 920c0 61 -20 118 -21 118c-31 -14 -161 -85 -161 -253c0 -53 15 -113 39 -189c71 88 143 196 143 324z" fill="currentColor"/>
</g>
<g transform="translate(13.3595, 52.0574)">
<path transform="scale(0.0040, -0.0040)" d="M31 37l-2 -62v-11c0 -22 2 -43 5 -64c43 38 89 80 89 137c0 32 -14 65 -42 65c-31 0 -49 -32 -50 -65zM-30 450c9 5 20 8 30 8s21 -3 30 -8l-8 -340c25 24 59 38 94 38c50 0 84 -50 84 -104c0 -78 -83 -117 -141 -169c-17 -15 -25 -44 -49 -44c-15 0 -26 13 -26 29z" fill="currentColor"/>
</g>
<g transform="translate(14.3001, 50.5574)">
<path transform="scale(0.0040, -0.0040)" d="M31 37l-2 -62v-11c0 -22 2 -43 5 -64c43 38 89 80 89 137c0 32 -14 65 -42 65c-31 0 -49 -32 -50 -65zM-30 450c9 5 20 8 30 8s21 -3 30 -8l-8 -340c25 24 59 38 94 38c50 0 84 -50 84 -104c0 -78 -83 -117 -141 -169c-17 -15 -25 -44 -49 -44c-15 0 -26 13 -26 29z" fill="currentColor"/>
</g>
<g transform="translate(8.1802, 48.9869)">
<text font-family="serif" font-size="1.7463" text-anchor="start" fill="currentColor">
<tspan>5</tspan>
</text>
</g>
<g transform="translate(110.2839, 57.0278)">
<rect x="0.0000" y="-0.5714" width="0.6600" height="0.1514" ry="0.0466" fill="currentColor"/>
</g>
<g transform="translate(17.6001, 49.0316)">
<text font-family="sans" font-size="1.9604" text-anchor="start" fill="currentColor">
<tspan>C</tspan>
</text>
</g>
<g transform="translate(17.6001, 53.0574)">
<path transform="scale(0.0040, -0.0040)" d="M0 -43c0 92 111 181 211 181c65 0 115 -37 115 -95c0 -88 -106 -181 -215 -181c-70 0 -111 41 -111 95z" fill="currentColor"/>
</g>
<g transform="translate(15.2843, 57.0278)">
<text font-family="serif" font-size="2.4697" text-anchor="start" fill="currentColor">
<tspan>When</tspan>
</text>
</g>
<g transform="translate(18.8253, 52.0574)">
<rect x="-0.0757" y="-2.5000" width="0.1514" height="3.3286" ry="0.0500" fill="currentColor"/>
</g>
<g transform="translate(33.9122, 53.5574)">
<path transform="scale(0.0040, -0.0040)" d="M0 -43c0 92 111 181 211 181c65 0 115 -37 115 -95c0 -88 -106 -181 -215 -181c-70 0 -111 41 -111 95z" fill="currentColor"/>
</g>
<g transform="translate(32.7061, 57.0278)">
<text font-family="serif" font-size="2.4697" text-anchor="start" fill="currentColor">
<tspan>you</tspan>
</text>
</g>
<g transform="translate(35.1374, 52.0574)">
<rect x="-0.0757" y="-1.8213" width="0.1514" height="3.1499" ry="0.0500" fill="currentColor"/>
</g>
<g transform="translate(32.4622, 53.5574)">
<path transform="scale(0.0040, -0.0040)" d="M0 116c0 10 6 19 16 23l40 15v154c0 12 9 21 21 21s21 -9 21 -21v-138l79 30v154c0 12 9 21 21 21s21 -9 21 -21v-138l22 8c3 1 6 2 9 2c13 0 25 -11 25 -25v-54c0 -10 -6 -20 -16 -24l-40 -15v-155l22 9c3 1 6 1 9 1c13 0 25 -11 25 -25v-54c0 -10 -6 -19 -16 -23
l-40 -15v-154c0 -12 -9 -21 -21 -21s-21 9 -21 21v138l-79 -30v-154c0 -12 -9 -21 -21 -21s-21 9 -21 21v138l-22 -8c-3 -1 -6 -2 -9 -2c-13 0 -25 11 -25 25v54c0 10 6 20 16 24l40 15v155l-22 -9c-3 -1 -6 -1 -9 -1c-13 0 -25 11 -25 25v54zM177 92l-79 -30v-154l79 30
v154z" fill="currentColor"/>
</g>
<g transform="translate(42.7187, 53.0574)">
<path transform="scale(0.0040, -0.0040)" d="M0 -43c0 92 111 181 211 181c65 0 115 -37 115 -95c0 -88 -106 -181 -215 -181c-70 0 -111 41 -111 95z" fill="currentColor"/>
</g>
<g transform="translate(42.7503, 57.0278)">
<text font-family="serif" font-size="2.4697" text-anchor="start" fill="currentColor">
<tspan>o</tspan>
</text>
</g>
<g transform="translate(43.9438, 52.0574)">
<rect x="-0.0757" y="-2.1787" width="0.1514" height="3.0073" ry="0.0500" fill="currentColor"/>
</g>
<g transform="translate(88.8194, 49.2392)">
<polygon stroke-linejoin="round" stroke-linecap="round" stroke-width="0.1000" fill="currentColor" stroke="currentColor" points="26.5207 0.4464 26.5207 0.8264 0.0500 0.1900 0.0500 -0.1900"/>
</g>
<g transform="translate(51.6905, 51.5574)">
<path transform="scale(0.0040, -0.0040)" d="M0 -43c0 92 111 181 211 181c65 0 115 -37 115 -95c0 -88 -106 -181 -215 -181c-70 0 -111 41 -111 95z" fill="currentColor"/>
</g>
<g transform="translate(50.5484, 57.0278)">
<text font-family="serif" font-size="2.4697" text-anchor="start" fill="currentColor">
<tspan>bey</tspan>
</text>
</g>
<g transform="translate(51.7662, 52.0574)">
<rect x="-0.0757" y="-0.3286" width="0.1514" height="3.3286" ry="0.0500" fill="currentColor"/>
</g>
<g transform="translate(68.0026, 52.0574)">
<path transform="scale(0.0040, -0.0040)" d="M0 -43c0 92 111 181 211 181c65 0 115 -37 115 -95c0 -88 -106 -181 -215 -181c-70 0 -111 41 -111 95z" fill="currentColor"/>
</g>
<g transform="translate(66.5190, 57.0278)">
<text font-family="serif" font-size="2.4697" text-anchor="start" fill="currentColor">
<tspan>then</tspan>
</text>
</g>
<g transform="translate(68.0783, 52.0574)">
<rect x="-0.0757" y="0.1714" width="0.1514" height="3.1619" ry="0.0500" fill="currentColor"/>
</g>
<g transform="translate(46.9382, 57.0278)">
<rect x="0.0000" y="-0.5714" width="0.6600" height="0.1514" ry="0.0466" fill="currentColor"/>
</g>
<g transform="translate(87.6699, 52.0574)">
<path transform="scale(0.0040, -0.0040)" d="M0 -43c0 92 111 181 211 181c65 0 115 -37 115 -95c0 -88 -106 -181 -215 -181c-70 0 -111 41 -111 95z" fill="currentColor"/>
</g>
<g transform="translate(96.4764, 52.0574)">
<path transform="scale(0.0040, -0.0040)" d="M0 -43c0 92 111 181 211 181c65 0 115 -37 115 -95c0 -88 -106 -181 -215 -181c-70 0 -111 41 -111 95z" fill="currentColor"/>
</g>
<g transform="translate(95.6117, 57.0278)">
<text font-family="serif" font-size="2.4697" text-anchor="start" fill="currentColor">
<tspan>are</tspan>
</text>
</g>
<g transform="translate(97.7015, 52.0574)">
<rect x="-0.0757" y="-2.6055" width="0.1514" height="2.4341" ry="0.0500" fill="currentColor"/>
</g>
<g transform="translate(35.0617, 50.2392)">
<polygon stroke-linejoin="round" stroke-linecap="round" stroke-width="0.1000" fill="currentColor" stroke="currentColor" points="8.9078 -0.5536 8.9078 -0.1736 0.0500 0.1900 0.0500 -0.1900"/>
</g>
<g transform="translate(105.2828, 52.5574)">
<path transform="scale(0.0040, -0.0040)" d="M0 -43c0 92 111 181 211 181c65 0 115 -37 115 -95c0 -88 -106 -181 -215 -181c-70 0 -111 41 -111 95z" fill="currentColor"/>
</g>
<g transform="translate(104.1407, 57.0278)">
<text font-family="serif" font-size="2.4697" text-anchor="start" fill="currentColor">
<tspan>hap</tspan>
</text>
</g>
<g transform="translate(106.5080, 52.0574)">
<rect x="-0.0757" y="-2.3945" width="0.1514" height="2.7231" ry="0.0500" fill="currentColor"/>
</g>
<g transform="translate(114.0893, 53.0574)">
<path transform="scale(0.0040, -0.0040)" d="M0 -43c0 92 111 181 211 181c65 0 115 -37 115 -95c0 -88 -106 -181 -215 -181c-70 0 -111 41 -111 95z" fill="currentColor"/>
</g>
<g transform="translate(113.5020, 57.0278)">
<text font-family="serif" font-size="2.4697" text-anchor="start" fill="currentColor">
<tspan>py</tspan>
</text>
</g>
<g transform="translate(115.3144, 52.0574)">
<rect x="-0.0757" y="-2.1836" width="0.1514" height="3.0122" ry="0.0500" fill="currentColor"/>
</g>
<g transform="translate(122.8958, 49.0316)">
<text font-family="sans" font-size="1.9604" text-anchor="start" fill="currentColor">
<tspan>G</tspan>
</text>
</g>
<g transform="translate(122.8958, 53.5574)">
<path transform="scale(0.0040, -0.0040)" d="M76 -103c39 0 197 107 224 139c7 8 10 18 10 27c0 21 -17 40 -40 40c-39 0 -197 -107 -224 -139c-7 -8 -10 -18 -10 -27c0 -21 17 -40 40 -40zM0 -63c0 40 15 201 253 201c43 0 93 -10 93 -75c0 -40 -15 -201 -253 -201c-43 0 -93 10 -93 75z" fill="currentColor"/>
</g>
<g transform="translate(121.7098, 57.0278)">
<text font-family="serif" font-size="2.4697" text-anchor="start" fill="currentColor">
<tspan>too.</tspan>
</text>
</g>
<g transform="translate(124.2038, 52.0574)">
<rect x="-0.0757" y="-2.0000" width="0.1514" height="3.2545" ry="0.0500" fill="currentColor"/>
</g>
<g transform="translate(88.8951, 52.0574)">
<rect x="-0.0757" y="-2.8164" width="0.1514" height="2.6450" ry="0.0500" fill="currentColor"/>
</g>
<g transform="translate(87.0144, 64.0574)">
<rect x="0.0000" y="-2.0000" width="0.2212" height="4.0000" ry="0.0000" fill="currentColor"/>
</g>
<g transform="translate(9.0337, 67.0574)">
<rect x="113.0406" y="-0.1082" width="2.0756" height="0.2164" ry="0.1082" fill="currentColor"/>
</g>
<g transform="translate(9.0337, 67.0574)">
<rect x="97.0711" y="-0.1082" width="1.9512" height="0.2164" ry="0.1082" fill="currentColor"/>
</g>
<g transform="translate(9.0337, 66.0574)">
<line stroke-linejoin="round" stroke-linecap="round" stroke-width="0.1164" stroke="currentColor" x1="0.0582" y1="0" x2="138.1582" y2="0"/>
</g>
<g transform="translate(9.0337, 65.0574)">
<line stroke-linejoin="round" stroke-linecap="round" stroke-width="0.1164" stroke="currentColor" x1="0.0582" y1="0" x2="138.1582" y2="0"/>
</g>
<g transform="translate(9.0337, 64.0574)">
<line stroke-linejoin="round" stroke-linecap="round" stroke-width="0.1164" stroke="currentColor" x1="0.0582" y1="0" x2="138.1582" y2="0"/>
</g>
<g transform="translate(9.0337, 63.0574)">
<line stroke-linejoin="round" stroke-linecap="round" stroke-width="0.1164" stroke="currentColor" x1="0.0582" y1="0" x2="138.1582" y2="0"/>
</g>
<g transform="translate(9.0337, 62.0574)">
<line stroke-linejoin="round" stroke-linecap="round" stroke-width="0.1164" stroke="currentColor" x1="0.0582" y1="0" x2="138.1582" y2="0"/>
</g>
<g transform="translate(146.5516, 64.0574)">
<rect x="0.0000" y="-2.0000" width="0.6986" height="4.0000" ry="0.0000" fill="currentColor"/>
</g>
<g transform="translate(145.9811, 64.0574)">
<rect x="0.0000" y="-2.0000" width="0.2212" height="4.0000" ry="0.0000" fill="currentColor"/>
</g>
<g transform="translate(67.2856, 69.8248)">
<text font-family="serif" font-size="2.4697" text-anchor="start" fill="currentColor">
<tspan>speak</tspan>
</text>
</g>
<g transform="translate(9.8338, 65.0574)">
<path transform="scale(0.0040, -0.0040)" d="M647 2c0 -114 -75 -214 -180 -248c3 -33 4 -66 4 -99c0 -21 0 -41 -1 -62c-7 -122 -92 -229 -211 -229c-108 0 -196 88 -196 197c0 58 54 103 113 103c54 0 95 -47 95 -103c0 -52 -43 -95 -95 -95c-9 0 -18 1 -27 4c25 -37 66 -61 113 -61c93 0 156 91 162 191
c1 19 2 38 2 57c0 29 -1 58 -3 87c-28 -5 -54 -8 -79 -8c-242 0 -342 222 -342 376c0 177 129 308 244 443c-33 100 -55 169 -55 347c0 186 141 292 159 292c33 0 148 -208 148 -361c0 -142 -84 -255 -176 -364c21 -68 40 -136 57 -205c3 0 8 1 11 1
c156 0 257 -129 257 -263zM406 148c28 -133 49 -269 57 -349c73 27 109 93 109 160c0 86 -58 175 -166 189zM77 25c0 -111 96 -243 275 -243c21 0 44 1 67 5c-7 66 -27 208 -60 362c-79 -8 -124 -60 -124 -118c0 -43 25 -88 80 -120c5 -5 7 -11 7 -17c0 -12 -10 -23 -23 -23
c-16 0 -128 62 -128 188c0 89 60 177 163 200c-14 57 -30 113 -47 169c-105 -122 -210 -243 -210 -403zM424 920c0 61 -20 118 -21 118c-31 -14 -161 -85 -161 -253c0 -53 15 -113 39 -189c71 88 143 196 143 324z" fill="currentColor"/>
</g>
<g transform="translate(13.3595, 64.0574)">
<path transform="scale(0.0040, -0.0040)" d="M31 37l-2 -62v-11c0 -22 2 -43 5 -64c43 38 89 80 89 137c0 32 -14 65 -42 65c-31 0 -49 -32 -50 -65zM-30 450c9 5 20 8 30 8s21 -3 30 -8l-8 -340c25 24 59 38 94 38c50 0 84 -50 84 -104c0 -78 -83 -117 -141 -169c-17 -15 -25 -44 -49 -44c-15 0 -26 13 -26 29z" fill="currentColor"/>
</g>
<g transform="translate(14.3001, 62.5574)">
<path transform="scale(0.0040, -0.0040)" d="M31 37l-2 -62v-11c0 -22 2 -43 5 -64c43 38 89 80 89 137c0 32 -14 65 -42 65c-31 0 -49 -32 -50 -65zM-30 450c9 5 20 8 30 8s21 -3 30 -8l-8 -340c25 24 59 38 94 38c50 0 84 -50 84 -104c0 -78 -83 -117 -141 -169c-17 -15 -25 -44 -49 -44c-15 0 -26 13 -26 29z" fill="currentColor"/>
</g>
<g transform="translate(8.1802, 60.9836)">
<text font-family="serif" font-size="1.7463" text-anchor="start" fill="currentColor">
<tspan>7</tspan>
</text>
</g>
<g transform="translate(17.6001, 60.4734)">
<text font-family="sans" font-size="1.9604" text-anchor="start" fill="currentColor">
<tspan>C</tspan>
</text>
</g>
<g transform="translate(17.6001, 64.0574)">
<path transform="scale(0.0040, -0.0040)" d="M0 -43c0 92 111 181 211 181c65 0 115 -37 115 -95c0 -88 -106 -181 -215 -181c-70 0 -111 41 -111 95z" fill="currentColor"/>
</g>
<g transform="translate(16.6714, 69.8248)">
<text font-family="serif" font-size="2.4697" text-anchor="start" fill="currentColor">
<tspan>Lis</tspan>
</text>
</g>
<g transform="translate(18.8253, 64.0574)">
<rect x="-0.0757" y="-2.8164" width="0.1514" height="2.6450" ry="0.0500" fill="currentColor"/>
</g>
<g transform="translate(26.2457, 64.0574)">
<path transform="scale(0.0040, -0.0040)" d="M0 -43c0 92 111 181 211 181c65 0 115 -37 115 -95c0 -88 -106 -181 -215 -181c-70 0 -111 41 -111 95z" fill="currentColor"/>
</g>
<g transform="translate(25.3810, 69.8248)">
<text font-family="serif" font-size="2.4697" text-anchor="start" fill="currentColor">
<tspan>ten</tspan>
</text>
</g>
<g transform="translate(27.4708, 64.0574)">
<rect x="-0.0757" y="-2.6055" width="0.1514" height="2.4341" ry="0.0500" fill="currentColor"/>
</g>
<g transform="translate(34.8912, 64.5574)">
<path transform="scale(0.0040, -0.0040)" d="M0 -43c0 92 111 181 211 181c65 0 115 -37 115 -95c0 -88 -106 -181 -215 -181c-70 0 -111 41 -111 95z" fill="currentColor"/>
</g>
<g transform="translate(34.5813, 69.8248)">
<text font-family="serif" font-size="2.4697" text-anchor="start" fill="currentColor">
<tspan>to</tspan>
</text>
</g>
<g transform="translate(36.1163, 64.0574)">
<rect x="-0.0757" y="-2.3945" width="0.1514" height="2.7232" ry="0.0500" fill="currentColor"/>
</g>
<g transform="translate(43.5367, 65.0574)">
<path transform="scale(0.0040, -0.0040)" d="M0 -43c0 92 111 181 211 181c65 0 115 -37 115 -95c0 -88 -106 -181 -215 -181c-70 0 -111 41 -111 95z" fill="currentColor"/>
</g>
<g transform="translate(41.9251, 69.8248)">
<text font-family="serif" font-size="2.4697" text-anchor="start" fill="currentColor">
<tspan>your</tspan>
</text>
</g>
<g transform="translate(44.7619, 64.0574)">
<rect x="-0.0757" y="-2.1836" width="0.1514" height="3.0122" ry="0.0500" fill="currentColor"/>
</g>
<g transform="translate(55.8865, 69.8248)">
<rect x="0.0000" y="-0.5714" width="0.6600" height="0.1514" ry="0.0466" fill="currentColor"/>
</g>
<g transform="translate(52.1822, 60.4734)">
<text font-family="sans" font-size="1.9604" text-anchor="start" fill="currentColor">
<tspan>G</tspan>
</text>
</g>
<g transform="translate(52.1822, 65.5574)">
<path transform="scale(0.0040, -0.0040)" d="M0 -43c0 92 111 181 211 181c65 0 115 -37 115 -95c0 -88 -106 -181 -215 -181c-70 0 -111 41 -111 95z" fill="currentColor"/>
</g>
<g transform="translate(51.0401, 69.8248)">
<text font-family="serif" font-size="2.4697" text-anchor="start" fill="currentColor">
<tspan>con</tspan>
</text>
</g>
<g transform="translate(53.4074, 64.0574)">
<rect x="-0.0757" y="-1.1807" width="0.1514" height="2.5093" ry="0.0500" fill="currentColor"/>
</g>
<g transform="translate(53.3317, 62.8756)">
<polygon stroke-linejoin="round" stroke-linecap="round" stroke-width="0.1000" fill="currentColor" stroke="currentColor" points="26.0379 0.1736 26.0379 0.5536 0.0500 0.1900 0.0500 -0.1900"/>
</g>
<g transform="translate(60.8278, 66.0574)">
<path transform="scale(0.0040, -0.0040)" d="M0 -43c0 92 111 181 211 181c65 0 115 -37 115 -95c0 -88 -106 -181 -215 -181c-70 0 -111 41 -111 95z" fill="currentColor"/>
</g>
<g transform="translate(57.8078, 69.8248)">
<text font-family="serif" font-size="2.4697" text-anchor="start" fill="currentColor">
<tspan>science</tspan>
</text>
</g>
<g transform="translate(62.0529, 64.0574)">
<rect x="-0.0757" y="-1.0602" width="0.1514" height="2.8889" ry="0.0500" fill="currentColor"/>
</g>
<g transform="translate(69.4733, 60.4734)">
<text font-family="sans" font-size="1.9604" text-anchor="start" fill="currentColor">
<tspan>C</tspan>
</text>
</g>
<g transform="translate(69.4733, 66.5574)">
<path transform="scale(0.0040, -0.0040)" d="M0 -43c0 92 111 181 211 181c65 0 115 -37 115 -95c0 -88 -106 -181 -215 -181c-70 0 -111 41 -111 95z" fill="currentColor"/>
</g>
<g transform="translate(70.6984, 64.0574)">
<rect x="-0.0757" y="-0.9398" width="0.1514" height="3.2684" ry="0.0500" fill="currentColor"/>
</g>
<g transform="translate(78.1188, 66.0574)">
<path transform="scale(0.0040, -0.0040)" d="M0 -43c0 92 111 181 211 181c65 0 115 -37 115 -95c0 -88 -106 -181 -215 -181c-70 0 -111 41 -111 95z" fill="currentColor"/>
</g>
<g transform="translate(77.2541, 69.8248)">
<text font-family="serif" font-size="2.4697" text-anchor="start" fill="currentColor">
<tspan>the</tspan>
</text>
</g>
<g transform="translate(79.3440, 64.0574)">
<rect x="-0.0757" y="-0.8193" width="0.1514" height="2.6479" ry="0.0500" fill="currentColor"/>
</g>
<g transform="translate(22.2753, 69.8248)">
<rect x="0.0000" y="-0.5714" width="0.6600" height="0.1514" ry="0.0466" fill="currentColor"/>
</g>
<g transform="translate(90.4398, 60.4734)">
<text font-family="sans" font-size="1.9604" text-anchor="start" fill="currentColor">
<tspan>G</tspan>
</text>
</g>
<g transform="translate(90.4398, 66.5574)">
<path transform="scale(0.0040, -0.0040)" d="M0 -43c0 92 111 181 211 181c65 0 115 -37 115 -95c0 -88 -106 -181 -215 -181c-70 0 -111 41 -111 95z" fill="currentColor"/>
</g>
<g transform="translate(88.0600, 69.8248)">
<text font-family="serif" font-size="2.4697" text-anchor="start" fill="currentColor">
<tspan>whole</tspan>
</text>
</g>
<g transform="translate(91.6650, 64.0574)">
<rect x="-0.0757" y="-1.0000" width="0.1514" height="3.3286" ry="0.0500" fill="currentColor"/>
</g>
<g transform="translate(18.7496, 61.2392)">
<polygon stroke-linejoin="round" stroke-linecap="round" stroke-width="0.1000" fill="currentColor" stroke="currentColor" points="26.0379 0.4464 26.0379 0.8264 0.0500 0.1900 0.0500 -0.1900"/>
</g>
<g transform="translate(106.4301, 60.4734)">
<text font-family="sans" font-size="1.9604" text-anchor="start" fill="currentColor">
<tspan>D</tspan>
</text>
</g>
<g transform="translate(107.9239, 59.5825)">
<text font-family="sans" font-size="1.3856" text-anchor="start" fill="currentColor">
<tspan>7</tspan>
</text>
</g>
<g transform="translate(106.4301, 67.0574)">
<path transform="scale(0.0040, -0.0040)" d="M0 -43c0 92 111 181 211 181c65 0 115 -37 115 -95c0 -88 -106 -181 -215 -181c-70 0 -111 41 -111 95z" fill="currentColor"/>
</g>
<g transform="translate(105.2880, 69.8248)">
<text font-family="serif" font-size="2.4697" text-anchor="start" fill="currentColor">
<tspan>day</tspan>
</text>
</g>
<g transform="translate(107.6552, 64.0574)">
<rect x="-0.0757" y="-0.5000" width="0.1514" height="3.3286" ry="0.0500" fill="currentColor"/>
</g>
<g transform="translate(122.4203, 60.4734)">
<text font-family="sans" font-size="1.9604" text-anchor="start" fill="currentColor">
<tspan>G</tspan>
</text>
</g>
<g transform="translate(122.4203, 67.5574)">
<path transform="scale(0.0040, -0.0040)" d="M76 -103c39 0 197 107 224 139c7 8 10 18 10 27c0 21 -17 40 -40 40c-39 0 -197 -107 -224 -139c-7 -8 -10 -18 -10 -27c0 -21 17 -40 40 -40zM0 -63c0 40 15 201 253 201c43 0 93 -10 93 -75c0 -40 -15 -201 -253 -201c-43 0 -93 10 -93 75z" fill="currentColor"/>
</g>
<g transform="translate(118.9723, 69.8248)">
<text font-family="serif" font-size="2.4697" text-anchor="start" fill="currentColor">
<tspan>through.</tspan>
</text>
</g>
<g transform="translate(123.7284, 64.0574)">
<rect x="-0.0757" y="-0.0000" width="0.1514" height="3.2545" ry="0.0500" fill="currentColor"/>
</g>
<g transform="translate(53.8563, 79.0574)">
<text font-family="serif" font-weight="bold" font-size="2.2001" text-anchor="start" fill="currentColor">
<tspan>2.</tspan>
</text>
</g>
<g transform="translate(56.1208, 79.0574)">
<text font-family="serif" font-size="2.2001" text-anchor="start" fill="currentColor">
<tspan>Listen, listen, your parents speak to you. </tspan>
</text>
</g>
<g transform="translate(56.1208, 82.0574)">
<text font-family="serif" font-size="2.2001" text-anchor="start" fill="currentColor">
<tspan>If you will listen, you’ll know what to do. </tspan>
</text>
</g>
<g transform="translate(56.1208, 85.0574)">
<text font-family="serif" font-size="2.2001" text-anchor="start" fill="currentColor">
<tspan>When you obey then you are happy too. </tspan>
</text>
</g>
<g transform="translate(56.1208, 88.0574)">
<text font-family="serif" font-size="2.2001" text-anchor="start" fill="currentColor">
<tspan>Listen to your parents speak the whole day through. </tspan>
</text>
</g>
<g transform="translate(56.1208, 90.0574)">
<text font-family="serif" font-size="1.5557" text-anchor="start" fill="currentColor">
<tspan> </tspan>
</text>
</g>
<g transform="translate(69.8408, 191.9677)">
<text font-family="Trebuchet MS" font-size="2.2001" text-anchor="start" fill="currentColor">
<tspan>www.hymnal.net</tspan>
</text>
</g>
</svg>
