<svg xmlns="http://www.w3.org/2000/svg" xmlns:xlink="http://www.w3.org/1999/xlink" version="1.2" width="215.90mm" height="279.40mm" viewBox="0 0 153.5737 198.7425">
<!-- Page: 1/1 -->
<text transform="translate(9.0337, 6.3236)" font-family="Century Schoolbook L" font-size="2.1999" text-anchor="start" fill="currentColor">
<tspan>
 </tspan>
</text>
<text transform="translate(50.0804, 9.6283)" font-family="Century Schoolbook L" font-weight="bold" font-size="3.1113" text-anchor="start" fill="currentColor">
<tspan>
Freed from self and Adam’s nature</tspan>
</text>
<text transform="translate(62.1586, 13.1283)" font-family="Century Schoolbook L" font-weight="bold" font-size="2.1999" text-anchor="start" fill="currentColor">
<tspan>
The Church — Her Building</tspan>
</text>
<text transform="translate(137.3912, 17.7376)" font-family="Century Schoolbook L" font-size="5.8739" text-anchor="start" fill="currentColor">
<tspan>
840</tspan>
</text>
<text transform="translate(9.0337, 19.9448)" font-family="Century Schoolbook L" font-weight="bold" font-style="italic" font-size="2.1999" text-anchor="start" fill="currentColor">
<tspan>
(Guitar)</tspan>
</text>
<rect transform="translate(147.0289, 28.2380)" x="0.0000" y="-2.0000" width="0.2212" height="4.0000" ry="0.0000" fill="currentColor"/>
<line transform="translate(9.0337, 30.2380)" stroke-linejoin="round" stroke-linecap="round" stroke-width="0.1164" stroke="currentColor" x1="0.0582" y1="-0.0000" x2="138.1582" y2="-0.0000"/>
<line transform="translate(9.0337, 29.2380)" stroke-linejoin="round" stroke-linecap="round" stroke-width="0.1164" stroke="currentColor" x1="0.0582" y1="-0.0000" x2="138.1582" y2="-0.0000"/>
<line transform="translate(9.0337, 28.2380)" stroke-linejoin="round" stroke-linecap="round" stroke-width="0.1164" stroke="currentColor" x1="0.0582" y1="-0.0000" x2="138.1582" y2="-0.0000"/>
<line transform="translate(9.0337, 27.2380)" stroke-linejoin="round" stroke-linecap="round" stroke-width="0.1164" stroke="currentColor" x1="0.0582" y1="-0.0000" x2="138.1582" y2="-0.0000"/>
<line transform="translate(9.0337, 26.2380)" stroke-linejoin="round" stroke-linecap="round" stroke-width="0.1164" stroke="currentColor" x1="0.0582" y1="-0.0000" x2="138.1582" y2="-0.0000"/>
<rect transform="translate(71.2475, 28.2380)" x="0.0000" y="-2.0000" width="0.2212" height="4.0000" ry="0.0000" fill="currentColor"/>
<rect transform="translate(34.4776, 28.2380)" x="0.0000" y="-2.0000" width="0.2212" height="4.0000" ry="0.0000" fill="currentColor"/>
<rect transform="translate(109.8952, 28.2380)" x="0.0000" y="-2.0000" width="0.2212" height="4.0000" ry="0.0000" fill="currentColor"/>
<text transform="translate(14.6280, 34.5732)" font-family="Century Schoolbook L" font-weight="bold" font-size="2.1999" text-anchor="start" fill="currentColor">
<tspan>
1.</tspan>
</text>
<path transform="translate(125.3921, 30.2380) scale(0.0040, -0.0040)" d="M214 140c59 0 115 -32 115 -97c0 -72 -54 -121 -101 -149c-35 -21 -74 -34 -114 -34c-59 0 -114 32 -114 97c0 72 54 121 101 149c35 21 73 34 113 34z" fill="currentColor"/>
<text transform="translate(124.7477, 34.5732)" font-family="Century Schoolbook L" font-size="2.4695" text-anchor="start" fill="currentColor">
<tspan>
be</tspan>
</text>
<rect transform="translate(126.6311, 28.2380)" x="-0.0757" y="-1.5000" width="0.1514" height="3.3269" ry="0.0500" fill="currentColor"/>
<text transform="translate(132.6931, 24.7380)" font-family="sans-serif" font-size="1.9603" text-anchor="start" fill="currentColor">
<tspan>
A</tspan>
</text>
<text transform="translate(134.0162, 24.7380)" font-family="sans-serif" font-size="1.9603" text-anchor="start" fill="currentColor">
<tspan/>
</text>
<text transform="translate(134.0162, 24.7380)" font-family="sans-serif" font-size="1.9603" text-anchor="start" fill="currentColor">
<tspan/>
</text>
<text transform="translate(134.0162, 23.8471)" font-family="sans-serif" font-size="1.3858" text-anchor="start" fill="currentColor">
<tspan/>
</text>
<text transform="translate(134.0162, 23.8471)" font-family="sans-serif" font-size="1.3858" text-anchor="start" fill="currentColor">
<tspan>
7</tspan>
</text>
<path transform="translate(132.6931, 30.7380) scale(0.0040, -0.0040)" d="M214 140c59 0 115 -32 115 -97c0 -72 -54 -121 -101 -149c-35 -21 -74 -34 -114 -34c-59 0 -114 32 -114 97c0 72 54 121 101 149c35 21 73 34 113 34z" fill="currentColor"/>
<text transform="translate(130.6617, 34.5732)" font-family="Century Schoolbook L" font-size="2.4695" text-anchor="start" fill="currentColor">
<tspan>
built</tspan>
</text>
<rect transform="translate(133.9321, 28.2380)" x="-0.0757" y="-1.0000" width="0.1514" height="3.3269" ry="0.0500" fill="currentColor"/>
<rect transform="translate(96.7983, 28.2380)" x="-0.0757" y="-2.0000" width="0.1514" height="3.3269" ry="0.0500" fill="currentColor"/>
<text transform="translate(17.5059, 34.5732)" font-family="Century Schoolbook L" font-size="2.4695" text-anchor="start" fill="currentColor">
<tspan>
Freed</tspan>
</text>
<path transform="translate(102.6085, 29.7380) scale(0.0040, -0.0040)" d="M214 140c59 0 115 -32 115 -97c0 -72 -54 -121 -101 -149c-35 -21 -74 -34 -114 -34c-59 0 -114 32 -114 97c0 72 54 121 101 149c35 21 73 34 113 34z" fill="currentColor"/>
<text transform="translate(102.7536, 34.5732)" font-family="Century Schoolbook L" font-size="2.4695" text-anchor="start" fill="currentColor">
<tspan>
I</tspan>
</text>
<rect transform="translate(103.8474, 28.2380)" x="-0.0757" y="-2.0000" width="0.1514" height="3.3269" ry="0.0500" fill="currentColor"/>
<text transform="translate(112.0861, 24.7380)" font-family="sans-serif" font-size="1.9603" text-anchor="start" fill="currentColor">
<tspan>
A</tspan>
</text>
<text transform="translate(113.4091, 24.7380)" font-family="sans-serif" font-size="1.9603" text-anchor="start" fill="currentColor">
<tspan/>
</text>
<text transform="translate(113.4091, 24.7380)" font-family="sans-serif" font-size="1.9603" text-anchor="start" fill="currentColor">
<tspan/>
</text>
<text transform="translate(113.4091, 23.8471)" font-family="sans-serif" font-size="1.3858" text-anchor="start" fill="currentColor">
<tspan/>
</text>
<path transform="translate(112.0861, 28.7380) scale(0.0040, -0.0040)" d="M312 63c0 23 -20 40 -41 40c-4 0 -7 -1 -11 -2c-30 -8 -75 -38 -111 -61s-81 -52 -101 -76c-7 -8 -10 -17 -10 -27c0 -23 19 -40 40 -40c4 0 8 1 12 2c30 8 75 38 111 61s81 52 101 76c7 8 10 17 10 27zM258 140c51 0 92 -23 92 -78c0 -19 -4 -38 -10 -56
c-11 -38 -31 -75 -64 -97c-53 -36 -112 -49 -185 -49c-51 0 -91 23 -91 78c0 19 4 38 10 56c11 38 30 75 63 97c53 36 112 49 185 49z" fill="currentColor"/>
<text transform="translate(109.3710, 34.5732)" font-family="Century Schoolbook L" font-size="2.4695" text-anchor="start" fill="currentColor">
<tspan>
would</tspan>
</text>
<path transform="translate(113.9260, 28.7380) scale(0.0040, -0.0040)" d="M0 0c0 30 25 55 55 55s55 -25 55 -55s-25 -55 -55 -55s-55 25 -55 55z" fill="currentColor"/>
<rect transform="translate(113.4089, 28.2380)" x="-0.0757" y="-3.0000" width="0.1514" height="3.2518" ry="0.0500" fill="currentColor"/>
<path transform="translate(27.2266, 29.2380) scale(0.0040, -0.0040)" d="M214 140c59 0 115 -32 115 -97c0 -72 -54 -121 -101 -149c-35 -21 -74 -34 -114 -34c-59 0 -114 32 -114 97c0 72 54 121 101 149c35 21 73 34 113 34z" fill="currentColor"/>
<rect transform="translate(28.4655, 28.2380)" x="-0.0757" y="-2.5000" width="0.1514" height="3.3269" ry="0.0500" fill="currentColor"/>
<rect transform="translate(78.6139, 34.5732)" x="0.0000" y="-0.5714" width="0.6600" height="0.1514" ry="0.0466" fill="currentColor"/>
<rect transform="translate(61.1160, 34.5732)" x="0.0000" y="-0.5714" width="0.6600" height="0.1514" ry="0.0466" fill="currentColor"/>
<path transform="translate(131.2431, 30.7380) scale(0.0040, -0.0040)" d="M198 -329c-12 0 -21 9 -21 21v138l-79 -30v-154c0 -12 -9 -21 -21 -21s-21 9 -21 21v138l-22 -8c-3 -1 -6 -2 -9 -2c-13 0 -25 11 -25 25v54c0 10 6 20 16 24l40 15v155l-22 -9c-3 -1 -6 -1 -9 -1c-13 0 -25 11 -25 25v54c0 10 6 19 16 23l40 15v154c0 12 9 21 21 21
s21 -9 21 -21v-138l79 30v154c0 12 9 21 21 21s21 -9 21 -21v-138l22 8c3 1 6 2 9 2c13 0 25 -11 25 -25v-54c0 -10 -6 -20 -16 -24l-40 -15v-155l22 9c3 1 6 1 9 1c13 0 25 -11 25 -25v-54c0 -10 -6 -19 -16 -23l-40 -15v-154c0 -12 -9 -21 -21 -21zM98 62v-154l79 30v154z
" fill="currentColor"/>
<rect transform="translate(21.4165, 28.2380)" x="-0.0757" y="-2.0000" width="0.1514" height="3.3269" ry="0.0500" fill="currentColor"/>
<path transform="translate(139.7422, 30.2380) scale(0.0040, -0.0040)" d="M214 140c59 0 115 -32 115 -97c0 -72 -54 -121 -101 -149c-35 -21 -74 -34 -114 -34c-59 0 -114 32 -114 97c0 72 54 121 101 149c35 21 73 34 113 34z" fill="currentColor"/>
<text transform="translate(139.0551, 34.5732)" font-family="Century Schoolbook L" font-size="2.4695" text-anchor="start" fill="currentColor">
<tspan>
by</tspan>
</text>
<rect transform="translate(140.9811, 28.2380)" x="-0.0757" y="-1.5000" width="0.1514" height="3.3269" ry="0.0500" fill="currentColor"/>
<text transform="translate(20.1775, 24.7380)" font-family="sans-serif" font-size="1.9603" text-anchor="start" fill="currentColor">
<tspan>
D</tspan>
</text>
<text transform="translate(21.6713, 24.7380)" font-family="sans-serif" font-size="1.9603" text-anchor="start" fill="currentColor">
<tspan/>
</text>
<text transform="translate(21.6713, 24.7380)" font-family="sans-serif" font-size="1.9603" text-anchor="start" fill="currentColor">
<tspan/>
</text>
<text transform="translate(21.6713, 23.8471)" font-family="sans-serif" font-size="1.3858" text-anchor="start" fill="currentColor">
<tspan/>
</text>
<path transform="translate(50.2245, 28.7380) scale(0.0040, -0.0040)" d="M214 140c59 0 115 -32 115 -97c0 -72 -54 -121 -101 -149c-35 -21 -74 -34 -114 -34c-59 0 -114 32 -114 97c0 72 54 121 101 149c35 21 73 34 113 34z" fill="currentColor"/>
<text transform="translate(48.7479, 34.5732)" font-family="Century Schoolbook L" font-size="2.4695" text-anchor="start" fill="currentColor">
<tspan>
and</tspan>
</text>
<rect transform="translate(51.4635, 28.2380)" x="-0.0757" y="-3.0000" width="0.1514" height="3.3269" ry="0.0500" fill="currentColor"/>
<path transform="translate(20.1775, 29.7380) scale(0.0040, -0.0040)" d="M214 140c59 0 115 -32 115 -97c0 -72 -54 -121 -101 -149c-35 -21 -74 -34 -114 -34c-59 0 -114 32 -114 97c0 72 54 121 101 149c35 21 73 34 113 34z" fill="currentColor"/>
<text transform="translate(57.2956, 24.7380)" font-family="sans-serif" font-size="1.9603" text-anchor="start" fill="currentColor">
<tspan>
G</tspan>
</text>
<text transform="translate(58.8320, 24.7380)" font-family="sans-serif" font-size="1.9603" text-anchor="start" fill="currentColor">
<tspan/>
</text>
<text transform="translate(58.8320, 24.7380)" font-family="sans-serif" font-size="1.9603" text-anchor="start" fill="currentColor">
<tspan/>
</text>
<text transform="translate(58.8320, 23.8471)" font-family="sans-serif" font-size="1.3858" text-anchor="start" fill="currentColor">
<tspan/>
</text>
<path transform="translate(57.2956, 28.2380) scale(0.0040, -0.0040)" d="M214 140c59 0 115 -32 115 -97c0 -72 -54 -121 -101 -149c-35 -21 -74 -34 -114 -34c-59 0 -114 32 -114 97c0 72 54 121 101 149c35 21 73 34 113 34z" fill="currentColor"/>
<text transform="translate(57.0566, 34.5732)" font-family="Century Schoolbook L" font-size="2.4695" text-anchor="start" fill="currentColor">
<tspan>
A</tspan>
</text>
<path transform="translate(59.0516, 27.7380) scale(0.0040, -0.0040)" d="M0 0c0 30 25 55 55 55s55 -25 55 -55s-25 -55 -55 -55s-55 25 -55 55z" fill="currentColor"/>
<rect transform="translate(57.3712, 28.2380)" x="-0.0757" y="0.1731" width="0.1514" height="3.1602" ry="0.0500" fill="currentColor"/>
<text transform="translate(25.2165, 34.5732)" font-family="Century Schoolbook L" font-size="2.4695" text-anchor="start" fill="currentColor">
<tspan>
from</tspan>
</text>
<path transform="translate(36.6685, 28.7380) scale(0.0040, -0.0040)" d="M312 63c0 23 -20 40 -41 40c-4 0 -7 -1 -11 -2c-30 -8 -75 -38 -111 -61s-81 -52 -101 -76c-7 -8 -10 -17 -10 -27c0 -23 19 -40 40 -40c4 0 8 1 12 2c30 8 75 38 111 61s81 52 101 76c7 8 10 17 10 27zM258 140c51 0 92 -23 92 -78c0 -19 -4 -38 -10 -56
c-11 -38 -31 -75 -64 -97c-53 -36 -112 -49 -185 -49c-51 0 -91 23 -91 78c0 19 4 38 10 56c11 38 30 75 63 97c53 36 112 49 185 49z" fill="currentColor"/>
<text transform="translate(35.3832, 34.5732)" font-family="Century Schoolbook L" font-size="2.4695" text-anchor="start" fill="currentColor">
<tspan>
self</tspan>
</text>
<path transform="translate(38.5085, 28.7380) scale(0.0040, -0.0040)" d="M0 0c0 30 25 55 55 55s55 -25 55 -55s-25 -55 -55 -55s-55 25 -55 55z" fill="currentColor"/>
<rect transform="translate(37.9913, 28.2380)" x="-0.0757" y="-3.0000" width="0.1514" height="3.2518" ry="0.0500" fill="currentColor"/>
<path transform="translate(13.3337, 26.2380) scale(0.0040, -0.0040)" d="M198 -329c-12 0 -21 9 -21 21v138l-79 -30v-154c0 -12 -9 -21 -21 -21s-21 9 -21 21v138l-22 -8c-3 -1 -6 -2 -9 -2c-13 0 -25 11 -25 25v54c0 10 6 20 16 24l40 15v155l-22 -9c-3 -1 -6 -1 -9 -1c-13 0 -25 11 -25 25v54c0 10 6 19 16 23l40 15v154c0 12 9 21 21 21
s21 -9 21 -21v-138l79 30v154c0 12 9 21 21 21s21 -9 21 -21v-138l22 8c3 1 6 2 9 2c13 0 25 -11 25 -25v-54c0 -10 -6 -20 -16 -24l-40 -15v-155l22 9c3 1 6 1 9 1c13 0 25 -11 25 -25v-54c0 -10 -6 -19 -16 -23l-40 -15v-154c0 -12 -9 -21 -21 -21zM98 62v-154l79 30v154z
" fill="currentColor"/>
<path transform="translate(14.4338, 27.7380) scale(0.0040, -0.0040)" d="M198 -329c-12 0 -21 9 -21 21v138l-79 -30v-154c0 -12 -9 -21 -21 -21s-21 9 -21 21v138l-22 -8c-3 -1 -6 -2 -9 -2c-13 0 -25 11 -25 25v54c0 10 6 20 16 24l40 15v155l-22 -9c-3 -1 -6 -1 -9 -1c-13 0 -25 11 -25 25v54c0 10 6 19 16 23l40 15v154c0 12 9 21 21 21
s21 -9 21 -21v-138l79 30v154c0 12 9 21 21 21s21 -9 21 -21v-138l22 8c3 1 6 2 9 2c13 0 25 -11 25 -25v-54c0 -10 -6 -20 -16 -24l-40 -15v-155l22 9c3 1 6 1 9 1c13 0 25 -11 25 -25v-54c0 -10 -6 -19 -16 -23l-40 -15v-154c0 -12 -9 -21 -21 -21zM98 62v-154l79 30v154z
" fill="currentColor"/>
<path transform="translate(84.3739, 29.7380) scale(0.0040, -0.0040)" d="M312 63c0 23 -20 40 -41 40c-4 0 -7 -1 -11 -2c-30 -8 -75 -38 -111 -61s-81 -52 -101 -76c-7 -8 -10 -17 -10 -27c0 -23 19 -40 40 -40c4 0 8 1 12 2c30 8 75 38 111 61s81 52 101 76c7 8 10 17 10 27zM258 140c51 0 92 -23 92 -78c0 -19 -4 -38 -10 -56
c-11 -38 -31 -75 -64 -97c-53 -36 -112 -49 -185 -49c-51 0 -91 23 -91 78c0 19 4 38 10 56c11 38 30 75 63 97c53 36 112 49 185 49z" fill="currentColor"/>
<text transform="translate(82.3204, 34.5732)" font-family="Century Schoolbook L" font-size="2.4695" text-anchor="start" fill="currentColor">
<tspan>
ture,</tspan>
</text>
<rect transform="translate(85.6968, 28.2380)" x="-0.0757" y="-2.0000" width="0.1514" height="3.2518" ry="0.0500" fill="currentColor"/>
<path transform="translate(16.6838, 30.2439) scale(0.0040, -0.0040)" d="M26 12c-1 -8 -7 -12 -13 -12c-7 0 -13 5 -13 13c0 174 234 164 234 342c0 58 -16 119 -66 119c-28 0 -55 -13 -55 -38c0 -27 35 -40 35 -67c0 -37 -31 -67 -68 -67s-67 30 -67 67c0 77 73 131 155 131c97 0 189 -56 189 -145c0 -148 -144 -158 -242 -213c6 1 11 1 17 1
c34 0 72 -12 108 -38c20 -14 43 -22 63 -22c22 0 40 10 45 30c2 7 7 10 12 10c7 0 13 -5 13 -13v-4c-18 -67 -81 -106 -142 -106c-37 0 -73 14 -98 45c-12 15 -29 23 -46 23c-29 0 -58 -21 -61 -56z" fill="currentColor"/>
<path transform="translate(16.7478, 28.2380) scale(0.0040, -0.0040)" d="M153 474c-30 0 -63 -8 -63 -34c0 -21 35 -25 35 -46c0 -31 -25 -56 -56 -56s-56 25 -56 56c0 66 68 106 140 106c92 0 171 -32 171 -114c0 -42 -6 -79 -43 -96c-10 -5 -15 -15 -15 -25s5 -19 15 -24c41 -19 58 -56 58 -101c0 -93 -81 -140 -182 -140
c-80 0 -157 43 -157 116c0 35 29 64 64 64s64 -29 64 -64c0 -24 -39 -29 -39 -53c0 -29 35 -37 68 -37c47 0 59 59 59 114v28c0 47 -2 81 -46 81h-77c-11 0 -16 8 -16 16s5 16 16 16h77c44 0 46 37 46 86v19c0 53 -15 88 -63 88z" fill="currentColor"/>
<path transform="translate(95.5594, 29.7380) scale(0.0040, -0.0040)" d="M214 140c59 0 115 -32 115 -97c0 -72 -54 -121 -101 -149c-35 -21 -74 -34 -114 -34c-59 0 -114 32 -114 97c0 72 54 121 101 149c35 21 73 34 113 34z" fill="currentColor"/>
<text transform="translate(93.1651, 34.5732)" font-family="Century Schoolbook L" font-size="2.4695" text-anchor="start" fill="currentColor">
<tspan>
Lord,</tspan>
</text>
<path transform="translate(9.8338, 29.2380) scale(0.0040, -0.0040)" d="M379 264c3 0 7 1 10 1c157 0 258 -129 258 -263c0 -77 -33 -155 -108 -211c-22 -16 -46 -29 -72 -37c3 -33 4 -66 4 -99c0 -21 0 -41 -1 -62c-7 -121 -91 -229 -211 -229c-108 0 -196 88 -196 197c0 58 54 103 113 103c54 0 95 -47 95 -103c0 -52 -43 -95 -95 -95
c-9 0 -18 1 -27 4c25 -37 66 -61 113 -61c95 0 156 93 162 191c1 19 2 38 2 57c0 29 -1 58 -3 87c-29 -5 -58 -8 -88 -8c-189 0 -333 173 -333 376c0 177 129 308 244 443c-20 62 -40 124 -48 189c-7 52 -7 105 -7 158c0 114 54 221 147 288c4 3 8 4 12 4c5 0 9 -2 13 -5
c72 -83 135 -243 135 -356c0 -142 -84 -255 -176 -364c21 -68 40 -136 57 -205zM463 -201c65 24 110 94 110 161c0 88 -64 175 -167 188c24 -114 44 -227 57 -349zM77 25c0 -133 128 -243 261 -243c27 0 55 1 81 5c-13 126 -35 244 -60 362c-79 -8 -124 -60 -124 -118
c0 -43 25 -88 80 -120c5 -5 7 -11 7 -17c0 -12 -10 -23 -23 -23c-3 0 -7 1 -10 2c-81 43 -118 115 -118 186c0 89 60 177 163 200c-14 57 -30 113 -47 169c-105 -122 -210 -243 -210 -403zM403 1038c-99 -46 -161 -145 -161 -254c0 -71 21 -130 39 -188
c78 97 142 199 142 324c0 51 -4 72 -20 118z" fill="currentColor"/>
<path transform="translate(66.6932, 28.7380) scale(0.0040, -0.0040)" d="M214 140c59 0 115 -32 115 -97c0 -72 -54 -121 -101 -149c-35 -21 -74 -34 -114 -34c-59 0 -114 32 -114 97c0 72 54 121 101 149c35 21 73 34 113 34z" fill="currentColor"/>
<text transform="translate(64.0429, 34.5732)" font-family="Century Schoolbook L" font-size="2.4695" text-anchor="start" fill="currentColor">
<tspan>
dam’s</tspan>
</text>
<rect transform="translate(67.9322, 28.2380)" x="-0.0757" y="-3.0000" width="0.1514" height="3.3269" ry="0.0500" fill="currentColor"/>
<path transform="translate(68.0079, 25.2880) scale(0.0040, -0.0040)" d="M0 0c0 -197 209 -334 209 -531c0 -71 -15 -140 -41 -206c-5 -9 -14 -13 -22 -13c-14 0 -29 12 -26 30c27 60 43 124 43 189c0 102 -93 206 -163 281h-19v250h19z" fill="currentColor"/>
<text transform="translate(73.4384, 24.7380)" font-family="sans-serif" font-size="1.9603" text-anchor="start" fill="currentColor">
<tspan>
D</tspan>
</text>
<text transform="translate(74.9322, 24.7380)" font-family="sans-serif" font-size="1.9603" text-anchor="start" fill="currentColor">
<tspan/>
</text>
<text transform="translate(74.9322, 24.7380)" font-family="sans-serif" font-size="1.9603" text-anchor="start" fill="currentColor">
<tspan/>
</text>
<text transform="translate(74.9322, 23.8471)" font-family="sans-serif" font-size="1.3858" text-anchor="start" fill="currentColor">
<tspan/>
</text>
<rect transform="translate(74.7613, 28.2380)" x="-0.0757" y="-3.0000" width="0.1514" height="3.2518" ry="0.0500" fill="currentColor"/>
<text transform="translate(72.7079, 34.5732)" font-family="Century Schoolbook L" font-size="2.4695" text-anchor="start" fill="currentColor">
<tspan>
na</tspan>
</text>
<path transform="translate(73.4384, 28.7380) scale(0.0040, -0.0040)" d="M312 63c0 23 -20 40 -41 40c-4 0 -7 -1 -11 -2c-30 -8 -75 -38 -111 -61s-81 -52 -101 -76c-7 -8 -10 -17 -10 -27c0 -23 19 -40 40 -40c4 0 8 1 12 2c30 8 75 38 111 61s81 52 101 76c7 8 10 17 10 27zM258 140c51 0 92 -23 92 -78c0 -19 -4 -38 -10 -56
c-11 -38 -31 -75 -64 -97c-53 -36 -112 -49 -185 -49c-51 0 -91 23 -91 78c0 19 4 38 10 56c11 38 30 75 63 97c53 36 112 49 185 49z" fill="currentColor"/>
<line transform="translate(9.0337, 42.9938)" stroke-linejoin="round" stroke-linecap="round" stroke-width="0.1164" stroke="currentColor" x1="0.0582" y1="-0.0000" x2="138.1582" y2="-0.0000"/>
<line transform="translate(9.0337, 41.9938)" stroke-linejoin="round" stroke-linecap="round" stroke-width="0.1164" stroke="currentColor" x1="0.0582" y1="-0.0000" x2="138.1582" y2="-0.0000"/>
<line transform="translate(9.0337, 40.9938)" stroke-linejoin="round" stroke-linecap="round" stroke-width="0.1164" stroke="currentColor" x1="0.0582" y1="-0.0000" x2="138.1582" y2="-0.0000"/>
<line transform="translate(9.0337, 39.9938)" stroke-linejoin="round" stroke-linecap="round" stroke-width="0.1164" stroke="currentColor" x1="0.0582" y1="-0.0000" x2="138.1582" y2="-0.0000"/>
<line transform="translate(9.0337, 38.9938)" stroke-linejoin="round" stroke-linecap="round" stroke-width="0.1164" stroke="currentColor" x1="0.0582" y1="-0.0000" x2="138.1582" y2="-0.0000"/>
<rect transform="translate(78.6377, 40.9938)" x="0.0000" y="-2.0000" width="0.2212" height="4.0000" ry="0.0000" fill="currentColor"/>
<rect transform="translate(147.0289, 40.9938)" x="0.0000" y="-2.0000" width="0.2212" height="4.0000" ry="0.0000" fill="currentColor"/>
<rect transform="translate(45.2705, 40.9938)" x="0.0000" y="-2.0000" width="0.2212" height="4.0000" ry="0.0000" fill="currentColor"/>
<rect transform="translate(113.6617, 40.9938)" x="0.0000" y="-2.0000" width="0.2212" height="4.0000" ry="0.0000" fill="currentColor"/>
<text transform="translate(105.4374, 46.4916)" font-family="Century Schoolbook L" font-size="2.4695" text-anchor="start" fill="currentColor">
<tspan>
Thy</tspan>
</text>
<rect transform="translate(108.2597, 40.9938)" x="-0.0757" y="-2.0000" width="0.1514" height="3.3269" ry="0.0500" fill="currentColor"/>
<text transform="translate(115.6815, 37.4938)" font-family="sans-serif" font-size="1.9603" text-anchor="start" fill="currentColor">
<tspan>
A</tspan>
</text>
<text transform="translate(117.0046, 37.4938)" font-family="sans-serif" font-size="1.9603" text-anchor="start" fill="currentColor">
<tspan/>
</text>
<text transform="translate(117.0046, 37.4938)" font-family="sans-serif" font-size="1.9603" text-anchor="start" fill="currentColor">
<tspan/>
</text>
<text transform="translate(117.0046, 36.6029)" font-family="sans-serif" font-size="1.3858" text-anchor="start" fill="currentColor">
<tspan/>
</text>
<path transform="translate(115.6815, 41.4938) scale(0.0040, -0.0040)" d="M312 63c0 23 -20 40 -41 40c-4 0 -7 -1 -11 -2c-30 -8 -75 -38 -111 -61s-81 -52 -101 -76c-7 -8 -10 -17 -10 -27c0 -23 19 -40 40 -40c4 0 8 1 12 2c30 8 75 38 111 61s81 52 101 76c7 8 10 17 10 27zM258 140c51 0 92 -23 92 -78c0 -19 -4 -38 -10 -56
c-11 -38 -31 -75 -64 -97c-53 -36 -112 -49 -185 -49c-51 0 -91 23 -91 78c0 19 4 38 10 56c11 38 30 75 63 97c53 36 112 49 185 49z" fill="currentColor"/>
<text transform="translate(114.7163, 46.4916)" font-family="Century Schoolbook L" font-size="2.4695" text-anchor="start" fill="currentColor">
<tspan>
glo</tspan>
</text>
<path transform="translate(117.5215, 41.4938) scale(0.0040, -0.0040)" d="M0 0c0 30 25 55 55 55s55 -25 55 -55s-25 -55 -55 -55s-55 25 -55 55z" fill="currentColor"/>
<rect transform="translate(117.0044, 40.9938)" x="-0.0757" y="-3.0000" width="0.1514" height="3.2518" ry="0.0500" fill="currentColor"/>
<path transform="translate(90.4909, 42.4938) scale(0.0040, -0.0040)" d="M312 63c0 23 -20 40 -41 40c-4 0 -7 -1 -11 -2c-30 -8 -75 -38 -111 -61s-81 -52 -101 -76c-7 -8 -10 -17 -10 -27c0 -23 19 -40 40 -40c4 0 8 1 12 2c30 8 75 38 111 61s81 52 101 76c7 8 10 17 10 27zM258 140c51 0 92 -23 92 -78c0 -19 -4 -38 -10 -56
c-11 -38 -31 -75 -64 -97c-53 -36 -112 -49 -185 -49c-51 0 -91 23 -91 78c0 19 4 38 10 56c11 38 30 75 63 97c53 36 112 49 185 49z" fill="currentColor"/>
<text transform="translate(89.1416, 46.4916)" font-family="Century Schoolbook L" font-size="2.4695" text-anchor="start" fill="currentColor">
<tspan>
ple,</tspan>
</text>
<rect transform="translate(91.8138, 40.9938)" x="-0.0757" y="-2.0000" width="0.1514" height="3.2518" ry="0.0500" fill="currentColor"/>
<path transform="translate(100.5743, 42.4938) scale(0.0040, -0.0040)" d="M214 140c59 0 115 -32 115 -97c0 -72 -54 -121 -101 -149c-35 -21 -74 -34 -114 -34c-59 0 -114 32 -114 97c0 72 54 121 101 149c35 21 73 34 113 34z" fill="currentColor"/>
<text transform="translate(97.4759, 46.4916)" font-family="Century Schoolbook L" font-size="2.4695" text-anchor="start" fill="currentColor">
<tspan>
Where</tspan>
</text>
<rect transform="translate(101.8133, 40.9938)" x="-0.0757" y="-2.0000" width="0.1514" height="3.3269" ry="0.0500" fill="currentColor"/>
<path transform="translate(107.0208, 42.4938) scale(0.0040, -0.0040)" d="M214 140c59 0 115 -32 115 -97c0 -72 -54 -121 -101 -149c-35 -21 -74 -34 -114 -34c-59 0 -114 32 -114 97c0 72 54 121 101 149c35 21 73 34 113 34z" fill="currentColor"/>
<rect transform="translate(122.2224, 46.4916)" x="0.0000" y="-0.5714" width="0.6600" height="0.1514" ry="0.0466" fill="currentColor"/>
<rect transform="translate(86.0182, 46.4916)" x="0.0000" y="-0.5714" width="0.6600" height="0.1514" ry="0.0466" fill="currentColor"/>
<rect transform="translate(63.0280, 46.4916)" x="0.0000" y="-0.5714" width="0.6600" height="0.1514" ry="0.0466" fill="currentColor"/>
<path transform="translate(127.6185, 42.9938) scale(0.0040, -0.0040)" d="M214 140c59 0 115 -32 115 -97c0 -72 -54 -121 -101 -149c-35 -21 -74 -34 -114 -34c-59 0 -114 32 -114 97c0 72 54 121 101 149c35 21 73 34 113 34z" fill="currentColor"/>
<text transform="translate(127.0595, 46.4916)" font-family="Century Schoolbook L" font-size="2.4695" text-anchor="start" fill="currentColor">
<tspan>
ry</tspan>
</text>
<rect transform="translate(128.8575, 40.9938)" x="-0.0757" y="-1.5000" width="0.1514" height="3.3269" ry="0.0500" fill="currentColor"/>
<text transform="translate(134.2719, 37.4938)" font-family="sans-serif" font-size="1.9603" text-anchor="start" fill="currentColor">
<tspan>
A</tspan>
</text>
<text transform="translate(135.5949, 37.4938)" font-family="sans-serif" font-size="1.9603" text-anchor="start" fill="currentColor">
<tspan/>
</text>
<text transform="translate(135.5949, 37.4938)" font-family="sans-serif" font-size="1.9603" text-anchor="start" fill="currentColor">
<tspan/>
</text>
<text transform="translate(135.5949, 36.6029)" font-family="sans-serif" font-size="1.3858" text-anchor="start" fill="currentColor">
<tspan/>
</text>
<text transform="translate(135.5949, 36.6029)" font-family="sans-serif" font-size="1.3858" text-anchor="start" fill="currentColor">
<tspan>
7</tspan>
</text>
<path transform="translate(134.2719, 41.9938) scale(0.0040, -0.0040)" d="M214 140c59 0 115 -32 115 -97c0 -72 -54 -121 -101 -149c-35 -21 -74 -34 -114 -34c-59 0 -114 32 -114 97c0 72 54 121 101 149c35 21 73 34 113 34z" fill="currentColor"/>
<text transform="translate(133.3501, 46.4916)" font-family="Century Schoolbook L" font-size="2.4695" text-anchor="start" fill="currentColor">
<tspan>
we</tspan>
</text>
<path transform="translate(136.0280, 41.4938) scale(0.0040, -0.0040)" d="M0 0c0 30 25 55 55 55s55 -25 55 -55s-25 -55 -55 -55s-55 25 -55 55z" fill="currentColor"/>
<rect transform="translate(135.5108, 40.9938)" x="-0.0757" y="-2.5000" width="0.1514" height="3.3269" ry="0.0500" fill="currentColor"/>
<path transform="translate(142.7788, 42.4938) scale(0.0040, -0.0040)" d="M214 140c59 0 115 -32 115 -97c0 -72 -54 -121 -101 -149c-35 -21 -74 -34 -114 -34c-59 0 -114 32 -114 97c0 72 54 121 101 149c35 21 73 34 113 34z" fill="currentColor"/>
<text transform="translate(140.6620, 46.4916)" font-family="Century Schoolbook L" font-size="2.4695" text-anchor="start" fill="currentColor">
<tspan>
shall</tspan>
</text>
<rect transform="translate(144.0178, 40.9938)" x="-0.0757" y="-2.0000" width="0.1514" height="3.3269" ry="0.0500" fill="currentColor"/>
<path transform="translate(144.0935, 39.0438) scale(0.0040, -0.0040)" d="M0 0c0 -197 209 -334 209 -531c0 -71 -15 -140 -41 -206c-5 -9 -14 -13 -22 -13c-14 0 -29 12 -26 30c27 60 43 124 43 189c0 102 -93 206 -163 281h-19v250h19z" fill="currentColor"/>
<path transform="translate(32.2620, 42.4938) scale(0.0040, -0.0040)" d="M214 140c59 0 115 -32 115 -97c0 -72 -54 -121 -101 -149c-35 -21 -74 -34 -114 -34c-59 0 -114 32 -114 97c0 72 54 121 101 149c35 21 73 34 113 34z" fill="currentColor"/>
<text transform="translate(30.0811, 46.4916)" font-family="Century Schoolbook L" font-size="2.4695" text-anchor="start" fill="currentColor">
<tspan>
With</tspan>
</text>
<rect transform="translate(33.5009, 40.9938)" x="-0.0757" y="-2.0000" width="0.1514" height="3.3269" ry="0.0500" fill="currentColor"/>
<path transform="translate(38.6653, 41.9938) scale(0.0040, -0.0040)" d="M214 140c59 0 115 -32 115 -97c0 -72 -54 -121 -101 -149c-35 -21 -74 -34 -114 -34c-59 0 -114 32 -114 97c0 72 54 121 101 149c35 21 73 34 113 34z" fill="currentColor"/>
<text transform="translate(37.4661, 46.4916)" font-family="Century Schoolbook L" font-size="2.4695" text-anchor="start" fill="currentColor">
<tspan>
the</tspan>
</text>
<rect transform="translate(39.9042, 40.9938)" x="-0.0757" y="-2.5000" width="0.1514" height="3.3269" ry="0.0500" fill="currentColor"/>
<path transform="translate(47.2903, 41.4938) scale(0.0040, -0.0040)" d="M312 63c0 23 -20 40 -41 40c-4 0 -7 -1 -11 -2c-30 -8 -75 -38 -111 -61s-81 -52 -101 -76c-7 -8 -10 -17 -10 -27c0 -23 19 -40 40 -40c4 0 8 1 12 2c30 8 75 38 111 61s81 52 101 76c7 8 10 17 10 27zM258 140c51 0 92 -23 92 -78c0 -19 -4 -38 -10 -56
c-11 -38 -31 -75 -64 -97c-53 -36 -112 -49 -185 -49c-51 0 -91 23 -91 78c0 19 4 38 10 56c11 38 30 75 63 97c53 36 112 49 185 49z" fill="currentColor"/>
<text transform="translate(44.5326, 46.4916)" font-family="Century Schoolbook L" font-size="2.4695" text-anchor="start" fill="currentColor">
<tspan>
saints</tspan>
</text>
<path transform="translate(49.1303, 41.4938) scale(0.0040, -0.0040)" d="M0 0c0 30 25 55 55 55s55 -25 55 -55s-25 -55 -55 -55s-55 25 -55 55z" fill="currentColor"/>
<rect transform="translate(48.6132, 40.9938)" x="-0.0757" y="-3.0000" width="0.1514" height="3.2518" ry="0.0500" fill="currentColor"/>
<text transform="translate(8.0521, 37.9438)" font-family="Century Schoolbook L" font-size="1.7463" text-anchor="start" fill="currentColor">
<tspan>
4</tspan>
</text>
<path transform="translate(9.8338, 41.9938) scale(0.0040, -0.0040)" d="M379 264c3 0 7 1 10 1c157 0 258 -129 258 -263c0 -77 -33 -155 -108 -211c-22 -16 -46 -29 -72 -37c3 -33 4 -66 4 -99c0 -21 0 -41 -1 -62c-7 -121 -91 -229 -211 -229c-108 0 -196 88 -196 197c0 58 54 103 113 103c54 0 95 -47 95 -103c0 -52 -43 -95 -95 -95
c-9 0 -18 1 -27 4c25 -37 66 -61 113 -61c95 0 156 93 162 191c1 19 2 38 2 57c0 29 -1 58 -3 87c-29 -5 -58 -8 -88 -8c-189 0 -333 173 -333 376c0 177 129 308 244 443c-20 62 -40 124 -48 189c-7 52 -7 105 -7 158c0 114 54 221 147 288c4 3 8 4 12 4c5 0 9 -2 13 -5
c72 -83 135 -243 135 -356c0 -142 -84 -255 -176 -364c21 -68 40 -136 57 -205zM463 -201c65 24 110 94 110 161c0 88 -64 175 -167 188c24 -114 44 -227 57 -349zM77 25c0 -133 128 -243 261 -243c27 0 55 1 81 5c-13 126 -35 244 -60 362c-79 -8 -124 -60 -124 -118
c0 -43 25 -88 80 -120c5 -5 7 -11 7 -17c0 -12 -10 -23 -23 -23c-3 0 -7 1 -10 2c-81 43 -118 115 -118 186c0 89 60 177 163 200c-14 57 -30 113 -47 169c-105 -122 -210 -243 -210 -403zM403 1038c-99 -46 -161 -145 -161 -254c0 -71 21 -130 39 -188
c78 97 142 199 142 324c0 51 -4 72 -20 118z" fill="currentColor"/>
<path transform="translate(13.3337, 38.9938) scale(0.0040, -0.0040)" d="M198 -329c-12 0 -21 9 -21 21v138l-79 -30v-154c0 -12 -9 -21 -21 -21s-21 9 -21 21v138l-22 -8c-3 -1 -6 -2 -9 -2c-13 0 -25 11 -25 25v54c0 10 6 20 16 24l40 15v155l-22 -9c-3 -1 -6 -1 -9 -1c-13 0 -25 11 -25 25v54c0 10 6 19 16 23l40 15v154c0 12 9 21 21 21
s21 -9 21 -21v-138l79 30v154c0 12 9 21 21 21s21 -9 21 -21v-138l22 8c3 1 6 2 9 2c13 0 25 -11 25 -25v-54c0 -10 -6 -20 -16 -24l-40 -15v-155l22 9c3 1 6 1 9 1c13 0 25 -11 25 -25v-54c0 -10 -6 -19 -16 -23l-40 -15v-154c0 -12 -9 -21 -21 -21zM98 62v-154l79 30v154z
" fill="currentColor"/>
<path transform="translate(14.4338, 40.4938) scale(0.0040, -0.0040)" d="M198 -329c-12 0 -21 9 -21 21v138l-79 -30v-154c0 -12 -9 -21 -21 -21s-21 9 -21 21v138l-22 -8c-3 -1 -6 -2 -9 -2c-13 0 -25 11 -25 25v54c0 10 6 20 16 24l40 15v155l-22 -9c-3 -1 -6 -1 -9 -1c-13 0 -25 11 -25 25v54c0 10 6 19 16 23l40 15v154c0 12 9 21 21 21
s21 -9 21 -21v-138l79 30v154c0 12 9 21 21 21s21 -9 21 -21v-138l22 8c3 1 6 2 9 2c13 0 25 -11 25 -25v-54c0 -10 -6 -20 -16 -24l-40 -15v-155l22 9c3 1 6 1 9 1c13 0 25 -11 25 -25v-54c0 -10 -6 -19 -16 -23l-40 -15v-154c0 -12 -9 -21 -21 -21zM98 62v-154l79 30v154z
" fill="currentColor"/>
<text transform="translate(18.0338, 37.4938)" font-family="sans-serif" font-size="1.9603" text-anchor="start" fill="currentColor">
<tspan>
D</tspan>
</text>
<text transform="translate(19.5275, 37.4938)" font-family="sans-serif" font-size="1.9603" text-anchor="start" fill="currentColor">
<tspan/>
</text>
<text transform="translate(19.5275, 37.4938)" font-family="sans-serif" font-size="1.9603" text-anchor="start" fill="currentColor">
<tspan/>
</text>
<text transform="translate(19.5275, 36.6029)" font-family="sans-serif" font-size="1.3858" text-anchor="start" fill="currentColor">
<tspan/>
</text>
<path transform="translate(18.0338, 42.4938) scale(0.0040, -0.0040)" d="M212 110c-49 0 -67 -43 -67 -88c0 -74 56 -132 129 -132c49 0 67 43 67 88c0 74 -56 132 -129 132zM487 0c0 -43 -34 -77 -72 -99c-52 -30 -112 -41 -172 -41s-120 11 -172 41c-38 22 -71 56 -71 99s33 77 71 99c52 30 112 41 172 41s120 -11 172 -41
c38 -22 72 -56 72 -99z" fill="currentColor"/>
<text transform="translate(16.1905, 46.4916)" font-family="Century Schoolbook L" font-size="2.4695" text-anchor="start" fill="currentColor">
<tspan>
Thee</tspan>
</text>
<text transform="translate(65.9027, 37.4938)" font-family="sans-serif" font-size="1.9603" text-anchor="start" fill="currentColor">
<tspan>
G</tspan>
</text>
<text transform="translate(67.4391, 37.4938)" font-family="sans-serif" font-size="1.9603" text-anchor="start" fill="currentColor">
<tspan/>
</text>
<text transform="translate(67.4391, 37.4938)" font-family="sans-serif" font-size="1.9603" text-anchor="start" fill="currentColor">
<tspan/>
</text>
<text transform="translate(67.4391, 36.6029)" font-family="sans-serif" font-size="1.3858" text-anchor="start" fill="currentColor">
<tspan/>
</text>
<path transform="translate(65.9027, 40.9938) scale(0.0040, -0.0040)" d="M214 140c59 0 115 -32 115 -97c0 -72 -54 -121 -101 -149c-35 -21 -74 -34 -114 -34c-59 0 -114 32 -114 97c0 72 54 121 101 149c35 21 73 34 113 34z" fill="currentColor"/>
<text transform="translate(65.4503, 46.4916)" font-family="Century Schoolbook L" font-size="2.4695" text-anchor="start" fill="currentColor">
<tspan>
to</tspan>
</text>
<path transform="translate(67.6587, 40.4938) scale(0.0040, -0.0040)" d="M0 0c0 30 25 55 55 55s55 -25 55 -55s-25 -55 -55 -55s-55 25 -55 55z" fill="currentColor"/>
<rect transform="translate(65.9783, 40.9938)" x="-0.0757" y="0.1731" width="0.1514" height="3.1602" ry="0.0500" fill="currentColor"/>
<path transform="translate(74.3877, 41.4938) scale(0.0040, -0.0040)" d="M214 140c59 0 115 -32 115 -97c0 -72 -54 -121 -101 -149c-35 -21 -74 -34 -114 -34c-59 0 -114 32 -114 97c0 72 54 121 101 149c35 21 73 34 113 34z" fill="currentColor"/>
<text transform="translate(72.8043, 46.4916)" font-family="Century Schoolbook L" font-size="2.4695" text-anchor="start" fill="currentColor">
<tspan>
Thy</tspan>
</text>
<rect transform="translate(75.6266, 40.9938)" x="-0.0757" y="-3.0000" width="0.1514" height="3.3269" ry="0.0500" fill="currentColor"/>
<path transform="translate(75.7023, 38.0438) scale(0.0040, -0.0040)" d="M0 0c0 -197 209 -334 209 -531c0 -71 -15 -140 -41 -206c-5 -9 -14 -13 -22 -13c-14 0 -29 12 -26 30c27 60 43 124 43 189c0 102 -93 206 -163 281h-19v250h19z" fill="currentColor"/>
<text transform="translate(80.6575, 37.4938)" font-family="sans-serif" font-size="1.9603" text-anchor="start" fill="currentColor">
<tspan>
D</tspan>
</text>
<text transform="translate(82.1513, 37.4938)" font-family="sans-serif" font-size="1.9603" text-anchor="start" fill="currentColor">
<tspan/>
</text>
<text transform="translate(82.1513, 37.4938)" font-family="sans-serif" font-size="1.9603" text-anchor="start" fill="currentColor">
<tspan/>
</text>
<text transform="translate(82.1513, 36.6029)" font-family="sans-serif" font-size="1.3858" text-anchor="start" fill="currentColor">
<tspan/>
</text>
<path transform="translate(80.6575, 41.4938) scale(0.0040, -0.0040)" d="M312 63c0 23 -20 40 -41 40c-4 0 -7 -1 -11 -2c-30 -8 -75 -38 -111 -61s-81 -52 -101 -76c-7 -8 -10 -17 -10 -27c0 -23 19 -40 40 -40c4 0 8 1 12 2c30 8 75 38 111 61s81 52 101 76c7 8 10 17 10 27zM258 140c51 0 92 -23 92 -78c0 -19 -4 -38 -10 -56
c-11 -38 -31 -75 -64 -97c-53 -36 -112 -49 -185 -49c-51 0 -91 23 -91 78c0 19 4 38 10 56c11 38 30 75 63 97c53 36 112 49 185 49z" fill="currentColor"/>
<text transform="translate(79.1588, 46.4916)" font-family="Century Schoolbook L" font-size="2.4695" text-anchor="start" fill="currentColor">
<tspan>
tem</tspan>
</text>
<rect transform="translate(81.9804, 40.9938)" x="-0.0757" y="-3.0000" width="0.1514" height="3.2518" ry="0.0500" fill="currentColor"/>
<path transform="translate(59.4774, 41.4938) scale(0.0040, -0.0040)" d="M214 140c59 0 115 -32 115 -97c0 -72 -54 -121 -101 -149c-35 -21 -74 -34 -114 -34c-59 0 -114 32 -114 97c0 72 54 121 101 149c35 21 73 34 113 34z" fill="currentColor"/>
<text transform="translate(59.0037, 46.4916)" font-family="Century Schoolbook L" font-size="2.4695" text-anchor="start" fill="currentColor">
<tspan>
in</tspan>
</text>
<rect transform="translate(60.7163, 40.9938)" x="-0.0757" y="-3.0000" width="0.1514" height="3.3269" ry="0.0500" fill="currentColor"/>
<rect transform="translate(9.0337, 55.9938)" x="124.6332" y="-0.1082" width="1.9719" height="0.2164" ry="0.1082" fill="currentColor"/>
<line transform="translate(9.0337, 54.9938)" stroke-linejoin="round" stroke-linecap="round" stroke-width="0.1164" stroke="currentColor" x1="0.0582" y1="-0.0000" x2="138.1582" y2="-0.0000"/>
<line transform="translate(9.0337, 53.9938)" stroke-linejoin="round" stroke-linecap="round" stroke-width="0.1164" stroke="currentColor" x1="0.0582" y1="-0.0000" x2="138.1582" y2="-0.0000"/>
<line transform="translate(9.0337, 52.9938)" stroke-linejoin="round" stroke-linecap="round" stroke-width="0.1164" stroke="currentColor" x1="0.0582" y1="-0.0000" x2="138.1582" y2="-0.0000"/>
<line transform="translate(9.0337, 51.9938)" stroke-linejoin="round" stroke-linecap="round" stroke-width="0.1164" stroke="currentColor" x1="0.0582" y1="-0.0000" x2="138.1582" y2="-0.0000"/>
<line transform="translate(9.0337, 50.9938)" stroke-linejoin="round" stroke-linecap="round" stroke-width="0.1164" stroke="currentColor" x1="0.0582" y1="-0.0000" x2="138.1582" y2="-0.0000"/>
<rect transform="translate(78.2722, 52.9938)" x="0.0000" y="-2.0000" width="0.2212" height="4.0000" ry="0.0000" fill="currentColor"/>
<rect transform="translate(113.3645, 52.9938)" x="0.0000" y="-2.0000" width="0.2212" height="4.0000" ry="0.0000" fill="currentColor"/>
<rect transform="translate(45.3102, 52.9938)" x="0.0000" y="-2.0000" width="0.2212" height="4.0000" ry="0.0000" fill="currentColor"/>
<rect transform="translate(147.0289, 52.9938)" x="0.0000" y="-2.0000" width="0.2212" height="4.0000" ry="0.0000" fill="currentColor"/>
<path transform="translate(127.5860, 55.4938) scale(0.0040, -0.0040)" d="M214 140c59 0 115 -32 115 -97c0 -72 -54 -121 -101 -149c-35 -21 -74 -34 -114 -34c-59 0 -114 32 -114 97c0 72 54 121 101 149c35 21 73 34 113 34z" fill="currentColor"/>
<text transform="translate(126.9203, 58.7040)" font-family="Century Schoolbook L" font-size="2.4695" text-anchor="start" fill="currentColor">
<tspan>
de</tspan>
</text>
<rect transform="translate(128.8250, 52.9938)" x="-0.0757" y="-1.0000" width="0.1514" height="3.3269" ry="0.0500" fill="currentColor"/>
<path transform="translate(32.2769, 55.4938) scale(0.0040, -0.0040)" d="M214 140c59 0 115 -32 115 -97c0 -72 -54 -121 -101 -149c-35 -21 -74 -34 -114 -34c-59 0 -114 32 -114 97c0 72 54 121 101 149c35 21 73 34 113 34z" fill="currentColor"/>
<path transform="translate(133.9956, 55.9938) scale(0.0040, -0.0040)" d="M214 140c59 0 115 -32 115 -97c0 -72 -54 -121 -101 -149c-35 -21 -74 -34 -114 -34c-59 0 -114 32 -114 97c0 72 54 121 101 149c35 21 73 34 113 34z" fill="currentColor"/>
<text transform="translate(132.5829, 58.7040)" font-family="Century Schoolbook L" font-size="2.4695" text-anchor="start" fill="currentColor">
<tspan>
pen</tspan>
</text>
<rect transform="translate(135.2345, 52.9938)" x="-0.0757" y="-0.5000" width="0.1514" height="3.3269" ry="0.0500" fill="currentColor"/>
<rect transform="translate(101.5701, 52.9938)" x="-0.0757" y="-1.0000" width="0.1514" height="3.3269" ry="0.0500" fill="currentColor"/>
<text transform="translate(29.8400, 58.7040)" font-family="Century Schoolbook L" font-size="2.4695" text-anchor="start" fill="currentColor">
<tspan>
From</tspan>
</text>
<path transform="translate(106.7406, 55.4938) scale(0.0040, -0.0040)" d="M214 140c59 0 115 -32 115 -97c0 -72 -54 -121 -101 -149c-35 -21 -74 -34 -114 -34c-59 0 -114 32 -114 97c0 72 54 121 101 149c35 21 73 34 113 34z" fill="currentColor"/>
<text transform="translate(105.6481, 58.7040)" font-family="Century Schoolbook L" font-size="2.4695" text-anchor="start" fill="currentColor">
<tspan>
my</tspan>
</text>
<rect transform="translate(107.9796, 52.9938)" x="-0.0757" y="-1.0000" width="0.1514" height="3.3269" ry="0.0500" fill="currentColor"/>
<text transform="translate(115.3859, 50.3929)" font-family="sans-serif" font-size="1.9603" text-anchor="start" fill="currentColor">
<tspan>
E</tspan>
</text>
<text transform="translate(116.6236, 50.3929)" font-family="sans-serif" font-size="1.9603" text-anchor="start" fill="currentColor">
<tspan/>
</text>
<text transform="translate(116.6236, 50.3929)" font-family="sans-serif" font-size="1.9603" text-anchor="start" fill="currentColor">
<tspan/>
</text>
<text transform="translate(116.6236, 49.5020)" font-family="sans-serif" font-size="1.3858" text-anchor="start" fill="currentColor">
<tspan/>
</text>
<text transform="translate(116.6236, 49.5020)" font-family="sans-serif" font-size="1.3858" text-anchor="start" fill="currentColor">
<tspan>
7</tspan>
</text>
<path transform="translate(115.3859, 55.4938) scale(0.0040, -0.0040)" d="M312 63c0 23 -20 40 -41 40c-4 0 -7 -1 -11 -2c-30 -8 -75 -38 -111 -61s-81 -52 -101 -76c-7 -8 -10 -17 -10 -27c0 -23 19 -40 40 -40c4 0 8 1 12 2c30 8 75 38 111 61s81 52 101 76c7 8 10 17 10 27zM258 140c51 0 92 -23 92 -78c0 -19 -4 -38 -10 -56
c-11 -38 -31 -75 -64 -97c-53 -36 -112 -49 -185 -49c-51 0 -91 23 -91 78c0 19 4 38 10 56c11 38 30 75 63 97c53 36 112 49 185 49z" fill="currentColor"/>
<text transform="translate(114.9541, 58.7040)" font-family="Century Schoolbook L" font-size="2.4695" text-anchor="start" fill="currentColor">
<tspan>
in</tspan>
</text>
<path transform="translate(117.2259, 55.4938) scale(0.0040, -0.0040)" d="M0 0c0 30 25 55 55 55s55 -25 55 -55s-25 -55 -55 -55s-55 25 -55 55z" fill="currentColor"/>
<rect transform="translate(116.7087, 52.9938)" x="-0.0757" y="-1.0000" width="0.1514" height="3.2518" ry="0.0500" fill="currentColor"/>
<text transform="translate(47.4318, 50.3929)" font-family="sans-serif" font-size="1.9603" text-anchor="start" fill="currentColor">
<tspan>
G</tspan>
</text>
<text transform="translate(48.9682, 50.3929)" font-family="sans-serif" font-size="1.9603" text-anchor="start" fill="currentColor">
<tspan/>
</text>
<text transform="translate(48.9682, 50.3929)" font-family="sans-serif" font-size="1.9603" text-anchor="start" fill="currentColor">
<tspan/>
</text>
<text transform="translate(48.9682, 49.5020)" font-family="sans-serif" font-size="1.3858" text-anchor="start" fill="currentColor">
<tspan/>
</text>
<rect transform="translate(39.9254, 52.9938)" x="-0.0757" y="-1.0000" width="0.1514" height="3.3269" ry="0.0500" fill="currentColor"/>
<text transform="translate(38.0207, 58.7040)" font-family="Century Schoolbook L" font-size="2.4695" text-anchor="start" fill="currentColor">
<tspan>
pe</tspan>
</text>
<path transform="translate(38.6864, 55.4938) scale(0.0040, -0.0040)" d="M214 140c59 0 115 -32 115 -97c0 -72 -54 -121 -101 -149c-35 -21 -74 -34 -114 -34c-59 0 -114 32 -114 97c0 72 54 121 101 149c35 21 73 34 113 34z" fill="currentColor"/>
<rect transform="translate(137.2822, 58.7040)" x="0.0000" y="-0.5714" width="0.6600" height="0.1514" ry="0.0466" fill="currentColor"/>
<rect transform="translate(130.7447, 58.7040)" x="0.0000" y="-0.5714" width="0.6600" height="0.1514" ry="0.0466" fill="currentColor"/>
<rect transform="translate(121.7382, 58.7040)" x="0.0000" y="-0.5714" width="0.6600" height="0.1514" ry="0.0466" fill="currentColor"/>
<rect transform="translate(85.7670, 58.7040)" x="0.0000" y="-0.5714" width="0.6600" height="0.1514" ry="0.0466" fill="currentColor"/>
<rect transform="translate(77.7704, 58.7040)" x="0.0000" y="-0.5714" width="0.6600" height="0.1514" ry="0.0466" fill="currentColor"/>
<rect transform="translate(53.5280, 58.7040)" x="0.0000" y="-0.5714" width="0.6600" height="0.1514" ry="0.0466" fill="currentColor"/>
<rect transform="translate(43.4180, 58.7040)" x="0.0000" y="-0.5714" width="0.6600" height="0.1514" ry="0.0466" fill="currentColor"/>
<path transform="translate(140.4051, 55.4938) scale(0.0040, -0.0040)" d="M214 140c59 0 115 -32 115 -97c0 -72 -54 -121 -101 -149c-35 -21 -74 -34 -114 -34c-59 0 -114 32 -114 97c0 72 54 121 101 149c35 21 73 34 113 34z" fill="currentColor"/>
<text transform="translate(138.5017, 58.7040)" font-family="Century Schoolbook L" font-size="2.4695" text-anchor="start" fill="currentColor">
<tspan>
dent</tspan>
</text>
<rect transform="translate(141.6440, 52.9938)" x="-0.0757" y="-1.0000" width="0.1514" height="3.3269" ry="0.0500" fill="currentColor"/>
<text transform="translate(32.2769, 50.3929)" font-family="sans-serif" font-size="1.9603" text-anchor="start" fill="currentColor">
<tspan>
D</tspan>
</text>
<text transform="translate(33.7707, 50.3929)" font-family="sans-serif" font-size="1.9603" text-anchor="start" fill="currentColor">
<tspan/>
</text>
<text transform="translate(33.7707, 50.3929)" font-family="sans-serif" font-size="1.9603" text-anchor="start" fill="currentColor">
<tspan/>
</text>
<text transform="translate(33.7707, 49.5020)" font-family="sans-serif" font-size="1.3858" text-anchor="start" fill="currentColor">
<tspan/>
</text>
<text transform="translate(33.7707, 49.5020)" font-family="sans-serif" font-size="1.3858" text-anchor="start" fill="currentColor">
<tspan>
7</tspan>
</text>
<text transform="translate(16.8520, 58.7040)" font-family="Century Schoolbook L" font-size="2.4695" text-anchor="start" fill="currentColor">
<tspan>
see.</tspan>
</text>
<path transform="translate(18.0338, 55.4938) scale(0.0040, -0.0040)" d="M212 110c-49 0 -67 -43 -67 -88c0 -74 56 -132 129 -132c49 0 67 43 67 88c0 74 -56 132 -129 132zM487 0c0 -43 -34 -77 -72 -99c-52 -30 -112 -41 -172 -41s-120 11 -172 41c-38 22 -71 56 -71 99s33 77 71 99c52 30 112 41 172 41s120 -11 172 -41
c38 -22 72 -56 72 -99z" fill="currentColor"/>
<text transform="translate(18.0338, 50.3929)" font-family="sans-serif" font-size="1.9603" text-anchor="start" fill="currentColor">
<tspan>
D</tspan>
</text>
<text transform="translate(19.5275, 50.3929)" font-family="sans-serif" font-size="1.9603" text-anchor="start" fill="currentColor">
<tspan/>
</text>
<text transform="translate(19.5275, 50.3929)" font-family="sans-serif" font-size="1.9603" text-anchor="start" fill="currentColor">
<tspan/>
</text>
<text transform="translate(19.5275, 49.5020)" font-family="sans-serif" font-size="1.3858" text-anchor="start" fill="currentColor">
<tspan/>
</text>
<path transform="translate(59.6319, 52.9938) scale(0.0040, -0.0040)" d="M214 140c59 0 115 -32 115 -97c0 -72 -54 -121 -101 -149c-35 -21 -74 -34 -114 -34c-59 0 -114 32 -114 97c0 72 54 121 101 149c35 21 73 34 113 34z" fill="currentColor"/>
<text transform="translate(58.2833, 58.7040)" font-family="Century Schoolbook L" font-size="2.4695" text-anchor="start" fill="currentColor">
<tspan>
liar</tspan>
</text>
<rect transform="translate(59.7076, 52.9938)" x="-0.0757" y="0.1731" width="0.1514" height="3.1602" ry="0.0500" fill="currentColor"/>
<path transform="translate(66.0415, 52.4938) scale(0.0040, -0.0040)" d="M214 140c59 0 115 -32 115 -97c0 -72 -54 -121 -101 -149c-35 -21 -74 -34 -114 -34c-59 0 -114 32 -114 97c0 72 54 121 101 149c35 21 73 34 113 34z" fill="currentColor"/>
<text transform="translate(63.5192, 58.7040)" font-family="Century Schoolbook L" font-size="2.4695" text-anchor="start" fill="currentColor">
<tspan>
traits</tspan>
</text>
<path transform="translate(67.7975, 52.4938) scale(0.0040, -0.0040)" d="M0 0c0 30 25 55 55 55s55 -25 55 -55s-25 -55 -55 -55s-55 25 -55 55z" fill="currentColor"/>
<rect transform="translate(66.1171, 52.9938)" x="-0.0757" y="-0.3269" width="0.1514" height="3.3269" ry="0.0500" fill="currentColor"/>
<text transform="translate(8.0521, 49.9011)" font-family="Century Schoolbook L" font-size="1.7463" text-anchor="start" fill="currentColor">
<tspan>
8</tspan>
</text>
<path transform="translate(9.8338, 53.9938) scale(0.0040, -0.0040)" d="M379 264c3 0 7 1 10 1c157 0 258 -129 258 -263c0 -77 -33 -155 -108 -211c-22 -16 -46 -29 -72 -37c3 -33 4 -66 4 -99c0 -21 0 -41 -1 -62c-7 -121 -91 -229 -211 -229c-108 0 -196 88 -196 197c0 58 54 103 113 103c54 0 95 -47 95 -103c0 -52 -43 -95 -95 -95
c-9 0 -18 1 -27 4c25 -37 66 -61 113 -61c95 0 156 93 162 191c1 19 2 38 2 57c0 29 -1 58 -3 87c-29 -5 -58 -8 -88 -8c-189 0 -333 173 -333 376c0 177 129 308 244 443c-20 62 -40 124 -48 189c-7 52 -7 105 -7 158c0 114 54 221 147 288c4 3 8 4 12 4c5 0 9 -2 13 -5
c72 -83 135 -243 135 -356c0 -142 -84 -255 -176 -364c21 -68 40 -136 57 -205zM463 -201c65 24 110 94 110 161c0 88 -64 175 -167 188c24 -114 44 -227 57 -349zM77 25c0 -133 128 -243 261 -243c27 0 55 1 81 5c-13 126 -35 244 -60 362c-79 -8 -124 -60 -124 -118
c0 -43 25 -88 80 -120c5 -5 7 -11 7 -17c0 -12 -10 -23 -23 -23c-3 0 -7 1 -10 2c-81 43 -118 115 -118 186c0 89 60 177 163 200c-14 57 -30 113 -47 169c-105 -122 -210 -243 -210 -403zM403 1038c-99 -46 -161 -145 -161 -254c0 -71 21 -130 39 -188
c78 97 142 199 142 324c0 51 -4 72 -20 118z" fill="currentColor"/>
<path transform="translate(13.3337, 50.9938) scale(0.0040, -0.0040)" d="M198 -329c-12 0 -21 9 -21 21v138l-79 -30v-154c0 -12 -9 -21 -21 -21s-21 9 -21 21v138l-22 -8c-3 -1 -6 -2 -9 -2c-13 0 -25 11 -25 25v54c0 10 6 20 16 24l40 15v155l-22 -9c-3 -1 -6 -1 -9 -1c-13 0 -25 11 -25 25v54c0 10 6 19 16 23l40 15v154c0 12 9 21 21 21
s21 -9 21 -21v-138l79 30v154c0 12 9 21 21 21s21 -9 21 -21v-138l22 8c3 1 6 2 9 2c13 0 25 -11 25 -25v-54c0 -10 -6 -20 -16 -24l-40 -15v-155l22 9c3 1 6 1 9 1c13 0 25 -11 25 -25v-54c0 -10 -6 -19 -16 -23l-40 -15v-154c0 -12 -9 -21 -21 -21zM98 62v-154l79 30v154z
" fill="currentColor"/>
<path transform="translate(14.4338, 52.4938) scale(0.0040, -0.0040)" d="M198 -329c-12 0 -21 9 -21 21v138l-79 -30v-154c0 -12 -9 -21 -21 -21s-21 9 -21 21v138l-22 -8c-3 -1 -6 -2 -9 -2c-13 0 -25 11 -25 25v54c0 10 6 20 16 24l40 15v155l-22 -9c-3 -1 -6 -1 -9 -1c-13 0 -25 11 -25 25v54c0 10 6 19 16 23l40 15v154c0 12 9 21 21 21
s21 -9 21 -21v-138l79 30v154c0 12 9 21 21 21s21 -9 21 -21v-138l22 8c3 1 6 2 9 2c13 0 25 -11 25 -25v-54c0 -10 -6 -20 -16 -24l-40 -15v-155l22 9c3 1 6 1 9 1c13 0 25 -11 25 -25v-54c0 -10 -6 -19 -16 -23l-40 -15v-154c0 -12 -9 -21 -21 -21zM98 62v-154l79 30v154z
" fill="currentColor"/>
<path transform="translate(47.4318, 52.9938) scale(0.0040, -0.0040)" d="M312 63c0 23 -20 40 -41 40c-4 0 -7 -1 -11 -2c-30 -8 -75 -38 -111 -61s-81 -52 -101 -76c-7 -8 -10 -17 -10 -27c0 -23 19 -40 40 -40c4 0 8 1 12 2c30 8 75 38 111 61s81 52 101 76c7 8 10 17 10 27zM258 140c51 0 92 -23 92 -78c0 -19 -4 -38 -10 -56
c-11 -38 -31 -75 -64 -97c-53 -36 -112 -49 -185 -49c-51 0 -91 23 -91 78c0 19 4 38 10 56c11 38 30 75 63 97c53 36 112 49 185 49z" fill="currentColor"/>
<text transform="translate(46.8293, 58.7040)" font-family="Century Schoolbook L" font-size="2.4695" text-anchor="start" fill="currentColor">
<tspan>
cu</tspan>
</text>
<path transform="translate(49.2717, 52.4938) scale(0.0040, -0.0040)" d="M0 0c0 30 25 55 55 55s55 -25 55 -55s-25 -55 -55 -55s-55 25 -55 55z" fill="currentColor"/>
<rect transform="translate(47.5074, 52.9938)" x="-0.0757" y="0.2482" width="0.1514" height="3.0852" ry="0.0500" fill="currentColor"/>
<rect transform="translate(80.4694, 52.9938)" x="-0.0757" y="0.2482" width="0.1514" height="3.0852" ry="0.0500" fill="currentColor"/>
<rect transform="translate(33.5158, 52.9938)" x="-0.0757" y="-1.0000" width="0.1514" height="3.3269" ry="0.0500" fill="currentColor"/>
<path transform="translate(90.4871, 53.4938) scale(0.0040, -0.0040)" d="M312 63c0 23 -20 40 -41 40c-4 0 -7 -1 -11 -2c-30 -8 -75 -38 -111 -61s-81 -52 -101 -76c-7 -8 -10 -17 -10 -27c0 -23 19 -40 40 -40c4 0 8 1 12 2c30 8 75 38 111 61s81 52 101 76c7 8 10 17 10 27zM258 140c51 0 92 -23 92 -78c0 -19 -4 -38 -10 -56
c-11 -38 -31 -75 -64 -97c-53 -36 -112 -49 -185 -49c-51 0 -91 23 -91 78c0 19 4 38 10 56c11 38 30 75 63 97c53 36 112 49 185 49z" fill="currentColor"/>
<text transform="translate(89.6713, 58.7040)" font-family="Century Schoolbook L" font-size="2.4695" text-anchor="start" fill="currentColor">
<tspan>
er,</tspan>
</text>
<rect transform="translate(91.8100, 52.9938)" x="-0.0757" y="-3.0000" width="0.1514" height="3.2518" ry="0.0500" fill="currentColor"/>
<path transform="translate(100.3311, 55.4938) scale(0.0040, -0.0040)" d="M214 140c59 0 115 -32 115 -97c0 -72 -54 -121 -101 -149c-35 -21 -74 -34 -114 -34c-59 0 -114 32 -114 97c0 72 54 121 101 149c35 21 73 34 113 34z" fill="currentColor"/>
<text transform="translate(97.8942, 58.7040)" font-family="Century Schoolbook L" font-size="2.4695" text-anchor="start" fill="currentColor">
<tspan>
From</tspan>
</text>
<text transform="translate(73.8914, 58.7040)" font-family="Century Schoolbook L" font-size="2.4695" text-anchor="start" fill="currentColor">
<tspan>
de</tspan>
</text>
<path transform="translate(74.5572, 52.9938) scale(0.0040, -0.0040)" d="M214 140c59 0 115 -32 115 -97c0 -72 -54 -121 -101 -149c-35 -21 -74 -34 -114 -34c-59 0 -114 32 -114 97c0 72 54 121 101 149c35 21 73 34 113 34z" fill="currentColor"/>
<rect transform="translate(74.6328, 52.9938)" x="-0.0757" y="0.1731" width="0.1514" height="3.2019" ry="0.0500" fill="currentColor"/>
<path transform="translate(74.7085, 56.3188) scale(0.0040, -0.0040)" d="M0 0h-19v250h19c96 59 223 149 223 259c0 56 -15 111 -41 161c-3 18 11 30 25 30c8 0 17 -4 22 -13c25 -56 41 -116 41 -178c0 -204 -270 -305 -270 -509z" fill="currentColor"/>
<text transform="translate(80.3937, 50.3929)" font-family="sans-serif" font-size="1.9603" text-anchor="start" fill="currentColor">
<tspan>
D</tspan>
</text>
<text transform="translate(81.8874, 50.3929)" font-family="sans-serif" font-size="1.9603" text-anchor="start" fill="currentColor">
<tspan/>
</text>
<text transform="translate(81.8874, 50.3929)" font-family="sans-serif" font-size="1.9603" text-anchor="start" fill="currentColor">
<tspan/>
</text>
<text transform="translate(81.8874, 49.5020)" font-family="sans-serif" font-size="1.3858" text-anchor="start" fill="currentColor">
<tspan/>
</text>
<path transform="translate(80.3937, 52.9938) scale(0.0040, -0.0040)" d="M312 63c0 23 -20 40 -41 40c-4 0 -7 -1 -11 -2c-30 -8 -75 -38 -111 -61s-81 -52 -101 -76c-7 -8 -10 -17 -10 -27c0 -23 19 -40 40 -40c4 0 8 1 12 2c30 8 75 38 111 61s81 52 101 76c7 8 10 17 10 27zM258 140c51 0 92 -23 92 -78c0 -19 -4 -38 -10 -56
c-11 -38 -31 -75 -64 -97c-53 -36 -112 -49 -185 -49c-51 0 -91 23 -91 78c0 19 4 38 10 56c11 38 30 75 63 97c53 36 112 49 185 49z" fill="currentColor"/>
<text transform="translate(79.6632, 58.7040)" font-family="Century Schoolbook L" font-size="2.4695" text-anchor="start" fill="currentColor">
<tspan>
liv</tspan>
</text>
<line transform="translate(9.0337, 67.1192)" stroke-linejoin="round" stroke-linecap="round" stroke-width="0.1164" stroke="currentColor" x1="0.0582" y1="-0.0000" x2="138.1582" y2="-0.0000"/>
<line transform="translate(9.0337, 66.1192)" stroke-linejoin="round" stroke-linecap="round" stroke-width="0.1164" stroke="currentColor" x1="0.0582" y1="-0.0000" x2="138.1582" y2="-0.0000"/>
<line transform="translate(9.0337, 65.1192)" stroke-linejoin="round" stroke-linecap="round" stroke-width="0.1164" stroke="currentColor" x1="0.0582" y1="-0.0000" x2="138.1582" y2="-0.0000"/>
<line transform="translate(9.0337, 64.1192)" stroke-linejoin="round" stroke-linecap="round" stroke-width="0.1164" stroke="currentColor" x1="0.0582" y1="-0.0000" x2="138.1582" y2="-0.0000"/>
<line transform="translate(9.0337, 63.1192)" stroke-linejoin="round" stroke-linecap="round" stroke-width="0.1164" stroke="currentColor" x1="0.0582" y1="-0.0000" x2="138.1582" y2="-0.0000"/>
<rect transform="translate(146.5516, 65.1192)" x="0.0000" y="-2.0000" width="0.6986" height="4.0000" ry="0.0000" fill="currentColor"/>
<rect transform="translate(145.9811, 65.1192)" x="0.0000" y="-2.0000" width="0.2212" height="4.0000" ry="0.0000" fill="currentColor"/>
<rect transform="translate(98.5845, 65.1192)" x="0.0000" y="-2.0000" width="0.2212" height="4.0000" ry="0.0000" fill="currentColor"/>
<rect transform="translate(70.8986, 65.1192)" x="0.0000" y="-2.0000" width="0.2212" height="4.0000" ry="0.0000" fill="currentColor"/>
<rect transform="translate(125.1817, 65.1192)" x="0.0000" y="-2.0000" width="0.2212" height="4.0000" ry="0.0000" fill="currentColor"/>
<rect transform="translate(44.2546, 65.1192)" x="0.0000" y="-2.0000" width="0.2212" height="4.0000" ry="0.0000" fill="currentColor"/>
<text transform="translate(124.8684, 70.7877)" font-family="Century Schoolbook L" font-size="2.4695" text-anchor="start" fill="currentColor">
<tspan>
days.</tspan>
</text>
<path transform="translate(126.8611, 67.6192) scale(0.0040, -0.0040)" d="M212 110c-49 0 -67 -43 -67 -88c0 -74 56 -132 129 -132c49 0 67 43 67 88c0 74 -56 132 -129 132zM487 0c0 -43 -34 -77 -72 -99c-52 -30 -112 -41 -172 -41s-120 11 -172 41c-38 22 -71 56 -71 99s33 77 71 99c52 30 112 41 172 41s120 -11 172 -41
c38 -22 72 -56 72 -99z" fill="currentColor"/>
<text transform="translate(126.8611, 61.6192)" font-family="sans-serif" font-size="1.9603" text-anchor="start" fill="currentColor">
<tspan>
D</tspan>
</text>
<text transform="translate(128.3548, 61.6192)" font-family="sans-serif" font-size="1.9603" text-anchor="start" fill="currentColor">
<tspan/>
</text>
<text transform="translate(128.3548, 61.6192)" font-family="sans-serif" font-size="1.9603" text-anchor="start" fill="currentColor">
<tspan/>
</text>
<text transform="translate(128.3548, 60.7283)" font-family="sans-serif" font-size="1.3858" text-anchor="start" fill="currentColor">
<tspan/>
</text>
<path transform="translate(122.8516, 63.1692) scale(0.0040, -0.0040)" d="M0 0c0 -197 209 -334 209 -531c0 -71 -15 -140 -41 -206c-5 -9 -14 -13 -22 -13c-14 0 -29 12 -26 30c27 60 43 124 43 189c0 102 -93 206 -163 281h-19v250h19z" fill="currentColor"/>
<rect transform="translate(122.7759, 65.1192)" x="-0.0757" y="-2.0000" width="0.1514" height="3.3269" ry="0.0500" fill="currentColor"/>
<text transform="translate(120.2737, 70.7877)" font-family="Century Schoolbook L" font-size="2.4695" text-anchor="start" fill="currentColor">
<tspan>
our</tspan>
</text>
<path transform="translate(121.5369, 66.6192) scale(0.0040, -0.0040)" d="M214 140c59 0 115 -32 115 -97c0 -72 -54 -121 -101 -149c-35 -21 -74 -34 -114 -34c-59 0 -114 32 -114 97c0 72 54 121 101 149c35 21 73 34 113 34z" fill="currentColor"/>
<path transform="translate(109.4771, 67.1192) scale(0.0040, -0.0040)" d="M214 140c59 0 115 -32 115 -97c0 -72 -54 -121 -101 -149c-35 -21 -74 -34 -114 -34c-59 0 -114 32 -114 97c0 72 54 121 101 149c35 21 73 34 113 34z" fill="currentColor"/>
<text transform="translate(107.5950, 70.7877)" font-family="Century Schoolbook L" font-size="2.4695" text-anchor="start" fill="currentColor">
<tspan>
thru</tspan>
</text>
<rect transform="translate(110.7161, 65.1192)" x="-0.0757" y="-1.5000" width="0.1514" height="3.3269" ry="0.0500" fill="currentColor"/>
<text transform="translate(114.8458, 61.6192)" font-family="sans-serif" font-size="1.9603" text-anchor="start" fill="currentColor">
<tspan>
A</tspan>
</text>
<text transform="translate(116.1688, 61.6192)" font-family="sans-serif" font-size="1.9603" text-anchor="start" fill="currentColor">
<tspan/>
</text>
<text transform="translate(116.1688, 61.6192)" font-family="sans-serif" font-size="1.9603" text-anchor="start" fill="currentColor">
<tspan/>
</text>
<text transform="translate(116.1688, 60.7283)" font-family="sans-serif" font-size="1.3858" text-anchor="start" fill="currentColor">
<tspan/>
</text>
<text transform="translate(116.1688, 60.7283)" font-family="sans-serif" font-size="1.3858" text-anchor="start" fill="currentColor">
<tspan>
7</tspan>
</text>
<path transform="translate(114.8458, 66.1192) scale(0.0040, -0.0040)" d="M214 140c59 0 115 -32 115 -97c0 -72 -54 -121 -101 -149c-35 -21 -74 -34 -114 -34c-59 0 -114 32 -114 97c0 72 54 121 101 149c35 21 73 34 113 34z" fill="currentColor"/>
<text transform="translate(114.0520, 70.7877)" font-family="Century Schoolbook L" font-size="2.4695" text-anchor="start" fill="currentColor">
<tspan>
all</tspan>
</text>
<path transform="translate(116.6018, 65.6192) scale(0.0040, -0.0040)" d="M0 0c0 30 25 55 55 55s55 -25 55 -55s-25 -55 -55 -55s-55 25 -55 55z" fill="currentColor"/>
<rect transform="translate(116.0847, 65.1192)" x="-0.0757" y="-2.5000" width="0.1514" height="3.3269" ry="0.0500" fill="currentColor"/>
<path transform="translate(38.9340, 66.1192) scale(0.0040, -0.0040)" d="M214 140c59 0 115 -32 115 -97c0 -72 -54 -121 -101 -149c-35 -21 -74 -34 -114 -34c-59 0 -114 32 -114 97c0 72 54 121 101 149c35 21 73 34 113 34z" fill="currentColor"/>
<text transform="translate(38.9085, 70.7877)" font-family="Century Schoolbook L" font-size="2.4695" text-anchor="start" fill="currentColor">
<tspan>
a</tspan>
</text>
<rect transform="translate(40.1730, 65.1192)" x="-0.0757" y="-2.5000" width="0.1514" height="3.3269" ry="0.0500" fill="currentColor"/>
<text transform="translate(45.9339, 61.6192)" font-family="sans-serif" font-size="1.9603" text-anchor="start" fill="currentColor">
<tspan>
D</tspan>
</text>
<text transform="translate(47.4277, 61.6192)" font-family="sans-serif" font-size="1.9603" text-anchor="start" fill="currentColor">
<tspan/>
</text>
<text transform="translate(47.4277, 61.6192)" font-family="sans-serif" font-size="1.9603" text-anchor="start" fill="currentColor">
<tspan/>
</text>
<text transform="translate(47.4277, 60.7283)" font-family="sans-serif" font-size="1.3858" text-anchor="start" fill="currentColor">
<tspan/>
</text>
<path transform="translate(45.9339, 65.6192) scale(0.0040, -0.0040)" d="M312 63c0 23 -20 40 -41 40c-4 0 -7 -1 -11 -2c-30 -8 -75 -38 -111 -61s-81 -52 -101 -76c-7 -8 -10 -17 -10 -27c0 -23 19 -40 40 -40c4 0 8 1 12 2c30 8 75 38 111 61s81 52 101 76c7 8 10 17 10 27zM258 140c51 0 92 -23 92 -78c0 -19 -4 -38 -10 -56
c-11 -38 -31 -75 -64 -97c-53 -36 -112 -49 -185 -49c-51 0 -91 23 -91 78c0 19 4 38 10 56c11 38 30 75 63 97c53 36 112 49 185 49z" fill="currentColor"/>
<text transform="translate(43.5816, 70.7877)" font-family="Century Schoolbook L" font-size="2.4695" text-anchor="start" fill="currentColor">
<tspan>
dwell</tspan>
</text>
<path transform="translate(47.7739, 65.6192) scale(0.0040, -0.0040)" d="M0 0c0 30 25 55 55 55s55 -25 55 -55s-25 -55 -55 -55s-55 25 -55 55z" fill="currentColor"/>
<rect transform="translate(51.6434, 70.7877)" x="0.0000" y="-0.5714" width="0.6600" height="0.1514" ry="0.0466" fill="currentColor"/>
<path transform="translate(18.0338, 65.1192)" stroke-width="0.0931" stroke-linejoin="round" stroke-linecap="round" stroke="currentColor" fill="currentColor" d="M0.6698 2.5586C2.1393 3.9956 6.9214 4.2986 8.5606 3.0586L8.5606 3.0586C6.9303 4.1592 2.1481 3.8562 0.6698 2.5586z"/>
<path transform="translate(137.9888, 65.1192) scale(0.0040, -0.0040)" d="M362 0h-349c-7 0 -13 6 -13 13v131c0 7 6 12 13 12h349c7 0 13 -5 13 -12v-131c0 -7 -6 -13 -13 -13z" fill="currentColor"/>
<text transform="translate(18.0338, 61.6192)" font-family="sans-serif" font-size="1.9603" text-anchor="start" fill="currentColor">
<tspan>
A</tspan>
</text>
<text transform="translate(19.3568, 61.6192)" font-family="sans-serif" font-size="1.9603" text-anchor="start" fill="currentColor">
<tspan/>
</text>
<text transform="translate(19.3568, 61.6192)" font-family="sans-serif" font-size="1.9603" text-anchor="start" fill="currentColor">
<tspan/>
</text>
<text transform="translate(19.3568, 60.7283)" font-family="sans-serif" font-size="1.3858" text-anchor="start" fill="currentColor">
<tspan/>
</text>
<path transform="translate(18.0338, 66.6192) scale(0.0040, -0.0040)" d="M312 63c0 23 -20 40 -41 40c-4 0 -7 -1 -11 -2c-30 -8 -75 -38 -111 -61s-81 -52 -101 -76c-7 -8 -10 -17 -10 -27c0 -23 19 -40 40 -40c4 0 8 1 12 2c30 8 75 38 111 61s81 52 101 76c7 8 10 17 10 27zM258 140c51 0 92 -23 92 -78c0 -19 -4 -38 -10 -56
c-11 -38 -31 -75 -64 -97c-53 -36 -112 -49 -185 -49c-51 0 -91 23 -91 78c0 19 4 38 10 56c11 38 30 75 63 97c53 36 112 49 185 49z" fill="currentColor"/>
<text transform="translate(18.0338, 70.7877)" font-family="Century Schoolbook L" font-size="2.4695" text-anchor="start" fill="currentColor">
<tspan>
ways,</tspan>
</text>
<rect transform="translate(19.3566, 65.1192)" x="-0.0757" y="-2.0000" width="0.1514" height="3.2518" ry="0.0500" fill="currentColor"/>
<path transform="translate(25.9246, 67.1192) scale(0.0040, -0.0040)" d="M312 63c0 23 -20 40 -41 40c-4 0 -7 -1 -11 -2c-30 -8 -75 -38 -111 -61s-81 -52 -101 -76c-7 -8 -10 -17 -10 -27c0 -23 19 -40 40 -40c4 0 8 1 12 2c30 8 75 38 111 61s81 52 101 76c7 8 10 17 10 27zM258 140c51 0 92 -23 92 -78c0 -19 -4 -38 -10 -56
c-11 -38 -31 -75 -64 -97c-53 -36 -112 -49 -185 -49c-51 0 -91 23 -91 78c0 19 4 38 10 56c11 38 30 75 63 97c53 36 112 49 185 49z" fill="currentColor"/>
<rect transform="translate(27.2474, 65.1192)" x="-0.0757" y="-1.5000" width="0.1514" height="3.2518" ry="0.0500" fill="currentColor"/>
<text transform="translate(33.8154, 61.6192)" font-family="sans-serif" font-size="1.9603" text-anchor="start" fill="currentColor">
<tspan>
A</tspan>
</text>
<text transform="translate(35.1384, 61.6192)" font-family="sans-serif" font-size="1.9603" text-anchor="start" fill="currentColor">
<tspan/>
</text>
<text transform="translate(35.1384, 61.6192)" font-family="sans-serif" font-size="1.9603" text-anchor="start" fill="currentColor">
<tspan/>
</text>
<text transform="translate(35.1384, 60.7283)" font-family="sans-serif" font-size="1.3858" text-anchor="start" fill="currentColor">
<tspan/>
</text>
<text transform="translate(35.1384, 60.7283)" font-family="sans-serif" font-size="1.3858" text-anchor="start" fill="currentColor">
<tspan>
7</tspan>
</text>
<path transform="translate(33.8154, 66.6192) scale(0.0040, -0.0040)" d="M214 140c59 0 115 -32 115 -97c0 -72 -54 -121 -101 -149c-35 -21 -74 -34 -114 -34c-59 0 -114 32 -114 97c0 72 54 121 101 149c35 21 73 34 113 34z" fill="currentColor"/>
<text transform="translate(31.7199, 70.7877)" font-family="Century Schoolbook L" font-size="2.4695" text-anchor="start" fill="currentColor">
<tspan>
That</tspan>
</text>
<rect transform="translate(35.0543, 65.1192)" x="-0.0757" y="-2.0000" width="0.1514" height="3.3269" ry="0.0500" fill="currentColor"/>
<path transform="translate(55.3972, 65.6192) scale(0.0040, -0.0040)" d="M214 140c59 0 115 -32 115 -97c0 -72 -54 -121 -101 -149c-35 -21 -74 -34 -114 -34c-59 0 -114 32 -114 97c0 72 54 121 101 149c35 21 73 34 113 34z" fill="currentColor"/>
<text transform="translate(54.2620, 70.7877)" font-family="Century Schoolbook L" font-size="2.4695" text-anchor="start" fill="currentColor">
<tspan>
ing</tspan>
</text>
<rect transform="translate(56.6362, 65.1192)" x="-0.0757" y="-3.0000" width="0.1514" height="3.3269" ry="0.0500" fill="currentColor"/>
<text transform="translate(60.5846, 61.6192)" font-family="sans-serif" font-size="1.9603" text-anchor="start" fill="currentColor">
<tspan>
G</tspan>
</text>
<text transform="translate(62.1211, 61.6192)" font-family="sans-serif" font-size="1.9603" text-anchor="start" fill="currentColor">
<tspan/>
</text>
<text transform="translate(62.1211, 61.6192)" font-family="sans-serif" font-size="1.9603" text-anchor="start" fill="currentColor">
<tspan/>
</text>
<text transform="translate(62.1211, 60.7283)" font-family="sans-serif" font-size="1.3858" text-anchor="start" fill="currentColor">
<tspan/>
</text>
<path transform="translate(60.5846, 65.1192) scale(0.0040, -0.0040)" d="M214 140c59 0 115 -32 115 -97c0 -72 -54 -121 -101 -149c-35 -21 -74 -34 -114 -34c-59 0 -114 32 -114 97c0 72 54 121 101 149c35 21 73 34 113 34z" fill="currentColor"/>
<text transform="translate(58.2971, 70.7877)" font-family="Century Schoolbook L" font-size="2.4695" text-anchor="start" fill="currentColor">
<tspan>
place</tspan>
</text>
<path transform="translate(62.3407, 64.6192) scale(0.0040, -0.0040)" d="M0 0c0 30 25 55 55 55s55 -25 55 -55s-25 -55 -55 -55s-55 25 -55 55z" fill="currentColor"/>
<rect transform="translate(60.6603, 65.1192)" x="-0.0757" y="0.1731" width="0.1514" height="3.1602" ry="0.0500" fill="currentColor"/>
<path transform="translate(67.2538, 65.6192) scale(0.0040, -0.0040)" d="M214 140c59 0 115 -32 115 -97c0 -72 -54 -121 -101 -149c-35 -21 -74 -34 -114 -34c-59 0 -114 32 -114 97c0 72 54 121 101 149c35 21 73 34 113 34z" fill="currentColor"/>
<text transform="translate(66.3320, 70.7877)" font-family="Century Schoolbook L" font-size="2.4695" text-anchor="start" fill="currentColor">
<tspan>
for</tspan>
</text>
<rect transform="translate(68.4928, 65.1192)" x="-0.0757" y="-3.0000" width="0.1514" height="3.3269" ry="0.0500" fill="currentColor"/>
<path transform="translate(68.5685, 62.1692) scale(0.0040, -0.0040)" d="M0 0c0 -197 209 -334 209 -531c0 -71 -15 -140 -41 -206c-5 -9 -14 -13 -22 -13c-14 0 -29 12 -26 30c27 60 43 124 43 189c0 102 -93 206 -163 281h-19v250h19z" fill="currentColor"/>
<text transform="translate(7.0705, 62.0692)" font-family="Century Schoolbook L" font-size="1.7463" text-anchor="start" fill="currentColor">
<tspan>
12</tspan>
</text>
<path transform="translate(9.8338, 66.1192) scale(0.0040, -0.0040)" d="M379 264c3 0 7 1 10 1c157 0 258 -129 258 -263c0 -77 -33 -155 -108 -211c-22 -16 -46 -29 -72 -37c3 -33 4 -66 4 -99c0 -21 0 -41 -1 -62c-7 -121 -91 -229 -211 -229c-108 0 -196 88 -196 197c0 58 54 103 113 103c54 0 95 -47 95 -103c0 -52 -43 -95 -95 -95
c-9 0 -18 1 -27 4c25 -37 66 -61 113 -61c95 0 156 93 162 191c1 19 2 38 2 57c0 29 -1 58 -3 87c-29 -5 -58 -8 -88 -8c-189 0 -333 173 -333 376c0 177 129 308 244 443c-20 62 -40 124 -48 189c-7 52 -7 105 -7 158c0 114 54 221 147 288c4 3 8 4 12 4c5 0 9 -2 13 -5
c72 -83 135 -243 135 -356c0 -142 -84 -255 -176 -364c21 -68 40 -136 57 -205zM463 -201c65 24 110 94 110 161c0 88 -64 175 -167 188c24 -114 44 -227 57 -349zM77 25c0 -133 128 -243 261 -243c27 0 55 1 81 5c-13 126 -35 244 -60 362c-79 -8 -124 -60 -124 -118
c0 -43 25 -88 80 -120c5 -5 7 -11 7 -17c0 -12 -10 -23 -23 -23c-3 0 -7 1 -10 2c-81 43 -118 115 -118 186c0 89 60 177 163 200c-14 57 -30 113 -47 169c-105 -122 -210 -243 -210 -403zM403 1038c-99 -46 -161 -145 -161 -254c0 -71 21 -130 39 -188
c78 97 142 199 142 324c0 51 -4 72 -20 118z" fill="currentColor"/>
<path transform="translate(13.3337, 63.1192) scale(0.0040, -0.0040)" d="M198 -329c-12 0 -21 9 -21 21v138l-79 -30v-154c0 -12 -9 -21 -21 -21s-21 9 -21 21v138l-22 -8c-3 -1 -6 -2 -9 -2c-13 0 -25 11 -25 25v54c0 10 6 20 16 24l40 15v155l-22 -9c-3 -1 -6 -1 -9 -1c-13 0 -25 11 -25 25v54c0 10 6 19 16 23l40 15v154c0 12 9 21 21 21
s21 -9 21 -21v-138l79 30v154c0 12 9 21 21 21s21 -9 21 -21v-138l22 8c3 1 6 2 9 2c13 0 25 -11 25 -25v-54c0 -10 -6 -20 -16 -24l-40 -15v-155l22 9c3 1 6 1 9 1c13 0 25 -11 25 -25v-54c0 -10 -6 -19 -16 -23l-40 -15v-154c0 -12 -9 -21 -21 -21zM98 62v-154l79 30v154z
" fill="currentColor"/>
<path transform="translate(14.4338, 64.6192) scale(0.0040, -0.0040)" d="M198 -329c-12 0 -21 9 -21 21v138l-79 -30v-154c0 -12 -9 -21 -21 -21s-21 9 -21 21v138l-22 -8c-3 -1 -6 -2 -9 -2c-13 0 -25 11 -25 25v54c0 10 6 20 16 24l40 15v155l-22 -9c-3 -1 -6 -1 -9 -1c-13 0 -25 11 -25 25v54c0 10 6 19 16 23l40 15v154c0 12 9 21 21 21
s21 -9 21 -21v-138l79 30v154c0 12 9 21 21 21s21 -9 21 -21v-138l22 8c3 1 6 2 9 2c13 0 25 -11 25 -25v-54c0 -10 -6 -20 -16 -24l-40 -15v-155l22 9c3 1 6 1 9 1c13 0 25 -11 25 -25v-54c0 -10 -6 -19 -16 -23l-40 -15v-154c0 -12 -9 -21 -21 -21zM98 62v-154l79 30v154z
" fill="currentColor"/>
<rect transform="translate(47.2567, 65.1192)" x="-0.0757" y="-3.0000" width="0.1514" height="3.2518" ry="0.0500" fill="currentColor"/>
<path transform="translate(80.2188, 66.6192) scale(0.0040, -0.0040)" d="M312 63c0 23 -20 40 -41 40c-4 0 -7 -1 -11 -2c-30 -8 -75 -38 -111 -61s-81 -52 -101 -76c-7 -8 -10 -17 -10 -27c0 -23 19 -40 40 -40c4 0 8 1 12 2c30 8 75 38 111 61s81 52 101 76c7 8 10 17 10 27zM258 140c51 0 92 -23 92 -78c0 -19 -4 -38 -10 -56
c-11 -38 -31 -75 -64 -97c-53 -36 -112 -49 -185 -49c-51 0 -91 23 -91 78c0 19 4 38 10 56c11 38 30 75 63 97c53 36 112 49 185 49z" fill="currentColor"/>
<text transform="translate(77.8665, 70.7877)" font-family="Century Schoolbook L" font-size="2.4695" text-anchor="start" fill="currentColor">
<tspan>
Lord,</tspan>
</text>
<rect transform="translate(81.5416, 65.1192)" x="-0.0757" y="-2.0000" width="0.1514" height="3.2518" ry="0.0500" fill="currentColor"/>
<path transform="translate(88.1096, 66.6192) scale(0.0040, -0.0040)" d="M214 140c59 0 115 -32 115 -97c0 -72 -54 -121 -101 -149c-35 -21 -74 -34 -114 -34c-59 0 -114 32 -114 97c0 72 54 121 101 149c35 21 73 34 113 34z" fill="currentColor"/>
<text transform="translate(86.9317, 70.7877)" font-family="Century Schoolbook L" font-size="2.4695" text-anchor="start" fill="currentColor">
<tspan>
We</tspan>
</text>
<rect transform="translate(89.3485, 65.1192)" x="-0.0757" y="-2.0000" width="0.1514" height="3.3269" ry="0.0500" fill="currentColor"/>
<path transform="translate(93.2282, 66.6192) scale(0.0040, -0.0040)" d="M214 140c59 0 115 -32 115 -97c0 -72 -54 -121 -101 -149c-35 -21 -74 -34 -114 -34c-59 0 -114 32 -114 97c0 72 54 121 101 149c35 21 73 34 113 34z" fill="currentColor"/>
<text transform="translate(91.7729, 70.7877)" font-family="Century Schoolbook L" font-size="2.4695" text-anchor="start" fill="currentColor">
<tspan>
will</tspan>
</text>
<rect transform="translate(94.4672, 65.1192)" x="-0.0757" y="-2.0000" width="0.1514" height="3.3269" ry="0.0500" fill="currentColor"/>
<text transform="translate(100.2638, 61.6192)" font-family="sans-serif" font-size="1.9603" text-anchor="start" fill="currentColor">
<tspan>
A</tspan>
</text>
<text transform="translate(101.5868, 61.6192)" font-family="sans-serif" font-size="1.9603" text-anchor="start" fill="currentColor">
<tspan/>
</text>
<text transform="translate(101.5868, 61.6192)" font-family="sans-serif" font-size="1.9603" text-anchor="start" fill="currentColor">
<tspan/>
</text>
<text transform="translate(101.5868, 60.7283)" font-family="sans-serif" font-size="1.3858" text-anchor="start" fill="currentColor">
<tspan/>
</text>
<path transform="translate(100.2638, 65.6192) scale(0.0040, -0.0040)" d="M312 63c0 23 -20 40 -41 40c-4 0 -7 -1 -11 -2c-30 -8 -75 -38 -111 -61s-81 -52 -101 -76c-7 -8 -10 -17 -10 -27c0 -23 19 -40 40 -40c4 0 8 1 12 2c30 8 75 38 111 61s81 52 101 76c7 8 10 17 10 27zM258 140c51 0 92 -23 92 -78c0 -19 -4 -38 -10 -56
c-11 -38 -31 -75 -64 -97c-53 -36 -112 -49 -185 -49c-51 0 -91 23 -91 78c0 19 4 38 10 56c11 38 30 75 63 97c53 36 112 49 185 49z" fill="currentColor"/>
<text transform="translate(99.6613, 70.7877)" font-family="Century Schoolbook L" font-size="2.4695" text-anchor="start" fill="currentColor">
<tspan>
be</tspan>
</text>
<path transform="translate(102.1038, 65.6192) scale(0.0040, -0.0040)" d="M0 0c0 30 25 55 55 55s55 -25 55 -55s-25 -55 -55 -55s-55 25 -55 55z" fill="currentColor"/>
<rect transform="translate(101.5866, 65.1192)" x="-0.0757" y="-3.0000" width="0.1514" height="3.2518" ry="0.0500" fill="currentColor"/>
<text transform="translate(72.5780, 61.6192)" font-family="sans-serif" font-size="1.9603" text-anchor="start" fill="currentColor">
<tspan>
D</tspan>
</text>
<text transform="translate(74.0717, 61.6192)" font-family="sans-serif" font-size="1.9603" text-anchor="start" fill="currentColor">
<tspan/>
</text>
<text transform="translate(74.0717, 61.6192)" font-family="sans-serif" font-size="1.9603" text-anchor="start" fill="currentColor">
<tspan/>
</text>
<text transform="translate(74.0717, 60.7283)" font-family="sans-serif" font-size="1.3858" text-anchor="start" fill="currentColor">
<tspan/>
</text>
<path transform="translate(72.5780, 65.6192) scale(0.0040, -0.0040)" d="M312 63c0 23 -20 40 -41 40c-4 0 -7 -1 -11 -2c-30 -8 -75 -38 -111 -61s-81 -52 -101 -76c-7 -8 -10 -17 -10 -27c0 -23 19 -40 40 -40c4 0 8 1 12 2c30 8 75 38 111 61s81 52 101 76c7 8 10 17 10 27zM258 140c51 0 92 -23 92 -78c0 -19 -4 -38 -10 -56
c-11 -38 -31 -75 -64 -97c-53 -36 -112 -49 -185 -49c-51 0 -91 23 -91 78c0 19 4 38 10 56c11 38 30 75 63 97c53 36 112 49 185 49z" fill="currentColor"/>
<text transform="translate(70.1190, 70.7877)" font-family="Century Schoolbook L" font-size="2.4695" text-anchor="start" fill="currentColor">
<tspan>
Thee,</tspan>
</text>
<rect transform="translate(73.9008, 65.1192)" x="-0.0757" y="-3.0000" width="0.1514" height="3.2518" ry="0.0500" fill="currentColor"/>
<text transform="translate(9.0337, 80.1192)" font-family="Century Schoolbook L" font-weight="bold" font-size="2.1999" text-anchor="start" fill="currentColor">
<tspan>
2.</tspan>
</text>
<text transform="translate(11.5116, 80.1192)" font-family="Century Schoolbook L" font-size="2.1999" text-anchor="start" fill="currentColor">
<tspan>
By Thy life and by its flowing </tspan>
</text>
<text transform="translate(11.5116, 83.1192)" font-family="Century Schoolbook L" font-size="2.1999" text-anchor="start" fill="currentColor">
<tspan>
  I can grow and be transformed, </tspan>
</text>
<text transform="translate(11.5116, 86.1192)" font-family="Century Schoolbook L" font-size="2.1999" text-anchor="start" fill="currentColor">
<tspan>
With the saints coordinated, </tspan>
</text>
<text transform="translate(11.5116, 89.1192)" font-family="Century Schoolbook L" font-size="2.1999" text-anchor="start" fill="currentColor">
<tspan>
  Builded up, to Thee conformed; </tspan>
</text>
<text transform="translate(11.5116, 92.1192)" font-family="Century Schoolbook L" font-size="2.1999" text-anchor="start" fill="currentColor">
<tspan>
Keep the order in the Body, </tspan>
</text>
<text transform="translate(11.5116, 95.1192)" font-family="Century Schoolbook L" font-size="2.1999" text-anchor="start" fill="currentColor">
<tspan>
  There to function in Thy will, </tspan>
</text>
<text transform="translate(11.5116, 98.1192)" font-family="Century Schoolbook L" font-size="2.1999" text-anchor="start" fill="currentColor">
<tspan>
Ever serving, helping others, </tspan>
</text>
<text transform="translate(11.5116, 101.1192)" font-family="Century Schoolbook L" font-size="2.1999" text-anchor="start" fill="currentColor">
<tspan>
  All Thy purpose to fulfill. </tspan>
</text>
<text transform="translate(11.5116, 103.1192)" font-family="Century Schoolbook L" font-size="1.5560" text-anchor="start" fill="currentColor">
<tspan>
 </tspan>
</text>
<text transform="translate(9.0337, 106.1192)" font-family="Century Schoolbook L" font-weight="bold" font-size="2.1999" text-anchor="start" fill="currentColor">
<tspan>
3.</tspan>
</text>
<text transform="translate(11.5116, 106.1192)" font-family="Century Schoolbook L" font-size="2.1999" text-anchor="start" fill="currentColor">
<tspan>
In my knowledge and experience </tspan>
</text>
<text transform="translate(11.5116, 109.1192)" font-family="Century Schoolbook L" font-size="2.1999" text-anchor="start" fill="currentColor">
<tspan>
  I would not exalted be, </tspan>
</text>
<text transform="translate(11.5116, 112.1192)" font-family="Century Schoolbook L" font-size="2.1999" text-anchor="start" fill="currentColor">
<tspan>
But submitting and accepting </tspan>
</text>
<text transform="translate(11.5116, 115.1192)" font-family="Century Schoolbook L" font-size="2.1999" text-anchor="start" fill="currentColor">
<tspan>
  Let the Body balance me; </tspan>
</text>
<text transform="translate(11.5116, 118.1192)" font-family="Century Schoolbook L" font-size="2.1999" text-anchor="start" fill="currentColor">
<tspan>
Holding fast the Head, and growing </tspan>
</text>
<text transform="translate(11.5116, 121.1192)" font-family="Century Schoolbook L" font-size="2.1999" text-anchor="start" fill="currentColor">
<tspan>
  With His increase, in His way, </tspan>
</text>
<text transform="translate(11.5116, 124.1192)" font-family="Century Schoolbook L" font-size="2.1999" text-anchor="start" fill="currentColor">
<tspan>
By the joints and bands supplying, </tspan>
</text>
<text transform="translate(11.5116, 127.1192)" font-family="Century Schoolbook L" font-size="2.1999" text-anchor="start" fill="currentColor">
<tspan>
  Knit together day by day. </tspan>
</text>
<text transform="translate(11.5116, 129.1192)" font-family="Century Schoolbook L" font-size="1.5560" text-anchor="start" fill="currentColor">
<tspan>
 </tspan>
</text>
<text transform="translate(99.9165, 80.1192)" font-family="Century Schoolbook L" font-weight="bold" font-size="2.1999" text-anchor="start" fill="currentColor">
<tspan>
4.</tspan>
</text>
<text transform="translate(102.3944, 80.1192)" font-family="Century Schoolbook L" font-size="2.1999" text-anchor="start" fill="currentColor">
<tspan>
By Thy Spirit daily strengthened </tspan>
</text>
<text transform="translate(102.3944, 83.1192)" font-family="Century Schoolbook L" font-size="2.1999" text-anchor="start" fill="currentColor">
<tspan>
  In the inner man with might, </tspan>
</text>
<text transform="translate(102.3944, 86.1192)" font-family="Century Schoolbook L" font-size="2.1999" text-anchor="start" fill="currentColor">
<tspan>
I would know Thy love surpassing, </tspan>
</text>
<text transform="translate(102.3944, 89.1192)" font-family="Century Schoolbook L" font-size="2.1999" text-anchor="start" fill="currentColor">
<tspan>
  Know Thy breadth and length and height; </tspan>
</text>
<text transform="translate(102.3944, 92.1192)" font-family="Century Schoolbook L" font-size="2.1999" text-anchor="start" fill="currentColor">
<tspan>
Ever of Thy riches taking, </tspan>
</text>
<text transform="translate(102.3944, 95.1192)" font-family="Century Schoolbook L" font-size="2.1999" text-anchor="start" fill="currentColor">
<tspan>
  Unto all Thy fulness filled, </tspan>
</text>
<text transform="translate(102.3944, 98.1192)" font-family="Century Schoolbook L" font-size="2.1999" text-anchor="start" fill="currentColor">
<tspan>
Ever growing into manhood, </tspan>
</text>
<text transform="translate(102.3944, 101.1192)" font-family="Century Schoolbook L" font-size="2.1999" text-anchor="start" fill="currentColor">
<tspan>
  That Thy Body Thou may build. </tspan>
</text>
<text transform="translate(102.3944, 103.1192)" font-family="Century Schoolbook L" font-size="1.5560" text-anchor="start" fill="currentColor">
<tspan>
 </tspan>
</text>
<text transform="translate(99.9165, 106.1192)" font-family="Century Schoolbook L" font-weight="bold" font-size="2.1999" text-anchor="start" fill="currentColor">
<tspan>
5.</tspan>
</text>
<text transform="translate(102.3944, 106.1192)" font-family="Century Schoolbook L" font-size="2.1999" text-anchor="start" fill="currentColor">
<tspan>
In God’s house and in Thy Body </tspan>
</text>
<text transform="translate(102.3944, 109.1192)" font-family="Century Schoolbook L" font-size="2.1999" text-anchor="start" fill="currentColor">
<tspan>
  Builded up I long to be, </tspan>
</text>
<text transform="translate(102.3944, 112.1192)" font-family="Century Schoolbook L" font-size="2.1999" text-anchor="start" fill="currentColor">
<tspan>
That within this corporate vessel </tspan>
</text>
<text transform="translate(102.3944, 115.1192)" font-family="Century Schoolbook L" font-size="2.1999" text-anchor="start" fill="currentColor">
<tspan>
  All shall then Thy glory see; </tspan>
</text>
<text transform="translate(102.3944, 118.1192)" font-family="Century Schoolbook L" font-size="2.1999" text-anchor="start" fill="currentColor">
<tspan>
That Thy Bride, the glorious city, </tspan>
</text>
<text transform="translate(102.3944, 121.1192)" font-family="Century Schoolbook L" font-size="2.1999" text-anchor="start" fill="currentColor">
<tspan>
  May appear upon the earth, </tspan>
</text>
<text transform="translate(102.3944, 124.1192)" font-family="Century Schoolbook L" font-size="2.1999" text-anchor="start" fill="currentColor">
<tspan>
As a lampstand brightly beaming </tspan>
</text>
<text transform="translate(102.3944, 127.1192)" font-family="Century Schoolbook L" font-size="2.1999" text-anchor="start" fill="currentColor">
<tspan>
  To express to all Thy worth. </tspan>
</text>
<text transform="translate(102.3944, 129.1192)" font-family="Century Schoolbook L" font-size="1.5560" text-anchor="start" fill="currentColor">
<tspan>
 </tspan>
</text>
<text transform="translate(69.8622, 189.4189)" font-family="Trebuchet MS" font-size="2.1999" text-anchor="start" fill="currentColor">
<tspan>
www.hymnal.net</tspan>
</text>
<text transform="translate(78.1419, 192.4189)" font-family="Century Schoolbook L" font-size="2.1999" text-anchor="start" fill="currentColor">
<tspan/>
</text>
</svg>
