<svg xmlns="http://www.w3.org/2000/svg" xmlns:xlink="http://www.w3.org/1999/xlink" version="1.2" width="215.90mm" height="279.40mm" viewBox="0 0 153.5737 198.7425">
<!-- Page: 1/1 -->
<text transform="translate(9.0337, 6.3236)" font-family="Century Schoolbook L" font-size="2.1999" text-anchor="start" fill="currentColor">
<tspan>
 </tspan>
</text>
<text transform="translate(62.1799, 9.6283)" font-family="Century Schoolbook L" font-weight="bold" font-size="3.1113" text-anchor="start" fill="currentColor">
<tspan>
Merciful and loving</tspan>
</text>
<text transform="translate(66.8746, 13.1283)" font-family="Century Schoolbook L" font-weight="bold" font-size="2.1999" text-anchor="start" fill="currentColor">
<tspan>
Gospel—The Savior</tspan>
</text>
<text transform="translate(137.3912, 17.6950)" font-family="Century Schoolbook L" font-size="5.8739" text-anchor="start" fill="currentColor">
<tspan>
988</tspan>
</text>
<text transform="translate(9.0337, 19.9021)" font-family="Century Schoolbook L" font-weight="bold" font-style="italic" font-size="2.1999" text-anchor="start" fill="currentColor">
<tspan>
(Guitar: Capo 1)</tspan>
</text>
<rect transform="translate(9.0337, 30.8661)" x="55.0321" y="-0.1082" width="1.9719" height="0.2164" ry="0.1082" fill="currentColor"/>
<line transform="translate(9.0337, 29.8661)" stroke-linejoin="round" stroke-linecap="round" stroke-width="0.1164" stroke="currentColor" x1="0.0582" y1="-0.0000" x2="138.1582" y2="-0.0000"/>
<line transform="translate(9.0337, 28.8661)" stroke-linejoin="round" stroke-linecap="round" stroke-width="0.1164" stroke="currentColor" x1="0.0582" y1="-0.0000" x2="138.1582" y2="-0.0000"/>
<line transform="translate(9.0337, 27.8661)" stroke-linejoin="round" stroke-linecap="round" stroke-width="0.1164" stroke="currentColor" x1="0.0582" y1="-0.0000" x2="138.1582" y2="-0.0000"/>
<line transform="translate(9.0337, 26.8661)" stroke-linejoin="round" stroke-linecap="round" stroke-width="0.1164" stroke="currentColor" x1="0.0582" y1="-0.0000" x2="138.1582" y2="-0.0000"/>
<line transform="translate(9.0337, 25.8661)" stroke-linejoin="round" stroke-linecap="round" stroke-width="0.1164" stroke="currentColor" x1="0.0582" y1="-0.0000" x2="138.1582" y2="-0.0000"/>
<rect transform="translate(50.8199, 27.8661)" x="0.0000" y="-2.0000" width="0.2212" height="4.0000" ry="0.0000" fill="currentColor"/>
<rect transform="translate(147.0289, 27.8661)" x="0.0000" y="-2.0000" width="0.2212" height="4.0000" ry="0.0000" fill="currentColor"/>
<rect transform="translate(121.5914, 27.8661)" x="0.0000" y="-2.0000" width="0.2212" height="4.0000" ry="0.0000" fill="currentColor"/>
<rect transform="translate(84.1739, 27.8661)" x="0.0000" y="-2.0000" width="0.2212" height="4.0000" ry="0.0000" fill="currentColor"/>
<text transform="translate(123.7461, 24.8661)" font-family="sans-serif" font-size="1.9603" text-anchor="start" fill="currentColor">
<tspan>
D</tspan>
</text>
<text transform="translate(125.2399, 24.8661)" font-family="sans-serif" font-size="1.9603" text-anchor="start" fill="currentColor">
<tspan/>
</text>
<text transform="translate(125.2399, 24.8661)" font-family="sans-serif" font-size="1.9603" text-anchor="start" fill="currentColor">
<tspan/>
</text>
<text transform="translate(125.2399, 23.3661)" font-family="sans-serif" font-size="1.3858" text-anchor="start" fill="currentColor">
<tspan/>
</text>
<path transform="translate(123.7461, 28.8661) scale(0.0040, -0.0040)" d="M214 140c59 0 115 -32 115 -97c0 -72 -54 -121 -101 -149c-35 -21 -74 -34 -114 -34c-59 0 -114 32 -114 97c0 72 54 121 101 149c35 21 73 34 113 34z" fill="currentColor"/>
<text transform="translate(123.7461, 34.2171)" font-family="Century Schoolbook L" font-size="2.4695" text-anchor="start" fill="currentColor">
<tspan>
loss,</tspan>
</text>
<path transform="translate(125.5021, 28.3661) scale(0.0040, -0.0040)" d="M0 0c0 30 25 55 55 55s55 -25 55 -55s-25 -55 -55 -55s-55 25 -55 55z" fill="currentColor"/>
<rect transform="translate(124.9850, 27.8661)" x="-0.0757" y="-2.5000" width="0.1514" height="3.3269" ry="0.0500" fill="currentColor"/>
<path transform="translate(96.9742, 28.3661) scale(0.0040, -0.0040)" d="M214 140c59 0 115 -32 115 -97c0 -72 -54 -121 -101 -149c-35 -21 -74 -34 -114 -34c-59 0 -114 32 -114 97c0 72 54 121 101 149c35 21 73 34 113 34z" fill="currentColor"/>
<text transform="translate(94.6227, 34.2171)" font-family="Century Schoolbook L" font-size="2.4695" text-anchor="start" fill="currentColor">
<tspan>
f’ring</tspan>
</text>
<rect transform="translate(98.2132, 27.8661)" x="-0.0757" y="-3.0000" width="0.1514" height="3.3269" ry="0.0500" fill="currentColor"/>
<path transform="translate(98.2889, 24.9161) scale(0.0040, -0.0040)" d="M0 0c0 -197 209 -334 209 -531c0 -71 -15 -140 -41 -206c-5 -9 -14 -13 -22 -13c-14 0 -29 12 -26 30c27 60 43 124 43 189c0 102 -93 206 -163 281h-19v250h19z" fill="currentColor"/>
<path transform="translate(95.9306, 28.3661) scale(0.0040, -0.0040)" d="M-9 375c8 5 19 7 28 7s19 -2 27 -7l-3 -192l101 23h4c10 0 19 -8 19 -18l8 -563c-8 -5 -18 -7 -27 -7s-19 2 -27 7l3 192l-101 -23h-4c-10 0 -19 8 -19 18zM128 110l-87 -19l-3 -201l87 19z" fill="currentColor"/>
<text transform="translate(19.1091, 34.2171)" font-family="Century Schoolbook L" font-size="2.4695" text-anchor="start" fill="currentColor">
<tspan>
Mer</tspan>
</text>
<text transform="translate(105.7071, 24.8661)" font-family="sans-serif" font-size="1.9603" text-anchor="start" fill="currentColor">
<tspan>
G</tspan>
</text>
<text transform="translate(107.2435, 24.8661)" font-family="sans-serif" font-size="1.9603" text-anchor="start" fill="currentColor">
<tspan/>
</text>
<text transform="translate(107.2435, 24.8661)" font-family="sans-serif" font-size="1.9603" text-anchor="start" fill="currentColor">
<tspan/>
</text>
<text transform="translate(107.2435, 23.3661)" font-family="sans-serif" font-size="1.3858" text-anchor="start" fill="currentColor">
<tspan/>
</text>
<path transform="translate(105.7071, 27.3661) scale(0.0040, -0.0040)" d="M214 140c59 0 115 -32 115 -97c0 -72 -54 -121 -101 -149c-35 -21 -74 -34 -114 -34c-59 0 -114 32 -114 97c0 72 54 121 101 149c35 21 73 34 113 34z" fill="currentColor"/>
<text transform="translate(103.8463, 34.2171)" font-family="Century Schoolbook L" font-size="2.4695" text-anchor="start" fill="currentColor">
<tspan>
pain</tspan>
</text>
<rect transform="translate(105.7828, 27.8661)" x="-0.0757" y="-0.3269" width="0.1514" height="3.3269" ry="0.0500" fill="currentColor"/>
<text transform="translate(16.2312, 34.2171)" font-family="Century Schoolbook L" font-weight="bold" font-size="2.1999" text-anchor="start" fill="currentColor">
<tspan>
1.</tspan>
</text>
<path transform="translate(116.3209, 27.8661) scale(0.0040, -0.0040)" d="M214 140c59 0 115 -32 115 -97c0 -72 -54 -121 -101 -149c-35 -21 -74 -34 -114 -34c-59 0 -114 32 -114 97c0 72 54 121 101 149c35 21 73 34 113 34z" fill="currentColor"/>
<text transform="translate(114.8442, 34.2171)" font-family="Century Schoolbook L" font-size="2.4695" text-anchor="start" fill="currentColor">
<tspan>
and</tspan>
</text>
<rect transform="translate(116.3966, 27.8661)" x="-0.0757" y="0.1731" width="0.1514" height="3.2019" ry="0.0500" fill="currentColor"/>
<path transform="translate(116.4723, 31.1911) scale(0.0040, -0.0040)" d="M0 0h-19v250h19c96 59 223 149 223 259c0 56 -15 111 -41 161c-3 18 11 30 25 30c8 0 17 -4 22 -13c25 -56 41 -116 41 -178c0 -204 -270 -305 -270 -509z" fill="currentColor"/>
<path transform="translate(30.0255, 29.3661) scale(0.0040, -0.0040)" d="M214 140c59 0 115 -32 115 -97c0 -72 -54 -121 -101 -149c-35 -21 -74 -34 -114 -34c-59 0 -114 32 -114 97c0 72 54 121 101 149c35 21 73 34 113 34z" fill="currentColor"/>
<rect transform="translate(31.2645, 27.8661)" x="-0.0757" y="-2.0000" width="0.1514" height="3.3269" ry="0.0500" fill="currentColor"/>
<path transform="translate(123.7461, 27.8661)" stroke-width="0.0931" stroke-linejoin="round" stroke-linecap="round" stroke="currentColor" fill="currentColor" d="M0.857308128544418 1.75C2.14221733198961 2.71166309278375 10.7128542347485 2.71166309278375 11.9977634381937 1.75C10.7128542347485 2.57194880706946 2.14221733198961 2.57194880706946 0.857308128544418 1.75z"/>
<rect transform="translate(91.4868, 34.2171)" x="0.0000" y="-0.5714" width="0.6600" height="0.1514" ry="0.0466" fill="currentColor"/>
<rect transform="translate(58.8418, 34.2171)" x="0.0000" y="-0.5714" width="0.6600" height="0.1514" ry="0.0466" fill="currentColor"/>
<rect transform="translate(32.7583, 34.2171)" x="0.0000" y="-0.5714" width="0.6600" height="0.1514" ry="0.0466" fill="currentColor"/>
<rect transform="translate(26.4438, 34.2171)" x="0.0000" y="-0.5714" width="0.6600" height="0.1514" ry="0.0466" fill="currentColor"/>
<text transform="translate(135.2865, 24.8661)" font-family="sans-serif" font-size="1.9603" text-anchor="start" fill="currentColor">
<tspan>
D</tspan>
</text>
<text transform="translate(136.7803, 24.8661)" font-family="sans-serif" font-size="1.9603" text-anchor="start" fill="currentColor">
<tspan/>
</text>
<text transform="translate(136.7803, 24.8661)" font-family="sans-serif" font-size="1.9603" text-anchor="start" fill="currentColor">
<tspan/>
</text>
<text transform="translate(136.7803, 23.3661)" font-family="sans-serif" font-size="1.3858" text-anchor="start" fill="currentColor">
<tspan/>
</text>
<text transform="translate(136.7803, 23.3661)" font-family="sans-serif" font-size="1.3858" text-anchor="start" fill="currentColor">
<tspan>
7</tspan>
</text>
<path transform="translate(135.2865, 28.8661) scale(0.0040, -0.0040)" d="M214 140c59 0 115 -32 115 -97c0 -72 -54 -121 -101 -149c-35 -21 -74 -34 -114 -34c-59 0 -114 32 -114 97c0 72 54 121 101 149c35 21 73 34 113 34z" fill="currentColor"/>
<path transform="translate(137.0426, 28.3661) scale(0.0040, -0.0040)" d="M0 0c0 30 25 55 55 55s55 -25 55 -55s-25 -55 -55 -55s-55 25 -55 55z" fill="currentColor"/>
<rect transform="translate(136.5255, 27.8661)" x="-0.0757" y="-2.5000" width="0.1514" height="3.3269" ry="0.0500" fill="currentColor"/>
<rect transform="translate(22.0380, 27.8661)" x="-0.0757" y="-2.5000" width="0.1514" height="3.3269" ry="0.0500" fill="currentColor"/>
<text transform="translate(53.1040, 24.8661)" font-family="sans-serif" font-size="1.9603" text-anchor="start" fill="currentColor">
<tspan>
D</tspan>
</text>
<text transform="translate(54.5978, 24.8661)" font-family="sans-serif" font-size="1.9603" text-anchor="start" fill="currentColor">
<tspan/>
</text>
<text transform="translate(54.5978, 24.8661)" font-family="sans-serif" font-size="1.9603" text-anchor="start" fill="currentColor">
<tspan/>
</text>
<text transform="translate(54.5978, 23.3661)" font-family="sans-serif" font-size="1.3858" text-anchor="start" fill="currentColor">
<tspan/>
</text>
<path transform="translate(53.1040, 29.8661) scale(0.0040, -0.0040)" d="M214 140c59 0 115 -32 115 -97c0 -72 -54 -121 -101 -149c-35 -21 -74 -34 -114 -34c-59 0 -114 32 -114 97c0 72 54 121 101 149c35 21 73 34 113 34z" fill="currentColor"/>
<text transform="translate(52.0968, 34.2171)" font-family="Century Schoolbook L" font-size="2.4695" text-anchor="start" fill="currentColor">
<tspan>
lov</tspan>
</text>
<path transform="translate(54.8601, 29.3661) scale(0.0040, -0.0040)" d="M0 0c0 30 25 55 55 55s55 -25 55 -55s-25 -55 -55 -55s-55 25 -55 55z" fill="currentColor"/>
<rect transform="translate(54.3430, 27.8661)" x="-0.0757" y="-1.5000" width="0.1514" height="3.3269" ry="0.0500" fill="currentColor"/>
<path transform="translate(31.3401, 25.9161) scale(0.0040, -0.0040)" d="M0 0c0 -197 209 -334 209 -531c0 -71 -15 -140 -41 -206c-5 -9 -14 -13 -22 -13c-14 0 -29 12 -26 30c27 60 43 124 43 189c0 102 -93 206 -163 281h-19v250h19z" fill="currentColor"/>
<text transform="translate(20.7991, 24.8661)" font-family="sans-serif" font-size="1.9603" text-anchor="start" fill="currentColor">
<tspan>
D</tspan>
</text>
<text transform="translate(22.2929, 24.8661)" font-family="sans-serif" font-size="1.9603" text-anchor="start" fill="currentColor">
<tspan/>
</text>
<text transform="translate(22.2929, 24.8661)" font-family="sans-serif" font-size="1.9603" text-anchor="start" fill="currentColor">
<tspan/>
</text>
<text transform="translate(22.2929, 23.3661)" font-family="sans-serif" font-size="1.3858" text-anchor="start" fill="currentColor">
<tspan/>
</text>
<text transform="translate(35.4340, 24.8661)" font-family="sans-serif" font-size="1.9603" text-anchor="start" fill="currentColor">
<tspan>
A</tspan>
</text>
<text transform="translate(36.7571, 24.8661)" font-family="sans-serif" font-size="1.9603" text-anchor="start" fill="currentColor">
<tspan/>
</text>
<text transform="translate(36.7571, 24.8661)" font-family="sans-serif" font-size="1.9603" text-anchor="start" fill="currentColor">
<tspan/>
</text>
<text transform="translate(36.7571, 23.3661)" font-family="sans-serif" font-size="1.3858" text-anchor="start" fill="currentColor">
<tspan/>
</text>
<text transform="translate(36.7571, 23.3661)" font-family="sans-serif" font-size="1.3858" text-anchor="start" fill="currentColor">
<tspan>
7</tspan>
</text>
<path transform="translate(35.4340, 28.8661) scale(0.0040, -0.0040)" d="M214 140c59 0 115 -32 115 -97c0 -72 -54 -121 -101 -149c-35 -21 -74 -34 -114 -34c-59 0 -114 32 -114 97c0 72 54 121 101 149c35 21 73 34 113 34z" fill="currentColor"/>
<text transform="translate(34.5549, 34.2171)" font-family="Century Schoolbook L" font-size="2.4695" text-anchor="start" fill="currentColor">
<tspan>
ful</tspan>
</text>
<rect transform="translate(36.6730, 27.8661)" x="-0.0757" y="-2.5000" width="0.1514" height="3.3269" ry="0.0500" fill="currentColor"/>
<path transform="translate(20.7991, 28.8661) scale(0.0040, -0.0040)" d="M214 140c59 0 115 -32 115 -97c0 -72 -54 -121 -101 -149c-35 -21 -74 -34 -114 -34c-59 0 -114 32 -114 97c0 72 54 121 101 149c35 21 73 34 113 34z" fill="currentColor"/>
<path transform="translate(45.0662, 29.3661) scale(0.0040, -0.0040)" d="M214 140c59 0 115 -32 115 -97c0 -72 -54 -121 -101 -149c-35 -21 -74 -34 -114 -34c-59 0 -114 32 -114 97c0 72 54 121 101 149c35 21 73 34 113 34z" fill="currentColor"/>
<text transform="translate(43.5896, 34.2171)" font-family="Century Schoolbook L" font-size="2.4695" text-anchor="start" fill="currentColor">
<tspan>
and</tspan>
</text>
<rect transform="translate(46.3052, 27.8661)" x="-0.0757" y="-2.0000" width="0.1514" height="3.3269" ry="0.0500" fill="currentColor"/>
<path transform="translate(46.3808, 25.9161) scale(0.0040, -0.0040)" d="M0 0c0 -197 209 -334 209 -531c0 -71 -15 -140 -41 -206c-5 -9 -14 -13 -22 -13c-14 0 -29 12 -26 30c27 60 43 124 43 189c0 102 -93 206 -163 281h-19v250h19z" fill="currentColor"/>
<path transform="translate(44.0226, 29.3661) scale(0.0040, -0.0040)" d="M-9 375c8 5 19 7 28 7s19 -2 27 -7l-3 -192l101 23h4c10 0 19 -8 19 -18l8 -563c-8 -5 -18 -7 -27 -7s-19 2 -27 7l3 192l-101 -23h-4c-10 0 -19 8 -19 18zM128 110l-87 -19l-3 -201l87 19z" fill="currentColor"/>
<path transform="translate(28.5755, 29.3661) scale(0.0040, -0.0040)" d="M198 -329c-12 0 -21 9 -21 21v138l-79 -30v-154c0 -12 -9 -21 -21 -21s-21 9 -21 21v138l-22 -8c-3 -1 -6 -2 -9 -2c-13 0 -25 11 -25 25v54c0 10 6 20 16 24l40 15v155l-22 -9c-3 -1 -6 -1 -9 -1c-13 0 -25 11 -25 25v54c0 10 6 19 16 23l40 15v154c0 12 9 21 21 21
s21 -9 21 -21v-138l79 30v154c0 12 9 21 21 21s21 -9 21 -21v-138l22 8c3 1 6 2 9 2c13 0 25 -11 25 -25v-54c0 -10 -6 -20 -16 -24l-40 -15v-155l22 9c3 1 6 1 9 1c13 0 25 -11 25 -25v-54c0 -10 -6 -19 -16 -23l-40 -15v-154c0 -12 -9 -21 -21 -21zM98 62v-154l79 30v154z
" fill="currentColor"/>
<path transform="translate(86.4330, 27.8661) scale(0.0040, -0.0040)" d="M214 140c59 0 115 -32 115 -97c0 -72 -54 -121 -101 -149c-35 -21 -74 -34 -114 -34c-59 0 -114 32 -114 97c0 72 54 121 101 149c35 21 73 34 113 34z" fill="currentColor"/>
<text transform="translate(85.1698, 34.2171)" font-family="Century Schoolbook L" font-size="2.4695" text-anchor="start" fill="currentColor">
<tspan>
Suf</tspan>
</text>
<rect transform="translate(86.5087, 27.8661)" x="-0.0757" y="0.1731" width="0.1514" height="3.1602" ry="0.0500" fill="currentColor"/>
<path transform="translate(17.3053, 29.8720) scale(0.0040, -0.0040)" d="M263 292c25 29 45 61 45 99c0 53 -56 83 -114 83c-45 0 -72 -35 -72 -68c0 -19 9 -38 28 -49zM297 272c54 -31 81 -79 81 -126c0 -74 -67 -146 -192 -146c-96 0 -186 53 -186 141c0 50 37 85 74 120c-39 28 -58 66 -58 104c0 68 61 135 178 135c82 0 163 -37 163 -109
c0 -46 -28 -85 -60 -119zM107 241c-31 -28 -59 -59 -59 -100c0 -68 66 -115 138 -115c53 0 85 41 85 80c0 23 -11 47 -34 60z" fill="currentColor"/>
<path transform="translate(17.3694, 27.8661) scale(0.0040, -0.0040)" d="M173 256c-47 0 -50 -37 -50 -88v-27v-27c0 -51 3 -88 50 -88c56 0 58 50 58 115s-2 115 -58 115zM123 269c16 7 32 13 50 13c103 0 173 -45 173 -141s-70 -141 -173 -141c-113 0 -173 124 -173 250c0 129 75 250 194 250c72 0 139 -40 139 -106c0 -35 -29 -64 -64 -64
s-64 29 -64 64c0 23 38 25 38 48c0 22 -24 32 -49 32c-63 0 -73 -59 -73 -130c0 -24 2 -50 2 -75z" fill="currentColor"/>
<path transform="translate(9.8338, 28.8661) scale(0.0040, -0.0040)" d="M379 264c3 0 7 1 10 1c157 0 258 -129 258 -263c0 -77 -33 -155 -108 -211c-22 -16 -46 -29 -72 -37c3 -33 4 -66 4 -99c0 -21 0 -41 -1 -62c-7 -121 -91 -229 -211 -229c-108 0 -196 88 -196 197c0 58 54 103 113 103c54 0 95 -47 95 -103c0 -52 -43 -95 -95 -95
c-9 0 -18 1 -27 4c25 -37 66 -61 113 -61c95 0 156 93 162 191c1 19 2 38 2 57c0 29 -1 58 -3 87c-29 -5 -58 -8 -88 -8c-189 0 -333 173 -333 376c0 177 129 308 244 443c-20 62 -40 124 -48 189c-7 52 -7 105 -7 158c0 114 54 221 147 288c4 3 8 4 12 4c5 0 9 -2 13 -5
c72 -83 135 -243 135 -356c0 -142 -84 -255 -176 -364c21 -68 40 -136 57 -205zM463 -201c65 24 110 94 110 161c0 88 -64 175 -167 188c24 -114 44 -227 57 -349zM77 25c0 -133 128 -243 261 -243c27 0 55 1 81 5c-13 126 -35 244 -60 362c-79 -8 -124 -60 -124 -118
c0 -43 25 -88 80 -120c5 -5 7 -11 7 -17c0 -12 -10 -23 -23 -23c-3 0 -7 1 -10 2c-81 43 -118 115 -118 186c0 89 60 177 163 200c-14 57 -30 113 -47 169c-105 -122 -210 -243 -210 -403zM403 1038c-99 -46 -161 -145 -161 -254c0 -71 21 -130 39 -188
c78 97 142 199 142 324c0 51 -4 72 -20 118z" fill="currentColor"/>
<path transform="translate(64.3945, 31.3661) scale(0.0040, -0.0040)" d="M214 140c59 0 115 -32 115 -97c0 -72 -54 -121 -101 -149c-35 -21 -74 -34 -114 -34c-59 0 -114 32 -114 97c0 72 54 121 101 149c35 21 73 34 113 34z" fill="currentColor"/>
<text transform="translate(62.9178, 34.2171)" font-family="Century Schoolbook L" font-size="2.4695" text-anchor="start" fill="currentColor">
<tspan>
ing,</tspan>
</text>
<path transform="translate(66.1505, 31.3661) scale(0.0040, -0.0040)" d="M0 0c0 30 25 55 55 55s55 -25 55 -55s-25 -55 -55 -55s-55 25 -55 55z" fill="currentColor"/>
<rect transform="translate(65.6334, 27.8661)" x="-0.0757" y="-0.0000" width="0.1514" height="3.3269" ry="0.0500" fill="currentColor"/>
<text transform="translate(29.7439, 34.2171)" font-family="Century Schoolbook L" font-size="2.4695" text-anchor="start" fill="currentColor">
<tspan>
ci</tspan>
</text>
<path transform="translate(13.4743, 27.8661) scale(0.0040, -0.0040)" d="M31 37l-2 -62v-11c0 -22 2 -43 5 -64c43 38 89 80 89 137c0 32 -14 65 -42 65c-31 0 -49 -32 -50 -65zM-16 -140l-14 590c9 5 20 8 30 8s21 -3 30 -8l-8 -340c25 24 59 38 94 38c50 0 84 -50 84 -104c0 -78 -83 -117 -141 -169c-17 -15 -25 -44 -49 -44
c-15 0 -26 13 -26 29z" fill="currentColor"/>
<path transform="translate(14.4148, 26.3661) scale(0.0040, -0.0040)" d="M31 37l-2 -62v-11c0 -22 2 -43 5 -64c43 38 89 80 89 137c0 32 -14 65 -42 65c-31 0 -49 -32 -50 -65zM-16 -140l-14 590c9 5 20 8 30 8s21 -3 30 -8l-8 -340c25 24 59 38 94 38c50 0 84 -50 84 -104c0 -78 -83 -117 -141 -169c-17 -15 -25 -44 -49 -44
c-15 0 -26 13 -26 29z" fill="currentColor"/>
<path transform="translate(15.3553, 28.3661) scale(0.0040, -0.0040)" d="M31 37l-2 -62v-11c0 -22 2 -43 5 -64c43 38 89 80 89 137c0 32 -14 65 -42 65c-31 0 -49 -32 -50 -65zM-16 -140l-14 590c9 5 20 8 30 8s21 -3 30 -8l-8 -340c25 24 59 38 94 38c50 0 84 -50 84 -104c0 -78 -83 -117 -141 -169c-17 -15 -25 -44 -49 -44
c-15 0 -26 13 -26 29z" fill="currentColor"/>
<text transform="translate(76.2622, 24.8661)" font-family="sans-serif" font-size="1.9603" text-anchor="start" fill="currentColor">
<tspan>
A</tspan>
</text>
<text transform="translate(77.5852, 24.8661)" font-family="sans-serif" font-size="1.9603" text-anchor="start" fill="currentColor">
<tspan/>
</text>
<text transform="translate(77.5852, 24.8661)" font-family="sans-serif" font-size="1.9603" text-anchor="start" fill="currentColor">
<tspan/>
</text>
<text transform="translate(77.5852, 23.3661)" font-family="sans-serif" font-size="1.3858" text-anchor="start" fill="currentColor">
<tspan/>
</text>
<text transform="translate(77.5852, 23.3661)" font-family="sans-serif" font-size="1.3858" text-anchor="start" fill="currentColor">
<tspan>
7</tspan>
</text>
<text transform="translate(86.4330, 24.8661)" font-family="sans-serif" font-size="1.9603" text-anchor="start" fill="currentColor">
<tspan>
D</tspan>
</text>
<text transform="translate(87.9268, 24.8661)" font-family="sans-serif" font-size="1.9603" text-anchor="start" fill="currentColor">
<tspan/>
</text>
<text transform="translate(87.9268, 24.8661)" font-family="sans-serif" font-size="1.9603" text-anchor="start" fill="currentColor">
<tspan/>
</text>
<text transform="translate(87.9268, 23.3661)" font-family="sans-serif" font-size="1.3858" text-anchor="start" fill="currentColor">
<tspan/>
</text>
<rect transform="translate(9.0337, 43.7414)" x="85.5249" y="-0.1082" width="1.9719" height="0.2164" ry="0.1082" fill="currentColor"/>
<line transform="translate(9.0337, 42.7414)" stroke-linejoin="round" stroke-linecap="round" stroke-width="0.1164" stroke="currentColor" x1="0.0582" y1="-0.0000" x2="138.1582" y2="-0.0000"/>
<line transform="translate(9.0337, 41.7414)" stroke-linejoin="round" stroke-linecap="round" stroke-width="0.1164" stroke="currentColor" x1="0.0582" y1="-0.0000" x2="138.1582" y2="-0.0000"/>
<line transform="translate(9.0337, 40.7414)" stroke-linejoin="round" stroke-linecap="round" stroke-width="0.1164" stroke="currentColor" x1="0.0582" y1="-0.0000" x2="138.1582" y2="-0.0000"/>
<line transform="translate(9.0337, 39.7414)" stroke-linejoin="round" stroke-linecap="round" stroke-width="0.1164" stroke="currentColor" x1="0.0582" y1="-0.0000" x2="138.1582" y2="-0.0000"/>
<line transform="translate(9.0337, 38.7414)" stroke-linejoin="round" stroke-linecap="round" stroke-width="0.1164" stroke="currentColor" x1="0.0582" y1="-0.0000" x2="138.1582" y2="-0.0000"/>
<rect transform="translate(147.0289, 40.7414)" x="0.0000" y="-2.0000" width="0.2212" height="4.0000" ry="0.0000" fill="currentColor"/>
<rect transform="translate(52.9872, 40.7414)" x="0.0000" y="-2.0000" width="0.2212" height="4.0000" ry="0.0000" fill="currentColor"/>
<rect transform="translate(118.1134, 40.7414)" x="0.0000" y="-2.0000" width="0.2212" height="4.0000" ry="0.0000" fill="currentColor"/>
<rect transform="translate(82.2748, 40.7414)" x="0.0000" y="-2.0000" width="0.2212" height="4.0000" ry="0.0000" fill="currentColor"/>
<path transform="translate(101.6161, 43.2414) scale(0.0040, -0.0040)" d="M214 140c59 0 115 -32 115 -97c0 -72 -54 -121 -101 -149c-35 -21 -74 -34 -114 -34c-59 0 -114 32 -114 97c0 72 54 121 101 149c35 21 73 34 113 34z" fill="currentColor"/>
<text transform="translate(101.1638, 46.5925)" font-family="Century Schoolbook L" font-size="2.4695" text-anchor="start" fill="currentColor">
<tspan>
to</tspan>
</text>
<rect transform="translate(102.8551, 40.7414)" x="-0.0757" y="-1.0000" width="0.1514" height="3.3269" ry="0.0500" fill="currentColor"/>
<path transform="translate(112.0841, 42.7414) scale(0.0040, -0.0040)" d="M214 140c59 0 115 -32 115 -97c0 -72 -54 -121 -101 -149c-35 -21 -74 -34 -114 -34c-59 0 -114 32 -114 97c0 72 54 121 101 149c35 21 73 34 113 34z" fill="currentColor"/>
<text transform="translate(110.8849, 46.5925)" font-family="Century Schoolbook L" font-size="2.4695" text-anchor="start" fill="currentColor">
<tspan>
the</tspan>
</text>
<rect transform="translate(113.3231, 40.7414)" x="-0.0757" y="-1.5000" width="0.1514" height="3.3269" ry="0.0500" fill="currentColor"/>
<path transform="translate(113.3987, 39.2914) scale(0.0040, -0.0040)" d="M0 0c0 -197 209 -334 209 -531c0 -71 -15 -140 -41 -206c-5 -9 -14 -13 -22 -13c-14 0 -29 12 -26 30c27 60 43 124 43 189c0 102 -93 206 -163 281h-19v250h19z" fill="currentColor"/>
<text transform="translate(120.5009, 37.7414)" font-family="sans-serif" font-size="1.9603" text-anchor="start" fill="currentColor">
<tspan>
A</tspan>
</text>
<text transform="translate(121.8240, 37.7414)" font-family="sans-serif" font-size="1.9603" text-anchor="start" fill="currentColor">
<tspan/>
</text>
<text transform="translate(121.8240, 37.7414)" font-family="sans-serif" font-size="1.9603" text-anchor="start" fill="currentColor">
<tspan/>
</text>
<text transform="translate(121.8240, 36.2414)" font-family="sans-serif" font-size="1.3858" text-anchor="start" fill="currentColor">
<tspan/>
</text>
<path transform="translate(120.5009, 42.2414) scale(0.0040, -0.0040)" d="M214 140c59 0 115 -32 115 -97c0 -72 -54 -121 -101 -149c-35 -21 -74 -34 -114 -34c-59 0 -114 32 -114 97c0 72 54 121 101 149c35 21 73 34 113 34z" fill="currentColor"/>
<text transform="translate(120.5009, 46.5925)" font-family="Century Schoolbook L" font-size="2.4695" text-anchor="start" fill="currentColor">
<tspan>
cross;</tspan>
</text>
<path transform="translate(122.2570, 42.2414) scale(0.0040, -0.0040)" d="M0 0c0 30 25 55 55 55s55 -25 55 -55s-25 -55 -55 -55s-55 25 -55 55z" fill="currentColor"/>
<text transform="translate(83.7404, 46.5925)" font-family="Century Schoolbook L" font-size="2.4695" text-anchor="start" fill="currentColor">
<tspan>
Go</tspan>
</text>
<rect transform="translate(85.9012, 40.7414)" x="-0.0757" y="-2.0000" width="0.1514" height="3.3269" ry="0.0500" fill="currentColor"/>
<path transform="translate(94.8873, 43.7414) scale(0.0040, -0.0040)" d="M214 140c59 0 115 -32 115 -97c0 -72 -54 -121 -101 -149c-35 -21 -74 -34 -114 -34c-59 0 -114 32 -114 97c0 72 54 121 101 149c35 21 73 34 113 34z" fill="currentColor"/>
<text transform="translate(93.7520, 46.5925)" font-family="Century Schoolbook L" font-size="2.4695" text-anchor="start" fill="currentColor">
<tspan>
ing</tspan>
</text>
<rect transform="translate(96.1262, 40.7414)" x="-0.0757" y="-0.5000" width="0.1514" height="3.3269" ry="0.0500" fill="currentColor"/>
<path transform="translate(96.2019, 40.2914) scale(0.0040, -0.0040)" d="M0 0c0 -197 209 -334 209 -531c0 -71 -15 -140 -41 -206c-5 -9 -14 -13 -22 -13c-14 0 -29 12 -26 30c27 60 43 124 43 189c0 102 -93 206 -163 281h-19v250h19z" fill="currentColor"/>
<path transform="translate(120.5009, 40.7414)" stroke-width="0.0931" stroke-linejoin="round" stroke-linecap="round" stroke="currentColor" fill="currentColor" d="M1.51461625708885 2.0C2.81129250208079 2.96435850843819 11.6485118670999 2.96435850843819 12.9451881120918 2.0C11.6485118670999 2.82464422272391 2.81129250208079 2.82464422272391 1.51461625708885 2.0z"/>
<rect transform="translate(89.9954, 46.5925)" x="0.0000" y="-0.5714" width="0.6600" height="0.1514" ry="0.0466" fill="currentColor"/>
<rect transform="translate(62.0025, 46.5925)" x="0.0000" y="-0.5714" width="0.6600" height="0.1514" ry="0.0466" fill="currentColor"/>
<rect transform="translate(121.7398, 40.7414)" x="-0.0757" y="-2.0000" width="0.1514" height="3.3269" ry="0.0500" fill="currentColor"/>
<text transform="translate(133.6461, 37.7414)" font-family="sans-serif" font-size="1.9603" text-anchor="start" fill="currentColor">
<tspan>
A</tspan>
</text>
<text transform="translate(134.9691, 37.7414)" font-family="sans-serif" font-size="1.9603" text-anchor="start" fill="currentColor">
<tspan/>
</text>
<text transform="translate(134.9691, 37.7414)" font-family="sans-serif" font-size="1.9603" text-anchor="start" fill="currentColor">
<tspan/>
</text>
<text transform="translate(134.9691, 36.2414)" font-family="sans-serif" font-size="1.3858" text-anchor="start" fill="currentColor">
<tspan/>
</text>
<text transform="translate(134.9691, 36.2414)" font-family="sans-serif" font-size="1.3858" text-anchor="start" fill="currentColor">
<tspan>
7</tspan>
</text>
<path transform="translate(133.6461, 42.2414) scale(0.0040, -0.0040)" d="M214 140c59 0 115 -32 115 -97c0 -72 -54 -121 -101 -149c-35 -21 -74 -34 -114 -34c-59 0 -114 32 -114 97c0 72 54 121 101 149c35 21 73 34 113 34z" fill="currentColor"/>
<path transform="translate(135.4022, 42.2414) scale(0.0040, -0.0040)" d="M0 0c0 30 25 55 55 55s55 -25 55 -55s-25 -55 -55 -55s-55 25 -55 55z" fill="currentColor"/>
<rect transform="translate(134.8850, 40.7414)" x="-0.0757" y="-2.0000" width="0.1514" height="3.3269" ry="0.0500" fill="currentColor"/>
<rect transform="translate(18.7310, 40.7414)" x="-0.0757" y="-1.3269" width="0.1514" height="3.3269" ry="0.0500" fill="currentColor"/>
<path transform="translate(29.1023, 40.2414) scale(0.0040, -0.0040)" d="M214 140c59 0 115 -32 115 -97c0 -72 -54 -121 -101 -149c-35 -21 -74 -34 -114 -34c-59 0 -114 32 -114 97c0 72 54 121 101 149c35 21 73 34 113 34z" fill="currentColor"/>
<text transform="translate(28.1805, 46.5925)" font-family="Century Schoolbook L" font-size="2.4695" text-anchor="start" fill="currentColor">
<tspan>
for</tspan>
</text>
<rect transform="translate(29.1780, 40.7414)" x="-0.0757" y="-0.3269" width="0.1514" height="3.3269" ry="0.0500" fill="currentColor"/>
<path transform="translate(29.2537, 43.6914) scale(0.0040, -0.0040)" d="M0 0h-19v250h19c96 59 223 149 223 259c0 56 -15 111 -41 161c-3 18 11 30 25 30c8 0 17 -4 22 -13c25 -56 41 -116 41 -178c0 -204 -270 -305 -270 -509z" fill="currentColor"/>
<path transform="translate(36.1726, 41.2414) scale(0.0040, -0.0040)" d="M214 140c59 0 115 -32 115 -97c0 -72 -54 -121 -101 -149c-35 -21 -74 -34 -114 -34c-59 0 -114 32 -114 97c0 72 54 121 101 149c35 21 73 34 113 34z" fill="currentColor"/>
<text transform="translate(35.1655, 46.5925)" font-family="Century Schoolbook L" font-size="2.4695" text-anchor="start" fill="currentColor">
<tspan>
us,</tspan>
</text>
<rect transform="translate(37.4116, 40.7414)" x="-0.0757" y="-3.0000" width="0.1514" height="3.3269" ry="0.0500" fill="currentColor"/>
<text transform="translate(46.8970, 37.7414)" font-family="sans-serif" font-size="1.9603" text-anchor="start" fill="currentColor">
<tspan>
A</tspan>
</text>
<text transform="translate(48.2201, 37.7414)" font-family="sans-serif" font-size="1.9603" text-anchor="start" fill="currentColor">
<tspan/>
</text>
<text transform="translate(48.2201, 37.7414)" font-family="sans-serif" font-size="1.9603" text-anchor="start" fill="currentColor">
<tspan/>
</text>
<text transform="translate(48.2201, 36.2414)" font-family="sans-serif" font-size="1.3858" text-anchor="start" fill="currentColor">
<tspan/>
</text>
<path transform="translate(46.8970, 40.2414) scale(0.0040, -0.0040)" d="M214 140c59 0 115 -32 115 -97c0 -72 -54 -121 -101 -149c-35 -21 -74 -34 -114 -34c-59 0 -114 32 -114 97c0 72 54 121 101 149c35 21 73 34 113 34z" fill="currentColor"/>
<text transform="translate(45.6978, 46.5925)" font-family="Century Schoolbook L" font-size="2.4695" text-anchor="start" fill="currentColor">
<tspan>
the</tspan>
</text>
<rect transform="translate(46.9727, 40.7414)" x="-0.0757" y="-0.3269" width="0.1514" height="3.3269" ry="0.0500" fill="currentColor"/>
<text transform="translate(8.0521, 37.6488)" font-family="Century Schoolbook L" font-size="1.7463" text-anchor="start" fill="currentColor">
<tspan>
5</tspan>
</text>
<path transform="translate(9.8338, 41.7414) scale(0.0040, -0.0040)" d="M379 264c3 0 7 1 10 1c157 0 258 -129 258 -263c0 -77 -33 -155 -108 -211c-22 -16 -46 -29 -72 -37c3 -33 4 -66 4 -99c0 -21 0 -41 -1 -62c-7 -121 -91 -229 -211 -229c-108 0 -196 88 -196 197c0 58 54 103 113 103c54 0 95 -47 95 -103c0 -52 -43 -95 -95 -95
c-9 0 -18 1 -27 4c25 -37 66 -61 113 -61c95 0 156 93 162 191c1 19 2 38 2 57c0 29 -1 58 -3 87c-29 -5 -58 -8 -88 -8c-189 0 -333 173 -333 376c0 177 129 308 244 443c-20 62 -40 124 -48 189c-7 52 -7 105 -7 158c0 114 54 221 147 288c4 3 8 4 12 4c5 0 9 -2 13 -5
c72 -83 135 -243 135 -356c0 -142 -84 -255 -176 -364c21 -68 40 -136 57 -205zM463 -201c65 24 110 94 110 161c0 88 -64 175 -167 188c24 -114 44 -227 57 -349zM77 25c0 -133 128 -243 261 -243c27 0 55 1 81 5c-13 126 -35 244 -60 362c-79 -8 -124 -60 -124 -118
c0 -43 25 -88 80 -120c5 -5 7 -11 7 -17c0 -12 -10 -23 -23 -23c-3 0 -7 1 -10 2c-81 43 -118 115 -118 186c0 89 60 177 163 200c-14 57 -30 113 -47 169c-105 -122 -210 -243 -210 -403zM403 1038c-99 -46 -161 -145 -161 -254c0 -71 21 -130 39 -188
c78 97 142 199 142 324c0 51 -4 72 -20 118z" fill="currentColor"/>
<path transform="translate(13.4743, 40.7414) scale(0.0040, -0.0040)" d="M31 37l-2 -62v-11c0 -22 2 -43 5 -64c43 38 89 80 89 137c0 32 -14 65 -42 65c-31 0 -49 -32 -50 -65zM-16 -140l-14 590c9 5 20 8 30 8s21 -3 30 -8l-8 -340c25 24 59 38 94 38c50 0 84 -50 84 -104c0 -78 -83 -117 -141 -169c-17 -15 -25 -44 -49 -44
c-15 0 -26 13 -26 29z" fill="currentColor"/>
<path transform="translate(14.4148, 39.2414) scale(0.0040, -0.0040)" d="M31 37l-2 -62v-11c0 -22 2 -43 5 -64c43 38 89 80 89 137c0 32 -14 65 -42 65c-31 0 -49 -32 -50 -65zM-16 -140l-14 590c9 5 20 8 30 8s21 -3 30 -8l-8 -340c25 24 59 38 94 38c50 0 84 -50 84 -104c0 -78 -83 -117 -141 -169c-17 -15 -25 -44 -49 -44
c-15 0 -26 13 -26 29z" fill="currentColor"/>
<path transform="translate(15.3553, 41.2414) scale(0.0040, -0.0040)" d="M31 37l-2 -62v-11c0 -22 2 -43 5 -64c43 38 89 80 89 137c0 32 -14 65 -42 65c-31 0 -49 -32 -50 -65zM-16 -140l-14 590c9 5 20 8 30 8s21 -3 30 -8l-8 -340c25 24 59 38 94 38c50 0 84 -50 84 -104c0 -78 -83 -117 -141 -169c-17 -15 -25 -44 -49 -44
c-15 0 -26 13 -26 29z" fill="currentColor"/>
<text transform="translate(18.6553, 37.7414)" font-family="sans-serif" font-size="1.9603" text-anchor="start" fill="currentColor">
<tspan>
G</tspan>
</text>
<text transform="translate(20.1918, 37.7414)" font-family="sans-serif" font-size="1.9603" text-anchor="start" fill="currentColor">
<tspan/>
</text>
<text transform="translate(20.1918, 37.7414)" font-family="sans-serif" font-size="1.9603" text-anchor="start" fill="currentColor">
<tspan/>
</text>
<text transform="translate(20.1918, 36.2414)" font-family="sans-serif" font-size="1.3858" text-anchor="start" fill="currentColor">
<tspan/>
</text>
<path transform="translate(18.6553, 39.2414) scale(0.0040, -0.0040)" d="M214 140c59 0 115 -32 115 -97c0 -72 -54 -121 -101 -149c-35 -21 -74 -34 -114 -34c-59 0 -114 32 -114 97c0 72 54 121 101 149c35 21 73 34 113 34z" fill="currentColor"/>
<text transform="translate(17.6482, 46.5925)" font-family="Century Schoolbook L" font-size="2.4695" text-anchor="start" fill="currentColor">
<tspan>
All</tspan>
</text>
<text transform="translate(68.9276, 37.7414)" font-family="sans-serif" font-size="1.9603" text-anchor="start" fill="currentColor">
<tspan>
B</tspan>
</text>
<text transform="translate(70.2507, 37.7414)" font-family="sans-serif" font-size="1.9603" text-anchor="start" fill="currentColor">
<tspan/>
</text>
<text transform="translate(70.2507, 37.7414)" font-family="sans-serif" font-size="1.9603" text-anchor="start" fill="currentColor">
<tspan/>
</text>
<text transform="translate(70.2507, 36.2414)" font-family="sans-serif" font-size="1.3858" text-anchor="start" fill="currentColor">
<tspan/>
</text>
<text transform="translate(70.2507, 36.2414)" font-family="sans-serif" font-size="1.3858" text-anchor="start" fill="currentColor">
<tspan>
7</tspan>
</text>
<path transform="translate(68.9276, 41.7414) scale(0.0040, -0.0040)" d="M214 140c59 0 115 -32 115 -97c0 -72 -54 -121 -101 -149c-35 -21 -74 -34 -114 -34c-59 0 -114 32 -114 97c0 72 54 121 101 149c35 21 73 34 113 34z" fill="currentColor"/>
<text transform="translate(66.7468, 46.5925)" font-family="Century Schoolbook L" font-size="2.4695" text-anchor="start" fill="currentColor">
<tspan>
ners,</tspan>
</text>
<path transform="translate(70.6837, 41.2414) scale(0.0040, -0.0040)" d="M0 0c0 30 25 55 55 55s55 -25 55 -55s-25 -55 -55 -55s-55 25 -55 55z" fill="currentColor"/>
<rect transform="translate(70.1666, 40.7414)" x="-0.0757" y="-2.5000" width="0.1514" height="3.3269" ry="0.0500" fill="currentColor"/>
<text transform="translate(84.6622, 37.7414)" font-family="sans-serif" font-size="1.9603" text-anchor="start" fill="currentColor">
<tspan>
E</tspan>
</text>
<text transform="translate(85.8999, 37.7414)" font-family="sans-serif" font-size="1.9603" text-anchor="start" fill="currentColor">
<tspan/>
</text>
<text transform="translate(85.8999, 37.7414)" font-family="sans-serif" font-size="1.9603" text-anchor="start" fill="currentColor">
<tspan/>
</text>
<text transform="translate(85.8999, 36.2414)" font-family="sans-serif" font-size="1.3858" text-anchor="start" fill="currentColor">
<tspan/>
</text>
<text transform="translate(85.8999, 36.2414)" font-family="sans-serif" font-size="1.3858" text-anchor="start" fill="currentColor">
<tspan>
7</tspan>
</text>
<path transform="translate(84.6622, 42.2414) scale(0.0040, -0.0040)" d="M214 140c59 0 115 -32 115 -97c0 -72 -54 -121 -101 -149c-35 -21 -74 -34 -114 -34c-59 0 -114 32 -114 97c0 72 54 121 101 149c35 21 73 34 113 34z" fill="currentColor"/>
<text transform="translate(55.5537, 37.7414)" font-family="sans-serif" font-size="1.9603" text-anchor="start" fill="currentColor">
<tspan>
D</tspan>
</text>
<text transform="translate(57.0475, 37.7414)" font-family="sans-serif" font-size="1.9603" text-anchor="start" fill="currentColor">
<tspan/>
</text>
<text transform="translate(57.0475, 37.7414)" font-family="sans-serif" font-size="1.9603" text-anchor="start" fill="currentColor">
<tspan/>
</text>
<text transform="translate(57.0475, 36.2414)" font-family="sans-serif" font-size="1.3858" text-anchor="start" fill="currentColor">
<tspan/>
</text>
<path transform="translate(55.5537, 40.7414) scale(0.0040, -0.0040)" d="M214 140c59 0 115 -32 115 -97c0 -72 -54 -121 -101 -149c-35 -21 -74 -34 -114 -34c-59 0 -114 32 -114 97c0 72 54 121 101 149c35 21 73 34 113 34z" fill="currentColor"/>
<text transform="translate(54.5038, 46.5925)" font-family="Century Schoolbook L" font-size="2.4695" text-anchor="start" fill="currentColor">
<tspan>
sin</tspan>
</text>
<path transform="translate(57.3098, 40.2414) scale(0.0040, -0.0040)" d="M0 0c0 30 25 55 55 55s55 -25 55 -55s-25 -55 -55 -55s-55 25 -55 55z" fill="currentColor"/>
<rect transform="translate(55.6294, 40.7414)" x="-0.0757" y="0.1731" width="0.1514" height="3.1602" ry="0.0500" fill="currentColor"/>
<path transform="translate(47.0484, 43.6914) scale(0.0040, -0.0040)" d="M0 0h-19v250h19c96 59 223 149 223 259c0 56 -15 111 -41 161c-3 18 11 30 25 30c8 0 17 -4 22 -13c25 -56 41 -116 41 -178c0 -204 -270 -305 -270 -509z" fill="currentColor"/>
<rect transform="translate(9.0337, 56.5436)" x="58.3774" y="-0.1082" width="1.9719" height="0.2164" ry="0.1082" fill="currentColor"/>
<line transform="translate(9.0337, 55.5436)" stroke-linejoin="round" stroke-linecap="round" stroke-width="0.1164" stroke="currentColor" x1="0.0582" y1="-0.0000" x2="138.1582" y2="-0.0000"/>
<line transform="translate(9.0337, 54.5436)" stroke-linejoin="round" stroke-linecap="round" stroke-width="0.1164" stroke="currentColor" x1="0.0582" y1="-0.0000" x2="138.1582" y2="-0.0000"/>
<line transform="translate(9.0337, 53.5436)" stroke-linejoin="round" stroke-linecap="round" stroke-width="0.1164" stroke="currentColor" x1="0.0582" y1="-0.0000" x2="138.1582" y2="-0.0000"/>
<line transform="translate(9.0337, 52.5436)" stroke-linejoin="round" stroke-linecap="round" stroke-width="0.1164" stroke="currentColor" x1="0.0582" y1="-0.0000" x2="138.1582" y2="-0.0000"/>
<line transform="translate(9.0337, 51.5436)" stroke-linejoin="round" stroke-linecap="round" stroke-width="0.1164" stroke="currentColor" x1="0.0582" y1="-0.0000" x2="138.1582" y2="-0.0000"/>
<rect transform="translate(53.5375, 53.5436)" x="0.0000" y="-2.0000" width="0.2212" height="4.0000" ry="0.0000" fill="currentColor"/>
<rect transform="translate(147.0289, 53.5436)" x="0.0000" y="-2.0000" width="0.2212" height="4.0000" ry="0.0000" fill="currentColor"/>
<rect transform="translate(121.1657, 53.5436)" x="0.0000" y="-2.0000" width="0.2212" height="4.0000" ry="0.0000" fill="currentColor"/>
<rect transform="translate(87.9032, 53.5436)" x="0.0000" y="-2.0000" width="0.2212" height="4.0000" ry="0.0000" fill="currentColor"/>
<path transform="translate(125.1052, 54.0436) scale(0.0040, -0.0040)" d="M0 0c0 30 25 55 55 55s55 -25 55 -55s-25 -55 -55 -55s-55 25 -55 55z" fill="currentColor"/>
<rect transform="translate(124.5881, 53.5436)" x="-0.0757" y="-2.5000" width="0.1514" height="3.3269" ry="0.0500" fill="currentColor"/>
<text transform="translate(135.0881, 50.5436)" font-family="sans-serif" font-size="1.9603" text-anchor="start" fill="currentColor">
<tspan>
D</tspan>
</text>
<text transform="translate(136.5818, 50.5436)" font-family="sans-serif" font-size="1.9603" text-anchor="start" fill="currentColor">
<tspan/>
</text>
<text transform="translate(136.5818, 50.5436)" font-family="sans-serif" font-size="1.9603" text-anchor="start" fill="currentColor">
<tspan/>
</text>
<text transform="translate(136.5818, 49.0436)" font-family="sans-serif" font-size="1.3858" text-anchor="start" fill="currentColor">
<tspan/>
</text>
<text transform="translate(136.5818, 49.0436)" font-family="sans-serif" font-size="1.3858" text-anchor="start" fill="currentColor">
<tspan>
7</tspan>
</text>
<path transform="translate(135.0881, 54.5436) scale(0.0040, -0.0040)" d="M214 140c59 0 115 -32 115 -97c0 -72 -54 -121 -101 -149c-35 -21 -74 -34 -114 -34c-59 0 -114 32 -114 97c0 72 54 121 101 149c35 21 73 34 113 34z" fill="currentColor"/>
<path transform="translate(136.8441, 54.0436) scale(0.0040, -0.0040)" d="M0 0c0 30 25 55 55 55s55 -25 55 -55s-25 -55 -55 -55s-55 25 -55 55z" fill="currentColor"/>
<path transform="translate(100.8637, 50.5936) scale(0.0040, -0.0040)" d="M0 0c0 -197 209 -334 209 -531c0 -71 -15 -140 -41 -206c-5 -9 -14 -13 -22 -13c-14 0 -29 12 -26 30c27 60 43 124 43 189c0 102 -93 206 -163 281h-19v250h19z" fill="currentColor"/>
<path transform="translate(98.5055, 54.0436) scale(0.0040, -0.0040)" d="M-9 375c8 5 19 7 28 7s19 -2 27 -7l-3 -192l101 23h4c10 0 19 -8 19 -18l8 -563c-8 -5 -18 -7 -27 -7s-19 2 -27 7l3 192l-101 -23h-4c-10 0 -19 8 -19 18zM128 110l-87 -19l-3 -201l87 19z" fill="currentColor"/>
<text transform="translate(106.2034, 50.5436)" font-family="sans-serif" font-size="1.9603" text-anchor="start" fill="currentColor">
<tspan>
G</tspan>
</text>
<text transform="translate(107.7398, 50.5436)" font-family="sans-serif" font-size="1.9603" text-anchor="start" fill="currentColor">
<tspan/>
</text>
<text transform="translate(107.7398, 50.5436)" font-family="sans-serif" font-size="1.9603" text-anchor="start" fill="currentColor">
<tspan/>
</text>
<text transform="translate(107.7398, 49.0436)" font-family="sans-serif" font-size="1.3858" text-anchor="start" fill="currentColor">
<tspan/>
</text>
<path transform="translate(106.2034, 53.0436) scale(0.0040, -0.0040)" d="M214 140c59 0 115 -32 115 -97c0 -72 -54 -121 -101 -149c-35 -21 -74 -34 -114 -34c-59 0 -114 32 -114 97c0 72 54 121 101 149c35 21 73 34 113 34z" fill="currentColor"/>
<text transform="translate(105.2816, 59.3399)" font-family="Century Schoolbook L" font-size="2.4695" text-anchor="start" fill="currentColor">
<tspan>
for</tspan>
</text>
<rect transform="translate(106.2791, 53.5436)" x="-0.0757" y="-0.3269" width="0.1514" height="3.3269" ry="0.0500" fill="currentColor"/>
<path transform="translate(115.8184, 53.5436) scale(0.0040, -0.0040)" d="M214 140c59 0 115 -32 115 -97c0 -72 -54 -121 -101 -149c-35 -21 -74 -34 -114 -34c-59 0 -114 32 -114 97c0 72 54 121 101 149c35 21 73 34 113 34z" fill="currentColor"/>
<text transform="translate(114.5552, 59.3399)" font-family="Century Schoolbook L" font-size="2.4695" text-anchor="start" fill="currentColor">
<tspan>
our</tspan>
</text>
<rect transform="translate(115.8941, 53.5436)" x="-0.0757" y="0.1731" width="0.1514" height="3.2019" ry="0.0500" fill="currentColor"/>
<path transform="translate(115.9698, 56.8686) scale(0.0040, -0.0040)" d="M0 0h-19v250h19c96 59 223 149 223 259c0 56 -15 111 -41 161c-3 18 11 30 25 30c8 0 17 -4 22 -13c25 -56 41 -116 41 -178c0 -204 -270 -305 -270 -509z" fill="currentColor"/>
<text transform="translate(123.3492, 50.5436)" font-family="sans-serif" font-size="1.9603" text-anchor="start" fill="currentColor">
<tspan>
D</tspan>
</text>
<text transform="translate(124.8429, 50.5436)" font-family="sans-serif" font-size="1.9603" text-anchor="start" fill="currentColor">
<tspan/>
</text>
<text transform="translate(124.8429, 50.5436)" font-family="sans-serif" font-size="1.9603" text-anchor="start" fill="currentColor">
<tspan/>
</text>
<text transform="translate(124.8429, 49.0436)" font-family="sans-serif" font-size="1.3858" text-anchor="start" fill="currentColor">
<tspan/>
</text>
<path transform="translate(123.3492, 54.5436) scale(0.0040, -0.0040)" d="M214 140c59 0 115 -32 115 -97c0 -72 -54 -121 -101 -149c-35 -21 -74 -34 -114 -34c-59 0 -114 32 -114 97c0 72 54 121 101 149c35 21 73 34 113 34z" fill="currentColor"/>
<text transform="translate(123.3492, 59.3399)" font-family="Century Schoolbook L" font-size="2.4695" text-anchor="start" fill="currentColor">
<tspan>
sins;</tspan>
</text>
<text transform="translate(34.5278, 59.3399)" font-family="Century Schoolbook L" font-size="2.4695" text-anchor="start" fill="currentColor">
<tspan>
death</tspan>
</text>
<path transform="translate(37.1141, 54.5436) scale(0.0040, -0.0040)" d="M214 140c59 0 115 -32 115 -97c0 -72 -54 -121 -101 -149c-35 -21 -74 -34 -114 -34c-59 0 -114 32 -114 97c0 72 54 121 101 149c35 21 73 34 113 34z" fill="currentColor"/>
<text transform="translate(37.1141, 50.5436)" font-family="sans-serif" font-size="1.9603" text-anchor="start" fill="currentColor">
<tspan>
A</tspan>
</text>
<text transform="translate(38.4372, 50.5436)" font-family="sans-serif" font-size="1.9603" text-anchor="start" fill="currentColor">
<tspan/>
</text>
<text transform="translate(38.4372, 50.5436)" font-family="sans-serif" font-size="1.9603" text-anchor="start" fill="currentColor">
<tspan/>
</text>
<text transform="translate(38.4372, 49.0436)" font-family="sans-serif" font-size="1.3858" text-anchor="start" fill="currentColor">
<tspan/>
</text>
<text transform="translate(38.4372, 49.0436)" font-family="sans-serif" font-size="1.3858" text-anchor="start" fill="currentColor">
<tspan>
7</tspan>
</text>
<path transform="translate(27.3453, 55.0436) scale(0.0040, -0.0040)" d="M198 -329c-12 0 -21 9 -21 21v138l-79 -30v-154c0 -12 -9 -21 -21 -21s-21 9 -21 21v138l-22 -8c-3 -1 -6 -2 -9 -2c-13 0 -25 11 -25 25v54c0 10 6 20 16 24l40 15v155l-22 -9c-3 -1 -6 -1 -9 -1c-13 0 -25 11 -25 25v54c0 10 6 19 16 23l40 15v154c0 12 9 21 21 21
s21 -9 21 -21v-138l79 30v154c0 12 9 21 21 21s21 -9 21 -21v-138l22 8c3 1 6 2 9 2c13 0 25 -11 25 -25v-54c0 -10 -6 -20 -16 -24l-40 -15v-155l22 9c3 1 6 1 9 1c13 0 25 -11 25 -25v-54c0 -10 -6 -19 -16 -23l-40 -15v-154c0 -12 -9 -21 -21 -21zM98 62v-154l79 30v154z
" fill="currentColor"/>
<path transform="translate(30.1099, 51.5936) scale(0.0040, -0.0040)" d="M0 0c0 -197 209 -334 209 -531c0 -71 -15 -140 -41 -206c-5 -9 -14 -13 -22 -13c-14 0 -29 12 -26 30c27 60 43 124 43 189c0 102 -93 206 -163 281h-19v250h19z" fill="currentColor"/>
<rect transform="translate(30.0342, 53.5436)" x="-0.0757" y="-2.0000" width="0.1514" height="3.3269" ry="0.0500" fill="currentColor"/>
<path transform="translate(123.3492, 53.5436)" stroke-width="0.0931" stroke-linejoin="round" stroke-linecap="round" stroke="currentColor" fill="currentColor" d="M0.857308128544432 1.75C2.15030894482797 2.71352145230897 10.9032243090492 2.71352145230897 12.1962251253327 1.75C10.9032243090492 2.57380716659468 2.15030894482797 2.57380716659468 0.857308128544432 1.75z"/>
<rect transform="translate(95.1120, 59.3399)" x="0.0000" y="-0.5714" width="0.6600" height="0.1514" ry="0.0466" fill="currentColor"/>
<rect transform="translate(24.4474, 59.3399)" x="0.0000" y="-0.5714" width="0.6600" height="0.1514" ry="0.0466" fill="currentColor"/>
<rect transform="translate(136.3270, 53.5436)" x="-0.0757" y="-2.5000" width="0.1514" height="3.3269" ry="0.0500" fill="currentColor"/>
<rect transform="translate(19.8943, 53.5436)" x="-0.0757" y="-2.5000" width="0.1514" height="3.3269" ry="0.0500" fill="currentColor"/>
<text transform="translate(16.7306, 59.3399)" font-family="Century Schoolbook L" font-size="2.4695" text-anchor="start" fill="currentColor">
<tspan>
Tast</tspan>
</text>
<path transform="translate(18.6553, 54.5436) scale(0.0040, -0.0040)" d="M214 140c59 0 115 -32 115 -97c0 -72 -54 -121 -101 -149c-35 -21 -74 -34 -114 -34c-59 0 -114 32 -114 97c0 72 54 121 101 149c35 21 73 34 113 34z" fill="currentColor"/>
<text transform="translate(18.6553, 50.5436)" font-family="sans-serif" font-size="1.9603" text-anchor="start" fill="currentColor">
<tspan>
D</tspan>
</text>
<text transform="translate(20.1491, 50.5436)" font-family="sans-serif" font-size="1.9603" text-anchor="start" fill="currentColor">
<tspan/>
</text>
<text transform="translate(20.1491, 50.5436)" font-family="sans-serif" font-size="1.9603" text-anchor="start" fill="currentColor">
<tspan/>
</text>
<text transform="translate(20.1491, 49.0436)" font-family="sans-serif" font-size="1.3858" text-anchor="start" fill="currentColor">
<tspan/>
</text>
<rect transform="translate(38.3530, 53.5436)" x="-0.0757" y="-2.5000" width="0.1514" height="3.3269" ry="0.0500" fill="currentColor"/>
<rect transform="translate(49.2911, 53.5436)" x="-0.0757" y="-2.0000" width="0.1514" height="3.3269" ry="0.0500" fill="currentColor"/>
<path transform="translate(49.3668, 51.5936) scale(0.0040, -0.0040)" d="M0 0c0 -197 209 -334 209 -531c0 -71 -15 -140 -41 -206c-5 -9 -14 -13 -22 -13c-14 0 -29 12 -26 30c27 60 43 124 43 189c0 102 -93 206 -163 281h-19v250h19z" fill="currentColor"/>
<path transform="translate(47.0086, 55.0436) scale(0.0040, -0.0040)" d="M-9 375c8 5 19 7 28 7s19 -2 27 -7l-3 -192l101 23h4c10 0 19 -8 19 -18l8 -563c-8 -5 -18 -7 -27 -7s-19 2 -27 7l3 192l-101 -23h-4c-10 0 -19 8 -19 18zM128 110l-87 -19l-3 -201l87 19z" fill="currentColor"/>
<text transform="translate(55.7209, 50.5436)" font-family="sans-serif" font-size="1.9603" text-anchor="start" fill="currentColor">
<tspan>
D</tspan>
</text>
<text transform="translate(57.2147, 50.5436)" font-family="sans-serif" font-size="1.9603" text-anchor="start" fill="currentColor">
<tspan/>
</text>
<text transform="translate(57.2147, 50.5436)" font-family="sans-serif" font-size="1.9603" text-anchor="start" fill="currentColor">
<tspan/>
</text>
<text transform="translate(57.2147, 49.0436)" font-family="sans-serif" font-size="1.3858" text-anchor="start" fill="currentColor">
<tspan/>
</text>
<path transform="translate(55.7209, 55.5436) scale(0.0040, -0.0040)" d="M214 140c59 0 115 -32 115 -97c0 -72 -54 -121 -101 -149c-35 -21 -74 -34 -114 -34c-59 0 -114 32 -114 97c0 72 54 121 101 149c35 21 73 34 113 34z" fill="currentColor"/>
<text transform="translate(54.9271, 59.3399)" font-family="Century Schoolbook L" font-size="2.4695" text-anchor="start" fill="currentColor">
<tspan>
all</tspan>
</text>
<path transform="translate(57.4770, 55.0436) scale(0.0040, -0.0040)" d="M0 0c0 30 25 55 55 55s55 -25 55 -55s-25 -55 -55 -55s-55 25 -55 55z" fill="currentColor"/>
<rect transform="translate(56.9599, 53.5436)" x="-0.0757" y="-1.5000" width="0.1514" height="3.3269" ry="0.0500" fill="currentColor"/>
<text transform="translate(8.0521, 50.4509)" font-family="Century Schoolbook L" font-size="1.7463" text-anchor="start" fill="currentColor">
<tspan>
9</tspan>
</text>
<path transform="translate(9.8338, 54.5436) scale(0.0040, -0.0040)" d="M379 264c3 0 7 1 10 1c157 0 258 -129 258 -263c0 -77 -33 -155 -108 -211c-22 -16 -46 -29 -72 -37c3 -33 4 -66 4 -99c0 -21 0 -41 -1 -62c-7 -121 -91 -229 -211 -229c-108 0 -196 88 -196 197c0 58 54 103 113 103c54 0 95 -47 95 -103c0 -52 -43 -95 -95 -95
c-9 0 -18 1 -27 4c25 -37 66 -61 113 -61c95 0 156 93 162 191c1 19 2 38 2 57c0 29 -1 58 -3 87c-29 -5 -58 -8 -88 -8c-189 0 -333 173 -333 376c0 177 129 308 244 443c-20 62 -40 124 -48 189c-7 52 -7 105 -7 158c0 114 54 221 147 288c4 3 8 4 12 4c5 0 9 -2 13 -5
c72 -83 135 -243 135 -356c0 -142 -84 -255 -176 -364c21 -68 40 -136 57 -205zM463 -201c65 24 110 94 110 161c0 88 -64 175 -167 188c24 -114 44 -227 57 -349zM77 25c0 -133 128 -243 261 -243c27 0 55 1 81 5c-13 126 -35 244 -60 362c-79 -8 -124 -60 -124 -118
c0 -43 25 -88 80 -120c5 -5 7 -11 7 -17c0 -12 -10 -23 -23 -23c-3 0 -7 1 -10 2c-81 43 -118 115 -118 186c0 89 60 177 163 200c-14 57 -30 113 -47 169c-105 -122 -210 -243 -210 -403zM403 1038c-99 -46 -161 -145 -161 -254c0 -71 21 -130 39 -188
c78 97 142 199 142 324c0 51 -4 72 -20 118z" fill="currentColor"/>
<path transform="translate(13.4743, 53.5436) scale(0.0040, -0.0040)" d="M31 37l-2 -62v-11c0 -22 2 -43 5 -64c43 38 89 80 89 137c0 32 -14 65 -42 65c-31 0 -49 -32 -50 -65zM-16 -140l-14 590c9 5 20 8 30 8s21 -3 30 -8l-8 -340c25 24 59 38 94 38c50 0 84 -50 84 -104c0 -78 -83 -117 -141 -169c-17 -15 -25 -44 -49 -44
c-15 0 -26 13 -26 29z" fill="currentColor"/>
<path transform="translate(14.4148, 52.0436) scale(0.0040, -0.0040)" d="M31 37l-2 -62v-11c0 -22 2 -43 5 -64c43 38 89 80 89 137c0 32 -14 65 -42 65c-31 0 -49 -32 -50 -65zM-16 -140l-14 590c9 5 20 8 30 8s21 -3 30 -8l-8 -340c25 24 59 38 94 38c50 0 84 -50 84 -104c0 -78 -83 -117 -141 -169c-17 -15 -25 -44 -49 -44
c-15 0 -26 13 -26 29z" fill="currentColor"/>
<path transform="translate(15.3553, 54.0436) scale(0.0040, -0.0040)" d="M31 37l-2 -62v-11c0 -22 2 -43 5 -64c43 38 89 80 89 137c0 32 -14 65 -42 65c-31 0 -49 -32 -50 -65zM-16 -140l-14 590c9 5 20 8 30 8s21 -3 30 -8l-8 -340c25 24 59 38 94 38c50 0 84 -50 84 -104c0 -78 -83 -117 -141 -169c-17 -15 -25 -44 -49 -44
c-15 0 -26 13 -26 29z" fill="currentColor"/>
<path transform="translate(48.0522, 55.0436) scale(0.0040, -0.0040)" d="M214 140c59 0 115 -32 115 -97c0 -72 -54 -121 -101 -149c-35 -21 -74 -34 -114 -34c-59 0 -114 32 -114 97c0 72 54 121 101 149c35 21 73 34 113 34z" fill="currentColor"/>
<text transform="translate(47.1304, 59.3399)" font-family="Century Schoolbook L" font-size="2.4695" text-anchor="start" fill="currentColor">
<tspan>
for</tspan>
</text>
<text transform="translate(90.1911, 50.5436)" font-family="sans-serif" font-size="1.9603" text-anchor="start" fill="currentColor">
<tspan>
D</tspan>
</text>
<text transform="translate(91.6848, 50.5436)" font-family="sans-serif" font-size="1.9603" text-anchor="start" fill="currentColor">
<tspan/>
</text>
<text transform="translate(91.6848, 50.5436)" font-family="sans-serif" font-size="1.9603" text-anchor="start" fill="currentColor">
<tspan/>
</text>
<text transform="translate(91.6848, 49.0436)" font-family="sans-serif" font-size="1.3858" text-anchor="start" fill="currentColor">
<tspan/>
</text>
<path transform="translate(90.1911, 53.5436) scale(0.0040, -0.0040)" d="M214 140c59 0 115 -32 115 -97c0 -72 -54 -121 -101 -149c-35 -21 -74 -34 -114 -34c-59 0 -114 32 -114 97c0 72 54 121 101 149c35 21 73 34 113 34z" fill="currentColor"/>
<text transform="translate(89.2266, 59.3399)" font-family="Century Schoolbook L" font-size="2.4695" text-anchor="start" fill="currentColor">
<tspan>
Dy</tspan>
</text>
<rect transform="translate(90.2667, 53.5436)" x="-0.0757" y="0.1731" width="0.1514" height="3.1602" ry="0.0500" fill="currentColor"/>
<path transform="translate(28.7953, 55.0436) scale(0.0040, -0.0040)" d="M214 140c59 0 115 -32 115 -97c0 -72 -54 -121 -101 -149c-35 -21 -74 -34 -114 -34c-59 0 -114 32 -114 97c0 72 54 121 101 149c35 21 73 34 113 34z" fill="currentColor"/>
<path transform="translate(99.5491, 54.0436) scale(0.0040, -0.0040)" d="M214 140c59 0 115 -32 115 -97c0 -72 -54 -121 -101 -149c-35 -21 -74 -34 -114 -34c-59 0 -114 32 -114 97c0 72 54 121 101 149c35 21 73 34 113 34z" fill="currentColor"/>
<text transform="translate(98.4138, 59.3399)" font-family="Century Schoolbook L" font-size="2.4695" text-anchor="start" fill="currentColor">
<tspan>
ing</tspan>
</text>
<rect transform="translate(100.7880, 53.5436)" x="-0.0757" y="-3.0000" width="0.1514" height="3.3269" ry="0.0500" fill="currentColor"/>
<text transform="translate(65.6017, 59.3399)" font-family="Century Schoolbook L" font-size="2.4695" text-anchor="start" fill="currentColor">
<tspan>
men,</tspan>
</text>
<path transform="translate(67.7399, 57.0436) scale(0.0040, -0.0040)" d="M214 140c59 0 115 -32 115 -97c0 -72 -54 -121 -101 -149c-35 -21 -74 -34 -114 -34c-59 0 -114 32 -114 97c0 72 54 121 101 149c35 21 73 34 113 34z" fill="currentColor"/>
<path transform="translate(69.4959, 57.0436) scale(0.0040, -0.0040)" d="M0 0c0 30 25 55 55 55s55 -25 55 -55s-25 -55 -55 -55s-55 25 -55 55z" fill="currentColor"/>
<rect transform="translate(68.9788, 53.5436)" x="-0.0757" y="-0.0000" width="0.1514" height="3.3269" ry="0.0500" fill="currentColor"/>
<text transform="translate(27.6601, 59.3399)" font-family="Century Schoolbook L" font-size="2.4695" text-anchor="start" fill="currentColor">
<tspan>
ing</tspan>
</text>
<text transform="translate(79.8379, 50.5436)" font-family="sans-serif" font-size="1.9603" text-anchor="start" fill="currentColor">
<tspan>
A</tspan>
</text>
<text transform="translate(81.1609, 50.5436)" font-family="sans-serif" font-size="1.9603" text-anchor="start" fill="currentColor">
<tspan/>
</text>
<text transform="translate(81.1609, 50.5436)" font-family="sans-serif" font-size="1.9603" text-anchor="start" fill="currentColor">
<tspan/>
</text>
<text transform="translate(81.1609, 49.0436)" font-family="sans-serif" font-size="1.3858" text-anchor="start" fill="currentColor">
<tspan/>
</text>
<text transform="translate(81.1609, 49.0436)" font-family="sans-serif" font-size="1.3858" text-anchor="start" fill="currentColor">
<tspan>
7</tspan>
</text>
<rect transform="translate(53.4232, 66.3336)" x="0.0000" y="-2.0000" width="0.2212" height="4.0000" ry="0.0000" fill="currentColor"/>
<rect transform="translate(9.0337, 69.3336)" x="88.9010" y="-0.1082" width="1.9719" height="0.2164" ry="0.1082" fill="currentColor"/>
<rect transform="translate(9.0337, 69.3336)" x="105.4539" y="-0.1082" width="1.9719" height="0.2164" ry="0.1082" fill="currentColor"/>
<line transform="translate(9.0337, 68.3336)" stroke-linejoin="round" stroke-linecap="round" stroke-width="0.1164" stroke="currentColor" x1="0.0582" y1="-0.0000" x2="138.1582" y2="-0.0000"/>
<line transform="translate(9.0337, 67.3336)" stroke-linejoin="round" stroke-linecap="round" stroke-width="0.1164" stroke="currentColor" x1="0.0582" y1="-0.0000" x2="138.1582" y2="-0.0000"/>
<line transform="translate(9.0337, 66.3336)" stroke-linejoin="round" stroke-linecap="round" stroke-width="0.1164" stroke="currentColor" x1="0.0582" y1="-0.0000" x2="138.1582" y2="-0.0000"/>
<line transform="translate(9.0337, 65.3336)" stroke-linejoin="round" stroke-linecap="round" stroke-width="0.1164" stroke="currentColor" x1="0.0582" y1="-0.0000" x2="138.1582" y2="-0.0000"/>
<line transform="translate(9.0337, 64.3336)" stroke-linejoin="round" stroke-linecap="round" stroke-width="0.1164" stroke="currentColor" x1="0.0582" y1="-0.0000" x2="138.1582" y2="-0.0000"/>
<rect transform="translate(146.5516, 66.3336)" x="0.0000" y="-2.0000" width="0.6986" height="4.0000" ry="0.0000" fill="currentColor"/>
<rect transform="translate(145.9811, 66.3336)" x="0.0000" y="-2.0000" width="0.2212" height="4.0000" ry="0.0000" fill="currentColor"/>
<rect transform="translate(85.3792, 66.3336)" x="0.0000" y="-2.0000" width="0.2212" height="4.0000" ry="0.0000" fill="currentColor"/>
<rect transform="translate(120.2680, 66.3336)" x="0.0000" y="-2.0000" width="0.2212" height="4.0000" ry="0.0000" fill="currentColor"/>
<path transform="translate(134.0912, 68.3336) scale(0.0040, -0.0040)" d="M214 140c59 0 115 -32 115 -97c0 -72 -54 -121 -101 -149c-35 -21 -74 -34 -114 -34c-59 0 -114 32 -114 97c0 72 54 121 101 149c35 21 73 34 113 34z" fill="currentColor"/>
<path transform="translate(135.8472, 67.8336) scale(0.0040, -0.0040)" d="M0 0c0 30 25 55 55 55s55 -25 55 -55s-25 -55 -55 -55s-55 25 -55 55z" fill="currentColor"/>
<rect transform="translate(135.3301, 66.3336)" x="-0.0757" y="-1.5000" width="0.1514" height="3.3269" ry="0.0500" fill="currentColor"/>
<text transform="translate(18.6553, 63.3336)" font-family="sans-serif" font-size="1.9603" text-anchor="start" fill="currentColor">
<tspan>
G</tspan>
</text>
<text transform="translate(20.1918, 63.3336)" font-family="sans-serif" font-size="1.9603" text-anchor="start" fill="currentColor">
<tspan/>
</text>
<text transform="translate(20.1918, 63.3336)" font-family="sans-serif" font-size="1.9603" text-anchor="start" fill="currentColor">
<tspan/>
</text>
<text transform="translate(20.1918, 61.8336)" font-family="sans-serif" font-size="1.3858" text-anchor="start" fill="currentColor">
<tspan/>
</text>
<path transform="translate(18.6553, 64.8336) scale(0.0040, -0.0040)" d="M214 140c59 0 115 -32 115 -97c0 -72 -54 -121 -101 -149c-35 -21 -74 -34 -114 -34c-59 0 -114 32 -114 97c0 72 54 121 101 149c35 21 73 34 113 34z" fill="currentColor"/>
<path transform="translate(114.8163, 69.8336) scale(0.0040, -0.0040)" d="M214 140c59 0 115 -32 115 -97c0 -72 -54 -121 -101 -149c-35 -21 -74 -34 -114 -34c-59 0 -114 32 -114 97c0 72 54 121 101 149c35 21 73 34 113 34z" fill="currentColor"/>
<text transform="translate(112.8915, 72.7274)" font-family="Century Schoolbook L" font-size="2.4695" text-anchor="start" fill="currentColor">
<tspan>
with</tspan>
</text>
<rect transform="translate(116.0552, 66.3336)" x="-0.0757" y="-0.0000" width="0.1514" height="3.3269" ry="0.0500" fill="currentColor"/>
<path transform="translate(116.1309, 66.3836) scale(0.0040, -0.0040)" d="M0 0c0 -197 209 -334 209 -531c0 -71 -15 -140 -41 -206c-5 -9 -14 -13 -22 -13c-14 0 -29 12 -26 30c27 60 43 124 43 189c0 102 -93 206 -163 281h-19v250h19z" fill="currentColor"/>
<text transform="translate(122.4389, 63.3336)" font-family="sans-serif" font-size="1.9603" text-anchor="start" fill="currentColor">
<tspan>
D</tspan>
</text>
<text transform="translate(123.9327, 63.3336)" font-family="sans-serif" font-size="1.9603" text-anchor="start" fill="currentColor">
<tspan/>
</text>
<text transform="translate(123.9327, 63.3336)" font-family="sans-serif" font-size="1.9603" text-anchor="start" fill="currentColor">
<tspan/>
</text>
<text transform="translate(123.9327, 61.8336)" font-family="sans-serif" font-size="1.3858" text-anchor="start" fill="currentColor">
<tspan/>
</text>
<path transform="translate(122.4389, 68.3336) scale(0.0040, -0.0040)" d="M214 140c59 0 115 -32 115 -97c0 -72 -54 -121 -101 -149c-35 -21 -74 -34 -114 -34c-59 0 -114 32 -114 97c0 72 54 121 101 149c35 21 73 34 113 34z" fill="currentColor"/>
<text transform="translate(122.4389, 72.7274)" font-family="Century Schoolbook L" font-size="2.4695" text-anchor="start" fill="currentColor">
<tspan>
Him?</tspan>
</text>
<path transform="translate(124.1950, 67.8336) scale(0.0040, -0.0040)" d="M0 0c0 30 25 55 55 55s55 -25 55 -55s-25 -55 -55 -55s-55 25 -55 55z" fill="currentColor"/>
<rect transform="translate(123.6779, 66.3336)" x="-0.0757" y="-1.5000" width="0.1514" height="3.3269" ry="0.0500" fill="currentColor"/>
<rect transform="translate(47.6914, 66.3336)" x="-0.0757" y="-0.3269" width="0.1514" height="3.3269" ry="0.0500" fill="currentColor"/>
<path transform="translate(47.7670, 69.2836) scale(0.0040, -0.0040)" d="M0 0h-19v250h19c96 59 223 149 223 259c0 56 -15 111 -41 161c-3 18 11 30 25 30c8 0 17 -4 22 -13c25 -56 41 -116 41 -178c0 -204 -270 -305 -270 -509z" fill="currentColor"/>
<text transform="translate(55.8837, 63.3336)" font-family="sans-serif" font-size="1.9603" text-anchor="start" fill="currentColor">
<tspan>
D</tspan>
</text>
<text transform="translate(57.3774, 63.3336)" font-family="sans-serif" font-size="1.9603" text-anchor="start" fill="currentColor">
<tspan/>
</text>
<text transform="translate(57.3774, 63.3336)" font-family="sans-serif" font-size="1.9603" text-anchor="start" fill="currentColor">
<tspan/>
</text>
<text transform="translate(57.3774, 61.8336)" font-family="sans-serif" font-size="1.3858" text-anchor="start" fill="currentColor">
<tspan/>
</text>
<path transform="translate(55.8837, 66.3336) scale(0.0040, -0.0040)" d="M214 140c59 0 115 -32 115 -97c0 -72 -54 -121 -101 -149c-35 -21 -74 -34 -114 -34c-59 0 -114 32 -114 97c0 72 54 121 101 149c35 21 73 34 113 34z" fill="currentColor"/>
<text transform="translate(54.4283, 72.7274)" font-family="Century Schoolbook L" font-size="2.4695" text-anchor="start" fill="currentColor">
<tspan>
Sav</tspan>
</text>
<path transform="translate(57.6397, 65.8336) scale(0.0040, -0.0040)" d="M0 0c0 30 25 55 55 55s55 -25 55 -55s-25 -55 -55 -55s-55 25 -55 55z" fill="currentColor"/>
<path transform="translate(122.4389, 66.3336)" stroke-width="0.0931" stroke-linejoin="round" stroke-linecap="round" stroke="currentColor" fill="currentColor" d="M0.857308128544432 2.75C2.14679762866085 3.71271766424893 10.8200589570815 3.71271766424893 12.1095484571979 2.75C10.8200589570815 3.57300337853465 2.14679762866085 3.57300337853465 0.857308128544432 2.75z"/>
<rect transform="translate(62.0971, 72.7274)" x="0.0000" y="-0.5714" width="0.6600" height="0.1514" ry="0.0466" fill="currentColor"/>
<text transform="translate(16.7732, 72.7274)" font-family="Century Schoolbook L" font-size="2.4695" text-anchor="start" fill="currentColor">
<tspan>
This</tspan>
</text>
<rect transform="translate(18.7310, 66.3336)" x="-0.0757" y="-1.3269" width="0.1514" height="3.3269" ry="0.0500" fill="currentColor"/>
<path transform="translate(28.2033, 65.8336) scale(0.0040, -0.0040)" d="M214 140c59 0 115 -32 115 -97c0 -72 -54 -121 -101 -149c-35 -21 -74 -34 -114 -34c-59 0 -114 32 -114 97c0 72 54 121 101 149c35 21 73 34 113 34z" fill="currentColor"/>
<text transform="translate(27.9003, 72.7274)" font-family="Century Schoolbook L" font-size="2.4695" text-anchor="start" fill="currentColor">
<tspan>
is</tspan>
</text>
<rect transform="translate(28.2790, 66.3336)" x="-0.0757" y="-0.3269" width="0.1514" height="3.3269" ry="0.0500" fill="currentColor"/>
<path transform="translate(28.3547, 69.2836) scale(0.0040, -0.0040)" d="M0 0h-19v250h19c96 59 223 149 223 259c0 56 -15 111 -41 161c-3 18 11 30 25 30c8 0 17 -4 22 -13c25 -56 41 -116 41 -178c0 -204 -270 -305 -270 -509z" fill="currentColor"/>
<path transform="translate(36.0618, 66.8336) scale(0.0040, -0.0040)" d="M214 140c59 0 115 -32 115 -97c0 -72 -54 -121 -101 -149c-35 -21 -74 -34 -114 -34c-59 0 -114 32 -114 97c0 72 54 121 101 149c35 21 73 34 113 34z" fill="currentColor"/>
<text transform="translate(33.0700, 72.7274)" font-family="Century Schoolbook L" font-size="2.4695" text-anchor="start" fill="currentColor">
<tspan>
Christ</tspan>
</text>
<rect transform="translate(37.3007, 66.3336)" x="-0.0757" y="-3.0000" width="0.1514" height="3.3269" ry="0.0500" fill="currentColor"/>
<text transform="translate(47.6157, 63.3336)" font-family="sans-serif" font-size="1.9603" text-anchor="start" fill="currentColor">
<tspan>
A</tspan>
</text>
<text transform="translate(48.9387, 63.3336)" font-family="sans-serif" font-size="1.9603" text-anchor="start" fill="currentColor">
<tspan/>
</text>
<text transform="translate(48.9387, 63.3336)" font-family="sans-serif" font-size="1.9603" text-anchor="start" fill="currentColor">
<tspan/>
</text>
<text transform="translate(48.9387, 61.8336)" font-family="sans-serif" font-size="1.3858" text-anchor="start" fill="currentColor">
<tspan/>
</text>
<path transform="translate(47.6157, 65.8336) scale(0.0040, -0.0040)" d="M214 140c59 0 115 -32 115 -97c0 -72 -54 -121 -101 -149c-35 -21 -74 -34 -114 -34c-59 0 -114 32 -114 97c0 72 54 121 101 149c35 21 73 34 113 34z" fill="currentColor"/>
<text transform="translate(46.4164, 72.7274)" font-family="Century Schoolbook L" font-size="2.4695" text-anchor="start" fill="currentColor">
<tspan>
the</tspan>
</text>
<text transform="translate(67.4425, 63.3336)" font-family="sans-serif" font-size="1.9603" text-anchor="start" fill="currentColor">
<tspan>
B</tspan>
</text>
<text transform="translate(68.7656, 63.3336)" font-family="sans-serif" font-size="1.9603" text-anchor="start" fill="currentColor">
<tspan/>
</text>
<text transform="translate(68.7656, 63.3336)" font-family="sans-serif" font-size="1.9603" text-anchor="start" fill="currentColor">
<tspan/>
</text>
<text transform="translate(68.7656, 61.8336)" font-family="sans-serif" font-size="1.3858" text-anchor="start" fill="currentColor">
<tspan/>
</text>
<text transform="translate(68.7656, 61.8336)" font-family="sans-serif" font-size="1.3858" text-anchor="start" fill="currentColor">
<tspan>
7</tspan>
</text>
<path transform="translate(67.4425, 67.3336) scale(0.0040, -0.0040)" d="M214 140c59 0 115 -32 115 -97c0 -72 -54 -121 -101 -149c-35 -21 -74 -34 -114 -34c-59 0 -114 32 -114 97c0 72 54 121 101 149c35 21 73 34 113 34z" fill="currentColor"/>
<text transform="translate(66.2006, 72.7274)" font-family="Century Schoolbook L" font-size="2.4695" text-anchor="start" fill="currentColor">
<tspan>
ior,</tspan>
</text>
<rect transform="translate(68.6814, 66.3336)" x="-0.0757" y="-2.5000" width="0.1514" height="3.3269" ry="0.0500" fill="currentColor"/>
<path transform="translate(78.5269, 67.3336) scale(0.0040, -0.0040)" d="M214 140c59 0 115 -32 115 -97c0 -72 -54 -121 -101 -149c-35 -21 -74 -34 -114 -34c-59 0 -114 32 -114 97c0 72 54 121 101 149c35 21 73 34 113 34z" fill="currentColor"/>
<text transform="translate(76.0473, 72.7274)" font-family="Century Schoolbook L" font-size="2.4695" text-anchor="start" fill="currentColor">
<tspan>
What</tspan>
</text>
<rect transform="translate(79.7659, 66.3336)" x="-0.0757" y="-2.5000" width="0.1514" height="3.3269" ry="0.0500" fill="currentColor"/>
<path transform="translate(79.8415, 63.8836) scale(0.0040, -0.0040)" d="M0 0c0 -197 209 -334 209 -531c0 -71 -15 -140 -41 -206c-5 -9 -14 -13 -22 -13c-14 0 -29 12 -26 30c27 60 43 124 43 189c0 102 -93 206 -163 281h-19v250h19z" fill="currentColor"/>
<text transform="translate(7.0705, 63.2409)" font-family="Century Schoolbook L" font-size="1.7463" text-anchor="start" fill="currentColor">
<tspan>
13</tspan>
</text>
<path transform="translate(9.8338, 67.3336) scale(0.0040, -0.0040)" d="M379 264c3 0 7 1 10 1c157 0 258 -129 258 -263c0 -77 -33 -155 -108 -211c-22 -16 -46 -29 -72 -37c3 -33 4 -66 4 -99c0 -21 0 -41 -1 -62c-7 -121 -91 -229 -211 -229c-108 0 -196 88 -196 197c0 58 54 103 113 103c54 0 95 -47 95 -103c0 -52 -43 -95 -95 -95
c-9 0 -18 1 -27 4c25 -37 66 -61 113 -61c95 0 156 93 162 191c1 19 2 38 2 57c0 29 -1 58 -3 87c-29 -5 -58 -8 -88 -8c-189 0 -333 173 -333 376c0 177 129 308 244 443c-20 62 -40 124 -48 189c-7 52 -7 105 -7 158c0 114 54 221 147 288c4 3 8 4 12 4c5 0 9 -2 13 -5
c72 -83 135 -243 135 -356c0 -142 -84 -255 -176 -364c21 -68 40 -136 57 -205zM463 -201c65 24 110 94 110 161c0 88 -64 175 -167 188c24 -114 44 -227 57 -349zM77 25c0 -133 128 -243 261 -243c27 0 55 1 81 5c-13 126 -35 244 -60 362c-79 -8 -124 -60 -124 -118
c0 -43 25 -88 80 -120c5 -5 7 -11 7 -17c0 -12 -10 -23 -23 -23c-3 0 -7 1 -10 2c-81 43 -118 115 -118 186c0 89 60 177 163 200c-14 57 -30 113 -47 169c-105 -122 -210 -243 -210 -403zM403 1038c-99 -46 -161 -145 -161 -254c0 -71 21 -130 39 -188
c78 97 142 199 142 324c0 51 -4 72 -20 118z" fill="currentColor"/>
<path transform="translate(13.4743, 66.3336) scale(0.0040, -0.0040)" d="M31 37l-2 -62v-11c0 -22 2 -43 5 -64c43 38 89 80 89 137c0 32 -14 65 -42 65c-31 0 -49 -32 -50 -65zM-16 -140l-14 590c9 5 20 8 30 8s21 -3 30 -8l-8 -340c25 24 59 38 94 38c50 0 84 -50 84 -104c0 -78 -83 -117 -141 -169c-17 -15 -25 -44 -49 -44
c-15 0 -26 13 -26 29z" fill="currentColor"/>
<path transform="translate(14.4148, 64.8336) scale(0.0040, -0.0040)" d="M31 37l-2 -62v-11c0 -22 2 -43 5 -64c43 38 89 80 89 137c0 32 -14 65 -42 65c-31 0 -49 -32 -50 -65zM-16 -140l-14 590c9 5 20 8 30 8s21 -3 30 -8l-8 -340c25 24 59 38 94 38c50 0 84 -50 84 -104c0 -78 -83 -117 -141 -169c-17 -15 -25 -44 -49 -44
c-15 0 -26 13 -26 29z" fill="currentColor"/>
<path transform="translate(15.3553, 66.8336) scale(0.0040, -0.0040)" d="M31 37l-2 -62v-11c0 -22 2 -43 5 -64c43 38 89 80 89 137c0 32 -14 65 -42 65c-31 0 -49 -32 -50 -65zM-16 -140l-14 590c9 5 20 8 30 8s21 -3 30 -8l-8 -340c25 24 59 38 94 38c50 0 84 -50 84 -104c0 -78 -83 -117 -141 -169c-17 -15 -25 -44 -49 -44
c-15 0 -26 13 -26 29z" fill="currentColor"/>
<rect transform="translate(55.9593, 66.3336)" x="-0.0757" y="0.1731" width="0.1514" height="3.1602" ry="0.0500" fill="currentColor"/>
<path transform="translate(98.2634, 69.3336) scale(0.0040, -0.0040)" d="M214 140c59 0 115 -32 115 -97c0 -72 -54 -121 -101 -149c-35 -21 -74 -34 -114 -34c-59 0 -114 32 -114 97c0 72 54 121 101 149c35 21 73 34 113 34z" fill="currentColor"/>
<text transform="translate(96.8935, 72.7274)" font-family="Century Schoolbook L" font-size="2.4695" text-anchor="start" fill="currentColor">
<tspan>
you</tspan>
</text>
<rect transform="translate(99.5024, 66.3336)" x="-0.0757" y="-0.5000" width="0.1514" height="3.3269" ry="0.0500" fill="currentColor"/>
<path transform="translate(99.5780, 65.8836) scale(0.0040, -0.0040)" d="M0 0c0 -197 209 -334 209 -531c0 -71 -15 -140 -41 -206c-5 -9 -14 -13 -22 -13c-14 0 -29 12 -26 30c27 60 43 124 43 189c0 102 -93 206 -163 281h-19v250h19z" fill="currentColor"/>
<text transform="translate(104.8629, 63.3336)" font-family="sans-serif" font-size="1.9603" text-anchor="start" fill="currentColor">
<tspan>
A</tspan>
</text>
<text transform="translate(106.1859, 63.3336)" font-family="sans-serif" font-size="1.9603" text-anchor="start" fill="currentColor">
<tspan/>
</text>
<text transform="translate(106.1859, 63.3336)" font-family="sans-serif" font-size="1.9603" text-anchor="start" fill="currentColor">
<tspan/>
</text>
<text transform="translate(106.1859, 61.8336)" font-family="sans-serif" font-size="1.3858" text-anchor="start" fill="currentColor">
<tspan/>
</text>
<text transform="translate(106.1859, 61.8336)" font-family="sans-serif" font-size="1.3858" text-anchor="start" fill="currentColor">
<tspan>
7</tspan>
</text>
<path transform="translate(104.8629, 67.8336) scale(0.0040, -0.0040)" d="M214 140c59 0 115 -32 115 -97c0 -72 -54 -121 -101 -149c-35 -21 -74 -34 -114 -34c-59 0 -114 32 -114 97c0 72 54 121 101 149c35 21 73 34 113 34z" fill="currentColor"/>
<text transform="translate(104.1971, 72.7274)" font-family="Century Schoolbook L" font-size="2.4695" text-anchor="start" fill="currentColor">
<tspan>
do</tspan>
</text>
<rect transform="translate(106.1018, 66.3336)" x="-0.0757" y="-2.0000" width="0.1514" height="3.3269" ry="0.0500" fill="currentColor"/>
<text transform="translate(88.0753, 63.3336)" font-family="sans-serif" font-size="1.9603" text-anchor="start" fill="currentColor">
<tspan>
E</tspan>
</text>
<text transform="translate(89.3130, 63.3336)" font-family="sans-serif" font-size="1.9603" text-anchor="start" fill="currentColor">
<tspan/>
</text>
<text transform="translate(89.3130, 63.3336)" font-family="sans-serif" font-size="1.9603" text-anchor="start" fill="currentColor">
<tspan/>
</text>
<text transform="translate(89.3130, 61.8336)" font-family="sans-serif" font-size="1.3858" text-anchor="start" fill="currentColor">
<tspan/>
</text>
<text transform="translate(89.3130, 61.8336)" font-family="sans-serif" font-size="1.3858" text-anchor="start" fill="currentColor">
<tspan>
7</tspan>
</text>
<path transform="translate(88.0753, 67.8336) scale(0.0040, -0.0040)" d="M214 140c59 0 115 -32 115 -97c0 -72 -54 -121 -101 -149c-35 -21 -74 -34 -114 -34c-59 0 -114 32 -114 97c0 72 54 121 101 149c35 21 73 34 113 34z" fill="currentColor"/>
<text transform="translate(86.6200, 72.7274)" font-family="Century Schoolbook L" font-size="2.4695" text-anchor="start" fill="currentColor">
<tspan>
will</tspan>
</text>
<rect transform="translate(89.3142, 66.3336)" x="-0.0757" y="-2.0000" width="0.1514" height="3.3269" ry="0.0500" fill="currentColor"/>
<text transform="translate(69.8622, 189.4189)" font-family="Trebuchet MS" font-size="2.1999" text-anchor="start" fill="currentColor">
<tspan>
www.hymnal.net</tspan>
</text>
<text transform="translate(78.1419, 192.4189)" font-family="Century Schoolbook L" font-size="2.1999" text-anchor="start" fill="currentColor">
<tspan/>
</text>
</svg>
