<svg xmlns="http://www.w3.org/2000/svg" xmlns:xlink="http://www.w3.org/1999/xlink" version="1.2" width="215.90mm" height="279.40mm" viewBox="0.0000 -0.0000 153.5737 198.7425">
<style type="text/css">
<![CDATA[
tspan { white-space: pre; }
]]>
</style>
<g transform="translate(63.1189, 12.4322)">
<text font-family="serif" font-weight="bold" font-size="3.1113" text-anchor="start" fill="currentColor">
<tspan>God is So Good to Me!</tspan>
</text>
</g>
<g transform="translate(66.0637, 15.9322)">
<text font-family="serif" font-weight="bold" font-size="2.2001" text-anchor="start" fill="currentColor">
<tspan>Gospel — God’s Creation</tspan>
</text>
</g>
<g transform="translate(28.7509, 24.5411)">
<rect x="0.0000" y="-2.0000" width="0.2212" height="4.0000" ry="0.0000" fill="currentColor"/>
</g>
<g transform="translate(9.0337, 27.5411)">
<rect x="10.8927" y="-0.1082" width="1.9512" height="0.2164" ry="0.1082" fill="currentColor"/>
</g>
<g transform="translate(9.0337, 28.5411)">
<rect x="10.8927" y="-0.1082" width="1.9512" height="0.2164" ry="0.1082" fill="currentColor"/>
</g>
<g transform="translate(9.0337, 26.5411)">
<line stroke-linejoin="round" stroke-linecap="round" stroke-width="0.1164" stroke="currentColor" x1="0.0582" y1="0" x2="138.1582" y2="0"/>
</g>
<g transform="translate(9.0337, 25.5411)">
<line stroke-linejoin="round" stroke-linecap="round" stroke-width="0.1164" stroke="currentColor" x1="0.0582" y1="0" x2="138.1582" y2="0"/>
</g>
<g transform="translate(9.0337, 24.5411)">
<line stroke-linejoin="round" stroke-linecap="round" stroke-width="0.1164" stroke="currentColor" x1="0.0582" y1="0" x2="138.1582" y2="0"/>
</g>
<g transform="translate(9.0337, 23.5411)">
<line stroke-linejoin="round" stroke-linecap="round" stroke-width="0.1164" stroke="currentColor" x1="0.0582" y1="0" x2="138.1582" y2="0"/>
</g>
<g transform="translate(9.0337, 22.5411)">
<line stroke-linejoin="round" stroke-linecap="round" stroke-width="0.1164" stroke="currentColor" x1="0.0582" y1="0" x2="138.1582" y2="0"/>
</g>
<g transform="translate(147.0289, 24.5411)">
<rect x="0.0000" y="-2.0000" width="0.2212" height="4.0000" ry="0.0000" fill="currentColor"/>
</g>
<g transform="translate(87.8899, 24.5411)">
<rect x="0.0000" y="-2.0000" width="0.2212" height="4.0000" ry="0.0000" fill="currentColor"/>
</g>
<g transform="translate(66.1448, 24.5411)">
<rect x="-0.0757" y="-1.5000" width="0.1514" height="3.2545" ry="0.0500" fill="currentColor"/>
</g>
<g transform="translate(20.2516, 21.9829)">
<text font-family="sans" font-size="1.9604" text-anchor="start" fill="currentColor">
<tspan>D</tspan>
</text>
</g>
<g transform="translate(20.2516, 28.5411)">
<path transform="scale(0.0040, -0.0040)" d="M0 -43c0 92 111 181 211 181c65 0 115 -37 115 -95c0 -88 -106 -181 -215 -181c-70 0 -111 41 -111 95z" fill="currentColor"/>
</g>
<g transform="translate(9.8338, 25.5411)">
<path transform="scale(0.0040, -0.0040)" d="M647 2c0 -114 -75 -214 -180 -248c3 -33 4 -66 4 -99c0 -21 0 -41 -1 -62c-7 -122 -92 -229 -211 -229c-108 0 -196 88 -196 197c0 58 54 103 113 103c54 0 95 -47 95 -103c0 -52 -43 -95 -95 -95c-9 0 -18 1 -27 4c25 -37 66 -61 113 -61c93 0 156 91 162 191
c1 19 2 38 2 57c0 29 -1 58 -3 87c-28 -5 -54 -8 -79 -8c-242 0 -342 222 -342 376c0 177 129 308 244 443c-33 100 -55 169 -55 347c0 186 141 292 159 292c33 0 148 -208 148 -361c0 -142 -84 -255 -176 -364c21 -68 40 -136 57 -205c3 0 8 1 11 1
c156 0 257 -129 257 -263zM406 148c28 -133 49 -269 57 -349c73 27 109 93 109 160c0 86 -58 175 -166 189zM77 25c0 -111 96 -243 275 -243c21 0 44 1 67 5c-7 66 -27 208 -60 362c-79 -8 -124 -60 -124 -118c0 -43 25 -88 80 -120c5 -5 7 -11 7 -17c0 -12 -10 -23 -23 -23
c-16 0 -128 62 -128 188c0 89 60 177 163 200c-14 57 -30 113 -47 169c-105 -122 -210 -243 -210 -403zM424 920c0 61 -20 118 -21 118c-31 -14 -161 -85 -161 -253c0 -53 15 -113 39 -189c71 88 143 196 143 324z" fill="currentColor"/>
</g>
<g transform="translate(13.2188, 22.5411)">
<path transform="scale(0.0040, -0.0040)" d="M0 116c0 10 6 19 16 23l40 15v154c0 12 9 21 21 21s21 -9 21 -21v-138l79 30v154c0 12 9 21 21 21s21 -9 21 -21v-138l22 8c3 1 6 2 9 2c13 0 25 -11 25 -25v-54c0 -10 -6 -20 -16 -24l-40 -15v-155l22 9c3 1 6 1 9 1c13 0 25 -11 25 -25v-54c0 -10 -6 -19 -16 -23
l-40 -15v-154c0 -12 -9 -21 -21 -21s-21 9 -21 21v138l-79 -30v-154c0 -12 -9 -21 -21 -21s-21 9 -21 21v138l-22 -8c-3 -1 -6 -2 -9 -2c-13 0 -25 11 -25 25v54c0 10 6 20 16 24l40 15v155l-22 -9c-3 -1 -6 -1 -9 -1c-13 0 -25 11 -25 25v54zM177 92l-79 -30v-154l79 30
v154z" fill="currentColor"/>
</g>
<g transform="translate(14.3188, 24.0411)">
<path transform="scale(0.0040, -0.0040)" d="M0 116c0 10 6 19 16 23l40 15v154c0 12 9 21 21 21s21 -9 21 -21v-138l79 30v154c0 12 9 21 21 21s21 -9 21 -21v-138l22 8c3 1 6 2 9 2c13 0 25 -11 25 -25v-54c0 -10 -6 -20 -16 -24l-40 -15v-155l22 9c3 1 6 1 9 1c13 0 25 -11 25 -25v-54c0 -10 -6 -19 -16 -23
l-40 -15v-154c0 -12 -9 -21 -21 -21s-21 9 -21 21v138l-79 -30v-154c0 -12 -9 -21 -21 -21s-21 9 -21 21v138l-22 -8c-3 -1 -6 -2 -9 -2c-13 0 -25 11 -25 25v54c0 10 6 20 16 24l40 15v155l-22 -9c-3 -1 -6 -1 -9 -1c-13 0 -25 11 -25 25v54zM177 92l-79 -30v-154l79 30
v154z" fill="currentColor"/>
</g>
<g transform="translate(16.5687, 24.5411)">
<path transform="scale(0.0040, -0.0040)" d="M430 -89c0 -21 -49 -176 -180 -176c-145 0 -250 88 -250 265c0 63 18 265 250 265c114 0 172 -112 172 -166c0 -38 -30 -69 -66 -69c-30 0 -72 23 -72 72c0 37 26 75 70 75c3 0 6 -1 9 -1c-26 36 -67 59 -113 59c-107 0 -113 -74 -113 -189c0 -15 1 -30 1 -46
s-1 -31 -1 -46c0 -115 6 -189 113 -189c78 0 133 70 151 149c2 8 8 11 14 11c7 0 15 -5 15 -14z" fill="currentColor"/>
</g>
<g transform="translate(18.9815, 31.1049)">
<text font-family="serif" font-size="2.4697" text-anchor="start" fill="currentColor">
<tspan>Our</tspan>
</text>
</g>
<g transform="translate(16.3170, 31.1049)">
<text font-family="serif" font-weight="bold" font-size="2.2001" text-anchor="start" fill="currentColor">
<tspan>1.</tspan>
</text>
</g>
<g transform="translate(21.4768, 24.5411)">
<rect x="-0.0757" y="-0.0000" width="0.1514" height="3.8286" ry="0.0500" fill="currentColor"/>
</g>
<g transform="translate(21.5525, 24.5911)">
<path transform="scale(0.0040, -0.0040)" d="M118 -725c0 11 43 86 43 194c0 102 -92 206 -161 281v-125h-19v375h19c0 -197 207 -334 207 -531c0 -71 -15 -140 -41 -206c-5 -9 -14 -13 -22 -13c-13 0 -26 10 -26 25z" fill="currentColor"/>
</g>
<g transform="translate(32.1017, 27.0411)">
<path transform="scale(0.0040, -0.0040)" d="M0 -43c0 92 111 181 211 181c65 0 115 -37 115 -95c0 -88 -106 -181 -215 -181c-70 0 -111 41 -111 95z" fill="currentColor"/>
</g>
<g transform="translate(30.6182, 31.1049)">
<text font-family="serif" font-size="2.4697" text-anchor="start" fill="currentColor">
<tspan>God</tspan>
</text>
</g>
<g transform="translate(33.3269, 24.5411)">
<rect x="-0.0757" y="-1.0000" width="0.1514" height="3.3286" ry="0.0500" fill="currentColor"/>
</g>
<g transform="translate(47.6938, 27.0411)">
<path transform="scale(0.0040, -0.0040)" d="M0 -43c0 92 111 181 211 181c65 0 115 -37 115 -95c0 -88 -106 -181 -215 -181c-70 0 -111 41 -111 95z" fill="currentColor"/>
</g>
<g transform="translate(47.5120, 31.1049)">
<text font-family="serif" font-size="2.4697" text-anchor="start" fill="currentColor">
<tspan>is</tspan>
</text>
</g>
<g transform="translate(48.9190, 24.5411)">
<rect x="-0.0757" y="-1.1872" width="0.1514" height="3.5158" ry="0.0500" fill="currentColor"/>
</g>
<g transform="translate(56.3903, 26.0411)">
<path transform="scale(0.0040, -0.0040)" d="M0 -43c0 92 111 181 211 181c65 0 115 -37 115 -95c0 -88 -106 -181 -215 -181c-70 0 -111 41 -111 95z" fill="currentColor"/>
</g>
<g transform="translate(55.9311, 31.1049)">
<text font-family="serif" font-size="2.4697" text-anchor="start" fill="currentColor">
<tspan>so</tspan>
</text>
</g>
<g transform="translate(57.6154, 24.5411)">
<rect x="-0.0757" y="-1.8128" width="0.1514" height="3.1414" ry="0.0500" fill="currentColor"/>
</g>
<g transform="translate(48.8433, 23.3593)">
<polygon stroke-linejoin="round" stroke-linecap="round" stroke-width="0.1000" fill="currentColor" stroke="currentColor" points="8.7978 -0.8264 8.7978 -0.4464 0.0500 0.1900 0.0500 -0.1900"/>
</g>
<g transform="translate(64.8368, 21.9829)">
<text font-family="sans" font-size="1.9604" text-anchor="start" fill="currentColor">
<tspan>A</tspan>
</text>
</g>
<g transform="translate(66.1598, 21.0920)">
<text font-family="sans" font-size="1.3856" text-anchor="start" fill="currentColor">
<tspan>7</tspan>
</text>
</g>
<g transform="translate(64.8368, 26.5411)">
<path transform="scale(0.0040, -0.0040)" d="M76 -103c39 0 197 107 224 139c7 8 10 18 10 27c0 21 -17 40 -40 40c-39 0 -197 -107 -224 -139c-7 -8 -10 -18 -10 -27c0 -21 17 -40 40 -40zM0 -63c0 40 15 201 253 201c43 0 93 -10 93 -75c0 -40 -15 -201 -253 -201c-43 0 -93 10 -93 75z" fill="currentColor"/>
</g>
<g transform="translate(62.6478, 31.1049)">
<text font-family="serif" font-size="2.4697" text-anchor="start" fill="currentColor">
<tspan>good!</tspan>
</text>
</g>
<g transform="translate(107.9823, 23.3593)">
<polygon stroke-linejoin="round" stroke-linecap="round" stroke-width="0.1000" fill="currentColor" stroke="currentColor" points="8.7978 -0.8264 8.7978 -0.4464 0.0500 0.1900 0.0500 -0.1900"/>
</g>
<g transform="translate(91.2407, 26.5411)">
<path transform="scale(0.0040, -0.0040)" d="M0 -43c0 92 111 181 211 181c65 0 115 -37 115 -95c0 -88 -106 -181 -215 -181c-70 0 -111 41 -111 95z" fill="currentColor"/>
</g>
<g transform="translate(89.7572, 31.1049)">
<text font-family="serif" font-size="2.4697" text-anchor="start" fill="currentColor">
<tspan>God</tspan>
</text>
</g>
<g transform="translate(92.4659, 24.5411)">
<rect x="-0.0757" y="-1.5000" width="0.1514" height="3.3286" ry="0.0500" fill="currentColor"/>
</g>
<g transform="translate(106.8328, 26.5411)">
<path transform="scale(0.0040, -0.0040)" d="M0 -43c0 92 111 181 211 181c65 0 115 -37 115 -95c0 -88 -106 -181 -215 -181c-70 0 -111 41 -111 95z" fill="currentColor"/>
</g>
<g transform="translate(106.6510, 31.1049)">
<text font-family="serif" font-size="2.4697" text-anchor="start" fill="currentColor">
<tspan>is</tspan>
</text>
</g>
<g transform="translate(108.0580, 24.5411)">
<rect x="-0.0757" y="-1.1872" width="0.1514" height="3.0158" ry="0.0500" fill="currentColor"/>
</g>
<g transform="translate(115.5293, 25.5411)">
<path transform="scale(0.0040, -0.0040)" d="M0 -43c0 92 111 181 211 181c65 0 115 -37 115 -95c0 -88 -106 -181 -215 -181c-70 0 -111 41 -111 95z" fill="currentColor"/>
</g>
<g transform="translate(115.0701, 31.1049)">
<text font-family="serif" font-size="2.4697" text-anchor="start" fill="currentColor">
<tspan>so</tspan>
</text>
</g>
<g transform="translate(116.7544, 24.5411)">
<rect x="-0.0757" y="-1.8128" width="0.1514" height="2.6414" ry="0.0500" fill="currentColor"/>
</g>
<g transform="translate(123.9758, 21.9829)">
<text font-family="sans" font-size="1.9604" text-anchor="start" fill="currentColor">
<tspan>D</tspan>
</text>
</g>
<g transform="translate(123.9758, 26.0411)">
<path transform="scale(0.0040, -0.0040)" d="M76 -103c39 0 197 107 224 139c7 8 10 18 10 27c0 21 -17 40 -40 40c-39 0 -197 -107 -224 -139c-7 -8 -10 -18 -10 -27c0 -21 17 -40 40 -40zM0 -63c0 40 15 201 253 201c43 0 93 -10 93 -75c0 -40 -15 -201 -253 -201c-43 0 -93 10 -93 75z" fill="currentColor"/>
</g>
<g transform="translate(121.7868, 31.1049)">
<text font-family="serif" font-size="2.4697" text-anchor="start" fill="currentColor">
<tspan>good!</tspan>
</text>
</g>
<g transform="translate(125.2838, 24.5411)">
<rect x="-0.0757" y="-2.0000" width="0.1514" height="3.2545" ry="0.0500" fill="currentColor"/>
</g>
<g transform="translate(83.4349, 37.0684)">
<rect x="0.0000" y="-2.0000" width="0.2212" height="4.0000" ry="0.0000" fill="currentColor"/>
</g>
<g transform="translate(9.0337, 39.0684)">
<line stroke-linejoin="round" stroke-linecap="round" stroke-width="0.1164" stroke="currentColor" x1="0.0582" y1="0" x2="138.1582" y2="0"/>
</g>
<g transform="translate(9.0337, 38.0684)">
<line stroke-linejoin="round" stroke-linecap="round" stroke-width="0.1164" stroke="currentColor" x1="0.0582" y1="0" x2="138.1582" y2="0"/>
</g>
<g transform="translate(9.0337, 37.0684)">
<line stroke-linejoin="round" stroke-linecap="round" stroke-width="0.1164" stroke="currentColor" x1="0.0582" y1="0" x2="138.1582" y2="0"/>
</g>
<g transform="translate(9.0337, 36.0684)">
<line stroke-linejoin="round" stroke-linecap="round" stroke-width="0.1164" stroke="currentColor" x1="0.0582" y1="0" x2="138.1582" y2="0"/>
</g>
<g transform="translate(9.0337, 35.0684)">
<line stroke-linejoin="round" stroke-linecap="round" stroke-width="0.1164" stroke="currentColor" x1="0.0582" y1="0" x2="138.1582" y2="0"/>
</g>
<g transform="translate(146.5516, 37.0684)">
<rect x="0.0000" y="-2.0000" width="0.6986" height="4.0000" ry="0.0000" fill="currentColor"/>
</g>
<g transform="translate(145.9811, 37.0684)">
<rect x="0.0000" y="-2.0000" width="0.2212" height="4.0000" ry="0.0000" fill="currentColor"/>
</g>
<g transform="translate(9.8338, 38.0684)">
<path transform="scale(0.0040, -0.0040)" d="M647 2c0 -114 -75 -214 -180 -248c3 -33 4 -66 4 -99c0 -21 0 -41 -1 -62c-7 -122 -92 -229 -211 -229c-108 0 -196 88 -196 197c0 58 54 103 113 103c54 0 95 -47 95 -103c0 -52 -43 -95 -95 -95c-9 0 -18 1 -27 4c25 -37 66 -61 113 -61c93 0 156 91 162 191
c1 19 2 38 2 57c0 29 -1 58 -3 87c-28 -5 -54 -8 -79 -8c-242 0 -342 222 -342 376c0 177 129 308 244 443c-33 100 -55 169 -55 347c0 186 141 292 159 292c33 0 148 -208 148 -361c0 -142 -84 -255 -176 -364c21 -68 40 -136 57 -205c3 0 8 1 11 1
c156 0 257 -129 257 -263zM406 148c28 -133 49 -269 57 -349c73 27 109 93 109 160c0 86 -58 175 -166 189zM77 25c0 -111 96 -243 275 -243c21 0 44 1 67 5c-7 66 -27 208 -60 362c-79 -8 -124 -60 -124 -118c0 -43 25 -88 80 -120c5 -5 7 -11 7 -17c0 -12 -10 -23 -23 -23
c-16 0 -128 62 -128 188c0 89 60 177 163 200c-14 57 -30 113 -47 169c-105 -122 -210 -243 -210 -403zM424 920c0 61 -20 118 -21 118c-31 -14 -161 -85 -161 -253c0 -53 15 -113 39 -189c71 88 143 196 143 324z" fill="currentColor"/>
</g>
<g transform="translate(13.2188, 35.0684)">
<path transform="scale(0.0040, -0.0040)" d="M0 116c0 10 6 19 16 23l40 15v154c0 12 9 21 21 21s21 -9 21 -21v-138l79 30v154c0 12 9 21 21 21s21 -9 21 -21v-138l22 8c3 1 6 2 9 2c13 0 25 -11 25 -25v-54c0 -10 -6 -20 -16 -24l-40 -15v-155l22 9c3 1 6 1 9 1c13 0 25 -11 25 -25v-54c0 -10 -6 -19 -16 -23
l-40 -15v-154c0 -12 -9 -21 -21 -21s-21 9 -21 21v138l-79 -30v-154c0 -12 -9 -21 -21 -21s-21 9 -21 21v138l-22 -8c-3 -1 -6 -2 -9 -2c-13 0 -25 11 -25 25v54c0 10 6 20 16 24l40 15v155l-22 -9c-3 -1 -6 -1 -9 -1c-13 0 -25 11 -25 25v54zM177 92l-79 -30v-154l79 30
v154z" fill="currentColor"/>
</g>
<g transform="translate(14.3188, 36.5684)">
<path transform="scale(0.0040, -0.0040)" d="M0 116c0 10 6 19 16 23l40 15v154c0 12 9 21 21 21s21 -9 21 -21v-138l79 30v154c0 12 9 21 21 21s21 -9 21 -21v-138l22 8c3 1 6 2 9 2c13 0 25 -11 25 -25v-54c0 -10 -6 -20 -16 -24l-40 -15v-155l22 9c3 1 6 1 9 1c13 0 25 -11 25 -25v-54c0 -10 -6 -19 -16 -23
l-40 -15v-154c0 -12 -9 -21 -21 -21s-21 9 -21 21v138l-79 -30v-154c0 -12 -9 -21 -21 -21s-21 9 -21 21v138l-22 -8c-3 -1 -6 -2 -9 -2c-13 0 -25 11 -25 25v54c0 10 6 20 16 24l40 15v155l-22 -9c-3 -1 -6 -1 -9 -1c-13 0 -25 11 -25 25v54zM177 92l-79 -30v-154l79 30
v154z" fill="currentColor"/>
</g>
<g transform="translate(8.1802, 33.9979)">
<text font-family="serif" font-size="1.7463" text-anchor="start" fill="currentColor">
<tspan>3</tspan>
</text>
</g>
<g transform="translate(17.9187, 34.0407)">
<text font-family="sans" font-size="1.9604" text-anchor="start" fill="currentColor">
<tspan>D</tspan>
</text>
</g>
<g transform="translate(19.4125, 33.1498)">
<text font-family="sans" font-size="1.3856" text-anchor="start" fill="currentColor">
<tspan>7</tspan>
</text>
</g>
<g transform="translate(17.9187, 38.5684)">
<path transform="scale(0.0040, -0.0040)" d="M0 -43c0 92 111 181 211 181c65 0 115 -37 115 -95c0 -88 -106 -181 -215 -181c-70 0 -111 41 -111 95z" fill="currentColor"/>
</g>
<g transform="translate(16.4352, 42.5684)">
<text font-family="serif" font-size="2.4697" text-anchor="start" fill="currentColor">
<tspan>God</tspan>
</text>
</g>
<g transform="translate(19.1439, 37.0684)">
<rect x="-0.0757" y="-2.0000" width="0.1514" height="3.3286" ry="0.0500" fill="currentColor"/>
</g>
<g transform="translate(67.2159, 35.8866)">
<polygon stroke-linejoin="round" stroke-linecap="round" stroke-width="0.1000" fill="currentColor" stroke="currentColor" points="8.8096 -0.8264 8.8096 -0.4464 0.0500 0.1900 0.0500 -0.1900"/>
</g>
<g transform="translate(33.5343, 38.5684)">
<path transform="scale(0.0040, -0.0040)" d="M0 -43c0 92 111 181 211 181c65 0 115 -37 115 -95c0 -88 -106 -181 -215 -181c-70 0 -111 41 -111 95z" fill="currentColor"/>
</g>
<g transform="translate(33.3525, 42.5684)">
<text font-family="serif" font-size="2.4697" text-anchor="start" fill="currentColor">
<tspan>is</tspan>
</text>
</g>
<g transform="translate(34.7595, 37.0684)">
<rect x="-0.0757" y="-2.1872" width="0.1514" height="3.5158" ry="0.0500" fill="currentColor"/>
</g>
<g transform="translate(42.2426, 37.5684)">
<path transform="scale(0.0040, -0.0040)" d="M0 -43c0 92 111 181 211 181c65 0 115 -37 115 -95c0 -88 -106 -181 -215 -181c-70 0 -111 41 -111 95z" fill="currentColor"/>
</g>
<g transform="translate(41.7833, 42.5684)">
<text font-family="serif" font-size="2.4697" text-anchor="start" fill="currentColor">
<tspan>so</tspan>
</text>
</g>
<g transform="translate(43.4677, 37.0684)">
<rect x="-0.0757" y="-2.8128" width="0.1514" height="3.1414" ry="0.0500" fill="currentColor"/>
</g>
<g transform="translate(50.7008, 34.0407)">
<text font-family="sans" font-size="1.9604" text-anchor="start" fill="currentColor">
<tspan>G</tspan>
</text>
</g>
<g transform="translate(50.7008, 38.0684)">
<path transform="scale(0.0040, -0.0040)" d="M0 -43c0 92 111 181 211 181c65 0 115 -37 115 -95c0 -88 -106 -181 -215 -181c-70 0 -111 41 -111 95z" fill="currentColor"/>
</g>
<g transform="translate(48.5770, 42.5684)">
<text font-family="serif" font-size="2.4697" text-anchor="start" fill="currentColor">
<tspan>good,</tspan>
</text>
</g>
<g transform="translate(51.9259, 37.0684)">
<rect x="-0.0757" y="-2.5000" width="0.1514" height="3.3286" ry="0.0500" fill="currentColor"/>
</g>
<g transform="translate(66.0664, 39.0684)">
<path transform="scale(0.0040, -0.0040)" d="M0 -43c0 92 111 181 211 181c65 0 115 -37 115 -95c0 -88 -106 -181 -215 -181c-70 0 -111 41 -111 95z" fill="currentColor"/>
</g>
<g transform="translate(64.4335, 42.5684)">
<text font-family="serif" font-size="2.4697" text-anchor="start" fill="currentColor">
<tspan>He’s</tspan>
</text>
</g>
<g transform="translate(67.2915, 37.0684)">
<rect x="-0.0757" y="-1.1872" width="0.1514" height="3.0158" ry="0.0500" fill="currentColor"/>
</g>
<g transform="translate(34.6838, 34.8866)">
<polygon stroke-linejoin="round" stroke-linecap="round" stroke-width="0.1000" fill="currentColor" stroke="currentColor" points="8.8096 -0.8264 8.8096 -0.4464 0.0500 0.1900 0.0500 -0.1900"/>
</g>
<g transform="translate(74.7746, 38.0684)">
<path transform="scale(0.0040, -0.0040)" d="M0 -43c0 92 111 181 211 181c65 0 115 -37 115 -95c0 -88 -106 -181 -215 -181c-70 0 -111 41 -111 95z" fill="currentColor"/>
</g>
<g transform="translate(74.3154, 42.5684)">
<text font-family="serif" font-size="2.4697" text-anchor="start" fill="currentColor">
<tspan>so</tspan>
</text>
</g>
<g transform="translate(75.9998, 37.0684)">
<rect x="-0.0757" y="-1.8128" width="0.1514" height="2.6414" ry="0.0500" fill="currentColor"/>
</g>
<g transform="translate(86.7901, 34.0407)">
<text font-family="sans" font-size="1.9604" text-anchor="start" fill="currentColor">
<tspan>D</tspan>
</text>
</g>
<g transform="translate(88.2839, 34.0407)">
<text font-family="sans" font-size="1.9604" text-anchor="start" fill="currentColor">
<tspan>/</tspan>
</text>
</g>
<g transform="translate(89.1801, 34.0407)">
<text font-family="sans" font-size="1.9604" text-anchor="start" fill="currentColor">
<tspan>A</tspan>
</text>
</g>
<g transform="translate(86.7901, 38.5684)">
<path transform="scale(0.0040, -0.0040)" d="M0 -43c0 92 111 181 211 181c65 0 115 -37 115 -95c0 -88 -106 -181 -215 -181c-70 0 -111 41 -111 95z" fill="currentColor"/>
</g>
<g transform="translate(84.9651, 42.5684)">
<text font-family="serif" font-size="2.4697" text-anchor="start" fill="currentColor">
<tspan>good</tspan>
</text>
</g>
<g transform="translate(88.0153, 37.0684)">
<rect x="-0.0757" y="-2.0000" width="0.1514" height="3.3286" ry="0.0500" fill="currentColor"/>
</g>
<g transform="translate(102.4057, 34.0407)">
<text font-family="sans" font-size="1.9604" text-anchor="start" fill="currentColor">
<tspan>A</tspan>
</text>
</g>
<g transform="translate(103.7288, 33.1498)">
<text font-family="sans" font-size="1.3856" text-anchor="start" fill="currentColor">
<tspan>7</tspan>
</text>
</g>
<g transform="translate(102.4057, 39.0684)">
<path transform="scale(0.0040, -0.0040)" d="M0 -43c0 92 111 181 211 181c65 0 115 -37 115 -95c0 -88 -106 -181 -215 -181c-70 0 -111 41 -111 95z" fill="currentColor"/>
</g>
<g transform="translate(102.0959, 42.5684)">
<text font-family="serif" font-size="2.4697" text-anchor="start" fill="currentColor">
<tspan>to</tspan>
</text>
</g>
<g transform="translate(103.6309, 37.0684)">
<rect x="-0.0757" y="-1.5000" width="0.1514" height="3.3286" ry="0.0500" fill="currentColor"/>
</g>
<g transform="translate(118.0214, 34.0407)">
<text font-family="sans" font-size="1.9604" text-anchor="start" fill="currentColor">
<tspan>D</tspan>
</text>
</g>
<g transform="translate(118.0214, 39.5684)">
<path transform="scale(0.0040, -0.0040)" d="M0 -43c0 92 111 181 211 181c65 0 115 -37 115 -95c0 -88 -106 -181 -215 -181c-70 0 -111 41 -111 95z" fill="currentColor"/>
</g>
<g transform="translate(116.7512, 42.5684)">
<text font-family="serif" font-size="2.4697" text-anchor="start" fill="currentColor">
<tspan>me!</tspan>
</text>
</g>
<g transform="translate(119.7635, 39.5684)">
<path transform="scale(0.0040, -0.0040)" d="M0 0c0 30 25 55 55 55s55 -25 55 -55s-25 -55 -55 -55s-55 25 -55 55z" fill="currentColor"/>
</g>
<g transform="translate(119.2465, 37.0684)">
<rect x="-0.0757" y="-1.0000" width="0.1514" height="3.3286" ry="0.0500" fill="currentColor"/>
</g>
<g transform="translate(137.8238, 37.0684)">
<path transform="scale(0.0040, -0.0040)" d="M70 205c81 0 46 -96 90 -96c14 0 50 42 56 55c4 7 10 11 17 11s14 -4 17 -11l-119 -414c-9 -8 -21 -12 -32 -12s-23 4 -32 12l118 326c-33 -12 -66 -22 -101 -22c-58 0 -86 40 -86 79c0 36 24 72 72 72z" fill="currentColor"/>
</g>
<g transform="translate(56.2890, 52.0684)">
<text font-family="serif" font-weight="bold" font-size="2.2001" text-anchor="start" fill="currentColor">
<tspan>2.</tspan>
</text>
</g>
<g transform="translate(58.5535, 52.0684)">
<text font-family="serif" font-size="2.2001" text-anchor="start" fill="currentColor">
<tspan>The sun gives us light, warms us just right. </tspan>
</text>
</g>
<g transform="translate(58.5535, 54.0684)">
<text font-family="serif" font-size="1.5557" text-anchor="start" fill="currentColor">
<tspan> </tspan>
</text>
</g>
<g transform="translate(56.2890, 58.0684)">
<text font-family="serif" font-weight="bold" font-size="2.2001" text-anchor="start" fill="currentColor">
<tspan>3.</tspan>
</text>
</g>
<g transform="translate(58.5535, 58.0684)">
<text font-family="serif" font-size="2.2001" text-anchor="start" fill="currentColor">
<tspan>The moon shining bright lights up the night. </tspan>
</text>
</g>
<g transform="translate(58.5535, 60.0684)">
<text font-family="serif" font-size="1.5557" text-anchor="start" fill="currentColor">
<tspan> </tspan>
</text>
</g>
<g transform="translate(56.2890, 64.0684)">
<text font-family="serif" font-weight="bold" font-size="2.2001" text-anchor="start" fill="currentColor">
<tspan>4.</tspan>
</text>
</g>
<g transform="translate(58.5535, 64.0684)">
<text font-family="serif" font-size="2.2001" text-anchor="start" fill="currentColor">
<tspan>The stars stay right where God put them there. </tspan>
</text>
</g>
<g transform="translate(58.5535, 66.0684)">
<text font-family="serif" font-size="1.5557" text-anchor="start" fill="currentColor">
<tspan> </tspan>
</text>
</g>
<g transform="translate(56.2890, 70.0684)">
<text font-family="serif" font-weight="bold" font-size="2.2001" text-anchor="start" fill="currentColor">
<tspan>5.</tspan>
</text>
</g>
<g transform="translate(58.5535, 70.0684)">
<text font-family="serif" font-size="2.2001" text-anchor="start" fill="currentColor">
<tspan>The earth turns and tips on yearly trips </tspan>
</text>
</g>
<g transform="translate(58.5535, 72.0684)">
<text font-family="serif" font-size="1.5557" text-anchor="start" fill="currentColor">
<tspan> </tspan>
</text>
</g>
<g transform="translate(56.2890, 76.0684)">
<text font-family="serif" font-weight="bold" font-size="2.2001" text-anchor="start" fill="currentColor">
<tspan>6.</tspan>
</text>
</g>
<g transform="translate(58.5535, 76.0684)">
<text font-family="serif" font-size="2.2001" text-anchor="start" fill="currentColor">
<tspan>God planned it this way: night and then day! </tspan>
</text>
</g>
<g transform="translate(58.5535, 78.0684)">
<text font-family="serif" font-size="1.5557" text-anchor="start" fill="currentColor">
<tspan> </tspan>
</text>
</g>
<g transform="translate(43.8041, 191.9677)">
<text font-family="Trebuchet MS" font-size="2.2001" text-anchor="start" fill="currentColor">
<tspan>www.hymnal.net; </tspan>
</text>
</g>
<g transform="translate(62.5000, 191.9677)">
<text font-family="Trebuchet MS" font-size="2.2001" text-anchor="start" fill="currentColor">
<tspan>©</tspan>
</text>
</g>
<g transform="translate(64.6792, 191.9677)">
<text font-family="Trebuchet MS" font-size="2.2001" text-anchor="start" fill="currentColor">
<tspan> 2012 Bible StorySongs, Inc. Used by permission.</tspan>
</text>
</g>
</svg>
