<svg xmlns="http://www.w3.org/2000/svg" xmlns:xlink="http://www.w3.org/1999/xlink" version="1.2" width="215.90mm" height="279.40mm" viewBox="0 0 153.5737 198.7425">
<!-- Page: 1/1 -->
<text transform="translate(9.0337, 6.3236)" font-family="Century Schoolbook L" font-size="2.1999" text-anchor="start" fill="currentColor">
<tspan>
 </tspan>
</text>
<text transform="translate(57.7627, 9.6283)" font-family="Century Schoolbook L" font-weight="bold" font-size="3.1113" text-anchor="start" fill="currentColor">
<tspan>
Look to Jesus, weary one</tspan>
</text>
<text transform="translate(66.0637, 13.1283)" font-family="Century Schoolbook L" font-weight="bold" font-size="2.1999" text-anchor="start" fill="currentColor">
<tspan>
Gospel — Persuasion</tspan>
</text>
<text transform="translate(134.1050, 17.6950)" font-family="Century Schoolbook L" font-size="5.8739" text-anchor="start" fill="currentColor">
<tspan>
1036</tspan>
</text>
<text transform="translate(9.0337, 19.9021)" font-family="Century Schoolbook L" font-weight="bold" font-style="italic" font-size="2.1999" text-anchor="start" fill="currentColor">
<tspan>
(Guitar)</tspan>
</text>
<line transform="translate(9.0337, 29.4857)" stroke-linejoin="round" stroke-linecap="round" stroke-width="0.1164" stroke="currentColor" x1="0.0582" y1="-0.0000" x2="138.1582" y2="-0.0000"/>
<line transform="translate(9.0337, 28.4857)" stroke-linejoin="round" stroke-linecap="round" stroke-width="0.1164" stroke="currentColor" x1="0.0582" y1="-0.0000" x2="138.1582" y2="-0.0000"/>
<line transform="translate(9.0337, 27.4857)" stroke-linejoin="round" stroke-linecap="round" stroke-width="0.1164" stroke="currentColor" x1="0.0582" y1="-0.0000" x2="138.1582" y2="-0.0000"/>
<line transform="translate(9.0337, 26.4857)" stroke-linejoin="round" stroke-linecap="round" stroke-width="0.1164" stroke="currentColor" x1="0.0582" y1="-0.0000" x2="138.1582" y2="-0.0000"/>
<line transform="translate(9.0337, 25.4857)" stroke-linejoin="round" stroke-linecap="round" stroke-width="0.1164" stroke="currentColor" x1="0.0582" y1="-0.0000" x2="138.1582" y2="-0.0000"/>
<rect transform="translate(50.1168, 27.4857)" x="0.0000" y="-2.0000" width="0.2212" height="4.0000" ry="0.0000" fill="currentColor"/>
<rect transform="translate(147.0289, 27.4857)" x="0.0000" y="-2.0000" width="0.2212" height="4.0000" ry="0.0000" fill="currentColor"/>
<rect transform="translate(82.5362, 27.4857)" x="0.0000" y="-2.0000" width="0.2212" height="4.0000" ry="0.0000" fill="currentColor"/>
<rect transform="translate(114.9199, 27.4857)" x="0.0000" y="-2.0000" width="0.2212" height="4.0000" ry="0.0000" fill="currentColor"/>
<path transform="translate(93.1971, 28.4857) scale(0.0040, -0.0040)" d="M214 140c59 0 115 -32 115 -97c0 -72 -54 -121 -101 -149c-35 -21 -74 -34 -114 -34c-59 0 -114 32 -114 97c0 72 54 121 101 149c35 21 73 34 113 34z" fill="currentColor"/>
<text transform="translate(91.7204, 33.1542)" font-family="Century Schoolbook L" font-size="2.4695" text-anchor="start" fill="currentColor">
<tspan>
and</tspan>
</text>
<rect transform="translate(94.4360, 27.4857)" x="-0.0757" y="-2.1782" width="0.1514" height="3.0051" ry="0.0500" fill="currentColor"/>
<text transform="translate(17.0674, 33.1542)" font-family="Century Schoolbook L" font-size="2.4695" text-anchor="start" fill="currentColor">
<tspan>
Look</tspan>
</text>
<path transform="translate(100.8208, 27.9857) scale(0.0040, -0.0040)" d="M214 140c59 0 115 -32 115 -97c0 -72 -54 -121 -101 -149c-35 -21 -74 -34 -114 -34c-59 0 -114 32 -114 97c0 72 54 121 101 149c35 21 73 34 113 34z" fill="currentColor"/>
<text transform="translate(99.0668, 33.1542)" font-family="Century Schoolbook L" font-size="2.4695" text-anchor="start" fill="currentColor">
<tspan>
live!</tspan>
</text>
<rect transform="translate(102.0598, 27.4857)" x="-0.0757" y="-3.0000" width="0.1514" height="3.3269" ry="0.0500" fill="currentColor"/>
<text transform="translate(117.9571, 24.6954)" font-family="sans-serif" font-size="1.9603" text-anchor="start" fill="currentColor">
<tspan>
G</tspan>
</text>
<text transform="translate(119.4935, 24.6954)" font-family="sans-serif" font-size="1.9603" text-anchor="start" fill="currentColor">
<tspan/>
</text>
<text transform="translate(119.4935, 24.6954)" font-family="sans-serif" font-size="1.9603" text-anchor="start" fill="currentColor">
<tspan/>
</text>
<text transform="translate(119.4935, 23.8045)" font-family="sans-serif" font-size="1.3858" text-anchor="start" fill="currentColor">
<tspan/>
</text>
<path transform="translate(117.9571, 28.4857) scale(0.0040, -0.0040)" d="M214 140c59 0 115 -32 115 -97c0 -72 -54 -121 -101 -149c-35 -21 -74 -34 -114 -34c-59 0 -114 32 -114 97c0 72 54 121 101 149c35 21 73 34 113 34z" fill="currentColor"/>
<text transform="translate(116.2670, 33.1542)" font-family="Century Schoolbook L" font-size="2.4695" text-anchor="start" fill="currentColor">
<tspan>
look</tspan>
</text>
<rect transform="translate(119.1960, 27.4857)" x="-0.0757" y="-2.0018" width="0.1514" height="2.8286" ry="0.0500" fill="currentColor"/>
<text transform="translate(26.6270, 33.1542)" font-family="Century Schoolbook L" font-size="2.4695" text-anchor="start" fill="currentColor">
<tspan>
to</tspan>
</text>
<polygon transform="translate(119.1203, 25.4857)" stroke-linejoin="round" stroke-linecap="round" stroke-width="0.1000" fill="currentColor" stroke="currentColor" points="7.7251 -0.3718 7.7251 0.0082 0.0500 0.1900 0.0500 -0.1900"/>
<polygon transform="translate(86.7366, 25.6675)" stroke-linejoin="round" stroke-linecap="round" stroke-width="0.1000" fill="currentColor" stroke="currentColor" points="7.7251 -0.5536 7.7251 -0.1736 0.0500 0.1900 0.0500 -0.1900"/>
<rect transform="translate(57.8159, 33.1542)" x="0.0000" y="-0.5714" width="0.6600" height="0.1514" ry="0.0466" fill="currentColor"/>
<polygon transform="translate(54.3172, 25.3039)" stroke-linejoin="round" stroke-linecap="round" stroke-width="0.1000" fill="currentColor" stroke="currentColor" points="7.7251 -0.0082 7.7251 0.3718 0.0500 0.1900 0.0500 -0.1900"/>
<rect transform="translate(38.3728, 33.1542)" x="0.0000" y="-0.5714" width="0.6600" height="0.1514" ry="0.0466" fill="currentColor"/>
<polygon transform="translate(35.8663, 24.3039)" stroke-linejoin="round" stroke-linecap="round" stroke-width="0.1000" fill="currentColor" stroke="currentColor" points="7.7251 0.1736 7.7251 0.5536 0.0500 0.1900 0.0500 -0.1900"/>
<polygon transform="translate(20.3688, 25.6675)" stroke-linejoin="round" stroke-linecap="round" stroke-width="0.1000" fill="currentColor" stroke="currentColor" points="7.9751 -1.5536 7.9751 -1.1736 0.0500 0.1900 0.0500 -0.1900"/>
<text transform="translate(14.1895, 33.1542)" font-family="Century Schoolbook L" font-weight="bold" font-size="2.1999" text-anchor="start" fill="currentColor">
<tspan>
1.</tspan>
</text>
<path transform="translate(125.5808, 27.9857) scale(0.0040, -0.0040)" d="M214 140c59 0 115 -32 115 -97c0 -72 -54 -121 -101 -149c-35 -21 -74 -34 -114 -34c-59 0 -114 32 -114 97c0 72 54 121 101 149c35 21 73 34 113 34z" fill="currentColor"/>
<text transform="translate(124.1042, 33.1542)" font-family="Century Schoolbook L" font-size="2.4695" text-anchor="start" fill="currentColor">
<tspan>
and</tspan>
</text>
<rect transform="translate(126.8197, 27.4857)" x="-0.0757" y="-2.1800" width="0.1514" height="2.5069" ry="0.0500" fill="currentColor"/>
<path transform="translate(133.2265, 27.4857) scale(0.0040, -0.0040)" d="M214 140c59 0 115 -32 115 -97c0 -72 -54 -121 -101 -149c-35 -21 -74 -34 -114 -34c-59 0 -114 32 -114 97c0 72 54 121 101 149c35 21 73 34 113 34z" fill="currentColor"/>
<text transform="translate(131.4725, 33.1542)" font-family="Century Schoolbook L" font-size="2.4695" text-anchor="start" fill="currentColor">
<tspan>
live!</tspan>
</text>
<rect transform="translate(133.3022, 27.4857)" x="-0.0757" y="0.1731" width="0.1514" height="3.1602" ry="0.0500" fill="currentColor"/>
<rect transform="translate(20.4445, 27.4857)" x="-0.0757" y="-1.8311" width="0.1514" height="4.1579" ry="0.0500" fill="currentColor"/>
<path transform="translate(42.3268, 27.9857) scale(0.0040, -0.0040)" d="M214 140c59 0 115 -32 115 -97c0 -72 -54 -121 -101 -149c-35 -21 -74 -34 -114 -34c-59 0 -114 32 -114 97c0 72 54 121 101 149c35 21 73 34 113 34z" fill="currentColor"/>
<text transform="translate(40.7435, 33.1542)" font-family="Century Schoolbook L" font-size="2.4695" text-anchor="start" fill="currentColor">
<tspan>
sus,</tspan>
</text>
<rect transform="translate(43.5657, 27.4857)" x="-0.0757" y="-2.8218" width="0.1514" height="3.1486" ry="0.0500" fill="currentColor"/>
<path transform="translate(53.1539, 27.9857) scale(0.0040, -0.0040)" d="M214 140c59 0 115 -32 115 -97c0 -72 -54 -121 -101 -149c-35 -21 -74 -34 -114 -34c-59 0 -114 32 -114 97c0 72 54 121 101 149c35 21 73 34 113 34z" fill="currentColor"/>
<text transform="translate(51.5492, 33.1542)" font-family="Century Schoolbook L" font-size="2.4695" text-anchor="start" fill="currentColor">
<tspan>
wea</tspan>
</text>
<rect transform="translate(54.3928, 27.4857)" x="-0.0757" y="-2.1800" width="0.1514" height="2.5069" ry="0.0500" fill="currentColor"/>
<path transform="translate(27.0793, 27.4857) scale(0.0040, -0.0040)" d="M214 140c59 0 115 -32 115 -97c0 -72 -54 -121 -101 -149c-35 -21 -74 -34 -114 -34c-59 0 -114 32 -114 97c0 72 54 121 101 149c35 21 73 34 113 34z" fill="currentColor"/>
<rect transform="translate(28.3182, 27.4857)" x="-0.0757" y="-3.1689" width="0.1514" height="2.9958" ry="0.0500" fill="currentColor"/>
<text transform="translate(19.2056, 24.6954)" font-family="sans-serif" font-size="1.9603" text-anchor="start" fill="currentColor">
<tspan>
G</tspan>
</text>
<text transform="translate(20.7420, 24.6954)" font-family="sans-serif" font-size="1.9603" text-anchor="start" fill="currentColor">
<tspan/>
</text>
<text transform="translate(20.7420, 24.6954)" font-family="sans-serif" font-size="1.9603" text-anchor="start" fill="currentColor">
<tspan/>
</text>
<text transform="translate(20.7420, 23.8045)" font-family="sans-serif" font-size="1.3858" text-anchor="start" fill="currentColor">
<tspan/>
</text>
<path transform="translate(34.7031, 27.4857) scale(0.0040, -0.0040)" d="M214 140c59 0 115 -32 115 -97c0 -72 -54 -121 -101 -149c-35 -21 -74 -34 -114 -34c-59 0 -114 32 -114 97c0 72 54 121 101 149c35 21 73 34 113 34z" fill="currentColor"/>
<text transform="translate(34.0587, 33.1542)" font-family="Century Schoolbook L" font-size="2.4695" text-anchor="start" fill="currentColor">
<tspan>
Je</tspan>
</text>
<rect transform="translate(35.9420, 27.4857)" x="-0.0757" y="-3.1782" width="0.1514" height="3.0051" ry="0.0500" fill="currentColor"/>
<path transform="translate(19.2056, 29.9857) scale(0.0040, -0.0040)" d="M214 140c59 0 115 -32 115 -97c0 -72 -54 -121 -101 -149c-35 -21 -74 -34 -114 -34c-59 0 -114 32 -114 97c0 72 54 121 101 149c35 21 73 34 113 34z" fill="currentColor"/>
<rect transform="translate(69.6403, 27.4857)" x="-0.0757" y="-2.5000" width="0.1514" height="3.3269" ry="0.0500" fill="currentColor"/>
<text transform="translate(85.5733, 24.6954)" font-family="sans-serif" font-size="1.9603" text-anchor="start" fill="currentColor">
<tspan>
D</tspan>
</text>
<text transform="translate(87.0671, 24.6954)" font-family="sans-serif" font-size="1.9603" text-anchor="start" fill="currentColor">
<tspan/>
</text>
<text transform="translate(87.0671, 24.6954)" font-family="sans-serif" font-size="1.9603" text-anchor="start" fill="currentColor">
<tspan/>
</text>
<text transform="translate(87.0671, 23.8045)" font-family="sans-serif" font-size="1.3858" text-anchor="start" fill="currentColor">
<tspan/>
</text>
<path transform="translate(85.5733, 28.9857) scale(0.0040, -0.0040)" d="M214 140c59 0 115 -32 115 -97c0 -72 -54 -121 -101 -149c-35 -21 -74 -34 -114 -34c-59 0 -114 32 -114 97c0 72 54 121 101 149c35 21 73 34 113 34z" fill="currentColor"/>
<text transform="translate(83.4352, 33.1542)" font-family="Century Schoolbook L" font-size="2.4695" text-anchor="start" fill="currentColor">
<tspan>
Look</tspan>
</text>
<rect transform="translate(86.8123, 27.4857)" x="-0.0757" y="-1.8218" width="0.1514" height="3.1486" ry="0.0500" fill="currentColor"/>
<path transform="translate(9.8338, 28.4857) scale(0.0040, -0.0040)" d="M379 264c3 0 7 1 10 1c157 0 258 -129 258 -263c0 -77 -33 -155 -108 -211c-22 -16 -46 -29 -72 -37c3 -33 4 -66 4 -99c0 -21 0 -41 -1 -62c-7 -121 -91 -229 -211 -229c-108 0 -196 88 -196 197c0 58 54 103 113 103c54 0 95 -47 95 -103c0 -52 -43 -95 -95 -95
c-9 0 -18 1 -27 4c25 -37 66 -61 113 -61c95 0 156 93 162 191c1 19 2 38 2 57c0 29 -1 58 -3 87c-29 -5 -58 -8 -88 -8c-189 0 -333 173 -333 376c0 177 129 308 244 443c-20 62 -40 124 -48 189c-7 52 -7 105 -7 158c0 114 54 221 147 288c4 3 8 4 12 4c5 0 9 -2 13 -5
c72 -83 135 -243 135 -356c0 -142 -84 -255 -176 -364c21 -68 40 -136 57 -205zM463 -201c65 24 110 94 110 161c0 88 -64 175 -167 188c24 -114 44 -227 57 -349zM77 25c0 -133 128 -243 261 -243c27 0 55 1 81 5c-13 126 -35 244 -60 362c-79 -8 -124 -60 -124 -118
c0 -43 25 -88 80 -120c5 -5 7 -11 7 -17c0 -12 -10 -23 -23 -23c-3 0 -7 1 -10 2c-81 43 -118 115 -118 186c0 89 60 177 163 200c-14 57 -30 113 -47 169c-105 -122 -210 -243 -210 -403zM403 1038c-99 -46 -161 -145 -161 -254c0 -71 21 -130 39 -188
c78 97 142 199 142 324c0 51 -4 72 -20 118z" fill="currentColor"/>
<path transform="translate(15.5838, 29.4916) scale(0.0040, -0.0040)" d="M201 296c23 15 46 29 62 51c12 16 20 35 28 52c2 4 6 6 10 6c7 0 14 -5 14 -15v-233h76c11 0 16 -8 16 -16s-5 -16 -16 -16h-76v-2c0 -50 30 -97 77 -97c9 0 12 -7 12 -13s-3 -13 -12 -13c-46 0 -92 13 -138 13s-93 -13 -139 -13c-9 0 -12 7 -12 13s3 13 12 13
c47 0 77 47 77 97v2h-160c-26 0 -34 15 -34 25c0 3 1 6 2 7c79 91 131 205 131 325c0 10 7 18 15 18h3c24 -7 49 -13 74 -13s50 6 74 13c2 1 3 1 5 1c9 0 15 -7 15 -13c0 -2 0 -4 -2 -6l-283 -325h160v115c0 9 1 19 9 24z" fill="currentColor"/>
<path transform="translate(15.6478, 27.4857) scale(0.0040, -0.0040)" d="M26 12c-1 -8 -7 -12 -13 -12c-7 0 -13 5 -13 13c0 174 234 164 234 342c0 58 -16 119 -66 119c-28 0 -55 -13 -55 -38c0 -27 35 -40 35 -67c0 -37 -31 -67 -68 -67s-67 30 -67 67c0 77 73 131 155 131c97 0 189 -56 189 -145c0 -148 -144 -158 -242 -213c6 1 11 1 17 1
c34 0 72 -12 108 -38c20 -14 43 -22 63 -22c22 0 40 10 45 30c2 7 7 10 12 10c7 0 13 -5 13 -13v-4c-18 -67 -81 -106 -142 -106c-37 0 -73 14 -98 45c-12 15 -29 23 -46 23c-29 0 -58 -21 -61 -56z" fill="currentColor"/>
<path transform="translate(60.7777, 28.4857) scale(0.0040, -0.0040)" d="M214 140c59 0 115 -32 115 -97c0 -72 -54 -121 -101 -149c-35 -21 -74 -34 -114 -34c-59 0 -114 32 -114 97c0 72 54 121 101 149c35 21 73 34 113 34z" fill="currentColor"/>
<text transform="translate(60.2186, 33.1542)" font-family="Century Schoolbook L" font-size="2.4695" text-anchor="start" fill="currentColor">
<tspan>
ry</tspan>
</text>
<rect transform="translate(62.0166, 27.4857)" x="-0.0757" y="-2.0018" width="0.1514" height="2.8286" ry="0.0500" fill="currentColor"/>
<path transform="translate(13.3337, 25.4857) scale(0.0040, -0.0040)" d="M198 -329c-12 0 -21 9 -21 21v138l-79 -30v-154c0 -12 -9 -21 -21 -21s-21 9 -21 21v138l-22 -8c-3 -1 -6 -2 -9 -2c-13 0 -25 11 -25 25v54c0 10 6 20 16 24l40 15v155l-22 -9c-3 -1 -6 -1 -9 -1c-13 0 -25 11 -25 25v54c0 10 6 19 16 23l40 15v154c0 12 9 21 21 21
s21 -9 21 -21v-138l79 30v154c0 12 9 21 21 21s21 -9 21 -21v-138l22 8c3 1 6 2 9 2c13 0 25 -11 25 -25v-54c0 -10 -6 -20 -16 -24l-40 -15v-155l22 9c3 1 6 1 9 1c13 0 25 -11 25 -25v-54c0 -10 -6 -19 -16 -23l-40 -15v-154c0 -12 -9 -21 -21 -21zM98 62v-154l79 30v154z
" fill="currentColor"/>
<path transform="translate(68.4014, 28.4857) scale(0.0040, -0.0040)" d="M214 140c59 0 115 -32 115 -97c0 -72 -54 -121 -101 -149c-35 -21 -74 -34 -114 -34c-59 0 -114 32 -114 97c0 72 54 121 101 149c35 21 73 34 113 34z" fill="currentColor"/>
<text transform="translate(66.7327, 33.1542)" font-family="Century Schoolbook L" font-size="2.4695" text-anchor="start" fill="currentColor">
<tspan>
one,</tspan>
</text>
<rect transform="translate(85.9183, 39.4857)" x="0.0000" y="-2.0000" width="0.2212" height="4.0000" ry="0.0000" fill="currentColor"/>
<line transform="translate(9.0337, 41.4857)" stroke-linejoin="round" stroke-linecap="round" stroke-width="0.1164" stroke="currentColor" x1="0.0582" y1="-0.0000" x2="138.1582" y2="-0.0000"/>
<line transform="translate(9.0337, 40.4857)" stroke-linejoin="round" stroke-linecap="round" stroke-width="0.1164" stroke="currentColor" x1="0.0582" y1="-0.0000" x2="138.1582" y2="-0.0000"/>
<line transform="translate(9.0337, 39.4857)" stroke-linejoin="round" stroke-linecap="round" stroke-width="0.1164" stroke="currentColor" x1="0.0582" y1="-0.0000" x2="138.1582" y2="-0.0000"/>
<line transform="translate(9.0337, 38.4857)" stroke-linejoin="round" stroke-linecap="round" stroke-width="0.1164" stroke="currentColor" x1="0.0582" y1="-0.0000" x2="138.1582" y2="-0.0000"/>
<line transform="translate(9.0337, 37.4857)" stroke-linejoin="round" stroke-linecap="round" stroke-width="0.1164" stroke="currentColor" x1="0.0582" y1="-0.0000" x2="138.1582" y2="-0.0000"/>
<rect transform="translate(147.0289, 39.4857)" x="0.0000" y="-2.0000" width="0.2212" height="4.0000" ry="0.0000" fill="currentColor"/>
<rect transform="translate(120.1909, 39.4857)" x="0.0000" y="-2.0000" width="0.2212" height="4.0000" ry="0.0000" fill="currentColor"/>
<rect transform="translate(50.5453, 39.4857)" x="0.0000" y="-2.0000" width="0.2212" height="4.0000" ry="0.0000" fill="currentColor"/>
<path transform="translate(104.7416, 39.9857) scale(0.0040, -0.0040)" d="M214 140c59 0 115 -32 115 -97c0 -72 -54 -121 -101 -149c-35 -21 -74 -34 -114 -34c-59 0 -114 32 -114 97c0 72 54 121 101 149c35 21 73 34 113 34z" fill="currentColor"/>
<text transform="translate(103.2650, 44.9857)" font-family="Century Schoolbook L" font-size="2.4695" text-anchor="start" fill="currentColor">
<tspan>
and</tspan>
</text>
<rect transform="translate(105.9805, 39.4857)" x="-0.0757" y="-3.0000" width="0.1514" height="3.3269" ry="0.0500" fill="currentColor"/>
<text transform="translate(124.4812, 36.4430)" font-family="sans-serif" font-size="1.9603" text-anchor="start" fill="currentColor">
<tspan>
G</tspan>
</text>
<text transform="translate(126.0176, 36.4430)" font-family="sans-serif" font-size="1.9603" text-anchor="start" fill="currentColor">
<tspan/>
</text>
<text transform="translate(126.0176, 36.4430)" font-family="sans-serif" font-size="1.9603" text-anchor="start" fill="currentColor">
<tspan/>
</text>
<text transform="translate(126.0176, 35.5521)" font-family="sans-serif" font-size="1.3858" text-anchor="start" fill="currentColor">
<tspan/>
</text>
<path transform="translate(124.4812, 40.4857) scale(0.0040, -0.0040)" d="M312 63c0 23 -20 40 -41 40c-4 0 -7 -1 -11 -2c-30 -8 -75 -38 -111 -61s-81 -52 -101 -76c-7 -8 -10 -17 -10 -27c0 -23 19 -40 40 -40c4 0 8 1 12 2c30 8 75 38 111 61s81 52 101 76c7 8 10 17 10 27zM258 140c51 0 92 -23 92 -78c0 -19 -4 -38 -10 -56
c-11 -38 -31 -75 -64 -97c-53 -36 -112 -49 -185 -49c-51 0 -91 23 -91 78c0 19 4 38 10 56c11 38 30 75 63 97c53 36 112 49 185 49z" fill="currentColor"/>
<path transform="translate(70.4333, 40.4857) scale(0.0040, -0.0040)" d="M214 140c59 0 115 -32 115 -97c0 -72 -54 -121 -101 -149c-35 -21 -74 -34 -114 -34c-59 0 -114 32 -114 97c0 72 54 121 101 149c35 21 73 34 113 34z" fill="currentColor"/>
<text transform="translate(68.0604, 44.9857)" font-family="Century Schoolbook L" font-size="2.4695" text-anchor="start" fill="currentColor">
<tspan>
done,</tspan>
</text>
<rect transform="translate(71.6722, 39.4857)" x="-0.0757" y="-2.5000" width="0.1514" height="3.3269" ry="0.0500" fill="currentColor"/>
<text transform="translate(89.2085, 36.4430)" font-family="sans-serif" font-size="1.9603" text-anchor="start" fill="currentColor">
<tspan>
D</tspan>
</text>
<text transform="translate(90.7023, 36.4430)" font-family="sans-serif" font-size="1.9603" text-anchor="start" fill="currentColor">
<tspan/>
</text>
<text transform="translate(90.7023, 36.4430)" font-family="sans-serif" font-size="1.9603" text-anchor="start" fill="currentColor">
<tspan/>
</text>
<text transform="translate(90.7023, 35.5521)" font-family="sans-serif" font-size="1.3858" text-anchor="start" fill="currentColor">
<tspan/>
</text>
<text transform="translate(90.7023, 35.5521)" font-family="sans-serif" font-size="1.3858" text-anchor="start" fill="currentColor">
<tspan>
7</tspan>
</text>
<path transform="translate(89.2085, 40.9857) scale(0.0040, -0.0040)" d="M214 140c59 0 115 -32 115 -97c0 -72 -54 -121 -101 -149c-35 -21 -74 -34 -114 -34c-59 0 -114 32 -114 97c0 72 54 121 101 149c35 21 73 34 113 34z" fill="currentColor"/>
<text transform="translate(87.0704, 44.9857)" font-family="Century Schoolbook L" font-size="2.4695" text-anchor="start" fill="currentColor">
<tspan>
Look</tspan>
</text>
<rect transform="translate(90.4475, 39.4857)" x="-0.0757" y="-2.0000" width="0.1514" height="3.3269" ry="0.0500" fill="currentColor"/>
<polygon transform="translate(54.9989, 37.3039)" stroke-linejoin="round" stroke-linecap="round" stroke-width="0.1000" fill="currentColor" stroke="currentColor" points="8.4002 -0.0082 8.4002 0.3718 0.0500 0.1900 0.0500 -0.1900"/>
<polygon transform="translate(34.9447, 36.3039)" stroke-linejoin="round" stroke-linecap="round" stroke-width="0.1000" fill="currentColor" stroke="currentColor" points="8.4002 0.1736 8.4002 0.5536 0.0500 0.1900 0.0500 -0.1900"/>
<polygon transform="translate(18.0970, 38.3039)" stroke-linejoin="round" stroke-linecap="round" stroke-width="0.1000" fill="currentColor" stroke="currentColor" points="8.6502 -1.8264 8.6502 -1.4464 0.0500 0.1900 0.0500 -0.1900"/>
<text transform="translate(122.7691, 44.9857)" font-family="Century Schoolbook L" font-size="2.4695" text-anchor="start" fill="currentColor">
<tspan>
live!</tspan>
</text>
<rect transform="translate(125.8040, 39.4857)" x="-0.0757" y="-2.5000" width="0.1514" height="3.2518" ry="0.0500" fill="currentColor"/>
<path transform="translate(42.0803, 39.9857) scale(0.0040, -0.0040)" d="M214 140c59 0 115 -32 115 -97c0 -72 -54 -121 -101 -149c-35 -21 -74 -34 -114 -34c-59 0 -114 32 -114 97c0 72 54 121 101 149c35 21 73 34 113 34z" fill="currentColor"/>
<path transform="translate(16.9338, 41.9857) scale(0.0040, -0.0040)" d="M214 140c59 0 115 -32 115 -97c0 -72 -54 -121 -101 -149c-35 -21 -74 -34 -114 -34c-59 0 -114 32 -114 97c0 72 54 121 101 149c35 21 73 34 113 34z" fill="currentColor"/>
<text transform="translate(14.7956, 44.9857)" font-family="Century Schoolbook L" font-size="2.4695" text-anchor="start" fill="currentColor">
<tspan>
Look</tspan>
</text>
<rect transform="translate(18.1727, 39.4857)" x="-0.0757" y="-1.1960" width="0.1514" height="3.5229" ry="0.0500" fill="currentColor"/>
<path transform="translate(25.4826, 39.4857) scale(0.0040, -0.0040)" d="M214 140c59 0 115 -32 115 -97c0 -72 -54 -121 -101 -149c-35 -21 -74 -34 -114 -34c-59 0 -114 32 -114 97c0 72 54 121 101 149c35 21 73 34 113 34z" fill="currentColor"/>
<text transform="translate(24.9662, 44.9857)" font-family="Century Schoolbook L" font-size="2.4695" text-anchor="start" fill="currentColor">
<tspan>
at</tspan>
</text>
<rect transform="translate(26.7215, 39.4857)" x="-0.0757" y="-2.8040" width="0.1514" height="2.6308" ry="0.0500" fill="currentColor"/>
<path transform="translate(33.7814, 39.4857) scale(0.0040, -0.0040)" d="M214 140c59 0 115 -32 115 -97c0 -72 -54 -121 -101 -149c-35 -21 -74 -34 -114 -34c-59 0 -114 32 -114 97c0 72 54 121 101 149c35 21 73 34 113 34z" fill="currentColor"/>
<text transform="translate(31.5579, 44.9857)" font-family="Century Schoolbook L" font-size="2.4695" text-anchor="start" fill="currentColor">
<tspan>
what</tspan>
</text>
<rect transform="translate(35.0204, 39.4857)" x="-0.0757" y="-3.1785" width="0.1514" height="3.0054" ry="0.0500" fill="currentColor"/>
<text transform="translate(8.0521, 36.3930)" font-family="Century Schoolbook L" font-size="1.7463" text-anchor="start" fill="currentColor">
<tspan>
5</tspan>
</text>
<path transform="translate(9.8338, 40.4857) scale(0.0040, -0.0040)" d="M379 264c3 0 7 1 10 1c157 0 258 -129 258 -263c0 -77 -33 -155 -108 -211c-22 -16 -46 -29 -72 -37c3 -33 4 -66 4 -99c0 -21 0 -41 -1 -62c-7 -121 -91 -229 -211 -229c-108 0 -196 88 -196 197c0 58 54 103 113 103c54 0 95 -47 95 -103c0 -52 -43 -95 -95 -95
c-9 0 -18 1 -27 4c25 -37 66 -61 113 -61c95 0 156 93 162 191c1 19 2 38 2 57c0 29 -1 58 -3 87c-29 -5 -58 -8 -88 -8c-189 0 -333 173 -333 376c0 177 129 308 244 443c-20 62 -40 124 -48 189c-7 52 -7 105 -7 158c0 114 54 221 147 288c4 3 8 4 12 4c5 0 9 -2 13 -5
c72 -83 135 -243 135 -356c0 -142 -84 -255 -176 -364c21 -68 40 -136 57 -205zM463 -201c65 24 110 94 110 161c0 88 -64 175 -167 188c24 -114 44 -227 57 -349zM77 25c0 -133 128 -243 261 -243c27 0 55 1 81 5c-13 126 -35 244 -60 362c-79 -8 -124 -60 -124 -118
c0 -43 25 -88 80 -120c5 -5 7 -11 7 -17c0 -12 -10 -23 -23 -23c-3 0 -7 1 -10 2c-81 43 -118 115 -118 186c0 89 60 177 163 200c-14 57 -30 113 -47 169c-105 -122 -210 -243 -210 -403zM403 1038c-99 -46 -161 -145 -161 -254c0 -71 21 -130 39 -188
c78 97 142 199 142 324c0 51 -4 72 -20 118z" fill="currentColor"/>
<path transform="translate(13.3337, 37.4857) scale(0.0040, -0.0040)" d="M198 -329c-12 0 -21 9 -21 21v138l-79 -30v-154c0 -12 -9 -21 -21 -21s-21 9 -21 21v138l-22 -8c-3 -1 -6 -2 -9 -2c-13 0 -25 11 -25 25v54c0 10 6 20 16 24l40 15v155l-22 -9c-3 -1 -6 -1 -9 -1c-13 0 -25 11 -25 25v54c0 10 6 19 16 23l40 15v154c0 12 9 21 21 21
s21 -9 21 -21v-138l79 30v154c0 12 9 21 21 21s21 -9 21 -21v-138l22 8c3 1 6 2 9 2c13 0 25 -11 25 -25v-54c0 -10 -6 -20 -16 -24l-40 -15v-155l22 9c3 1 6 1 9 1c13 0 25 -11 25 -25v-54c0 -10 -6 -19 -16 -23l-40 -15v-154c0 -12 -9 -21 -21 -21zM98 62v-154l79 30v154z
" fill="currentColor"/>
<text transform="translate(51.7828, 44.9857)" font-family="Century Schoolbook L" font-size="2.4695" text-anchor="start" fill="currentColor">
<tspan>
Lord</tspan>
</text>
<rect transform="translate(55.0745, 39.4857)" x="-0.0757" y="-2.1802" width="0.1514" height="2.5070" ry="0.0500" fill="currentColor"/>
<path transform="translate(62.1344, 40.4857) scale(0.0040, -0.0040)" d="M214 140c59 0 115 -32 115 -97c0 -72 -54 -121 -101 -149c-35 -21 -74 -34 -114 -34c-59 0 -114 32 -114 97c0 72 54 121 101 149c35 21 73 34 113 34z" fill="currentColor"/>
<text transform="translate(60.7858, 44.9857)" font-family="Century Schoolbook L" font-size="2.4695" text-anchor="start" fill="currentColor">
<tspan>
has</tspan>
</text>
<rect transform="translate(63.3734, 39.4857)" x="-0.0757" y="-2.0016" width="0.1514" height="2.8285" ry="0.0500" fill="currentColor"/>
<text transform="translate(40.8810, 44.9857)" font-family="Century Schoolbook L" font-size="2.4695" text-anchor="start" fill="currentColor">
<tspan>
the</tspan>
</text>
<rect transform="translate(43.3192, 39.4857)" x="-0.0757" y="-2.8215" width="0.1514" height="3.1483" ry="0.0500" fill="currentColor"/>
<path transform="translate(53.8356, 39.9857) scale(0.0040, -0.0040)" d="M214 140c59 0 115 -32 115 -97c0 -72 -54 -121 -101 -149c-35 -21 -74 -34 -114 -34c-59 0 -114 32 -114 97c0 72 54 121 101 149c35 21 73 34 113 34z" fill="currentColor"/>
<line transform="translate(9.0337, 53.4857)" stroke-linejoin="round" stroke-linecap="round" stroke-width="0.1164" stroke="currentColor" x1="0.0582" y1="-0.0000" x2="138.1582" y2="-0.0000"/>
<line transform="translate(9.0337, 52.4857)" stroke-linejoin="round" stroke-linecap="round" stroke-width="0.1164" stroke="currentColor" x1="0.0582" y1="-0.0000" x2="138.1582" y2="-0.0000"/>
<line transform="translate(9.0337, 51.4857)" stroke-linejoin="round" stroke-linecap="round" stroke-width="0.1164" stroke="currentColor" x1="0.0582" y1="-0.0000" x2="138.1582" y2="-0.0000"/>
<line transform="translate(9.0337, 50.4857)" stroke-linejoin="round" stroke-linecap="round" stroke-width="0.1164" stroke="currentColor" x1="0.0582" y1="-0.0000" x2="138.1582" y2="-0.0000"/>
<line transform="translate(9.0337, 49.4857)" stroke-linejoin="round" stroke-linecap="round" stroke-width="0.1164" stroke="currentColor" x1="0.0582" y1="-0.0000" x2="138.1582" y2="-0.0000"/>
<rect transform="translate(147.0289, 51.4857)" x="0.0000" y="-2.0000" width="0.2212" height="4.0000" ry="0.0000" fill="currentColor"/>
<rect transform="translate(114.3395, 51.4857)" x="0.0000" y="-2.0000" width="0.2212" height="4.0000" ry="0.0000" fill="currentColor"/>
<rect transform="translate(81.3754, 51.4857)" x="0.0000" y="-2.0000" width="0.2212" height="4.0000" ry="0.0000" fill="currentColor"/>
<rect transform="translate(48.3756, 51.4857)" x="0.0000" y="-2.0000" width="0.2212" height="4.0000" ry="0.0000" fill="currentColor"/>
<path transform="translate(66.9753, 52.4857) scale(0.0040, -0.0040)" d="M214 140c59 0 115 -32 115 -97c0 -72 -54 -121 -101 -149c-35 -21 -74 -34 -114 -34c-59 0 -114 32 -114 97c0 72 54 121 101 149c35 21 73 34 113 34z" fill="currentColor"/>
<text transform="translate(65.0078, 57.1542)" font-family="Century Schoolbook L" font-size="2.4695" text-anchor="start" fill="currentColor">
<tspan>
tree,</tspan>
</text>
<rect transform="translate(68.2142, 51.4857)" x="-0.0757" y="-2.5000" width="0.1514" height="3.3269" ry="0.0500" fill="currentColor"/>
<text transform="translate(84.4623, 48.6955)" font-family="sans-serif" font-size="1.9603" text-anchor="start" fill="currentColor">
<tspan>
D</tspan>
</text>
<text transform="translate(85.9561, 48.6955)" font-family="sans-serif" font-size="1.9603" text-anchor="start" fill="currentColor">
<tspan/>
</text>
<text transform="translate(85.9561, 48.6955)" font-family="sans-serif" font-size="1.9603" text-anchor="start" fill="currentColor">
<tspan/>
</text>
<text transform="translate(85.9561, 47.8046)" font-family="sans-serif" font-size="1.3858" text-anchor="start" fill="currentColor">
<tspan/>
</text>
<path transform="translate(84.4623, 52.9857) scale(0.0040, -0.0040)" d="M214 140c59 0 115 -32 115 -97c0 -72 -54 -121 -101 -149c-35 -21 -74 -34 -114 -34c-59 0 -114 32 -114 97c0 72 54 121 101 149c35 21 73 34 113 34z" fill="currentColor"/>
<text transform="translate(82.3241, 57.1542)" font-family="Century Schoolbook L" font-size="2.4695" text-anchor="start" fill="currentColor">
<tspan>
Look</tspan>
</text>
<rect transform="translate(85.7012, 51.4857)" x="-0.0757" y="-1.8217" width="0.1514" height="3.1485" ry="0.0500" fill="currentColor"/>
<rect transform="translate(52.7014, 51.4857)" x="-0.0757" y="-2.1800" width="0.1514" height="2.5069" ry="0.0500" fill="currentColor"/>
<text transform="translate(16.9338, 48.6955)" font-family="sans-serif" font-size="1.9603" text-anchor="start" fill="currentColor">
<tspan>
G</tspan>
</text>
<text transform="translate(18.4702, 48.6955)" font-family="sans-serif" font-size="1.9603" text-anchor="start" fill="currentColor">
<tspan/>
</text>
<text transform="translate(18.4702, 48.6955)" font-family="sans-serif" font-size="1.9603" text-anchor="start" fill="currentColor">
<tspan/>
</text>
<text transform="translate(18.4702, 47.8046)" font-family="sans-serif" font-size="1.3858" text-anchor="start" fill="currentColor">
<tspan/>
</text>
<path transform="translate(59.2189, 52.4857) scale(0.0040, -0.0040)" d="M214 140c59 0 115 -32 115 -97c0 -72 -54 -121 -101 -149c-35 -21 -74 -34 -114 -34c-59 0 -114 32 -114 97c0 72 54 121 101 149c35 21 73 34 113 34z" fill="currentColor"/>
<text transform="translate(58.0197, 57.1542)" font-family="Century Schoolbook L" font-size="2.4695" text-anchor="start" fill="currentColor">
<tspan>
the</tspan>
</text>
<rect transform="translate(60.4578, 51.4857)" x="-0.0757" y="-2.0017" width="0.1514" height="2.8286" ry="0.0500" fill="currentColor"/>
<rect transform="translate(118.6654, 51.4857)" x="-0.0757" y="-2.0017" width="0.1514" height="2.8286" ry="0.0500" fill="currentColor"/>
<polygon transform="translate(118.5897, 49.4857)" stroke-linejoin="round" stroke-linecap="round" stroke-width="0.1000" fill="currentColor" stroke="currentColor" points="7.8578 -0.3718 7.8578 0.0082 0.0500 0.1900 0.0500 -0.1900"/>
<polygon transform="translate(85.6256, 49.6675)" stroke-linejoin="round" stroke-linecap="round" stroke-width="0.1000" fill="currentColor" stroke="currentColor" points="7.8578 -0.5536 7.8578 -0.1736 0.0500 0.1900 0.0500 -0.1900"/>
<polygon transform="translate(52.6257, 49.3039)" stroke-linejoin="round" stroke-linecap="round" stroke-width="0.1000" fill="currentColor" stroke="currentColor" points="7.8578 -0.0082 7.8578 0.3718 0.0500 0.1900 0.0500 -0.1900"/>
<rect transform="translate(37.0728, 57.1542)" x="0.0000" y="-0.5714" width="0.6600" height="0.1514" ry="0.0466" fill="currentColor"/>
<polygon transform="translate(33.8598, 48.3039)" stroke-linejoin="round" stroke-linecap="round" stroke-width="0.1000" fill="currentColor" stroke="currentColor" points="7.8578 0.1736 7.8578 0.5536 0.0500 0.1900 0.0500 -0.1900"/>
<polygon transform="translate(18.0970, 49.6675)" stroke-linejoin="round" stroke-linecap="round" stroke-width="0.1000" fill="currentColor" stroke="currentColor" points="8.1078 -1.5536 8.1078 -1.1736 0.0500 0.1900 0.0500 -0.1900"/>
<rect transform="translate(26.1791, 51.4857)" x="-0.0757" y="-3.1691" width="0.1514" height="2.9960" ry="0.0500" fill="currentColor"/>
<path transform="translate(92.2187, 52.4857) scale(0.0040, -0.0040)" d="M214 140c59 0 115 -32 115 -97c0 -72 -54 -121 -101 -149c-35 -21 -74 -34 -114 -34c-59 0 -114 32 -114 97c0 72 54 121 101 149c35 21 73 34 113 34z" fill="currentColor"/>
<text transform="translate(90.7421, 57.1542)" font-family="Century Schoolbook L" font-size="2.4695" text-anchor="start" fill="currentColor">
<tspan>
and</tspan>
</text>
<rect transform="translate(93.4577, 51.4857)" x="-0.0757" y="-2.1783" width="0.1514" height="3.0052" ry="0.0500" fill="currentColor"/>
<path transform="translate(99.9751, 51.9857) scale(0.0040, -0.0040)" d="M214 140c59 0 115 -32 115 -97c0 -72 -54 -121 -101 -149c-35 -21 -74 -34 -114 -34c-59 0 -114 32 -114 97c0 72 54 121 101 149c35 21 73 34 113 34z" fill="currentColor"/>
<text transform="translate(98.2211, 57.1542)" font-family="Century Schoolbook L" font-size="2.4695" text-anchor="start" fill="currentColor">
<tspan>
live!</tspan>
</text>
<rect transform="translate(101.2141, 51.4857)" x="-0.0757" y="-3.0000" width="0.1514" height="3.3269" ry="0.0500" fill="currentColor"/>
<text transform="translate(117.4264, 48.6955)" font-family="sans-serif" font-size="1.9603" text-anchor="start" fill="currentColor">
<tspan>
G</tspan>
</text>
<text transform="translate(118.9629, 48.6955)" font-family="sans-serif" font-size="1.9603" text-anchor="start" fill="currentColor">
<tspan/>
</text>
<text transform="translate(118.9629, 48.6955)" font-family="sans-serif" font-size="1.9603" text-anchor="start" fill="currentColor">
<tspan/>
</text>
<text transform="translate(118.9629, 47.8046)" font-family="sans-serif" font-size="1.3858" text-anchor="start" fill="currentColor">
<tspan/>
</text>
<path transform="translate(117.4264, 52.4857) scale(0.0040, -0.0040)" d="M214 140c59 0 115 -32 115 -97c0 -72 -54 -121 -101 -149c-35 -21 -74 -34 -114 -34c-59 0 -114 32 -114 97c0 72 54 121 101 149c35 21 73 34 113 34z" fill="currentColor"/>
<text transform="translate(115.7364, 57.1542)" font-family="Century Schoolbook L" font-size="2.4695" text-anchor="start" fill="currentColor">
<tspan>
look</tspan>
</text>
<path transform="translate(16.9338, 53.9857) scale(0.0040, -0.0040)" d="M214 140c59 0 115 -32 115 -97c0 -72 -54 -121 -101 -149c-35 -21 -74 -34 -114 -34c-59 0 -114 32 -114 97c0 72 54 121 101 149c35 21 73 34 113 34z" fill="currentColor"/>
<path transform="translate(125.1828, 51.9857) scale(0.0040, -0.0040)" d="M214 140c59 0 115 -32 115 -97c0 -72 -54 -121 -101 -149c-35 -21 -74 -34 -114 -34c-59 0 -114 32 -114 97c0 72 54 121 101 149c35 21 73 34 113 34z" fill="currentColor"/>
<text transform="translate(123.7062, 57.1542)" font-family="Century Schoolbook L" font-size="2.4695" text-anchor="start" fill="currentColor">
<tspan>
and</tspan>
</text>
<rect transform="translate(126.4218, 51.4857)" x="-0.0757" y="-2.1800" width="0.1514" height="2.5069" ry="0.0500" fill="currentColor"/>
<path transform="translate(132.9612, 51.4857) scale(0.0040, -0.0040)" d="M214 140c59 0 115 -32 115 -97c0 -72 -54 -121 -101 -149c-35 -21 -74 -34 -114 -34c-59 0 -114 32 -114 97c0 72 54 121 101 149c35 21 73 34 113 34z" fill="currentColor"/>
<text transform="translate(131.2071, 57.1542)" font-family="Century Schoolbook L" font-size="2.4695" text-anchor="start" fill="currentColor">
<tspan>
live!</tspan>
</text>
<rect transform="translate(133.0369, 51.4857)" x="-0.0757" y="0.1731" width="0.1514" height="3.1602" ry="0.0500" fill="currentColor"/>
<text transform="translate(8.0521, 48.3930)" font-family="Century Schoolbook L" font-size="1.7463" text-anchor="start" fill="currentColor">
<tspan>
9</tspan>
</text>
<path transform="translate(9.8338, 52.4857) scale(0.0040, -0.0040)" d="M379 264c3 0 7 1 10 1c157 0 258 -129 258 -263c0 -77 -33 -155 -108 -211c-22 -16 -46 -29 -72 -37c3 -33 4 -66 4 -99c0 -21 0 -41 -1 -62c-7 -121 -91 -229 -211 -229c-108 0 -196 88 -196 197c0 58 54 103 113 103c54 0 95 -47 95 -103c0 -52 -43 -95 -95 -95
c-9 0 -18 1 -27 4c25 -37 66 -61 113 -61c95 0 156 93 162 191c1 19 2 38 2 57c0 29 -1 58 -3 87c-29 -5 -58 -8 -88 -8c-189 0 -333 173 -333 376c0 177 129 308 244 443c-20 62 -40 124 -48 189c-7 52 -7 105 -7 158c0 114 54 221 147 288c4 3 8 4 12 4c5 0 9 -2 13 -5
c72 -83 135 -243 135 -356c0 -142 -84 -255 -176 -364c21 -68 40 -136 57 -205zM463 -201c65 24 110 94 110 161c0 88 -64 175 -167 188c24 -114 44 -227 57 -349zM77 25c0 -133 128 -243 261 -243c27 0 55 1 81 5c-13 126 -35 244 -60 362c-79 -8 -124 -60 -124 -118
c0 -43 25 -88 80 -120c5 -5 7 -11 7 -17c0 -12 -10 -23 -23 -23c-3 0 -7 1 -10 2c-81 43 -118 115 -118 186c0 89 60 177 163 200c-14 57 -30 113 -47 169c-105 -122 -210 -243 -210 -403zM403 1038c-99 -46 -161 -145 -161 -254c0 -71 21 -130 39 -188
c78 97 142 199 142 324c0 51 -4 72 -20 118z" fill="currentColor"/>
<path transform="translate(13.3337, 49.4857) scale(0.0040, -0.0040)" d="M198 -329c-12 0 -21 9 -21 21v138l-79 -30v-154c0 -12 -9 -21 -21 -21s-21 9 -21 21v138l-22 -8c-3 -1 -6 -2 -9 -2c-13 0 -25 11 -25 25v54c0 10 6 20 16 24l40 15v155l-22 -9c-3 -1 -6 -1 -9 -1c-13 0 -25 11 -25 25v54c0 10 6 19 16 23l40 15v154c0 12 9 21 21 21
s21 -9 21 -21v-138l79 30v154c0 12 9 21 21 21s21 -9 21 -21v-138l22 8c3 1 6 2 9 2c13 0 25 -11 25 -25v-54c0 -10 -6 -20 -16 -24l-40 -15v-155l22 9c3 1 6 1 9 1c13 0 25 -11 25 -25v-54c0 -10 -6 -19 -16 -23l-40 -15v-154c0 -12 -9 -21 -21 -21zM98 62v-154l79 30v154z
" fill="currentColor"/>
<text transform="translate(23.1007, 57.1542)" font-family="Century Schoolbook L" font-size="2.4695" text-anchor="start" fill="currentColor">
<tspan>
Him</tspan>
</text>
<rect transform="translate(18.1727, 51.4857)" x="-0.0757" y="-1.8309" width="0.1514" height="4.1577" ry="0.0500" fill="currentColor"/>
<text transform="translate(15.5851, 57.1542)" font-family="Century Schoolbook L" font-size="2.4695" text-anchor="start" fill="currentColor">
<tspan>
See</tspan>
</text>
<path transform="translate(40.4530, 51.9857) scale(0.0040, -0.0040)" d="M214 140c59 0 115 -32 115 -97c0 -72 -54 -121 -101 -149c-35 -21 -74 -34 -114 -34c-59 0 -114 32 -114 97c0 72 54 121 101 149c35 21 73 34 113 34z" fill="currentColor"/>
<text transform="translate(39.7872, 57.1542)" font-family="Century Schoolbook L" font-size="2.4695" text-anchor="start" fill="currentColor">
<tspan>
ed</tspan>
</text>
<rect transform="translate(41.6919, 51.4857)" x="-0.0757" y="-2.8217" width="0.1514" height="3.1485" ry="0.0500" fill="currentColor"/>
<path transform="translate(51.4625, 51.9857) scale(0.0040, -0.0040)" d="M214 140c59 0 115 -32 115 -97c0 -72 -54 -121 -101 -149c-35 -21 -74 -34 -114 -34c-59 0 -114 32 -114 97c0 72 54 121 101 149c35 21 73 34 113 34z" fill="currentColor"/>
<text transform="translate(50.7541, 57.1542)" font-family="Century Schoolbook L" font-size="2.4695" text-anchor="start" fill="currentColor">
<tspan>
on</tspan>
</text>
<rect transform="translate(33.9355, 51.4857)" x="-0.0757" y="-3.1783" width="0.1514" height="3.0052" ry="0.0500" fill="currentColor"/>
<text transform="translate(31.6894, 57.1542)" font-family="Century Schoolbook L" font-size="2.4695" text-anchor="start" fill="currentColor">
<tspan>
lift</tspan>
</text>
<path transform="translate(32.6966, 51.4857) scale(0.0040, -0.0040)" d="M214 140c59 0 115 -32 115 -97c0 -72 -54 -121 -101 -149c-35 -21 -74 -34 -114 -34c-59 0 -114 32 -114 97c0 72 54 121 101 149c35 21 73 34 113 34z" fill="currentColor"/>
<path transform="translate(24.9402, 51.4857) scale(0.0040, -0.0040)" d="M214 140c59 0 115 -32 115 -97c0 -72 -54 -121 -101 -149c-35 -21 -74 -34 -114 -34c-59 0 -114 32 -114 97c0 72 54 121 101 149c35 21 73 34 113 34z" fill="currentColor"/>
<line transform="translate(9.0337, 65.4857)" stroke-linejoin="round" stroke-linecap="round" stroke-width="0.1164" stroke="currentColor" x1="0.0582" y1="-0.0000" x2="138.1582" y2="-0.0000"/>
<line transform="translate(9.0337, 64.4857)" stroke-linejoin="round" stroke-linecap="round" stroke-width="0.1164" stroke="currentColor" x1="0.0582" y1="-0.0000" x2="138.1582" y2="-0.0000"/>
<line transform="translate(9.0337, 63.4857)" stroke-linejoin="round" stroke-linecap="round" stroke-width="0.1164" stroke="currentColor" x1="0.0582" y1="-0.0000" x2="138.1582" y2="-0.0000"/>
<line transform="translate(9.0337, 62.4857)" stroke-linejoin="round" stroke-linecap="round" stroke-width="0.1164" stroke="currentColor" x1="0.0582" y1="-0.0000" x2="138.1582" y2="-0.0000"/>
<line transform="translate(9.0337, 61.4857)" stroke-linejoin="round" stroke-linecap="round" stroke-width="0.1164" stroke="currentColor" x1="0.0582" y1="-0.0000" x2="138.1582" y2="-0.0000"/>
<rect transform="translate(85.9183, 63.4857)" x="0.0000" y="-2.0000" width="0.2212" height="4.0000" ry="0.0000" fill="currentColor"/>
<rect transform="translate(50.5453, 63.4857)" x="0.0000" y="-2.0000" width="0.2212" height="4.0000" ry="0.0000" fill="currentColor"/>
<rect transform="translate(120.1909, 63.4857)" x="0.0000" y="-2.0000" width="0.2212" height="4.0000" ry="0.0000" fill="currentColor"/>
<rect transform="translate(147.0289, 63.4857)" x="0.0000" y="-2.0000" width="0.2212" height="4.0000" ry="0.0000" fill="currentColor"/>
<path transform="translate(70.4333, 64.4857) scale(0.0040, -0.0040)" d="M214 140c59 0 115 -32 115 -97c0 -72 -54 -121 -101 -149c-35 -21 -74 -34 -114 -34c-59 0 -114 32 -114 97c0 72 54 121 101 149c35 21 73 34 113 34z" fill="currentColor"/>
<text transform="translate(68.4445, 68.8368)" font-family="Century Schoolbook L" font-size="2.4695" text-anchor="start" fill="currentColor">
<tspan>
Me!”</tspan>
</text>
<rect transform="translate(71.6722, 63.4857)" x="-0.0757" y="-2.5000" width="0.1514" height="3.3269" ry="0.0500" fill="currentColor"/>
<text transform="translate(89.2085, 60.4430)" font-family="sans-serif" font-size="1.9603" text-anchor="start" fill="currentColor">
<tspan>
D</tspan>
</text>
<text transform="translate(90.7023, 60.4430)" font-family="sans-serif" font-size="1.9603" text-anchor="start" fill="currentColor">
<tspan/>
</text>
<text transform="translate(90.7023, 60.4430)" font-family="sans-serif" font-size="1.9603" text-anchor="start" fill="currentColor">
<tspan/>
</text>
<text transform="translate(90.7023, 59.5521)" font-family="sans-serif" font-size="1.3858" text-anchor="start" fill="currentColor">
<tspan/>
</text>
<text transform="translate(90.7023, 59.5521)" font-family="sans-serif" font-size="1.3858" text-anchor="start" fill="currentColor">
<tspan>
7</tspan>
</text>
<path transform="translate(89.2085, 64.9857) scale(0.0040, -0.0040)" d="M214 140c59 0 115 -32 115 -97c0 -72 -54 -121 -101 -149c-35 -21 -74 -34 -114 -34c-59 0 -114 32 -114 97c0 72 54 121 101 149c35 21 73 34 113 34z" fill="currentColor"/>
<text transform="translate(87.0704, 68.8368)" font-family="Century Schoolbook L" font-size="2.4695" text-anchor="start" fill="currentColor">
<tspan>
Look</tspan>
</text>
<rect transform="translate(90.4475, 63.4857)" x="-0.0757" y="-2.0000" width="0.1514" height="3.3269" ry="0.0500" fill="currentColor"/>
<text transform="translate(52.9991, 68.8368)" font-family="Century Schoolbook L" font-size="2.4695" text-anchor="start" fill="currentColor">
<tspan>
un</tspan>
</text>
<rect transform="translate(55.0745, 63.4857)" x="-0.0757" y="-2.1802" width="0.1514" height="2.5070" ry="0.0500" fill="currentColor"/>
<path transform="translate(62.1344, 64.4857) scale(0.0040, -0.0040)" d="M214 140c59 0 115 -32 115 -97c0 -72 -54 -121 -101 -149c-35 -21 -74 -34 -114 -34c-59 0 -114 32 -114 97c0 72 54 121 101 149c35 21 73 34 113 34z" fill="currentColor"/>
<text transform="translate(61.6821, 68.8368)" font-family="Century Schoolbook L" font-size="2.4695" text-anchor="start" fill="currentColor">
<tspan>
to</tspan>
</text>
<rect transform="translate(63.3734, 63.4857)" x="-0.0757" y="-2.0016" width="0.1514" height="2.8285" ry="0.0500" fill="currentColor"/>
<rect transform="translate(125.8040, 63.4857)" x="-0.0757" y="-2.5000" width="0.1514" height="3.2518" ry="0.0500" fill="currentColor"/>
<rect transform="translate(58.5044, 68.8368)" x="0.0000" y="-0.5714" width="0.6600" height="0.1514" ry="0.0466" fill="currentColor"/>
<polygon transform="translate(54.9989, 61.3039)" stroke-linejoin="round" stroke-linecap="round" stroke-width="0.1000" fill="currentColor" stroke="currentColor" points="8.4002 -0.0082 8.4002 0.3718 0.0500 0.1900 0.0500 -0.1900"/>
<polygon transform="translate(34.9447, 60.3039)" stroke-linejoin="round" stroke-linecap="round" stroke-width="0.1000" fill="currentColor" stroke="currentColor" points="8.4002 0.1736 8.4002 0.5536 0.0500 0.1900 0.0500 -0.1900"/>
<polygon transform="translate(18.0970, 62.3039)" stroke-linejoin="round" stroke-linecap="round" stroke-width="0.1000" fill="currentColor" stroke="currentColor" points="8.6502 -1.8264 8.6502 -1.4464 0.0500 0.1900 0.0500 -0.1900"/>
<path transform="translate(104.7416, 63.9857) scale(0.0040, -0.0040)" d="M214 140c59 0 115 -32 115 -97c0 -72 -54 -121 -101 -149c-35 -21 -74 -34 -114 -34c-59 0 -114 32 -114 97c0 72 54 121 101 149c35 21 73 34 113 34z" fill="currentColor"/>
<text transform="translate(103.2650, 68.8368)" font-family="Century Schoolbook L" font-size="2.4695" text-anchor="start" fill="currentColor">
<tspan>
and</tspan>
</text>
<rect transform="translate(105.9805, 63.4857)" x="-0.0757" y="-3.0000" width="0.1514" height="3.3269" ry="0.0500" fill="currentColor"/>
<text transform="translate(124.4812, 60.4430)" font-family="sans-serif" font-size="1.9603" text-anchor="start" fill="currentColor">
<tspan>
G</tspan>
</text>
<text transform="translate(126.0176, 60.4430)" font-family="sans-serif" font-size="1.9603" text-anchor="start" fill="currentColor">
<tspan/>
</text>
<text transform="translate(126.0176, 60.4430)" font-family="sans-serif" font-size="1.9603" text-anchor="start" fill="currentColor">
<tspan/>
</text>
<text transform="translate(126.0176, 59.5521)" font-family="sans-serif" font-size="1.3858" text-anchor="start" fill="currentColor">
<tspan/>
</text>
<path transform="translate(124.4812, 64.4857) scale(0.0040, -0.0040)" d="M312 63c0 23 -20 40 -41 40c-4 0 -7 -1 -11 -2c-30 -8 -75 -38 -111 -61s-81 -52 -101 -76c-7 -8 -10 -17 -10 -27c0 -23 19 -40 40 -40c4 0 8 1 12 2c30 8 75 38 111 61s81 52 101 76c7 8 10 17 10 27zM258 140c51 0 92 -23 92 -78c0 -19 -4 -38 -10 -56
c-11 -38 -31 -75 -64 -97c-53 -36 -112 -49 -185 -49c-51 0 -91 23 -91 78c0 19 4 38 10 56c11 38 30 75 63 97c53 36 112 49 185 49z" fill="currentColor"/>
<text transform="translate(122.7691, 68.8368)" font-family="Century Schoolbook L" font-size="2.4695" text-anchor="start" fill="currentColor">
<tspan>
live!</tspan>
</text>
<text transform="translate(16.9338, 60.4430)" font-family="sans-serif" font-size="1.9603" text-anchor="start" fill="currentColor">
<tspan>
G</tspan>
</text>
<text transform="translate(18.4702, 60.4430)" font-family="sans-serif" font-size="1.9603" text-anchor="start" fill="currentColor">
<tspan/>
</text>
<text transform="translate(18.4702, 60.4430)" font-family="sans-serif" font-size="1.9603" text-anchor="start" fill="currentColor">
<tspan/>
</text>
<text transform="translate(18.4702, 59.5521)" font-family="sans-serif" font-size="1.3858" text-anchor="start" fill="currentColor">
<tspan/>
</text>
<text transform="translate(7.0705, 60.3930)" font-family="Century Schoolbook L" font-size="1.7463" text-anchor="start" fill="currentColor">
<tspan>
13</tspan>
</text>
<path transform="translate(9.8338, 64.4857) scale(0.0040, -0.0040)" d="M379 264c3 0 7 1 10 1c157 0 258 -129 258 -263c0 -77 -33 -155 -108 -211c-22 -16 -46 -29 -72 -37c3 -33 4 -66 4 -99c0 -21 0 -41 -1 -62c-7 -121 -91 -229 -211 -229c-108 0 -196 88 -196 197c0 58 54 103 113 103c54 0 95 -47 95 -103c0 -52 -43 -95 -95 -95
c-9 0 -18 1 -27 4c25 -37 66 -61 113 -61c95 0 156 93 162 191c1 19 2 38 2 57c0 29 -1 58 -3 87c-29 -5 -58 -8 -88 -8c-189 0 -333 173 -333 376c0 177 129 308 244 443c-20 62 -40 124 -48 189c-7 52 -7 105 -7 158c0 114 54 221 147 288c4 3 8 4 12 4c5 0 9 -2 13 -5
c72 -83 135 -243 135 -356c0 -142 -84 -255 -176 -364c21 -68 40 -136 57 -205zM463 -201c65 24 110 94 110 161c0 88 -64 175 -167 188c24 -114 44 -227 57 -349zM77 25c0 -133 128 -243 261 -243c27 0 55 1 81 5c-13 126 -35 244 -60 362c-79 -8 -124 -60 -124 -118
c0 -43 25 -88 80 -120c5 -5 7 -11 7 -17c0 -12 -10 -23 -23 -23c-3 0 -7 1 -10 2c-81 43 -118 115 -118 186c0 89 60 177 163 200c-14 57 -30 113 -47 169c-105 -122 -210 -243 -210 -403zM403 1038c-99 -46 -161 -145 -161 -254c0 -71 21 -130 39 -188
c78 97 142 199 142 324c0 51 -4 72 -20 118z" fill="currentColor"/>
<path transform="translate(13.3337, 61.4857) scale(0.0040, -0.0040)" d="M198 -329c-12 0 -21 9 -21 21v138l-79 -30v-154c0 -12 -9 -21 -21 -21s-21 9 -21 21v138l-22 -8c-3 -1 -6 -2 -9 -2c-13 0 -25 11 -25 25v54c0 10 6 20 16 24l40 15v155l-22 -9c-3 -1 -6 -1 -9 -1c-13 0 -25 11 -25 25v54c0 10 6 19 16 23l40 15v154c0 12 9 21 21 21
s21 -9 21 -21v-138l79 30v154c0 12 9 21 21 21s21 -9 21 -21v-138l22 8c3 1 6 2 9 2c13 0 25 -11 25 -25v-54c0 -10 -6 -20 -16 -24l-40 -15v-155l22 9c3 1 6 1 9 1c13 0 25 -11 25 -25v-54c0 -10 -6 -19 -16 -23l-40 -15v-154c0 -12 -9 -21 -21 -21zM98 62v-154l79 30v154z
" fill="currentColor"/>
<path transform="translate(33.7814, 63.4857) scale(0.0040, -0.0040)" d="M214 140c59 0 115 -32 115 -97c0 -72 -54 -121 -101 -149c-35 -21 -74 -34 -114 -34c-59 0 -114 32 -114 97c0 72 54 121 101 149c35 21 73 34 113 34z" fill="currentColor"/>
<text transform="translate(32.1767, 68.8368)" font-family="Century Schoolbook L" font-size="2.4695" text-anchor="start" fill="currentColor">
<tspan>
say,</tspan>
</text>
<rect transform="translate(35.0204, 63.4857)" x="-0.0757" y="-3.1785" width="0.1514" height="3.0054" ry="0.0500" fill="currentColor"/>
<path transform="translate(42.0803, 63.9857) scale(0.0040, -0.0040)" d="M214 140c59 0 115 -32 115 -97c0 -72 -54 -121 -101 -149c-35 -21 -74 -34 -114 -34c-59 0 -114 32 -114 97c0 72 54 121 101 149c35 21 73 34 113 34z" fill="currentColor"/>
<text transform="translate(39.4513, 68.8368)" font-family="Century Schoolbook L" font-size="2.4695" text-anchor="start" fill="currentColor">
<tspan>
“Look</tspan>
</text>
<rect transform="translate(43.3192, 63.4857)" x="-0.0757" y="-2.8215" width="0.1514" height="3.1483" ry="0.0500" fill="currentColor"/>
<text transform="translate(53.8356, 60.4430)" font-family="sans-serif" font-size="1.9603" text-anchor="start" fill="currentColor">
<tspan>
E</tspan>
</text>
<text transform="translate(55.0733, 60.4430)" font-family="sans-serif" font-size="1.9603" text-anchor="start" fill="currentColor">
<tspan/>
</text>
<text transform="translate(55.0733, 60.4430)" font-family="sans-serif" font-size="1.9603" text-anchor="start" fill="currentColor">
<tspan>
m</tspan>
</text>
<text transform="translate(56.9512, 59.5521)" font-family="sans-serif" font-size="1.3858" text-anchor="start" fill="currentColor">
<tspan/>
</text>
<path transform="translate(53.8356, 63.9857) scale(0.0040, -0.0040)" d="M214 140c59 0 115 -32 115 -97c0 -72 -54 -121 -101 -149c-35 -21 -74 -34 -114 -34c-59 0 -114 32 -114 97c0 72 54 121 101 149c35 21 73 34 113 34z" fill="currentColor"/>
<path transform="translate(16.9338, 65.9857) scale(0.0040, -0.0040)" d="M214 140c59 0 115 -32 115 -97c0 -72 -54 -121 -101 -149c-35 -21 -74 -34 -114 -34c-59 0 -114 32 -114 97c0 72 54 121 101 149c35 21 73 34 113 34z" fill="currentColor"/>
<text transform="translate(14.7102, 68.8368)" font-family="Century Schoolbook L" font-size="2.4695" text-anchor="start" fill="currentColor">
<tspan>
Hear</tspan>
</text>
<rect transform="translate(18.1727, 63.4857)" x="-0.0757" y="-1.1960" width="0.1514" height="3.5229" ry="0.0500" fill="currentColor"/>
<path transform="translate(25.4826, 63.4857) scale(0.0040, -0.0040)" d="M214 140c59 0 115 -32 115 -97c0 -72 -54 -121 -101 -149c-35 -21 -74 -34 -114 -34c-59 0 -114 32 -114 97c0 72 54 121 101 149c35 21 73 34 113 34z" fill="currentColor"/>
<text transform="translate(23.6432, 68.8368)" font-family="Century Schoolbook L" font-size="2.4695" text-anchor="start" fill="currentColor">
<tspan>
Him</tspan>
</text>
<rect transform="translate(26.7215, 63.4857)" x="-0.0757" y="-2.8040" width="0.1514" height="2.6308" ry="0.0500" fill="currentColor"/>
<rect transform="translate(147.0289, 78.4279)" x="0.0000" y="-2.0000" width="0.2212" height="4.0000" ry="0.0000" fill="currentColor"/>
<line transform="translate(9.0337, 80.4279)" stroke-linejoin="round" stroke-linecap="round" stroke-width="0.1164" stroke="currentColor" x1="0.0582" y1="-0.0000" x2="138.1582" y2="-0.0000"/>
<line transform="translate(9.0337, 79.4279)" stroke-linejoin="round" stroke-linecap="round" stroke-width="0.1164" stroke="currentColor" x1="0.0582" y1="-0.0000" x2="138.1582" y2="-0.0000"/>
<line transform="translate(9.0337, 78.4279)" stroke-linejoin="round" stroke-linecap="round" stroke-width="0.1164" stroke="currentColor" x1="0.0582" y1="-0.0000" x2="138.1582" y2="-0.0000"/>
<line transform="translate(9.0337, 77.4279)" stroke-linejoin="round" stroke-linecap="round" stroke-width="0.1164" stroke="currentColor" x1="0.0582" y1="-0.0000" x2="138.1582" y2="-0.0000"/>
<line transform="translate(9.0337, 76.4279)" stroke-linejoin="round" stroke-linecap="round" stroke-width="0.1164" stroke="currentColor" x1="0.0582" y1="-0.0000" x2="138.1582" y2="-0.0000"/>
<rect transform="translate(48.6086, 78.4279)" x="0.0000" y="-2.0000" width="0.2212" height="4.0000" ry="0.0000" fill="currentColor"/>
<rect transform="translate(114.9664, 78.4279)" x="0.0000" y="-2.0000" width="0.2212" height="4.0000" ry="0.0000" fill="currentColor"/>
<rect transform="translate(80.8634, 78.4279)" x="0.0000" y="-2.0000" width="0.2212" height="4.0000" ry="0.0000" fill="currentColor"/>
<path transform="translate(95.1572, 78.9279) scale(0.0040, -0.0040)" d="M214 140c59 0 115 -32 115 -97c0 -72 -54 -121 -101 -149c-35 -21 -74 -34 -114 -34c-59 0 -114 32 -114 97c0 72 54 121 101 149c35 21 73 34 113 34z" fill="currentColor"/>
<text transform="translate(94.7048, 84.0964)" font-family="Century Schoolbook L" font-size="2.4695" text-anchor="start" fill="currentColor">
<tspan>
to</tspan>
</text>
<rect transform="translate(96.3961, 78.4279)" x="-0.0757" y="-2.8206" width="0.1514" height="3.1475" ry="0.0500" fill="currentColor"/>
<path transform="translate(99.6116, 79.4279) scale(0.0040, -0.0040)" d="M214 140c59 0 115 -32 115 -97c0 -72 -54 -121 -101 -149c-35 -21 -74 -34 -114 -34c-59 0 -114 32 -114 97c0 72 54 121 101 149c35 21 73 34 113 34z" fill="currentColor"/>
<text transform="translate(97.4308, 84.0964)" font-family="Century Schoolbook L" font-size="2.4695" text-anchor="start" fill="currentColor">
<tspan>
Him,</tspan>
</text>
<rect transform="translate(100.8505, 78.4279)" x="-0.0757" y="-2.0018" width="0.1514" height="2.8286" ry="0.0500" fill="currentColor"/>
<path transform="translate(107.2059, 78.9279) scale(0.0040, -0.0040)" d="M214 140c59 0 115 -32 115 -97c0 -72 -54 -121 -101 -149c-35 -21 -74 -34 -114 -34c-59 0 -114 32 -114 97c0 72 54 121 101 149c35 21 73 34 113 34z" fill="currentColor"/>
<text transform="translate(105.3878, 84.0964)" font-family="Century Schoolbook L" font-size="2.4695" text-anchor="start" fill="currentColor">
<tspan>
He’s</tspan>
</text>
<rect transform="translate(108.4448, 78.4279)" x="-0.0757" y="-2.1800" width="0.1514" height="2.5069" ry="0.0500" fill="currentColor"/>
<path transform="translate(66.8232, 78.9279) scale(0.0040, -0.0040)" d="M214 140c59 0 115 -32 115 -97c0 -72 -54 -121 -101 -149c-35 -21 -74 -34 -114 -34c-59 0 -114 32 -114 97c0 72 54 121 101 149c35 21 73 34 113 34z" fill="currentColor"/>
<text transform="translate(64.5997, 84.0964)" font-family="Century Schoolbook L" font-size="2.4695" text-anchor="start" fill="currentColor">
<tspan>
high,</tspan>
</text>
<rect transform="translate(68.0622, 78.4279)" x="-0.0757" y="-3.0000" width="0.1514" height="3.3269" ry="0.0500" fill="currentColor"/>
<text transform="translate(83.8895, 71.3305)" font-family="sans-serif" font-size="1.9603" text-anchor="start" fill="currentColor">
<tspan>
G</tspan>
</text>
<text transform="translate(85.4259, 71.3305)" font-family="sans-serif" font-size="1.9603" text-anchor="start" fill="currentColor">
<tspan/>
</text>
<text transform="translate(85.4259, 71.3305)" font-family="sans-serif" font-size="1.9603" text-anchor="start" fill="currentColor">
<tspan/>
</text>
<text transform="translate(85.4259, 70.4396)" font-family="sans-serif" font-size="1.3858" text-anchor="start" fill="currentColor">
<tspan/>
</text>
<path transform="translate(83.8895, 78.4279) scale(0.0040, -0.0040)" d="M214 140c59 0 115 -32 115 -97c0 -72 -54 -121 -101 -149c-35 -21 -74 -34 -114 -34c-59 0 -114 32 -114 97c0 72 54 121 101 149c35 21 73 34 113 34z" fill="currentColor"/>
<text transform="translate(81.7513, 84.0964)" font-family="Century Schoolbook L" font-size="2.4695" text-anchor="start" fill="currentColor">
<tspan>
Look</tspan>
</text>
<path transform="translate(85.6456, 77.9279) scale(0.0040, -0.0040)" d="M0 0c0 30 25 55 55 55s55 -25 55 -55s-25 -55 -55 -55s-55 25 -55 55z" fill="currentColor"/>
<rect transform="translate(85.1284, 78.4279)" x="-0.0757" y="-3.1794" width="0.1514" height="3.0062" ry="0.0500" fill="currentColor"/>
<path transform="translate(133.2854, 78.4279) scale(0.0040, -0.0040)" d="M214 140c59 0 115 -32 115 -97c0 -72 -54 -121 -101 -149c-35 -21 -74 -34 -114 -34c-59 0 -114 32 -114 97c0 72 54 121 101 149c35 21 73 34 113 34z" fill="currentColor"/>
<text transform="translate(131.0619, 84.0964)" font-family="Century Schoolbook L" font-size="2.4695" text-anchor="start" fill="currentColor">
<tspan>
nigh;</tspan>
</text>
<rect transform="translate(133.3611, 78.4279)" x="-0.0757" y="0.1731" width="0.1514" height="3.1602" ry="0.0500" fill="currentColor"/>
<rect transform="translate(122.2747, 84.0964)" x="0.0000" y="-0.5714" width="0.6600" height="0.1514" ry="0.0466" fill="currentColor"/>
<polygon transform="translate(118.0969, 81.6097)" stroke-linejoin="round" stroke-linecap="round" stroke-width="0.1000" fill="currentColor" stroke="currentColor" points="7.6956 -0.5536 7.6956 -0.1736 0.0500 0.1900 0.0500 -0.1900"/>
<polygon transform="translate(100.7749, 76.4279)" stroke-linejoin="round" stroke-linecap="round" stroke-width="0.1000" fill="currentColor" stroke="currentColor" points="7.6956 -0.3718 7.6956 0.0082 0.0500 0.1900 0.0500 -0.1900"/>
<polygon transform="translate(85.0528, 75.2461)" stroke-linejoin="round" stroke-linecap="round" stroke-width="0.1000" fill="currentColor" stroke="currentColor" points="11.3690 0.1736 11.3690 0.5536 0.0500 0.1900 0.0500 -0.1900"/>
<polygon transform="translate(95.2961, 76.3904)" stroke-linejoin="round" stroke-linecap="round" stroke-width="0.1000" fill="currentColor" stroke="currentColor" points="1.1257 -0.1526 1.1257 0.2274 0.0500 0.1900 0.0500 -0.1900"/>
<rect transform="translate(55.9298, 84.0964)" x="0.0000" y="-0.5714" width="0.6600" height="0.1514" ry="0.0466" fill="currentColor"/>
<polygon transform="translate(52.7979, 75.6097)" stroke-linejoin="round" stroke-linecap="round" stroke-width="0.1000" fill="currentColor" stroke="currentColor" points="7.6956 -0.5536 7.6956 -0.1736 0.0500 0.1900 0.0500 -0.1900"/>
<polygon transform="translate(34.3813, 76.6097)" stroke-linejoin="round" stroke-linecap="round" stroke-width="0.1000" fill="currentColor" stroke="currentColor" points="7.6956 -0.5536 7.6956 -0.1736 0.0500 0.1900 0.0500 -0.1900"/>
<polygon transform="translate(18.0970, 75.4279)" stroke-linejoin="round" stroke-linecap="round" stroke-width="0.1000" fill="currentColor" stroke="currentColor" points="11.3690 -0.0082 11.3690 0.3718 0.0500 0.1900 0.0500 -0.1900"/>
<polygon transform="translate(28.3404, 76.4092)" stroke-linejoin="round" stroke-linecap="round" stroke-width="0.1000" fill="currentColor" stroke="currentColor" points="1.1257 -0.1713 1.1257 0.2087 0.0500 0.1900 0.0500 -0.1900"/>
<path transform="translate(118.0969, 78.4279) scale(0.0040, -0.0040)" d="M214 140c59 0 115 -32 115 -97c0 -72 -54 -121 -101 -149c-35 -21 -74 -34 -114 -34c-59 0 -114 32 -114 97c0 72 54 121 101 149c35 21 73 34 113 34z" fill="currentColor"/>
<text transform="translate(117.4738, 84.0964)" font-family="Century Schoolbook L" font-size="2.4695" text-anchor="start" fill="currentColor">
<tspan>
ev</tspan>
</text>
<rect transform="translate(118.1725, 78.4279)" x="-0.0757" y="0.1731" width="0.1514" height="3.0051" ry="0.0500" fill="currentColor"/>
<path transform="translate(125.6912, 77.9279) scale(0.0040, -0.0040)" d="M214 140c59 0 115 -32 115 -97c0 -72 -54 -121 -101 -149c-35 -21 -74 -34 -114 -34c-59 0 -114 32 -114 97c0 72 54 121 101 149c35 21 73 34 113 34z" fill="currentColor"/>
<text transform="translate(125.1748, 84.0964)" font-family="Century Schoolbook L" font-size="2.4695" text-anchor="start" fill="currentColor">
<tspan>
er</tspan>
</text>
<rect transform="translate(125.7668, 78.4279)" x="-0.0757" y="-0.3269" width="0.1514" height="3.1486" ry="0.0500" fill="currentColor"/>
<path transform="translate(18.6898, 78.9279) scale(0.0040, -0.0040)" d="M0 0c0 30 25 55 55 55s55 -25 55 -55s-25 -55 -55 -55s-55 25 -55 55z" fill="currentColor"/>
<rect transform="translate(18.1727, 78.4279)" x="-0.0757" y="-2.9988" width="0.1514" height="3.3256" ry="0.0500" fill="currentColor"/>
<path transform="translate(13.3337, 76.4279) scale(0.0040, -0.0040)" d="M198 -329c-12 0 -21 9 -21 21v138l-79 -30v-154c0 -12 -9 -21 -21 -21s-21 9 -21 21v138l-22 -8c-3 -1 -6 -2 -9 -2c-13 0 -25 11 -25 25v54c0 10 6 20 16 24l40 15v155l-22 -9c-3 -1 -6 -1 -9 -1c-13 0 -25 11 -25 25v54c0 10 6 19 16 23l40 15v154c0 12 9 21 21 21
s21 -9 21 -21v-138l79 30v154c0 12 9 21 21 21s21 -9 21 -21v-138l22 8c3 1 6 2 9 2c13 0 25 -11 25 -25v-54c0 -10 -6 -20 -16 -24l-40 -15v-155l22 9c3 1 6 1 9 1c13 0 25 -11 25 -25v-54c0 -10 -6 -19 -16 -23l-40 -15v-154c0 -12 -9 -21 -21 -21zM98 62v-154l79 30v154z
" fill="currentColor"/>
<path transform="translate(28.2014, 79.4279) scale(0.0040, -0.0040)" d="M214 140c59 0 115 -32 115 -97c0 -72 -54 -121 -101 -149c-35 -21 -74 -34 -114 -34c-59 0 -114 32 -114 97c0 72 54 121 101 149c35 21 73 34 113 34z" fill="currentColor"/>
<text transform="translate(27.0022, 84.0964)" font-family="Century Schoolbook L" font-size="2.4695" text-anchor="start" fill="currentColor">
<tspan>
the</tspan>
</text>
<rect transform="translate(29.4404, 78.4279)" x="-0.0757" y="-2.8194" width="0.1514" height="3.6463" ry="0.0500" fill="currentColor"/>
<path transform="translate(9.8338, 79.4279) scale(0.0040, -0.0040)" d="M379 264c3 0 7 1 10 1c157 0 258 -129 258 -263c0 -77 -33 -155 -108 -211c-22 -16 -46 -29 -72 -37c3 -33 4 -66 4 -99c0 -21 0 -41 -1 -62c-7 -121 -91 -229 -211 -229c-108 0 -196 88 -196 197c0 58 54 103 113 103c54 0 95 -47 95 -103c0 -52 -43 -95 -95 -95
c-9 0 -18 1 -27 4c25 -37 66 -61 113 -61c95 0 156 93 162 191c1 19 2 38 2 57c0 29 -1 58 -3 87c-29 -5 -58 -8 -88 -8c-189 0 -333 173 -333 376c0 177 129 308 244 443c-20 62 -40 124 -48 189c-7 52 -7 105 -7 158c0 114 54 221 147 288c4 3 8 4 12 4c5 0 9 -2 13 -5
c72 -83 135 -243 135 -356c0 -142 -84 -255 -176 -364c21 -68 40 -136 57 -205zM463 -201c65 24 110 94 110 161c0 88 -64 175 -167 188c24 -114 44 -227 57 -349zM77 25c0 -133 128 -243 261 -243c27 0 55 1 81 5c-13 126 -35 244 -60 362c-79 -8 -124 -60 -124 -118
c0 -43 25 -88 80 -120c5 -5 7 -11 7 -17c0 -12 -10 -23 -23 -23c-3 0 -7 1 -10 2c-81 43 -118 115 -118 186c0 89 60 177 163 200c-14 57 -30 113 -47 169c-105 -122 -210 -243 -210 -403zM403 1038c-99 -46 -161 -145 -161 -254c0 -71 21 -130 39 -188
c78 97 142 199 142 324c0 51 -4 72 -20 118z" fill="currentColor"/>
<path transform="translate(33.2181, 79.9279) scale(0.0040, -0.0040)" d="M214 140c59 0 115 -32 115 -97c0 -72 -54 -121 -101 -149c-35 -21 -74 -34 -114 -34c-59 0 -114 32 -114 97c0 72 54 121 101 149c35 21 73 34 113 34z" fill="currentColor"/>
<text transform="translate(31.1653, 84.0964)" font-family="Century Schoolbook L" font-size="2.4695" text-anchor="start" fill="currentColor">
<tspan>
Lord</tspan>
</text>
<rect transform="translate(34.4570, 78.4279)" x="-0.0757" y="-1.8218" width="0.1514" height="3.1486" ry="0.0500" fill="currentColor"/>
<text transform="translate(7.0705, 75.3352)" font-family="Century Schoolbook L" font-size="1.7463" text-anchor="start" fill="currentColor">
<tspan>
17</tspan>
</text>
<text transform="translate(16.9338, 71.3305)" font-family="sans-serif" font-size="1.9603" text-anchor="start" fill="currentColor">
<tspan>
D</tspan>
</text>
<text transform="translate(18.4275, 71.3305)" font-family="sans-serif" font-size="1.9603" text-anchor="start" fill="currentColor">
<tspan/>
</text>
<text transform="translate(18.4275, 71.3305)" font-family="sans-serif" font-size="1.9603" text-anchor="start" fill="currentColor">
<tspan/>
</text>
<text transform="translate(18.4275, 70.4396)" font-family="sans-serif" font-size="1.3858" text-anchor="start" fill="currentColor">
<tspan/>
</text>
<path transform="translate(16.9338, 78.9279) scale(0.0040, -0.0040)" d="M214 140c59 0 115 -32 115 -97c0 -72 -54 -121 -101 -149c-35 -21 -74 -34 -114 -34c-59 0 -114 32 -114 97c0 72 54 121 101 149c35 21 73 34 113 34z" fill="currentColor"/>
<rect transform="translate(16.9338, 74.7279)" x="-0.6164" y="-0.1164" width="9.5553" height="0.1164" ry="0.0000" fill="currentColor"/>
<rect transform="translate(16.9338, 71.9470)" x="-0.6164" y="-0.1164" width="9.5553" height="0.1164" ry="0.0000" fill="currentColor"/>
<rect transform="translate(16.3173, 74.0688)" x="0" y="-2.1218" width="0.1164" height="2.6645" ry="0.0000" fill="currentColor"/>
<rect transform="translate(25.7562, 74.0688)" x="0" y="-2.1218" width="0.1164" height="2.6645" ry="0.0000" fill="currentColor"/>
<text transform="translate(16.9338, 74.0688)" font-family="Century Schoolbook L" font-weight="bold" font-size="2.1999" text-anchor="start" fill="currentColor">
<tspan>
Chorus</tspan>
</text>
<text transform="translate(14.4328, 84.0964)" font-family="Century Schoolbook L" font-size="2.4695" text-anchor="start" fill="currentColor">
<tspan>
Look!</tspan>
</text>
<text transform="translate(10.0185, 84.0964)" font-family="Century Schoolbook L" font-weight="bold" font-size="2.1999" text-anchor="start" fill="currentColor">
<tspan>
(C)</tspan>
</text>
<path transform="translate(59.2290, 78.4279) scale(0.0040, -0.0040)" d="M214 140c59 0 115 -32 115 -97c0 -72 -54 -121 -101 -149c-35 -21 -74 -34 -114 -34c-59 0 -114 32 -114 97c0 72 54 121 101 149c35 21 73 34 113 34z" fill="currentColor"/>
<text transform="translate(58.5632, 84.0964)" font-family="Century Schoolbook L" font-size="2.4695" text-anchor="start" fill="currentColor">
<tspan>
ed</tspan>
</text>
<rect transform="translate(60.4679, 78.4279)" x="-0.0757" y="-3.1782" width="0.1514" height="3.0051" ry="0.0500" fill="currentColor"/>
<path transform="translate(40.8124, 79.4279) scale(0.0040, -0.0040)" d="M214 140c59 0 115 -32 115 -97c0 -72 -54 -121 -101 -149c-35 -21 -74 -34 -114 -34c-59 0 -114 32 -114 97c0 72 54 121 101 149c35 21 73 34 113 34z" fill="currentColor"/>
<text transform="translate(40.5094, 84.0964)" font-family="Century Schoolbook L" font-size="2.4695" text-anchor="start" fill="currentColor">
<tspan>
is</tspan>
</text>
<rect transform="translate(42.0513, 78.4279)" x="-0.0757" y="-2.1782" width="0.1514" height="3.0051" ry="0.0500" fill="currentColor"/>
<path transform="translate(51.6347, 78.9279) scale(0.0040, -0.0040)" d="M214 140c59 0 115 -32 115 -97c0 -72 -54 -121 -101 -149c-35 -21 -74 -34 -114 -34c-59 0 -114 32 -114 97c0 72 54 121 101 149c35 21 73 34 113 34z" fill="currentColor"/>
<text transform="translate(50.6275, 84.0964)" font-family="Century Schoolbook L" font-size="2.4695" text-anchor="start" fill="currentColor">
<tspan>
lift</tspan>
</text>
<rect transform="translate(52.8736, 78.4279)" x="-0.0757" y="-2.8218" width="0.1514" height="3.1486" ry="0.0500" fill="currentColor"/>
<line transform="translate(9.0337, 92.5541)" stroke-linejoin="round" stroke-linecap="round" stroke-width="0.1164" stroke="currentColor" x1="0.0582" y1="-0.0000" x2="138.1582" y2="-0.0000"/>
<line transform="translate(9.0337, 91.5541)" stroke-linejoin="round" stroke-linecap="round" stroke-width="0.1164" stroke="currentColor" x1="0.0582" y1="-0.0000" x2="138.1582" y2="-0.0000"/>
<line transform="translate(9.0337, 90.5541)" stroke-linejoin="round" stroke-linecap="round" stroke-width="0.1164" stroke="currentColor" x1="0.0582" y1="-0.0000" x2="138.1582" y2="-0.0000"/>
<line transform="translate(9.0337, 89.5541)" stroke-linejoin="round" stroke-linecap="round" stroke-width="0.1164" stroke="currentColor" x1="0.0582" y1="-0.0000" x2="138.1582" y2="-0.0000"/>
<line transform="translate(9.0337, 88.5541)" stroke-linejoin="round" stroke-linecap="round" stroke-width="0.1164" stroke="currentColor" x1="0.0582" y1="-0.0000" x2="138.1582" y2="-0.0000"/>
<rect transform="translate(146.5516, 90.5541)" x="0.0000" y="-2.0000" width="0.6986" height="4.0000" ry="0.0000" fill="currentColor"/>
<rect transform="translate(145.9811, 90.5541)" x="0.0000" y="-2.0000" width="0.2212" height="4.0000" ry="0.0000" fill="currentColor"/>
<rect transform="translate(119.7066, 90.5541)" x="0.0000" y="-2.0000" width="0.2212" height="4.0000" ry="0.0000" fill="currentColor"/>
<rect transform="translate(50.3605, 90.5541)" x="0.0000" y="-2.0000" width="0.2212" height="4.0000" ry="0.0000" fill="currentColor"/>
<rect transform="translate(86.3322, 90.5541)" x="0.0000" y="-2.0000" width="0.2212" height="4.0000" ry="0.0000" fill="currentColor"/>
<path transform="translate(89.6643, 90.5541) scale(0.0040, -0.0040)" d="M214 140c59 0 115 -32 115 -97c0 -72 -54 -121 -101 -149c-35 -21 -74 -34 -114 -34c-59 0 -114 32 -114 97c0 72 54 121 101 149c35 21 73 34 113 34z" fill="currentColor"/>
<text transform="translate(87.5261, 96.2226)" font-family="Century Schoolbook L" font-size="2.4695" text-anchor="start" fill="currentColor">
<tspan>
Look</tspan>
</text>
<rect transform="translate(89.7400, 90.5541)" x="-0.0757" y="0.1731" width="0.1514" height="3.1602" ry="0.0500" fill="currentColor"/>
<text transform="translate(104.5914, 87.0541)" font-family="sans-serif" font-size="1.9603" text-anchor="start" fill="currentColor">
<tspan>
D</tspan>
</text>
<text transform="translate(106.0852, 87.0541)" font-family="sans-serif" font-size="1.9603" text-anchor="start" fill="currentColor">
<tspan/>
</text>
<text transform="translate(106.0852, 87.0541)" font-family="sans-serif" font-size="1.9603" text-anchor="start" fill="currentColor">
<tspan/>
</text>
<text transform="translate(106.0852, 86.1632)" font-family="sans-serif" font-size="1.3858" text-anchor="start" fill="currentColor">
<tspan/>
</text>
<text transform="translate(106.0852, 86.1632)" font-family="sans-serif" font-size="1.3858" text-anchor="start" fill="currentColor">
<tspan>
7</tspan>
</text>
<path transform="translate(69.9848, 91.0541) scale(0.0040, -0.0040)" d="M214 140c59 0 115 -32 115 -97c0 -72 -54 -121 -101 -149c-35 -21 -74 -34 -114 -34c-59 0 -114 32 -114 97c0 72 54 121 101 149c35 21 73 34 113 34z" fill="currentColor"/>
<text transform="translate(69.9848, 96.2226)" font-family="Century Schoolbook L" font-size="2.4695" text-anchor="start" fill="currentColor">
<tspan>
die?</tspan>
</text>
<rect transform="translate(70.0605, 90.5541)" x="-0.0757" y="0.6731" width="0.1514" height="2.1394" ry="0.0500" fill="currentColor"/>
<path transform="translate(78.3666, 90.0541) scale(0.0040, -0.0040)" d="M214 140c59 0 115 -32 115 -97c0 -72 -54 -121 -101 -149c-35 -21 -74 -34 -114 -34c-59 0 -114 32 -114 97c0 72 54 121 101 149c35 21 73 34 113 34z" fill="currentColor"/>
<rect transform="translate(78.4423, 90.5541)" x="-0.0757" y="-0.3269" width="0.1514" height="2.5143" ry="0.0500" fill="currentColor"/>
<text transform="translate(89.6643, 87.0541)" font-family="sans-serif" font-size="1.9603" text-anchor="start" fill="currentColor">
<tspan>
G</tspan>
</text>
<text transform="translate(91.2008, 87.0541)" font-family="sans-serif" font-size="1.9603" text-anchor="start" fill="currentColor">
<tspan/>
</text>
<text transform="translate(91.2008, 87.0541)" font-family="sans-serif" font-size="1.9603" text-anchor="start" fill="currentColor">
<tspan/>
</text>
<text transform="translate(91.2008, 86.1632)" font-family="sans-serif" font-size="1.3858" text-anchor="start" fill="currentColor">
<tspan/>
</text>
<text transform="translate(16.9338, 87.0541)" font-family="sans-serif" font-size="1.9603" text-anchor="start" fill="currentColor">
<tspan>
G</tspan>
</text>
<text transform="translate(18.4702, 87.0541)" font-family="sans-serif" font-size="1.9603" text-anchor="start" fill="currentColor">
<tspan/>
</text>
<text transform="translate(18.4702, 87.0541)" font-family="sans-serif" font-size="1.9603" text-anchor="start" fill="currentColor">
<tspan/>
</text>
<text transform="translate(18.4702, 86.1632)" font-family="sans-serif" font-size="1.3858" text-anchor="start" fill="currentColor">
<tspan/>
</text>
<path transform="translate(16.9338, 89.5541) scale(0.0040, -0.0040)" d="M214 140c59 0 115 -32 115 -97c0 -72 -54 -121 -101 -149c-35 -21 -74 -34 -114 -34c-59 0 -114 32 -114 97c0 72 54 121 101 149c35 21 73 34 113 34z" fill="currentColor"/>
<text transform="translate(14.7956, 96.2226)" font-family="Century Schoolbook L" font-size="2.4695" text-anchor="start" fill="currentColor">
<tspan>
Look</tspan>
</text>
<path transform="translate(18.6898, 89.0541) scale(0.0040, -0.0040)" d="M0 0c0 30 25 55 55 55s55 -25 55 -55s-25 -55 -55 -55s-55 25 -55 55z" fill="currentColor"/>
<path transform="translate(69.9848, 90.5541)" stroke-width="0.0931" stroke-linejoin="round" stroke-linecap="round" stroke="currentColor" fill="currentColor" d="M0.6054 -0.6343C2.0508 -2.4349 7.2152 -3.0510 8.9872 -1.6343L8.9872 -1.6343C7.2318 -2.9123 2.0673 -2.2962 0.6054 -0.6343z"/>
<polygon transform="translate(69.9848, 93.3723)" stroke-linejoin="round" stroke-linecap="round" stroke-width="0.1000" fill="currentColor" stroke="currentColor" points="8.4832 -0.8264 8.4832 -0.4464 0.0500 0.1900 0.0500 -0.1900"/>
<polygon transform="translate(53.7211, 93.3723)" stroke-linejoin="round" stroke-linecap="round" stroke-width="0.1000" fill="currentColor" stroke="currentColor" points="8.2332 0.1736 8.2332 0.5536 0.0500 0.1900 0.0500 -0.1900"/>
<polygon transform="translate(34.0487, 93.3723)" stroke-linejoin="round" stroke-linecap="round" stroke-width="0.1000" fill="currentColor" stroke="currentColor" points="8.4832 -0.8264 8.4832 -0.4464 0.0500 0.1900 0.0500 -0.1900"/>
<polygon transform="translate(28.0291, 92.7185)" stroke-linejoin="round" stroke-linecap="round" stroke-width="0.1000" fill="currentColor" stroke="currentColor" points="1.1257 -0.1726 1.1257 0.2074 0.0500 0.1900 0.0500 -0.1900"/>
<polygon transform="translate(16.9338, 93.3723)" stroke-linejoin="round" stroke-linecap="round" stroke-width="0.1000" fill="currentColor" stroke="currentColor" points="12.2210 -0.0082 12.2210 0.3718 0.0500 0.1900 0.0500 -0.1900"/>
<path transform="translate(104.5914, 91.0541) scale(0.0040, -0.0040)" d="M214 140c59 0 115 -32 115 -97c0 -72 -54 -121 -101 -149c-35 -21 -74 -34 -114 -34c-59 0 -114 32 -114 97c0 72 54 121 101 149c35 21 73 34 113 34z" fill="currentColor"/>
<text transform="translate(103.1147, 96.2226)" font-family="Century Schoolbook L" font-size="2.4695" text-anchor="start" fill="currentColor">
<tspan>
and</tspan>
</text>
<rect transform="translate(105.8303, 90.5541)" x="-0.0757" y="-3.0000" width="0.1514" height="3.3269" ry="0.0500" fill="currentColor"/>
<text transform="translate(123.9343, 87.0541)" font-family="sans-serif" font-size="1.9603" text-anchor="start" fill="currentColor">
<tspan>
G</tspan>
</text>
<text transform="translate(125.4708, 87.0541)" font-family="sans-serif" font-size="1.9603" text-anchor="start" fill="currentColor">
<tspan/>
</text>
<text transform="translate(125.4708, 87.0541)" font-family="sans-serif" font-size="1.9603" text-anchor="start" fill="currentColor">
<tspan/>
</text>
<text transform="translate(125.4708, 86.1632)" font-family="sans-serif" font-size="1.3858" text-anchor="start" fill="currentColor">
<tspan/>
</text>
<path transform="translate(123.9343, 91.5541) scale(0.0040, -0.0040)" d="M312 63c0 23 -20 40 -41 40c-4 0 -7 -1 -11 -2c-30 -8 -75 -38 -111 -61s-81 -52 -101 -76c-7 -8 -10 -17 -10 -27c0 -23 19 -40 40 -40c4 0 8 1 12 2c30 8 75 38 111 61s81 52 101 76c7 8 10 17 10 27zM258 140c51 0 92 -23 92 -78c0 -19 -4 -38 -10 -56
c-11 -38 -31 -75 -64 -97c-53 -36 -112 -49 -185 -49c-51 0 -91 23 -91 78c0 19 4 38 10 56c11 38 30 75 63 97c53 36 112 49 185 49z" fill="currentColor"/>
<text transform="translate(122.2222, 96.2226)" font-family="Century Schoolbook L" font-size="2.4695" text-anchor="start" fill="currentColor">
<tspan>
live!</tspan>
</text>
<rect transform="translate(125.2572, 90.5541)" x="-0.0757" y="-2.5000" width="0.1514" height="3.2518" ry="0.0500" fill="currentColor"/>
<path transform="translate(29.0534, 90.0541) scale(0.0040, -0.0040)" d="M214 140c59 0 115 -32 115 -97c0 -72 -54 -121 -101 -149c-35 -21 -74 -34 -114 -34c-59 0 -114 32 -114 97c0 72 54 121 101 149c35 21 73 34 113 34z" fill="currentColor"/>
<text transform="translate(27.5768, 96.2226)" font-family="Century Schoolbook L" font-size="2.4695" text-anchor="start" fill="currentColor">
<tspan>
and</tspan>
</text>
<rect transform="translate(29.1291, 90.5541)" x="-0.0757" y="-0.3269" width="0.1514" height="3.3257" ry="0.0500" fill="currentColor"/>
<path transform="translate(34.0487, 90.5541) scale(0.0040, -0.0040)" d="M214 140c59 0 115 -32 115 -97c0 -72 -54 -121 -101 -149c-35 -21 -74 -34 -114 -34c-59 0 -114 32 -114 97c0 72 54 121 101 149c35 21 73 34 113 34z" fill="currentColor"/>
<text transform="translate(32.2947, 96.2226)" font-family="Century Schoolbook L" font-size="2.4695" text-anchor="start" fill="currentColor">
<tspan>
live!</tspan>
</text>
<rect transform="translate(34.1244, 90.5541)" x="-0.0757" y="0.1731" width="0.1514" height="2.6394" ry="0.0500" fill="currentColor"/>
<text transform="translate(7.0705, 87.5041)" font-family="Century Schoolbook L" font-size="1.7463" text-anchor="start" fill="currentColor">
<tspan>
21</tspan>
</text>
<path transform="translate(9.8338, 91.5541) scale(0.0040, -0.0040)" d="M379 264c3 0 7 1 10 1c157 0 258 -129 258 -263c0 -77 -33 -155 -108 -211c-22 -16 -46 -29 -72 -37c3 -33 4 -66 4 -99c0 -21 0 -41 -1 -62c-7 -121 -91 -229 -211 -229c-108 0 -196 88 -196 197c0 58 54 103 113 103c54 0 95 -47 95 -103c0 -52 -43 -95 -95 -95
c-9 0 -18 1 -27 4c25 -37 66 -61 113 -61c95 0 156 93 162 191c1 19 2 38 2 57c0 29 -1 58 -3 87c-29 -5 -58 -8 -88 -8c-189 0 -333 173 -333 376c0 177 129 308 244 443c-20 62 -40 124 -48 189c-7 52 -7 105 -7 158c0 114 54 221 147 288c4 3 8 4 12 4c5 0 9 -2 13 -5
c72 -83 135 -243 135 -356c0 -142 -84 -255 -176 -364c21 -68 40 -136 57 -205zM463 -201c65 24 110 94 110 161c0 88 -64 175 -167 188c24 -114 44 -227 57 -349zM77 25c0 -133 128 -243 261 -243c27 0 55 1 81 5c-13 126 -35 244 -60 362c-79 -8 -124 -60 -124 -118
c0 -43 25 -88 80 -120c5 -5 7 -11 7 -17c0 -12 -10 -23 -23 -23c-3 0 -7 1 -10 2c-81 43 -118 115 -118 186c0 89 60 177 163 200c-14 57 -30 113 -47 169c-105 -122 -210 -243 -210 -403zM403 1038c-99 -46 -161 -145 -161 -254c0 -71 21 -130 39 -188
c78 97 142 199 142 324c0 51 -4 72 -20 118z" fill="currentColor"/>
<path transform="translate(13.3337, 88.5541) scale(0.0040, -0.0040)" d="M198 -329c-12 0 -21 9 -21 21v138l-79 -30v-154c0 -12 -9 -21 -21 -21s-21 9 -21 21v138l-22 -8c-3 -1 -6 -2 -9 -2c-13 0 -25 11 -25 25v54c0 10 6 20 16 24l40 15v155l-22 -9c-3 -1 -6 -1 -9 -1c-13 0 -25 11 -25 25v54c0 10 6 19 16 23l40 15v154c0 12 9 21 21 21
s21 -9 21 -21v-138l79 30v154c0 12 9 21 21 21s21 -9 21 -21v-138l22 8c3 1 6 2 9 2c13 0 25 -11 25 -25v-54c0 -10 -6 -20 -16 -24l-40 -15v-155l22 9c3 1 6 1 9 1c13 0 25 -11 25 -25v-54c0 -10 -6 -19 -16 -23l-40 -15v-154c0 -12 -9 -21 -21 -21zM98 62v-154l79 30v154z
" fill="currentColor"/>
<rect transform="translate(17.0094, 90.5541)" x="-0.0757" y="-0.8269" width="0.1514" height="3.6462" ry="0.0500" fill="currentColor"/>
<text transform="translate(53.7211, 87.0541)" font-family="sans-serif" font-size="1.9603" text-anchor="start" fill="currentColor">
<tspan>
C</tspan>
</text>
<text transform="translate(55.0868, 87.0541)" font-family="sans-serif" font-size="1.9603" text-anchor="start" fill="currentColor">
<tspan/>
</text>
<text transform="translate(55.0868, 87.0541)" font-family="sans-serif" font-size="1.9603" text-anchor="start" fill="currentColor">
<tspan/>
</text>
<text transform="translate(55.0868, 86.1632)" font-family="sans-serif" font-size="1.3858" text-anchor="start" fill="currentColor">
<tspan/>
</text>
<path transform="translate(53.7211, 90.0541) scale(0.0040, -0.0040)" d="M214 140c59 0 115 -32 115 -97c0 -72 -54 -121 -101 -149c-35 -21 -74 -34 -114 -34c-59 0 -114 32 -114 97c0 72 54 121 101 149c35 21 73 34 113 34z" fill="currentColor"/>
<text transform="translate(52.2658, 96.2226)" font-family="Century Schoolbook L" font-size="2.4695" text-anchor="start" fill="currentColor">
<tspan>
will</tspan>
</text>
<rect transform="translate(53.7968, 90.5541)" x="-0.0757" y="-0.3269" width="0.1514" height="3.1484" ry="0.0500" fill="currentColor"/>
<path transform="translate(61.8529, 90.5541) scale(0.0040, -0.0040)" d="M214 140c59 0 115 -32 115 -97c0 -72 -54 -121 -101 -149c-35 -21 -74 -34 -114 -34c-59 0 -114 32 -114 97c0 72 54 121 101 149c35 21 73 34 113 34z" fill="currentColor"/>
<text transform="translate(61.2299, 96.2226)" font-family="Century Schoolbook L" font-size="2.4695" text-anchor="start" fill="currentColor">
<tspan>
ye</tspan>
</text>
<rect transform="translate(61.9286, 90.5541)" x="-0.0757" y="0.1731" width="0.1514" height="3.0053" ry="0.0500" fill="currentColor"/>
<path transform="translate(42.4306, 89.5541) scale(0.0040, -0.0040)" d="M214 140c59 0 115 -32 115 -97c0 -72 -54 -121 -101 -149c-35 -21 -74 -34 -114 -34c-59 0 -114 32 -114 97c0 72 54 121 101 149c35 21 73 34 113 34z" fill="currentColor"/>
<text transform="translate(40.7192, 96.2226)" font-family="Century Schoolbook L" font-size="2.4695" text-anchor="start" fill="currentColor">
<tspan>
why</tspan>
</text>
<rect transform="translate(42.5062, 90.5541)" x="-0.0757" y="-0.8269" width="0.1514" height="3.0143" ry="0.0500" fill="currentColor"/>
<text transform="translate(9.0337, 105.5541)" font-family="Century Schoolbook L" font-weight="bold" font-size="2.1999" text-anchor="start" fill="currentColor">
<tspan>
2.</tspan>
</text>
<text transform="translate(11.5116, 105.5541)" font-family="Century Schoolbook L" font-size="2.1999" text-anchor="start" fill="currentColor">
<tspan>
Though unworthy, vile, unclean, </tspan>
</text>
<text transform="translate(11.5116, 108.5541)" font-family="Century Schoolbook L" font-size="2.1999" text-anchor="start" fill="currentColor">
<tspan>
  Look and live! look and live! </tspan>
</text>
<text transform="translate(11.5116, 111.5541)" font-family="Century Schoolbook L" font-size="2.1999" text-anchor="start" fill="currentColor">
<tspan>
Look away from self and sin, </tspan>
</text>
<text transform="translate(11.5116, 114.5541)" font-family="Century Schoolbook L" font-size="2.1999" text-anchor="start" fill="currentColor">
<tspan>
    Look and live! </tspan>
</text>
<text transform="translate(11.5116, 117.5541)" font-family="Century Schoolbook L" font-size="2.1999" text-anchor="start" fill="currentColor">
<tspan>
Long by Satan’s power enslaved, </tspan>
</text>
<text transform="translate(11.5116, 120.5541)" font-family="Century Schoolbook L" font-size="2.1999" text-anchor="start" fill="currentColor">
<tspan>
  Look and live! look and live! </tspan>
</text>
<text transform="translate(11.5116, 123.5541)" font-family="Century Schoolbook L" font-size="2.1999" text-anchor="start" fill="currentColor">
<tspan>
Look to Me, ye shall be saved, </tspan>
</text>
<text transform="translate(11.5116, 126.5541)" font-family="Century Schoolbook L" font-size="2.1999" text-anchor="start" fill="currentColor">
<tspan>
    Look and live! </tspan>
</text>
<text transform="translate(11.5116, 128.5541)" font-family="Century Schoolbook L" font-size="1.5560" text-anchor="start" fill="currentColor">
<tspan>
 </tspan>
</text>
<text transform="translate(108.4950, 105.5541)" font-family="Century Schoolbook L" font-weight="bold" font-size="2.1999" text-anchor="start" fill="currentColor">
<tspan>
3.</tspan>
</text>
<text transform="translate(110.9729, 105.5541)" font-family="Century Schoolbook L" font-size="2.1999" text-anchor="start" fill="currentColor">
<tspan>
Though you’ve wandered far away, </tspan>
</text>
<text transform="translate(110.9729, 108.5541)" font-family="Century Schoolbook L" font-size="2.1999" text-anchor="start" fill="currentColor">
<tspan>
  Look and live! look and live! </tspan>
</text>
<text transform="translate(110.9729, 111.5541)" font-family="Century Schoolbook L" font-size="2.1999" text-anchor="start" fill="currentColor">
<tspan>
Harden not your heart today, </tspan>
</text>
<text transform="translate(110.9729, 114.5541)" font-family="Century Schoolbook L" font-size="2.1999" text-anchor="start" fill="currentColor">
<tspan>
    Look and live! </tspan>
</text>
<text transform="translate(110.9729, 117.5541)" font-family="Century Schoolbook L" font-size="2.1999" text-anchor="start" fill="currentColor">
<tspan>
’Tis thy Father calls thee home, </tspan>
</text>
<text transform="translate(110.9729, 120.5541)" font-family="Century Schoolbook L" font-size="2.1999" text-anchor="start" fill="currentColor">
<tspan>
  Look and live! look and live! </tspan>
</text>
<text transform="translate(110.9729, 123.5541)" font-family="Century Schoolbook L" font-size="2.1999" text-anchor="start" fill="currentColor">
<tspan>
Whosoever will may come, </tspan>
</text>
<text transform="translate(110.9729, 126.5541)" font-family="Century Schoolbook L" font-size="2.1999" text-anchor="start" fill="currentColor">
<tspan>
    Look and live! </tspan>
</text>
<text transform="translate(110.9729, 128.5541)" font-family="Century Schoolbook L" font-size="1.5560" text-anchor="start" fill="currentColor">
<tspan>
 </tspan>
</text>
<text transform="translate(69.8622, 189.4189)" font-family="Trebuchet MS" font-size="2.1999" text-anchor="start" fill="currentColor">
<tspan>
www.hymnal.net</tspan>
</text>
<text transform="translate(78.1419, 192.4189)" font-family="Century Schoolbook L" font-size="2.1999" text-anchor="start" fill="currentColor">
<tspan/>
</text>
</svg>
