<svg xmlns="http://www.w3.org/2000/svg" xmlns:xlink="http://www.w3.org/1999/xlink" version="1.2" width="215.90mm" height="279.40mm" viewBox="0 0 153.5737 198.7425">
<!-- Page: 1/1 -->
<text transform="translate(9.0337, 6.3236)" font-family="Century Schoolbook L" font-size="2.1999" text-anchor="start" fill="currentColor">
<tspan>
 </tspan>
</text>
<text transform="translate(46.0899, 9.6283)" font-family="Century Schoolbook L" font-weight="bold" font-size="3.1113" text-anchor="start" fill="currentColor">
<tspan>
Here, O my Lord, I see Thee face to face</tspan>
</text>
<text transform="translate(54.1776, 13.1283)" font-family="Century Schoolbook L" font-weight="bold" font-size="2.1999" text-anchor="start" fill="currentColor">
<tspan>
Praise of the Lord—Remembrance of Him</tspan>
</text>
<text transform="translate(137.3912, 17.3535)" font-family="Century Schoolbook L" font-size="5.8739" text-anchor="start" fill="currentColor">
<tspan>
225</tspan>
</text>
<text transform="translate(9.0337, 19.5607)" font-family="Century Schoolbook L" font-weight="bold" font-style="italic" font-size="2.1999" text-anchor="start" fill="currentColor">
<tspan>
(Guitar: Capo 3)</tspan>
</text>
<line transform="translate(9.0337, 30.0246)" stroke-linejoin="round" stroke-linecap="round" stroke-width="0.1164" stroke="currentColor" x1="0.0582" y1="-0.0000" x2="138.1582" y2="-0.0000"/>
<line transform="translate(9.0337, 29.0246)" stroke-linejoin="round" stroke-linecap="round" stroke-width="0.1164" stroke="currentColor" x1="0.0582" y1="-0.0000" x2="138.1582" y2="-0.0000"/>
<line transform="translate(9.0337, 28.0246)" stroke-linejoin="round" stroke-linecap="round" stroke-width="0.1164" stroke="currentColor" x1="0.0582" y1="-0.0000" x2="138.1582" y2="-0.0000"/>
<line transform="translate(9.0337, 27.0246)" stroke-linejoin="round" stroke-linecap="round" stroke-width="0.1164" stroke="currentColor" x1="0.0582" y1="-0.0000" x2="138.1582" y2="-0.0000"/>
<line transform="translate(9.0337, 26.0246)" stroke-linejoin="round" stroke-linecap="round" stroke-width="0.1164" stroke="currentColor" x1="0.0582" y1="-0.0000" x2="138.1582" y2="-0.0000"/>
<rect transform="translate(147.0289, 28.0246)" x="0.0000" y="-2.0000" width="0.2212" height="4.0000" ry="0.0000" fill="currentColor"/>
<rect transform="translate(75.2058, 28.0246)" x="0.0000" y="-2.0000" width="0.2212" height="4.0000" ry="0.0000" fill="currentColor"/>
<rect transform="translate(48.1564, 28.0246)" x="0.0000" y="-2.0000" width="0.2212" height="4.0000" ry="0.0000" fill="currentColor"/>
<rect transform="translate(114.0674, 28.0246)" x="0.0000" y="-2.0000" width="0.2212" height="4.0000" ry="0.0000" fill="currentColor"/>
<path transform="translate(116.4307, 29.5246) scale(0.0040, -0.0040)" d="M212 110c-49 0 -67 -43 -67 -88c0 -74 56 -132 129 -132c49 0 67 43 67 88c0 74 -56 132 -129 132zM487 0c0 -43 -34 -77 -72 -99c-52 -30 -112 -41 -172 -41s-120 11 -172 41c-38 22 -71 56 -71 99s33 77 71 99c52 30 112 41 172 41s120 -11 172 -41
c38 -22 72 -56 72 -99z" fill="currentColor"/>
<text transform="translate(114.8008, 33.3172)" font-family="Century Schoolbook L" font-size="2.4695" text-anchor="start" fill="currentColor">
<tspan>
face;</tspan>
</text>
<path transform="translate(13.4743, 28.0246) scale(0.0040, -0.0040)" d="M31 37l-2 -62v-11c0 -22 2 -43 5 -64c43 38 89 80 89 137c0 32 -14 65 -42 65c-31 0 -49 -32 -50 -65zM-16 -140l-14 590c9 5 20 8 30 8s21 -3 30 -8l-8 -340c25 24 59 38 94 38c50 0 84 -50 84 -104c0 -78 -83 -117 -141 -169c-17 -15 -25 -44 -49 -44
c-15 0 -26 13 -26 29z" fill="currentColor"/>
<text transform="translate(97.6571, 24.5246)" font-family="sans-serif" font-size="1.9603" text-anchor="start" fill="currentColor">
<tspan>
A</tspan>
</text>
<text transform="translate(98.9801, 24.5246)" font-family="sans-serif" font-size="1.9603" text-anchor="start" fill="currentColor">
<tspan/>
</text>
<text transform="translate(98.9801, 24.5246)" font-family="sans-serif" font-size="1.9603" text-anchor="start" fill="currentColor">
<tspan/>
</text>
<text transform="translate(98.9801, 23.0246)" font-family="sans-serif" font-size="1.3858" text-anchor="start" fill="currentColor">
<tspan/>
</text>
<text transform="translate(98.9801, 23.0246)" font-family="sans-serif" font-size="1.3858" text-anchor="start" fill="currentColor">
<tspan>
7</tspan>
</text>
<path transform="translate(97.6571, 28.5246) scale(0.0040, -0.0040)" d="M214 140c59 0 115 -32 115 -97c0 -72 -54 -121 -101 -149c-35 -21 -74 -34 -114 -34c-59 0 -114 32 -114 97c0 72 54 121 101 149c35 21 73 34 113 34z" fill="currentColor"/>
<text transform="translate(96.0524, 33.3172)" font-family="Century Schoolbook L" font-size="2.4695" text-anchor="start" fill="currentColor">
<tspan>
face</tspan>
</text>
<rect transform="translate(98.8960, 28.0246)" x="-0.0757" y="-3.0000" width="0.1514" height="3.3269" ry="0.0500" fill="currentColor"/>
<path transform="translate(15.4243, 28.0246) scale(0.0040, -0.0040)" d="M356 30c-48 0 -72 40 -72 72c0 37 26 75 70 75c3 0 6 -1 9 -1c-26 36 -67 59 -113 59c-107 0 -113 -74 -113 -189c0 -15 1 -30 1 -46s-1 -31 -1 -46c0 -115 6 -189 113 -189c78 0 133 70 151 149c2 8 8 11 14 11c7 0 15 -5 15 -14c0 -95 -103 -176 -180 -176
c-68 0 -137 20 -184 70c-49 52 -66 124 -66 195s17 143 66 195c47 50 116 70 184 70c86 0 156 -67 171 -153c1 -4 1 -9 1 -13c0 -38 -30 -69 -66 -69z" fill="currentColor"/>
<path transform="translate(106.1658, 29.0246) scale(0.0040, -0.0040)" d="M214 140c59 0 115 -32 115 -97c0 -72 -54 -121 -101 -149c-35 -21 -74 -34 -114 -34c-59 0 -114 32 -114 97c0 72 54 121 101 149c35 21 73 34 113 34z" fill="currentColor"/>
<text transform="translate(105.7134, 33.3172)" font-family="Century Schoolbook L" font-size="2.4695" text-anchor="start" fill="currentColor">
<tspan>
to</tspan>
</text>
<rect transform="translate(107.4047, 28.0246)" x="-0.0757" y="-2.5000" width="0.1514" height="3.3269" ry="0.0500" fill="currentColor"/>
<text transform="translate(116.4307, 24.5246)" font-family="sans-serif" font-size="1.9603" text-anchor="start" fill="currentColor">
<tspan>
D</tspan>
</text>
<text transform="translate(117.9245, 24.5246)" font-family="sans-serif" font-size="1.9603" text-anchor="start" fill="currentColor">
<tspan/>
</text>
<text transform="translate(117.9245, 24.5246)" font-family="sans-serif" font-size="1.9603" text-anchor="start" fill="currentColor">
<tspan/>
</text>
<text transform="translate(117.9245, 23.0246)" font-family="sans-serif" font-size="1.3858" text-anchor="start" fill="currentColor">
<tspan/>
</text>
<path transform="translate(31.7170, 29.5246) scale(0.0040, -0.0040)" d="M214 140c59 0 115 -32 115 -97c0 -72 -54 -121 -101 -149c-35 -21 -74 -34 -114 -34c-59 0 -114 32 -114 97c0 72 54 121 101 149c35 21 73 34 113 34z" fill="currentColor"/>
<rect transform="translate(32.9560, 28.0246)" x="-0.0757" y="-2.0000" width="0.1514" height="3.3269" ry="0.0500" fill="currentColor"/>
<text transform="translate(16.6482, 33.3172)" font-family="Century Schoolbook L" font-size="2.4695" text-anchor="start" fill="currentColor">
<tspan>
Here,</tspan>
</text>
<text transform="translate(131.8404, 24.5246)" font-family="sans-serif" font-size="1.9603" text-anchor="start" fill="currentColor">
<tspan>
G</tspan>
</text>
<text transform="translate(133.3769, 24.5246)" font-family="sans-serif" font-size="1.9603" text-anchor="start" fill="currentColor">
<tspan/>
</text>
<text transform="translate(133.3769, 24.5246)" font-family="sans-serif" font-size="1.9603" text-anchor="start" fill="currentColor">
<tspan/>
</text>
<text transform="translate(133.3769, 23.0246)" font-family="sans-serif" font-size="1.3858" text-anchor="start" fill="currentColor">
<tspan/>
</text>
<text transform="translate(13.7703, 33.3172)" font-family="Century Schoolbook L" font-weight="bold" font-size="2.1999" text-anchor="start" fill="currentColor">
<tspan>
1.</tspan>
</text>
<rect transform="translate(20.4300, 28.0246)" x="-0.0757" y="-3.0000" width="0.1514" height="3.2518" ry="0.0500" fill="currentColor"/>
<path transform="translate(50.7028, 28.5246) scale(0.0040, -0.0040)" d="M312 63c0 23 -20 40 -41 40c-4 0 -7 -1 -11 -2c-30 -8 -75 -38 -111 -61s-81 -52 -101 -76c-7 -8 -10 -17 -10 -27c0 -23 19 -40 40 -40c4 0 8 1 12 2c30 8 75 38 111 61s81 52 101 76c7 8 10 17 10 27zM258 140c51 0 92 -23 92 -78c0 -19 -4 -38 -10 -56
c-11 -38 -31 -75 -64 -97c-53 -36 -112 -49 -185 -49c-51 0 -91 23 -91 78c0 19 4 38 10 56c11 38 30 75 63 97c53 36 112 49 185 49z" fill="currentColor"/>
<text transform="translate(48.3505, 33.3172)" font-family="Century Schoolbook L" font-size="2.4695" text-anchor="start" fill="currentColor">
<tspan>
Lord,</tspan>
</text>
<rect transform="translate(52.0256, 28.0246)" x="-0.0757" y="-3.0000" width="0.1514" height="3.2518" ry="0.0500" fill="currentColor"/>
<path transform="translate(19.1072, 28.5246) scale(0.0040, -0.0040)" d="M312 63c0 23 -20 40 -41 40c-4 0 -7 -1 -11 -2c-30 -8 -75 -38 -111 -61s-81 -52 -101 -76c-7 -8 -10 -17 -10 -27c0 -23 19 -40 40 -40c4 0 8 1 12 2c30 8 75 38 111 61s81 52 101 76c7 8 10 17 10 27zM258 140c51 0 92 -23 92 -78c0 -19 -4 -38 -10 -56
c-11 -38 -31 -75 -64 -97c-53 -36 -112 -49 -185 -49c-51 0 -91 23 -91 78c0 19 4 38 10 56c11 38 30 75 63 97c53 36 112 49 185 49z" fill="currentColor"/>
<text transform="translate(31.4140, 33.3172)" font-family="Century Schoolbook L" font-size="2.4695" text-anchor="start" fill="currentColor">
<tspan>
O</tspan>
</text>
<text transform="translate(19.1072, 24.5246)" font-family="sans-serif" font-size="1.9603" text-anchor="start" fill="currentColor">
<tspan>
D</tspan>
</text>
<text transform="translate(20.6009, 24.5246)" font-family="sans-serif" font-size="1.9603" text-anchor="start" fill="currentColor">
<tspan/>
</text>
<text transform="translate(20.6009, 24.5246)" font-family="sans-serif" font-size="1.9603" text-anchor="start" fill="currentColor">
<tspan/>
</text>
<text transform="translate(20.6009, 23.0246)" font-family="sans-serif" font-size="1.3858" text-anchor="start" fill="currentColor">
<tspan/>
</text>
<path transform="translate(39.5642, 29.0246) scale(0.0040, -0.0040)" d="M214 140c59 0 115 -32 115 -97c0 -72 -54 -121 -101 -149c-35 -21 -74 -34 -114 -34c-59 0 -114 32 -114 97c0 72 54 121 101 149c35 21 73 34 113 34z" fill="currentColor"/>
<text transform="translate(38.4717, 33.3172)" font-family="Century Schoolbook L" font-size="2.4695" text-anchor="start" fill="currentColor">
<tspan>
my</tspan>
</text>
<rect transform="translate(40.8031, 28.0246)" x="-0.0757" y="-2.5000" width="0.1514" height="3.3269" ry="0.0500" fill="currentColor"/>
<path transform="translate(9.8338, 29.0246) scale(0.0040, -0.0040)" d="M379 264c3 0 7 1 10 1c157 0 258 -129 258 -263c0 -77 -33 -155 -108 -211c-22 -16 -46 -29 -72 -37c3 -33 4 -66 4 -99c0 -21 0 -41 -1 -62c-7 -121 -91 -229 -211 -229c-108 0 -196 88 -196 197c0 58 54 103 113 103c54 0 95 -47 95 -103c0 -52 -43 -95 -95 -95
c-9 0 -18 1 -27 4c25 -37 66 -61 113 -61c95 0 156 93 162 191c1 19 2 38 2 57c0 29 -1 58 -3 87c-29 -5 -58 -8 -88 -8c-189 0 -333 173 -333 376c0 177 129 308 244 443c-20 62 -40 124 -48 189c-7 52 -7 105 -7 158c0 114 54 221 147 288c4 3 8 4 12 4c5 0 9 -2 13 -5
c72 -83 135 -243 135 -356c0 -142 -84 -255 -176 -364c21 -68 40 -136 57 -205zM463 -201c65 24 110 94 110 161c0 88 -64 175 -167 188c24 -114 44 -227 57 -349zM77 25c0 -133 128 -243 261 -243c27 0 55 1 81 5c-13 126 -35 244 -60 362c-79 -8 -124 -60 -124 -118
c0 -43 25 -88 80 -120c5 -5 7 -11 7 -17c0 -12 -10 -23 -23 -23c-3 0 -7 1 -10 2c-81 43 -118 115 -118 186c0 89 60 177 163 200c-14 57 -30 113 -47 169c-105 -122 -210 -243 -210 -403zM403 1038c-99 -46 -161 -145 -161 -254c0 -71 21 -130 39 -188
c78 97 142 199 142 324c0 51 -4 72 -20 118z" fill="currentColor"/>
<rect transform="translate(77.7492, 28.0246)" x="-0.0757" y="0.1731" width="0.1514" height="3.1602" ry="0.0500" fill="currentColor"/>
<path transform="translate(63.0707, 27.5246) scale(0.0040, -0.0040)" d="M312 63c0 23 -20 40 -41 40c-4 0 -7 -1 -11 -2c-30 -8 -75 -38 -111 -61s-81 -52 -101 -76c-7 -8 -10 -17 -10 -27c0 -23 19 -40 40 -40c4 0 8 1 12 2c30 8 75 38 111 61s81 52 101 76c7 8 10 17 10 27zM258 140c51 0 92 -23 92 -78c0 -19 -4 -38 -10 -56
c-11 -38 -31 -75 -64 -97c-53 -36 -112 -49 -185 -49c-51 0 -91 23 -91 78c0 19 4 38 10 56c11 38 30 75 63 97c53 36 112 49 185 49z" fill="currentColor"/>
<rect transform="translate(88.6801, 28.0246)" x="-0.0757" y="-3.0000" width="0.1514" height="3.3269" ry="0.0500" fill="currentColor"/>
<text transform="translate(63.2578, 33.3172)" font-family="Century Schoolbook L" font-size="2.4695" text-anchor="start" fill="currentColor">
<tspan>
I</tspan>
</text>
<rect transform="translate(63.1464, 28.0246)" x="-0.0757" y="-0.2518" width="0.1514" height="3.2518" ry="0.0500" fill="currentColor"/>
<text transform="translate(85.2817, 33.3172)" font-family="Century Schoolbook L" font-size="2.4695" text-anchor="start" fill="currentColor">
<tspan>
Thee</tspan>
</text>
<text transform="translate(77.6735, 24.5246)" font-family="sans-serif" font-size="1.9603" text-anchor="start" fill="currentColor">
<tspan>
G</tspan>
</text>
<text transform="translate(79.2099, 24.5246)" font-family="sans-serif" font-size="1.9603" text-anchor="start" fill="currentColor">
<tspan/>
</text>
<text transform="translate(79.2099, 24.5246)" font-family="sans-serif" font-size="1.9603" text-anchor="start" fill="currentColor">
<tspan/>
</text>
<text transform="translate(79.2099, 23.0246)" font-family="sans-serif" font-size="1.3858" text-anchor="start" fill="currentColor">
<tspan/>
</text>
<path transform="translate(87.4412, 28.5246) scale(0.0040, -0.0040)" d="M214 140c59 0 115 -32 115 -97c0 -72 -54 -121 -101 -149c-35 -21 -74 -34 -114 -34c-59 0 -114 32 -114 97c0 72 54 121 101 149c35 21 73 34 113 34z" fill="currentColor"/>
<path transform="translate(77.6735, 28.0246) scale(0.0040, -0.0040)" d="M214 140c59 0 115 -32 115 -97c0 -72 -54 -121 -101 -149c-35 -21 -74 -34 -114 -34c-59 0 -114 32 -114 97c0 72 54 121 101 149c35 21 73 34 113 34z" fill="currentColor"/>
<text transform="translate(76.5169, 33.3172)" font-family="Century Schoolbook L" font-size="2.4695" text-anchor="start" fill="currentColor">
<tspan>
see</tspan>
</text>
<line transform="translate(9.0337, 42.0246)" stroke-linejoin="round" stroke-linecap="round" stroke-width="0.1164" stroke="currentColor" x1="0.0582" y1="-0.0000" x2="138.1582" y2="-0.0000"/>
<line transform="translate(9.0337, 41.0246)" stroke-linejoin="round" stroke-linecap="round" stroke-width="0.1164" stroke="currentColor" x1="0.0582" y1="-0.0000" x2="138.1582" y2="-0.0000"/>
<line transform="translate(9.0337, 40.0246)" stroke-linejoin="round" stroke-linecap="round" stroke-width="0.1164" stroke="currentColor" x1="0.0582" y1="-0.0000" x2="138.1582" y2="-0.0000"/>
<line transform="translate(9.0337, 39.0246)" stroke-linejoin="round" stroke-linecap="round" stroke-width="0.1164" stroke="currentColor" x1="0.0582" y1="-0.0000" x2="138.1582" y2="-0.0000"/>
<line transform="translate(9.0337, 38.0246)" stroke-linejoin="round" stroke-linecap="round" stroke-width="0.1164" stroke="currentColor" x1="0.0582" y1="-0.0000" x2="138.1582" y2="-0.0000"/>
<rect transform="translate(147.0289, 40.0246)" x="0.0000" y="-2.0000" width="0.2212" height="4.0000" ry="0.0000" fill="currentColor"/>
<rect transform="translate(48.5145, 40.0246)" x="0.0000" y="-2.0000" width="0.2212" height="4.0000" ry="0.0000" fill="currentColor"/>
<rect transform="translate(76.6047, 40.0246)" x="0.0000" y="-2.0000" width="0.2212" height="4.0000" ry="0.0000" fill="currentColor"/>
<rect transform="translate(115.2627, 40.0246)" x="0.0000" y="-2.0000" width="0.2212" height="4.0000" ry="0.0000" fill="currentColor"/>
<text transform="translate(97.5577, 36.5246)" font-family="sans-serif" font-size="1.9603" text-anchor="start" fill="currentColor">
<tspan>
E</tspan>
</text>
<text transform="translate(98.7954, 36.5246)" font-family="sans-serif" font-size="1.9603" text-anchor="start" fill="currentColor">
<tspan/>
</text>
<text transform="translate(98.7954, 36.5246)" font-family="sans-serif" font-size="1.9603" text-anchor="start" fill="currentColor">
<tspan/>
</text>
<text transform="translate(98.7954, 35.0246)" font-family="sans-serif" font-size="1.3858" text-anchor="start" fill="currentColor">
<tspan/>
</text>
<path transform="translate(97.5577, 41.0246) scale(0.0040, -0.0040)" d="M214 140c59 0 115 -32 115 -97c0 -72 -54 -121 -101 -149c-35 -21 -74 -34 -114 -34c-59 0 -114 32 -114 97c0 72 54 121 101 149c35 21 73 34 113 34z" fill="currentColor"/>
<text transform="translate(94.6086, 45.3598)" font-family="Century Schoolbook L" font-size="2.4695" text-anchor="start" fill="currentColor">
<tspan>
things</tspan>
</text>
<rect transform="translate(98.7966, 40.0246)" x="-0.0757" y="-2.5000" width="0.1514" height="3.3269" ry="0.0500" fill="currentColor"/>
<path transform="translate(107.5601, 41.5246) scale(0.0040, -0.0040)" d="M214 140c59 0 115 -32 115 -97c0 -72 -54 -121 -101 -149c-35 -21 -74 -34 -114 -34c-59 0 -114 32 -114 97c0 72 54 121 101 149c35 21 73 34 113 34z" fill="currentColor"/>
<text transform="translate(106.7237, 45.3598)" font-family="Century Schoolbook L" font-size="2.4695" text-anchor="start" fill="currentColor">
<tspan>
un</tspan>
</text>
<rect transform="translate(108.7991, 40.0246)" x="-0.0757" y="-2.0000" width="0.1514" height="3.3269" ry="0.0500" fill="currentColor"/>
<text transform="translate(77.3864, 45.3598)" font-family="Century Schoolbook L" font-size="2.4695" text-anchor="start" fill="currentColor">
<tspan>
han</tspan>
</text>
<rect transform="translate(80.1447, 40.0246)" x="-0.0757" y="-3.0000" width="0.1514" height="3.3269" ry="0.0500" fill="currentColor"/>
<path transform="translate(87.3419, 41.0246) scale(0.0040, -0.0040)" d="M214 140c59 0 115 -32 115 -97c0 -72 -54 -121 -101 -149c-35 -21 -74 -34 -114 -34c-59 0 -114 32 -114 97c0 72 54 121 101 149c35 21 73 34 113 34z" fill="currentColor"/>
<text transform="translate(86.2920, 45.3598)" font-family="Century Schoolbook L" font-size="2.4695" text-anchor="start" fill="currentColor">
<tspan>
dle</tspan>
</text>
<rect transform="translate(88.5808, 40.0246)" x="-0.0757" y="-2.5000" width="0.1514" height="3.3269" ry="0.0500" fill="currentColor"/>
<rect transform="translate(112.3432, 45.3598)" x="0.0000" y="-0.5714" width="0.6600" height="0.1514" ry="0.0466" fill="currentColor"/>
<rect transform="translate(83.6859, 45.3598)" x="0.0000" y="-0.5714" width="0.6600" height="0.1514" ry="0.0466" fill="currentColor"/>
<text transform="translate(117.5638, 36.5246)" font-family="sans-serif" font-size="1.9603" text-anchor="start" fill="currentColor">
<tspan>
A</tspan>
</text>
<text transform="translate(118.8869, 36.5246)" font-family="sans-serif" font-size="1.9603" text-anchor="start" fill="currentColor">
<tspan/>
</text>
<text transform="translate(118.8869, 36.5246)" font-family="sans-serif" font-size="1.9603" text-anchor="start" fill="currentColor">
<tspan/>
</text>
<text transform="translate(118.8869, 35.0246)" font-family="sans-serif" font-size="1.3858" text-anchor="start" fill="currentColor">
<tspan/>
</text>
<path transform="translate(117.5638, 42.0246) scale(0.0040, -0.0040)" d="M212 110c-49 0 -67 -43 -67 -88c0 -74 56 -132 129 -132c49 0 67 43 67 88c0 74 -56 132 -129 132zM487 0c0 -43 -34 -77 -72 -99c-52 -30 -112 -41 -172 -41s-120 11 -172 41c-38 22 -71 56 -71 99s33 77 71 99c52 30 112 41 172 41s120 -11 172 -41
c38 -22 72 -56 72 -99z" fill="currentColor"/>
<text transform="translate(115.6352, 45.3598)" font-family="Century Schoolbook L" font-size="2.4695" text-anchor="start" fill="currentColor">
<tspan>
seen;</tspan>
</text>
<text transform="translate(16.7743, 36.5246)" font-family="sans-serif" font-size="1.9603" text-anchor="start" fill="currentColor">
<tspan>
D</tspan>
</text>
<text transform="translate(18.2680, 36.5246)" font-family="sans-serif" font-size="1.9603" text-anchor="start" fill="currentColor">
<tspan/>
</text>
<text transform="translate(18.2680, 36.5246)" font-family="sans-serif" font-size="1.9603" text-anchor="start" fill="currentColor">
<tspan/>
</text>
<text transform="translate(18.2680, 35.0246)" font-family="sans-serif" font-size="1.3858" text-anchor="start" fill="currentColor">
<tspan/>
</text>
<path transform="translate(16.7743, 40.5246) scale(0.0040, -0.0040)" d="M312 63c0 23 -20 40 -41 40c-4 0 -7 -1 -11 -2c-30 -8 -75 -38 -111 -61s-81 -52 -101 -76c-7 -8 -10 -17 -10 -27c0 -23 19 -40 40 -40c4 0 8 1 12 2c30 8 75 38 111 61s81 52 101 76c7 8 10 17 10 27zM258 140c51 0 92 -23 92 -78c0 -19 -4 -38 -10 -56
c-11 -38 -31 -75 -64 -97c-53 -36 -112 -49 -185 -49c-51 0 -91 23 -91 78c0 19 4 38 10 56c11 38 30 75 63 97c53 36 112 49 185 49z" fill="currentColor"/>
<text transform="translate(14.6567, 45.3598)" font-family="Century Schoolbook L" font-size="2.4695" text-anchor="start" fill="currentColor">
<tspan>
Here</tspan>
</text>
<rect transform="translate(18.0971, 40.0246)" x="-0.0757" y="-3.0000" width="0.1514" height="3.2518" ry="0.0500" fill="currentColor"/>
<text transform="translate(30.3919, 36.5246)" font-family="sans-serif" font-size="1.9603" text-anchor="start" fill="currentColor">
<tspan>
B</tspan>
</text>
<text transform="translate(31.7149, 36.5246)" font-family="sans-serif" font-size="1.9603" text-anchor="start" fill="currentColor">
<tspan/>
</text>
<text transform="translate(31.7149, 36.5246)" font-family="sans-serif" font-size="1.9603" text-anchor="start" fill="currentColor">
<tspan>
m</tspan>
</text>
<text transform="translate(33.5928, 35.0246)" font-family="sans-serif" font-size="1.3858" text-anchor="start" fill="currentColor">
<tspan/>
</text>
<path transform="translate(30.3919, 40.5246) scale(0.0040, -0.0040)" d="M214 140c59 0 115 -32 115 -97c0 -72 -54 -121 -101 -149c-35 -21 -74 -34 -114 -34c-59 0 -114 32 -114 97c0 72 54 121 101 149c35 21 73 34 113 34z" fill="currentColor"/>
<text transform="translate(28.3391, 45.3598)" font-family="Century Schoolbook L" font-size="2.4695" text-anchor="start" fill="currentColor">
<tspan>
faith</tspan>
</text>
<rect transform="translate(31.6308, 40.0246)" x="-0.0757" y="-3.0000" width="0.1514" height="3.3269" ry="0.0500" fill="currentColor"/>
<path transform="translate(39.9889, 41.0246) scale(0.0040, -0.0040)" d="M214 140c59 0 115 -32 115 -97c0 -72 -54 -121 -101 -149c-35 -21 -74 -34 -114 -34c-59 0 -114 32 -114 97c0 72 54 121 101 149c35 21 73 34 113 34z" fill="currentColor"/>
<text transform="translate(38.6616, 45.3598)" font-family="Century Schoolbook L" font-size="2.4695" text-anchor="start" fill="currentColor">
<tspan>
can</tspan>
</text>
<rect transform="translate(41.2278, 40.0246)" x="-0.0757" y="-2.5000" width="0.1514" height="3.3269" ry="0.0500" fill="currentColor"/>
<text transform="translate(8.0521, 36.9320)" font-family="Century Schoolbook L" font-size="1.7463" text-anchor="start" fill="currentColor">
<tspan>
5</tspan>
</text>
<path transform="translate(9.8338, 41.0246) scale(0.0040, -0.0040)" d="M379 264c3 0 7 1 10 1c157 0 258 -129 258 -263c0 -77 -33 -155 -108 -211c-22 -16 -46 -29 -72 -37c3 -33 4 -66 4 -99c0 -21 0 -41 -1 -62c-7 -121 -91 -229 -211 -229c-108 0 -196 88 -196 197c0 58 54 103 113 103c54 0 95 -47 95 -103c0 -52 -43 -95 -95 -95
c-9 0 -18 1 -27 4c25 -37 66 -61 113 -61c95 0 156 93 162 191c1 19 2 38 2 57c0 29 -1 58 -3 87c-29 -5 -58 -8 -88 -8c-189 0 -333 173 -333 376c0 177 129 308 244 443c-20 62 -40 124 -48 189c-7 52 -7 105 -7 158c0 114 54 221 147 288c4 3 8 4 12 4c5 0 9 -2 13 -5
c72 -83 135 -243 135 -356c0 -142 -84 -255 -176 -364c21 -68 40 -136 57 -205zM463 -201c65 24 110 94 110 161c0 88 -64 175 -167 188c24 -114 44 -227 57 -349zM77 25c0 -133 128 -243 261 -243c27 0 55 1 81 5c-13 126 -35 244 -60 362c-79 -8 -124 -60 -124 -118
c0 -43 25 -88 80 -120c5 -5 7 -11 7 -17c0 -12 -10 -23 -23 -23c-3 0 -7 1 -10 2c-81 43 -118 115 -118 186c0 89 60 177 163 200c-14 57 -30 113 -47 169c-105 -122 -210 -243 -210 -403zM403 1038c-99 -46 -161 -145 -161 -254c0 -71 21 -130 39 -188
c78 97 142 199 142 324c0 51 -4 72 -20 118z" fill="currentColor"/>
<path transform="translate(13.4743, 40.0246) scale(0.0040, -0.0040)" d="M31 37l-2 -62v-11c0 -22 2 -43 5 -64c43 38 89 80 89 137c0 32 -14 65 -42 65c-31 0 -49 -32 -50 -65zM-16 -140l-14 590c9 5 20 8 30 8s21 -3 30 -8l-8 -340c25 24 59 38 94 38c50 0 84 -50 84 -104c0 -78 -83 -117 -141 -169c-17 -15 -25 -44 -49 -44
c-15 0 -26 13 -26 29z" fill="currentColor"/>
<path transform="translate(64.5128, 41.0246) scale(0.0040, -0.0040)" d="M312 63c0 23 -20 40 -41 40c-4 0 -7 -1 -11 -2c-30 -8 -75 -38 -111 -61s-81 -52 -101 -76c-7 -8 -10 -17 -10 -27c0 -23 19 -40 40 -40c4 0 8 1 12 2c30 8 75 38 111 61s81 52 101 76c7 8 10 17 10 27zM258 140c51 0 92 -23 92 -78c0 -19 -4 -38 -10 -56
c-11 -38 -31 -75 -64 -97c-53 -36 -112 -49 -185 -49c-51 0 -91 23 -91 78c0 19 4 38 10 56c11 38 30 75 63 97c53 36 112 49 185 49z" fill="currentColor"/>
<text transform="translate(63.0781, 45.3598)" font-family="Century Schoolbook L" font-size="2.4695" text-anchor="start" fill="currentColor">
<tspan>
and</tspan>
</text>
<rect transform="translate(65.8357, 40.0246)" x="-0.0757" y="-2.5000" width="0.1514" height="3.2518" ry="0.0500" fill="currentColor"/>
<text transform="translate(78.9058, 36.5246)" font-family="sans-serif" font-size="1.9603" text-anchor="start" fill="currentColor">
<tspan>
D</tspan>
</text>
<text transform="translate(80.3995, 36.5246)" font-family="sans-serif" font-size="1.9603" text-anchor="start" fill="currentColor">
<tspan/>
</text>
<text transform="translate(80.3995, 36.5246)" font-family="sans-serif" font-size="1.9603" text-anchor="start" fill="currentColor">
<tspan/>
</text>
<text transform="translate(80.3995, 35.0246)" font-family="sans-serif" font-size="1.3858" text-anchor="start" fill="currentColor">
<tspan/>
</text>
<path transform="translate(78.9058, 40.5246) scale(0.0040, -0.0040)" d="M214 140c59 0 115 -32 115 -97c0 -72 -54 -121 -101 -149c-35 -21 -74 -34 -114 -34c-59 0 -114 32 -114 97c0 72 54 121 101 149c35 21 73 34 113 34z" fill="currentColor"/>
<text transform="translate(51.1719, 36.5246)" font-family="sans-serif" font-size="1.9603" text-anchor="start" fill="currentColor">
<tspan>
A</tspan>
</text>
<text transform="translate(52.4950, 36.5246)" font-family="sans-serif" font-size="1.9603" text-anchor="start" fill="currentColor">
<tspan/>
</text>
<text transform="translate(52.4950, 36.5246)" font-family="sans-serif" font-size="1.9603" text-anchor="start" fill="currentColor">
<tspan/>
</text>
<text transform="translate(52.4950, 35.0246)" font-family="sans-serif" font-size="1.3858" text-anchor="start" fill="currentColor">
<tspan/>
</text>
<path transform="translate(51.1719, 39.5246) scale(0.0040, -0.0040)" d="M312 63c0 23 -20 40 -41 40c-4 0 -7 -1 -11 -2c-30 -8 -75 -38 -111 -61s-81 -52 -101 -76c-7 -8 -10 -17 -10 -27c0 -23 19 -40 40 -40c4 0 8 1 12 2c30 8 75 38 111 61s81 52 101 76c7 8 10 17 10 27zM258 140c51 0 92 -23 92 -78c0 -19 -4 -38 -10 -56
c-11 -38 -31 -75 -64 -97c-53 -36 -112 -49 -185 -49c-51 0 -91 23 -91 78c0 19 4 38 10 56c11 38 30 75 63 97c53 36 112 49 185 49z" fill="currentColor"/>
<text transform="translate(48.7129, 45.3598)" font-family="Century Schoolbook L" font-size="2.4695" text-anchor="start" fill="currentColor">
<tspan>
touch</tspan>
</text>
<rect transform="translate(51.2476, 40.0246)" x="-0.0757" y="-0.2518" width="0.1514" height="3.2518" ry="0.0500" fill="currentColor"/>
<line transform="translate(9.0337, 54.0246)" stroke-linejoin="round" stroke-linecap="round" stroke-width="0.1164" stroke="currentColor" x1="0.0582" y1="-0.0000" x2="138.1582" y2="-0.0000"/>
<line transform="translate(9.0337, 53.0246)" stroke-linejoin="round" stroke-linecap="round" stroke-width="0.1164" stroke="currentColor" x1="0.0582" y1="-0.0000" x2="138.1582" y2="-0.0000"/>
<line transform="translate(9.0337, 52.0246)" stroke-linejoin="round" stroke-linecap="round" stroke-width="0.1164" stroke="currentColor" x1="0.0582" y1="-0.0000" x2="138.1582" y2="-0.0000"/>
<line transform="translate(9.0337, 51.0246)" stroke-linejoin="round" stroke-linecap="round" stroke-width="0.1164" stroke="currentColor" x1="0.0582" y1="-0.0000" x2="138.1582" y2="-0.0000"/>
<line transform="translate(9.0337, 50.0246)" stroke-linejoin="round" stroke-linecap="round" stroke-width="0.1164" stroke="currentColor" x1="0.0582" y1="-0.0000" x2="138.1582" y2="-0.0000"/>
<rect transform="translate(83.0986, 52.0246)" x="0.0000" y="-2.0000" width="0.2212" height="4.0000" ry="0.0000" fill="currentColor"/>
<rect transform="translate(51.2429, 52.0246)" x="0.0000" y="-2.0000" width="0.2212" height="4.0000" ry="0.0000" fill="currentColor"/>
<rect transform="translate(147.0289, 52.0246)" x="0.0000" y="-2.0000" width="0.2212" height="4.0000" ry="0.0000" fill="currentColor"/>
<rect transform="translate(124.2376, 52.0246)" x="0.0000" y="-2.0000" width="0.2212" height="4.0000" ry="0.0000" fill="currentColor"/>
<text transform="translate(14.6567, 57.3598)" font-family="Century Schoolbook L" font-size="2.4695" text-anchor="start" fill="currentColor">
<tspan>
Here</tspan>
</text>
<text transform="translate(53.9027, 48.5246)" font-family="sans-serif" font-size="1.9603" text-anchor="start" fill="currentColor">
<tspan>
A</tspan>
</text>
<text transform="translate(55.2257, 48.5246)" font-family="sans-serif" font-size="1.9603" text-anchor="start" fill="currentColor">
<tspan/>
</text>
<text transform="translate(55.2257, 48.5246)" font-family="sans-serif" font-size="1.9603" text-anchor="start" fill="currentColor">
<tspan/>
</text>
<text transform="translate(55.2257, 47.0246)" font-family="sans-serif" font-size="1.3858" text-anchor="start" fill="currentColor">
<tspan/>
</text>
<rect transform="translate(43.8039, 52.0246)" x="-0.0757" y="-2.0000" width="0.1514" height="3.3269" ry="0.0500" fill="currentColor"/>
<text transform="translate(42.7101, 57.3598)" font-family="Century Schoolbook L" font-size="2.4695" text-anchor="start" fill="currentColor">
<tspan>
I</tspan>
</text>
<text transform="translate(69.3777, 48.5246)" font-family="sans-serif" font-size="1.9603" text-anchor="start" fill="currentColor">
<tspan>
D</tspan>
</text>
<text transform="translate(70.8715, 48.5246)" font-family="sans-serif" font-size="1.9603" text-anchor="start" fill="currentColor">
<tspan/>
</text>
<text transform="translate(70.8715, 48.5246)" font-family="sans-serif" font-size="1.9603" text-anchor="start" fill="currentColor">
<tspan/>
</text>
<text transform="translate(70.8715, 47.0246)" font-family="sans-serif" font-size="1.3858" text-anchor="start" fill="currentColor">
<tspan/>
</text>
<path transform="translate(42.5650, 53.5246) scale(0.0040, -0.0040)" d="M214 140c59 0 115 -32 115 -97c0 -72 -54 -121 -101 -149c-35 -21 -74 -34 -114 -34c-59 0 -114 32 -114 97c0 72 54 121 101 149c35 21 73 34 113 34z" fill="currentColor"/>
<text transform="translate(42.5650, 48.5246)" font-family="sans-serif" font-size="1.9603" text-anchor="start" fill="currentColor">
<tspan>
D</tspan>
</text>
<text transform="translate(44.0587, 48.5246)" font-family="sans-serif" font-size="1.9603" text-anchor="start" fill="currentColor">
<tspan/>
</text>
<text transform="translate(44.0587, 48.5246)" font-family="sans-serif" font-size="1.9603" text-anchor="start" fill="currentColor">
<tspan/>
</text>
<text transform="translate(44.0587, 47.0246)" font-family="sans-serif" font-size="1.3858" text-anchor="start" fill="currentColor">
<tspan/>
</text>
<rect transform="translate(53.9783, 52.0246)" x="-0.0757" y="0.2482" width="0.1514" height="3.0852" ry="0.0500" fill="currentColor"/>
<text transform="translate(30.0038, 57.3598)" font-family="Century Schoolbook L" font-size="2.4695" text-anchor="start" fill="currentColor">
<tspan>
would</tspan>
</text>
<path transform="translate(32.7608, 53.5246) scale(0.0040, -0.0040)" d="M214 140c59 0 115 -32 115 -97c0 -72 -54 -121 -101 -149c-35 -21 -74 -34 -114 -34c-59 0 -114 32 -114 97c0 72 54 121 101 149c35 21 73 34 113 34z" fill="currentColor"/>
<text transform="translate(32.7608, 48.5246)" font-family="sans-serif" font-size="1.9603" text-anchor="start" fill="currentColor">
<tspan>
G</tspan>
</text>
<text transform="translate(34.2972, 48.5246)" font-family="sans-serif" font-size="1.9603" text-anchor="start" fill="currentColor">
<tspan/>
</text>
<text transform="translate(34.2972, 48.5246)" font-family="sans-serif" font-size="1.9603" text-anchor="start" fill="currentColor">
<tspan/>
</text>
<text transform="translate(34.2972, 47.0246)" font-family="sans-serif" font-size="1.3858" text-anchor="start" fill="currentColor">
<tspan/>
</text>
<rect transform="translate(92.4369, 57.3598)" x="0.0000" y="-0.5714" width="0.6600" height="0.1514" ry="0.0466" fill="currentColor"/>
<path transform="translate(69.3777, 52.5246) scale(0.0040, -0.0040)" d="M312 63c0 23 -20 40 -41 40c-4 0 -7 -1 -11 -2c-30 -8 -75 -38 -111 -61s-81 -52 -101 -76c-7 -8 -10 -17 -10 -27c0 -23 19 -40 40 -40c4 0 8 1 12 2c30 8 75 38 111 61s81 52 101 76c7 8 10 17 10 27zM258 140c51 0 92 -23 92 -78c0 -19 -4 -38 -10 -56
c-11 -38 -31 -75 -64 -97c-53 -36 -112 -49 -185 -49c-51 0 -91 23 -91 78c0 19 4 38 10 56c11 38 30 75 63 97c53 36 112 49 185 49z" fill="currentColor"/>
<text transform="translate(67.4949, 57.3598)" font-family="Century Schoolbook L" font-size="2.4695" text-anchor="start" fill="currentColor">
<tspan>
with</tspan>
</text>
<rect transform="translate(70.7006, 52.0246)" x="-0.0757" y="-3.0000" width="0.1514" height="3.2518" ry="0.0500" fill="currentColor"/>
<path transform="translate(85.7911, 51.5246) scale(0.0040, -0.0040)" d="M214 140c59 0 115 -32 115 -97c0 -72 -54 -121 -101 -149c-35 -21 -74 -34 -114 -34c-59 0 -114 32 -114 97c0 72 54 121 101 149c35 21 73 34 113 34z" fill="currentColor"/>
<text transform="translate(84.0157, 57.3598)" font-family="Century Schoolbook L" font-size="2.4695" text-anchor="start" fill="currentColor">
<tspan>
firm</tspan>
</text>
<path transform="translate(87.5472, 51.5246) scale(0.0040, -0.0040)" d="M0 0c0 30 25 55 55 55s55 -25 55 -55s-25 -55 -55 -55s-55 25 -55 55z" fill="currentColor"/>
<rect transform="translate(85.8668, 52.0246)" x="-0.0757" y="-0.3269" width="0.1514" height="3.3269" ry="0.0500" fill="currentColor"/>
<rect transform="translate(33.9997, 52.0246)" x="-0.0757" y="-2.0000" width="0.1514" height="3.3269" ry="0.0500" fill="currentColor"/>
<path transform="translate(16.7743, 53.5246) scale(0.0040, -0.0040)" d="M312 63c0 23 -20 40 -41 40c-4 0 -7 -1 -11 -2c-30 -8 -75 -38 -111 -61s-81 -52 -101 -76c-7 -8 -10 -17 -10 -27c0 -23 19 -40 40 -40c4 0 8 1 12 2c30 8 75 38 111 61s81 52 101 76c7 8 10 17 10 27zM258 140c51 0 92 -23 92 -78c0 -19 -4 -38 -10 -56
c-11 -38 -31 -75 -64 -97c-53 -36 -112 -49 -185 -49c-51 0 -91 23 -91 78c0 19 4 38 10 56c11 38 30 75 63 97c53 36 112 49 185 49z" fill="currentColor"/>
<path transform="translate(97.1690, 52.5246) scale(0.0040, -0.0040)" d="M214 140c59 0 115 -32 115 -97c0 -72 -54 -121 -101 -149c-35 -21 -74 -34 -114 -34c-59 0 -114 32 -114 97c0 72 54 121 101 149c35 21 73 34 113 34z" fill="currentColor"/>
<text transform="translate(96.6526, 57.3598)" font-family="Century Schoolbook L" font-size="2.4695" text-anchor="start" fill="currentColor">
<tspan>
er</tspan>
</text>
<rect transform="translate(98.4079, 52.0246)" x="-0.0757" y="-3.0000" width="0.1514" height="3.3269" ry="0.0500" fill="currentColor"/>
<path transform="translate(98.4836, 49.0746) scale(0.0040, -0.0040)" d="M0 0c0 -197 209 -334 209 -531c0 -71 -15 -140 -41 -206c-5 -9 -14 -13 -22 -13c-14 0 -29 12 -26 30c27 60 43 124 43 189c0 102 -93 206 -163 281h-19v250h19z" fill="currentColor"/>
<text transform="translate(104.2306, 48.5246)" font-family="sans-serif" font-size="1.9603" text-anchor="start" fill="currentColor">
<tspan>
G</tspan>
</text>
<text transform="translate(105.7671, 48.5246)" font-family="sans-serif" font-size="1.9603" text-anchor="start" fill="currentColor">
<tspan/>
</text>
<text transform="translate(105.7671, 48.5246)" font-family="sans-serif" font-size="1.9603" text-anchor="start" fill="currentColor">
<tspan/>
</text>
<text transform="translate(105.7671, 47.0246)" font-family="sans-serif" font-size="1.3858" text-anchor="start" fill="currentColor">
<tspan/>
</text>
<path transform="translate(104.2306, 53.0246) scale(0.0040, -0.0040)" d="M214 140c59 0 115 -32 115 -97c0 -72 -54 -121 -101 -149c-35 -21 -74 -34 -114 -34c-59 0 -114 32 -114 97c0 72 54 121 101 149c35 21 73 34 113 34z" fill="currentColor"/>
<text transform="translate(102.0071, 57.3598)" font-family="Century Schoolbook L" font-size="2.4695" text-anchor="start" fill="currentColor">
<tspan>
hand</tspan>
</text>
<text transform="translate(8.0521, 48.9320)" font-family="Century Schoolbook L" font-size="1.7463" text-anchor="start" fill="currentColor">
<tspan>
9</tspan>
</text>
<path transform="translate(9.8338, 53.0246) scale(0.0040, -0.0040)" d="M379 264c3 0 7 1 10 1c157 0 258 -129 258 -263c0 -77 -33 -155 -108 -211c-22 -16 -46 -29 -72 -37c3 -33 4 -66 4 -99c0 -21 0 -41 -1 -62c-7 -121 -91 -229 -211 -229c-108 0 -196 88 -196 197c0 58 54 103 113 103c54 0 95 -47 95 -103c0 -52 -43 -95 -95 -95
c-9 0 -18 1 -27 4c25 -37 66 -61 113 -61c95 0 156 93 162 191c1 19 2 38 2 57c0 29 -1 58 -3 87c-29 -5 -58 -8 -88 -8c-189 0 -333 173 -333 376c0 177 129 308 244 443c-20 62 -40 124 -48 189c-7 52 -7 105 -7 158c0 114 54 221 147 288c4 3 8 4 12 4c5 0 9 -2 13 -5
c72 -83 135 -243 135 -356c0 -142 -84 -255 -176 -364c21 -68 40 -136 57 -205zM463 -201c65 24 110 94 110 161c0 88 -64 175 -167 188c24 -114 44 -227 57 -349zM77 25c0 -133 128 -243 261 -243c27 0 55 1 81 5c-13 126 -35 244 -60 362c-79 -8 -124 -60 -124 -118
c0 -43 25 -88 80 -120c5 -5 7 -11 7 -17c0 -12 -10 -23 -23 -23c-3 0 -7 1 -10 2c-81 43 -118 115 -118 186c0 89 60 177 163 200c-14 57 -30 113 -47 169c-105 -122 -210 -243 -210 -403zM403 1038c-99 -46 -161 -145 -161 -254c0 -71 21 -130 39 -188
c78 97 142 199 142 324c0 51 -4 72 -20 118z" fill="currentColor"/>
<path transform="translate(13.4743, 52.0246) scale(0.0040, -0.0040)" d="M31 37l-2 -62v-11c0 -22 2 -43 5 -64c43 38 89 80 89 137c0 32 -14 65 -42 65c-31 0 -49 -32 -50 -65zM-16 -140l-14 590c9 5 20 8 30 8s21 -3 30 -8l-8 -340c25 24 59 38 94 38c50 0 84 -50 84 -104c0 -78 -83 -117 -141 -169c-17 -15 -25 -44 -49 -44
c-15 0 -26 13 -26 29z" fill="currentColor"/>
<text transform="translate(127.8846, 48.5246)" font-family="sans-serif" font-size="1.9603" text-anchor="start" fill="currentColor">
<tspan>
A</tspan>
</text>
<text transform="translate(129.2077, 48.5246)" font-family="sans-serif" font-size="1.9603" text-anchor="start" fill="currentColor">
<tspan/>
</text>
<text transform="translate(129.2077, 48.5246)" font-family="sans-serif" font-size="1.9603" text-anchor="start" fill="currentColor">
<tspan/>
</text>
<text transform="translate(129.2077, 47.0246)" font-family="sans-serif" font-size="1.3858" text-anchor="start" fill="currentColor">
<tspan/>
</text>
<path transform="translate(127.8846, 54.0246) scale(0.0040, -0.0040)" d="M212 110c-49 0 -67 -43 -67 -88c0 -74 56 -132 129 -132c49 0 67 43 67 88c0 74 -56 132 -129 132zM487 0c0 -43 -34 -77 -72 -99c-52 -30 -112 -41 -172 -41s-120 11 -172 41c-38 22 -71 56 -71 99s33 77 71 99c52 30 112 41 172 41s120 -11 172 -41
c38 -22 72 -56 72 -99z" fill="currentColor"/>
<text transform="translate(125.4438, 57.3598)" font-family="Century Schoolbook L" font-size="2.4695" text-anchor="start" fill="currentColor">
<tspan>
grace,</tspan>
</text>
<text transform="translate(16.7743, 48.5246)" font-family="sans-serif" font-size="1.9603" text-anchor="start" fill="currentColor">
<tspan>
D</tspan>
</text>
<text transform="translate(18.2680, 48.5246)" font-family="sans-serif" font-size="1.9603" text-anchor="start" fill="currentColor">
<tspan/>
</text>
<text transform="translate(18.2680, 48.5246)" font-family="sans-serif" font-size="1.9603" text-anchor="start" fill="currentColor">
<tspan/>
</text>
<text transform="translate(18.2680, 47.0246)" font-family="sans-serif" font-size="1.3858" text-anchor="start" fill="currentColor">
<tspan/>
</text>
<path transform="translate(53.9027, 52.0246) scale(0.0040, -0.0040)" d="M312 63c0 23 -20 40 -41 40c-4 0 -7 -1 -11 -2c-30 -8 -75 -38 -111 -61s-81 -52 -101 -76c-7 -8 -10 -17 -10 -27c0 -23 19 -40 40 -40c4 0 8 1 12 2c30 8 75 38 111 61s81 52 101 76c7 8 10 17 10 27zM258 140c51 0 92 -23 92 -78c0 -19 -4 -38 -10 -56
c-11 -38 -31 -75 -64 -97c-53 -36 -112 -49 -185 -49c-51 0 -91 23 -91 78c0 19 4 38 10 56c11 38 30 75 63 97c53 36 112 49 185 49z" fill="currentColor"/>
<text transform="translate(51.4223, 57.3598)" font-family="Century Schoolbook L" font-size="2.4695" text-anchor="start" fill="currentColor">
<tspan>
grasp</tspan>
</text>
<rect transform="translate(105.4696, 52.0246)" x="-0.0757" y="-2.5000" width="0.1514" height="3.3269" ry="0.0500" fill="currentColor"/>
<rect transform="translate(116.4687, 52.0246)" x="-0.0757" y="-2.0000" width="0.1514" height="3.3269" ry="0.0500" fill="currentColor"/>
<text transform="translate(113.6465, 57.3598)" font-family="Century Schoolbook L" font-size="2.4695" text-anchor="start" fill="currentColor">
<tspan>
Thy</tspan>
</text>
<path transform="translate(115.2298, 53.5246) scale(0.0040, -0.0040)" d="M214 140c59 0 115 -32 115 -97c0 -72 -54 -121 -101 -149c-35 -21 -74 -34 -114 -34c-59 0 -114 32 -114 97c0 72 54 121 101 149c35 21 73 34 113 34z" fill="currentColor"/>
<rect transform="translate(18.0971, 52.0246)" x="-0.0757" y="-2.0000" width="0.1514" height="3.2518" ry="0.0500" fill="currentColor"/>
<rect transform="translate(90.2063, 64.3841)" x="0.0000" y="-2.0000" width="0.2212" height="4.0000" ry="0.0000" fill="currentColor"/>
<line transform="translate(9.0337, 66.3841)" stroke-linejoin="round" stroke-linecap="round" stroke-width="0.1164" stroke="currentColor" x1="0.0582" y1="-0.0000" x2="138.1582" y2="-0.0000"/>
<line transform="translate(9.0337, 65.3841)" stroke-linejoin="round" stroke-linecap="round" stroke-width="0.1164" stroke="currentColor" x1="0.0582" y1="-0.0000" x2="138.1582" y2="-0.0000"/>
<line transform="translate(9.0337, 64.3841)" stroke-linejoin="round" stroke-linecap="round" stroke-width="0.1164" stroke="currentColor" x1="0.0582" y1="-0.0000" x2="138.1582" y2="-0.0000"/>
<line transform="translate(9.0337, 63.3841)" stroke-linejoin="round" stroke-linecap="round" stroke-width="0.1164" stroke="currentColor" x1="0.0582" y1="-0.0000" x2="138.1582" y2="-0.0000"/>
<line transform="translate(9.0337, 62.3841)" stroke-linejoin="round" stroke-linecap="round" stroke-width="0.1164" stroke="currentColor" x1="0.0582" y1="-0.0000" x2="138.1582" y2="-0.0000"/>
<rect transform="translate(146.5516, 64.3841)" x="0.0000" y="-2.0000" width="0.6986" height="4.0000" ry="0.0000" fill="currentColor"/>
<rect transform="translate(145.9811, 64.3841)" x="0.0000" y="-2.0000" width="0.2212" height="4.0000" ry="0.0000" fill="currentColor"/>
<rect transform="translate(50.2678, 64.3841)" x="0.0000" y="-2.0000" width="0.2212" height="4.0000" ry="0.0000" fill="currentColor"/>
<rect transform="translate(122.0726, 64.3841)" x="0.0000" y="-2.0000" width="0.2212" height="4.0000" ry="0.0000" fill="currentColor"/>
<text transform="translate(107.5486, 60.8841)" font-family="sans-serif" font-size="1.9603" text-anchor="start" fill="currentColor">
<tspan>
A</tspan>
</text>
<text transform="translate(108.8716, 60.8841)" font-family="sans-serif" font-size="1.9603" text-anchor="start" fill="currentColor">
<tspan/>
</text>
<text transform="translate(108.8716, 60.8841)" font-family="sans-serif" font-size="1.9603" text-anchor="start" fill="currentColor">
<tspan/>
</text>
<text transform="translate(108.8716, 59.3841)" font-family="sans-serif" font-size="1.3858" text-anchor="start" fill="currentColor">
<tspan/>
</text>
<text transform="translate(108.8716, 59.3841)" font-family="sans-serif" font-size="1.3858" text-anchor="start" fill="currentColor">
<tspan>
7</tspan>
</text>
<path transform="translate(107.5486, 65.3841) scale(0.0040, -0.0040)" d="M312 63c0 23 -20 40 -41 40c-4 0 -7 -1 -11 -2c-30 -8 -75 -38 -111 -61s-81 -52 -101 -76c-7 -8 -10 -17 -10 -27c0 -23 19 -40 40 -40c4 0 8 1 12 2c30 8 75 38 111 61s81 52 101 76c7 8 10 17 10 27zM258 140c51 0 92 -23 92 -78c0 -19 -4 -38 -10 -56
c-11 -38 -31 -75 -64 -97c-53 -36 -112 -49 -185 -49c-51 0 -91 23 -91 78c0 19 4 38 10 56c11 38 30 75 63 97c53 36 112 49 185 49z" fill="currentColor"/>
<text transform="translate(105.4310, 69.8841)" font-family="Century Schoolbook L" font-size="2.4695" text-anchor="start" fill="currentColor">
<tspan>
Thee</tspan>
</text>
<rect transform="translate(108.8714, 64.3841)" x="-0.0757" y="-2.5000" width="0.1514" height="3.2518" ry="0.0500" fill="currentColor"/>
<rect transform="translate(72.3891, 64.3841)" x="-0.0757" y="-3.0000" width="0.1514" height="3.3269" ry="0.0500" fill="currentColor"/>
<path transform="translate(81.4467, 64.3841) scale(0.0040, -0.0040)" d="M214 140c59 0 115 -32 115 -97c0 -72 -54 -121 -101 -149c-35 -21 -74 -34 -114 -34c-59 0 -114 32 -114 97c0 72 54 121 101 149c35 21 73 34 113 34z" fill="currentColor"/>
<text transform="translate(80.6529, 69.8841)" font-family="Century Schoolbook L" font-size="2.4695" text-anchor="start" fill="currentColor">
<tspan>
up</tspan>
</text>
<rect transform="translate(81.5224, 64.3841)" x="-0.0757" y="0.1731" width="0.1514" height="3.1602" ry="0.0500" fill="currentColor"/>
<text transform="translate(92.8851, 60.8841)" font-family="sans-serif" font-size="1.9603" text-anchor="start" fill="currentColor">
<tspan>
D</tspan>
</text>
<text transform="translate(94.3788, 60.8841)" font-family="sans-serif" font-size="1.9603" text-anchor="start" fill="currentColor">
<tspan/>
</text>
<text transform="translate(94.3788, 60.8841)" font-family="sans-serif" font-size="1.9603" text-anchor="start" fill="currentColor">
<tspan/>
</text>
<text transform="translate(94.3788, 59.3841)" font-family="sans-serif" font-size="1.3858" text-anchor="start" fill="currentColor">
<tspan/>
</text>
<path transform="translate(92.8851, 64.8841) scale(0.0040, -0.0040)" d="M312 63c0 23 -20 40 -41 40c-4 0 -7 -1 -11 -2c-30 -8 -75 -38 -111 -61s-81 -52 -101 -76c-7 -8 -10 -17 -10 -27c0 -23 19 -40 40 -40c4 0 8 1 12 2c30 8 75 38 111 61s81 52 101 76c7 8 10 17 10 27zM258 140c51 0 92 -23 92 -78c0 -19 -4 -38 -10 -56
c-11 -38 -31 -75 -64 -97c-53 -36 -112 -49 -185 -49c-51 0 -91 23 -91 78c0 19 4 38 10 56c11 38 30 75 63 97c53 36 112 49 185 49z" fill="currentColor"/>
<text transform="translate(92.2186, 69.8841)" font-family="Century Schoolbook L" font-size="2.4695" text-anchor="start" fill="currentColor">
<tspan>
on</tspan>
</text>
<rect transform="translate(94.2079, 64.3841)" x="-0.0757" y="-3.0000" width="0.1514" height="3.2518" ry="0.0500" fill="currentColor"/>
<rect transform="translate(87.5569, 69.8841)" x="0.0000" y="-0.5714" width="0.6600" height="0.1514" ry="0.0466" fill="currentColor"/>
<rect transform="translate(65.9655, 69.8841)" x="0.0000" y="-0.5714" width="0.6600" height="0.1514" ry="0.0466" fill="currentColor"/>
<rect transform="translate(59.2146, 69.8841)" x="0.0000" y="-0.5714" width="0.6600" height="0.1514" ry="0.0466" fill="currentColor"/>
<text transform="translate(125.7514, 60.8841)" font-family="sans-serif" font-size="1.9603" text-anchor="start" fill="currentColor">
<tspan>
D</tspan>
</text>
<text transform="translate(127.2452, 60.8841)" font-family="sans-serif" font-size="1.9603" text-anchor="start" fill="currentColor">
<tspan/>
</text>
<text transform="translate(127.2452, 60.8841)" font-family="sans-serif" font-size="1.9603" text-anchor="start" fill="currentColor">
<tspan/>
</text>
<text transform="translate(127.2452, 59.3841)" font-family="sans-serif" font-size="1.3858" text-anchor="start" fill="currentColor">
<tspan/>
</text>
<path transform="translate(125.7514, 65.8841) scale(0.0040, -0.0040)" d="M212 110c-49 0 -67 -43 -67 -88c0 -74 56 -132 129 -132c49 0 67 43 67 88c0 74 -56 132 -129 132zM487 0c0 -43 -34 -77 -72 -99c-52 -30 -112 -41 -172 -41s-120 11 -172 41c-38 22 -71 56 -71 99s33 77 71 99c52 30 112 41 172 41s120 -11 172 -41
c38 -22 72 -56 72 -99z" fill="currentColor"/>
<text transform="translate(123.9508, 69.8841)" font-family="Century Schoolbook L" font-size="2.4695" text-anchor="start" fill="currentColor">
<tspan>
lean.</tspan>
</text>
<text transform="translate(16.7743, 60.8841)" font-family="sans-serif" font-size="1.9603" text-anchor="start" fill="currentColor">
<tspan>
D</tspan>
</text>
<text transform="translate(18.2680, 60.8841)" font-family="sans-serif" font-size="1.9603" text-anchor="start" fill="currentColor">
<tspan/>
</text>
<text transform="translate(18.2680, 60.8841)" font-family="sans-serif" font-size="1.9603" text-anchor="start" fill="currentColor">
<tspan/>
</text>
<text transform="translate(18.2680, 59.3841)" font-family="sans-serif" font-size="1.3858" text-anchor="start" fill="currentColor">
<tspan/>
</text>
<path transform="translate(16.7743, 65.8841) scale(0.0040, -0.0040)" d="M312 63c0 23 -20 40 -41 40c-4 0 -7 -1 -11 -2c-30 -8 -75 -38 -111 -61s-81 -52 -101 -76c-7 -8 -10 -17 -10 -27c0 -23 19 -40 40 -40c4 0 8 1 12 2c30 8 75 38 111 61s81 52 101 76c7 8 10 17 10 27zM258 140c51 0 92 -23 92 -78c0 -19 -4 -38 -10 -56
c-11 -38 -31 -75 -64 -97c-53 -36 -112 -49 -185 -49c-51 0 -91 23 -91 78c0 19 4 38 10 56c11 38 30 75 63 97c53 36 112 49 185 49z" fill="currentColor"/>
<text transform="translate(15.1262, 69.8841)" font-family="Century Schoolbook L" font-size="2.4695" text-anchor="start" fill="currentColor">
<tspan>
And</tspan>
</text>
<rect transform="translate(18.0971, 64.3841)" x="-0.0757" y="-2.0000" width="0.1514" height="3.2518" ry="0.0500" fill="currentColor"/>
<path transform="translate(31.1018, 65.3841) scale(0.0040, -0.0040)" d="M214 140c59 0 115 -32 115 -97c0 -72 -54 -121 -101 -149c-35 -21 -74 -34 -114 -34c-59 0 -114 32 -114 97c0 72 54 121 101 149c35 21 73 34 113 34z" fill="currentColor"/>
<text transform="translate(30.3080, 69.8841)" font-family="Century Schoolbook L" font-size="2.4695" text-anchor="start" fill="currentColor">
<tspan>
all</tspan>
</text>
<rect transform="translate(32.3407, 64.3841)" x="-0.0757" y="-2.5000" width="0.1514" height="3.3269" ry="0.0500" fill="currentColor"/>
<path transform="translate(40.6301, 65.8841) scale(0.0040, -0.0040)" d="M214 140c59 0 115 -32 115 -97c0 -72 -54 -121 -101 -149c-35 -21 -74 -34 -114 -34c-59 0 -114 32 -114 97c0 72 54 121 101 149c35 21 73 34 113 34z" fill="currentColor"/>
<text transform="translate(39.5376, 69.8841)" font-family="Century Schoolbook L" font-size="2.4695" text-anchor="start" fill="currentColor">
<tspan>
my</tspan>
</text>
<rect transform="translate(41.8691, 64.3841)" x="-0.0757" y="-2.0000" width="0.1514" height="3.3269" ry="0.0500" fill="currentColor"/>
<text transform="translate(7.0705, 61.2915)" font-family="Century Schoolbook L" font-size="1.7463" text-anchor="start" fill="currentColor">
<tspan>
13</tspan>
</text>
<path transform="translate(9.8338, 65.3841) scale(0.0040, -0.0040)" d="M379 264c3 0 7 1 10 1c157 0 258 -129 258 -263c0 -77 -33 -155 -108 -211c-22 -16 -46 -29 -72 -37c3 -33 4 -66 4 -99c0 -21 0 -41 -1 -62c-7 -121 -91 -229 -211 -229c-108 0 -196 88 -196 197c0 58 54 103 113 103c54 0 95 -47 95 -103c0 -52 -43 -95 -95 -95
c-9 0 -18 1 -27 4c25 -37 66 -61 113 -61c95 0 156 93 162 191c1 19 2 38 2 57c0 29 -1 58 -3 87c-29 -5 -58 -8 -88 -8c-189 0 -333 173 -333 376c0 177 129 308 244 443c-20 62 -40 124 -48 189c-7 52 -7 105 -7 158c0 114 54 221 147 288c4 3 8 4 12 4c5 0 9 -2 13 -5
c72 -83 135 -243 135 -356c0 -142 -84 -255 -176 -364c21 -68 40 -136 57 -205zM463 -201c65 24 110 94 110 161c0 88 -64 175 -167 188c24 -114 44 -227 57 -349zM77 25c0 -133 128 -243 261 -243c27 0 55 1 81 5c-13 126 -35 244 -60 362c-79 -8 -124 -60 -124 -118
c0 -43 25 -88 80 -120c5 -5 7 -11 7 -17c0 -12 -10 -23 -23 -23c-3 0 -7 1 -10 2c-81 43 -118 115 -118 186c0 89 60 177 163 200c-14 57 -30 113 -47 169c-105 -122 -210 -243 -210 -403zM403 1038c-99 -46 -161 -145 -161 -254c0 -71 21 -130 39 -188
c78 97 142 199 142 324c0 51 -4 72 -20 118z" fill="currentColor"/>
<path transform="translate(13.4743, 64.3841) scale(0.0040, -0.0040)" d="M31 37l-2 -62v-11c0 -22 2 -43 5 -64c43 38 89 80 89 137c0 32 -14 65 -42 65c-31 0 -49 -32 -50 -65zM-16 -140l-14 590c9 5 20 8 30 8s21 -3 30 -8l-8 -340c25 24 59 38 94 38c50 0 84 -50 84 -104c0 -78 -83 -117 -141 -169c-17 -15 -25 -44 -49 -44
c-15 0 -26 13 -26 29z" fill="currentColor"/>
<path transform="translate(62.2601, 65.3841) scale(0.0040, -0.0040)" d="M214 140c59 0 115 -32 115 -97c0 -72 -54 -121 -101 -149c-35 -21 -74 -34 -114 -34c-59 0 -114 32 -114 97c0 72 54 121 101 149c35 21 73 34 113 34z" fill="currentColor"/>
<text transform="translate(62.5333, 69.8841)" font-family="Century Schoolbook L" font-size="2.4695" text-anchor="start" fill="currentColor">
<tspan>
i</tspan>
</text>
<rect transform="translate(63.4990, 64.3841)" x="-0.0757" y="-2.5000" width="0.1514" height="3.3269" ry="0.0500" fill="currentColor"/>
<text transform="translate(71.1502, 60.8841)" font-family="sans-serif" font-size="1.9603" text-anchor="start" fill="currentColor">
<tspan>
E</tspan>
</text>
<text transform="translate(72.3879, 60.8841)" font-family="sans-serif" font-size="1.9603" text-anchor="start" fill="currentColor">
<tspan/>
</text>
<text transform="translate(72.3879, 60.8841)" font-family="sans-serif" font-size="1.9603" text-anchor="start" fill="currentColor">
<tspan>
m</tspan>
</text>
<text transform="translate(74.2657, 59.3841)" font-family="sans-serif" font-size="1.3858" text-anchor="start" fill="currentColor">
<tspan/>
</text>
<path transform="translate(71.1502, 64.8841) scale(0.0040, -0.0040)" d="M214 140c59 0 115 -32 115 -97c0 -72 -54 -121 -101 -149c-35 -21 -74 -34 -114 -34c-59 0 -114 32 -114 97c0 72 54 121 101 149c35 21 73 34 113 34z" fill="currentColor"/>
<text transform="translate(69.2894, 69.8841)" font-family="Century Schoolbook L" font-size="2.4695" text-anchor="start" fill="currentColor">
<tspan>
ness</tspan>
</text>
<text transform="translate(53.0818, 60.8841)" font-family="sans-serif" font-size="1.9603" text-anchor="start" fill="currentColor">
<tspan>
G</tspan>
</text>
<text transform="translate(54.6182, 60.8841)" font-family="sans-serif" font-size="1.9603" text-anchor="start" fill="currentColor">
<tspan/>
</text>
<text transform="translate(54.6182, 60.8841)" font-family="sans-serif" font-size="1.9603" text-anchor="start" fill="currentColor">
<tspan/>
</text>
<text transform="translate(54.6182, 59.3841)" font-family="sans-serif" font-size="1.3858" text-anchor="start" fill="currentColor">
<tspan/>
</text>
<path transform="translate(53.0818, 65.8841) scale(0.0040, -0.0040)" d="M214 140c59 0 115 -32 115 -97c0 -72 -54 -121 -101 -149c-35 -21 -74 -34 -114 -34c-59 0 -114 32 -114 97c0 72 54 121 101 149c35 21 73 34 113 34z" fill="currentColor"/>
<text transform="translate(50.9222, 69.8841)" font-family="Century Schoolbook L" font-size="2.4695" text-anchor="start" fill="currentColor">
<tspan>
wear</tspan>
</text>
<rect transform="translate(54.3207, 64.3841)" x="-0.0757" y="-2.0000" width="0.1514" height="3.3269" ry="0.0500" fill="currentColor"/>
<text transform="translate(52.1918, 79.3841)" font-family="Century Schoolbook L" font-weight="bold" font-size="2.1999" text-anchor="start" fill="currentColor">
<tspan>
2.</tspan>
</text>
<text transform="translate(54.6697, 79.3841)" font-family="Century Schoolbook L" font-size="2.1999" text-anchor="start" fill="currentColor">
<tspan>
Here would I feed upon the Bread of God; </tspan>
</text>
<text transform="translate(54.6697, 82.3841)" font-family="Century Schoolbook L" font-size="2.1999" text-anchor="start" fill="currentColor">
<tspan>
Here drink with Thee the royal wine of heav’n; </tspan>
</text>
<text transform="translate(54.6697, 85.3841)" font-family="Century Schoolbook L" font-size="2.1999" text-anchor="start" fill="currentColor">
<tspan>
Here would I lay aside each earthly load; </tspan>
</text>
<text transform="translate(54.6697, 88.3841)" font-family="Century Schoolbook L" font-size="2.1999" text-anchor="start" fill="currentColor">
<tspan>
Here taste afresh the calm of sin forgiv’n. </tspan>
</text>
<text transform="translate(54.6697, 89.8841)" font-family="Century Schoolbook L" font-size="1.5560" text-anchor="start" fill="currentColor">
<tspan>
 </tspan>
</text>
<text transform="translate(52.1918, 92.8841)" font-family="Century Schoolbook L" font-weight="bold" font-size="2.1999" text-anchor="start" fill="currentColor">
<tspan>
3.</tspan>
</text>
<text transform="translate(54.6697, 92.8841)" font-family="Century Schoolbook L" font-size="2.1999" text-anchor="start" fill="currentColor">
<tspan>
I have no help but Thine; nor do I need </tspan>
</text>
<text transform="translate(54.6697, 95.8841)" font-family="Century Schoolbook L" font-size="2.1999" text-anchor="start" fill="currentColor">
<tspan>
Another arm save Thine to lean upon; </tspan>
</text>
<text transform="translate(54.6697, 98.8841)" font-family="Century Schoolbook L" font-size="2.1999" text-anchor="start" fill="currentColor">
<tspan>
It is enough, my Lord, enough indeed; </tspan>
</text>
<text transform="translate(54.6697, 101.8841)" font-family="Century Schoolbook L" font-size="2.1999" text-anchor="start" fill="currentColor">
<tspan>
My strength is in Thy might, Thy might alone. </tspan>
</text>
<text transform="translate(54.6697, 103.3841)" font-family="Century Schoolbook L" font-size="1.5560" text-anchor="start" fill="currentColor">
<tspan>
 </tspan>
</text>
<text transform="translate(52.1918, 106.3841)" font-family="Century Schoolbook L" font-weight="bold" font-size="2.1999" text-anchor="start" fill="currentColor">
<tspan>
4.</tspan>
</text>
<text transform="translate(54.6697, 106.3841)" font-family="Century Schoolbook L" font-size="2.1999" text-anchor="start" fill="currentColor">
<tspan>
This is the hour of banquet and of song; </tspan>
</text>
<text transform="translate(54.6697, 109.3841)" font-family="Century Schoolbook L" font-size="2.1999" text-anchor="start" fill="currentColor">
<tspan>
This is the heav’nly table spread for me; </tspan>
</text>
<text transform="translate(54.6697, 112.3841)" font-family="Century Schoolbook L" font-size="2.1999" text-anchor="start" fill="currentColor">
<tspan>
Here let me feast, and, feasting, still prolong </tspan>
</text>
<text transform="translate(54.6697, 115.3841)" font-family="Century Schoolbook L" font-size="2.1999" text-anchor="start" fill="currentColor">
<tspan>
The brief bright hour of fellowship with Thee. </tspan>
</text>
<text transform="translate(54.6697, 116.8841)" font-family="Century Schoolbook L" font-size="1.5560" text-anchor="start" fill="currentColor">
<tspan>
 </tspan>
</text>
<text transform="translate(52.1918, 119.8841)" font-family="Century Schoolbook L" font-weight="bold" font-size="2.1999" text-anchor="start" fill="currentColor">
<tspan>
5.</tspan>
</text>
<text transform="translate(54.6697, 119.8841)" font-family="Century Schoolbook L" font-size="2.1999" text-anchor="start" fill="currentColor">
<tspan>
Too soon we rise; the symbols disappear; </tspan>
</text>
<text transform="translate(54.6697, 122.8841)" font-family="Century Schoolbook L" font-size="2.1999" text-anchor="start" fill="currentColor">
<tspan>
The feast, though not the love, is past and gone; </tspan>
</text>
<text transform="translate(54.6697, 125.8841)" font-family="Century Schoolbook L" font-size="2.1999" text-anchor="start" fill="currentColor">
<tspan>
The bread and wine remove, but Thou art here, </tspan>
</text>
<text transform="translate(54.6697, 128.8841)" font-family="Century Schoolbook L" font-size="2.1999" text-anchor="start" fill="currentColor">
<tspan>
Nearer than ever still our Shield and Sun. </tspan>
</text>
<text transform="translate(54.6697, 130.3841)" font-family="Century Schoolbook L" font-size="1.5560" text-anchor="start" fill="currentColor">
<tspan>
 </tspan>
</text>
<text transform="translate(52.1918, 133.3841)" font-family="Century Schoolbook L" font-weight="bold" font-size="2.1999" text-anchor="start" fill="currentColor">
<tspan>
6.</tspan>
</text>
<text transform="translate(54.6697, 133.3841)" font-family="Century Schoolbook L" font-size="2.1999" text-anchor="start" fill="currentColor">
<tspan>
Feast after feast thus comes and passes by, </tspan>
</text>
<text transform="translate(54.6697, 136.3841)" font-family="Century Schoolbook L" font-size="2.1999" text-anchor="start" fill="currentColor">
<tspan>
Yet passing, points to the glad feast above, </tspan>
</text>
<text transform="translate(54.6697, 139.3841)" font-family="Century Schoolbook L" font-size="2.1999" text-anchor="start" fill="currentColor">
<tspan>
Giving sweet foretastes of the festal joy, </tspan>
</text>
<text transform="translate(54.6697, 142.3841)" font-family="Century Schoolbook L" font-size="2.1999" text-anchor="start" fill="currentColor">
<tspan>
The Lamb’s great bridal-feast of bliss and love. </tspan>
</text>
<text transform="translate(54.6697, 143.8841)" font-family="Century Schoolbook L" font-size="1.5560" text-anchor="start" fill="currentColor">
<tspan>
 </tspan>
</text>
<text transform="translate(69.8622, 189.4189)" font-family="Trebuchet MS" font-size="2.1999" text-anchor="start" fill="currentColor">
<tspan>
www.hymnal.net</tspan>
</text>
<text transform="translate(78.1419, 192.4189)" font-family="Century Schoolbook L" font-size="2.1999" text-anchor="start" fill="currentColor">
<tspan/>
</text>
</svg>
