<svg xmlns="http://www.w3.org/2000/svg" xmlns:xlink="http://www.w3.org/1999/xlink" version="1.2" width="215.90mm" height="279.40mm" viewBox="0 0 153.5737 198.7425">
<style text="style/css">
<![CDATA[
tspan { white-space: pre; }
]]>
</style>
<!-- Page: 1/1 -->
<text transform="translate(9.0337, 6.3236)" font-family="serif" font-size="2.1999" text-anchor="start" fill="currentColor">
<tspan/>
</text>
<text transform="translate(59.2351, 9.4149)" font-family="serif" font-weight="bold" font-size="3.1113" text-anchor="start" fill="currentColor">
<tspan>To know Him (Phil. 3:10-11)</tspan>
</text>
<text transform="translate(67.7069, 12.9149)" font-family="serif" font-weight="bold" font-size="2.1999" text-anchor="start" fill="currentColor">
<tspan>Scriptures for Singing</tspan>
</text>
<text transform="translate(9.0337, 15.3781)" font-family="serif" font-weight="bold" font-style="italic" font-size="2.1999" text-anchor="start" fill="currentColor">
<tspan>(Guitar: Capo 3)</tspan>
</text>
<rect transform="translate(111.3184, 23.3776)" x="0.0000" y="-2.0000" width="0.2212" height="4.0000" ry="0.0000" fill="currentColor"/>
<rect transform="translate(24.5049, 23.3776)" x="0.0000" y="-2.0000" width="0.2212" height="4.0000" ry="0.0000" fill="currentColor"/>
<rect transform="translate(147.0289, 23.3776)" x="0.0000" y="-2.0000" width="0.2212" height="4.0000" ry="0.0000" fill="currentColor"/>
<rect transform="translate(68.7361, 23.3776)" x="0.0000" y="-2.0000" width="0.2212" height="4.0000" ry="0.0000" fill="currentColor"/>
<line transform="translate(9.0337, 25.3776)" stroke-linejoin="round" stroke-linecap="round" stroke-width="0.1164" stroke="currentColor" x1="0.0582" y1="-0.0000" x2="138.1582" y2="-0.0000"/>
<line transform="translate(9.0337, 24.3776)" stroke-linejoin="round" stroke-linecap="round" stroke-width="0.1164" stroke="currentColor" x1="0.0582" y1="-0.0000" x2="138.1582" y2="-0.0000"/>
<line transform="translate(9.0337, 23.3776)" stroke-linejoin="round" stroke-linecap="round" stroke-width="0.1164" stroke="currentColor" x1="0.0582" y1="-0.0000" x2="138.1582" y2="-0.0000"/>
<line transform="translate(9.0337, 22.3776)" stroke-linejoin="round" stroke-linecap="round" stroke-width="0.1164" stroke="currentColor" x1="0.0582" y1="-0.0000" x2="138.1582" y2="-0.0000"/>
<line transform="translate(9.0337, 21.3776)" stroke-linejoin="round" stroke-linecap="round" stroke-width="0.1164" stroke="currentColor" x1="0.0582" y1="-0.0000" x2="138.1582" y2="-0.0000"/>
<rect transform="translate(9.0337, 26.3776)" x="123.9548" y="-0.1082" width="2.0758" height="0.2164" ry="0.1082" fill="currentColor"/>
<rect transform="translate(9.0337, 26.3776)" x="118.6308" y="-0.1082" width="1.9513" height="0.2164" ry="0.1082" fill="currentColor"/>
<rect transform="translate(9.0337, 26.3776)" x="9.7482" y="-0.1082" width="1.9513" height="0.2164" ry="0.1082" fill="currentColor"/>
<rect transform="translate(114.7313, 23.3776)" x="-0.0757" y="-2.0000" width="0.1514" height="3.3287" ry="0.0500" fill="currentColor"/>
<path transform="translate(122.6449, 25.8776) scale(0.0040, -0.0040)" d="M212 138c59 0 113 -31 113 -95c0 -71 -52 -120 -99 -148c-34 -21 -73 -33 -113 -33c-59 0 -113 31 -113 95c0 71 53 120 100 148c34 21 72 33 112 33z" fill="currentColor"/>
<text transform="translate(122.6449, 30.3924)" font-family="serif" font-size="2.4695" text-anchor="start" fill="currentColor">
<tspan>tion,</tspan>
</text>
<rect transform="translate(123.8701, 23.3776)" x="-0.0757" y="-0.1793" width="0.1514" height="2.5080" ry="0.0500" fill="currentColor"/>
<path transform="translate(127.9897, 26.3776) scale(0.0040, -0.0040)" d="M212 138c59 0 113 -31 113 -95c0 -71 -52 -120 -99 -148c-34 -21 -73 -33 -113 -33c-59 0 -113 31 -113 95c0 71 53 120 100 148c34 21 72 33 112 33z" fill="currentColor"/>
<rect transform="translate(20.3323, 23.3776)" x="-0.0757" y="-0.5000" width="0.1514" height="3.3287" ry="0.0500" fill="currentColor"/>
<path transform="translate(91.0022, 24.8776) scale(0.0040, -0.0040)" d="M212 138c59 0 113 -31 113 -95c0 -71 -52 -120 -99 -148c-34 -21 -73 -33 -113 -33c-59 0 -113 31 -113 95c0 71 53 120 100 148c34 21 72 33 112 33z" fill="currentColor"/>
<text transform="translate(90.6924, 30.3924)" font-family="serif" font-size="2.4695" text-anchor="start" fill="currentColor">
<tspan>re</tspan>
</text>
<rect transform="translate(92.2274, 23.3776)" x="-0.0757" y="-2.0000" width="0.1514" height="3.3287" ry="0.0500" fill="currentColor"/>
<path transform="translate(100.1410, 25.8776) scale(0.0040, -0.0040)" d="M212 138c59 0 113 -31 113 -95c0 -71 -52 -120 -99 -148c-34 -21 -73 -33 -113 -33c-59 0 -113 31 -113 95c0 71 53 120 100 148c34 21 72 33 112 33z" fill="currentColor"/>
<text transform="translate(99.2763, 30.3924)" font-family="serif" font-size="2.4695" text-anchor="start" fill="currentColor">
<tspan>sur</tspan>
</text>
<rect transform="translate(101.3662, 23.3776)" x="-0.0757" y="-1.1902" width="0.1514" height="3.5188" ry="0.0500" fill="currentColor"/>
<path transform="translate(113.5061, 24.8776) scale(0.0040, -0.0040)" d="M212 138c59 0 113 -31 113 -95c0 -71 -52 -120 -99 -148c-34 -21 -73 -33 -113 -33c-59 0 -113 31 -113 95c0 71 53 120 100 148c34 21 72 33 112 33z" fill="currentColor"/>
<path transform="translate(20.4080, 22.9276) scale(0.0040, -0.0040)" d="M0 -250h-19v250h19c0 -197 207 -334 207 -531c0 -71 -15 -140 -41 -206c-5 -9 -14 -13 -22 -13c-14 0 -29 12 -26 30c26 60 43 124 43 189c0 102 -92 206 -161 281z" fill="currentColor"/>
<path transform="translate(105.7358, 24.8776) scale(0.0040, -0.0040)" d="M212 138c59 0 113 -31 113 -95c0 -71 -52 -120 -99 -148c-34 -21 -73 -33 -113 -33c-59 0 -113 31 -113 95c0 71 53 120 100 148c34 21 72 33 112 33z" fill="currentColor"/>
<text transform="translate(105.7358, 30.3924)" font-family="serif" font-size="2.4695" text-anchor="start" fill="currentColor">
<tspan>rec</tspan>
</text>
<rect transform="translate(106.9610, 23.3776)" x="-0.0757" y="-1.8098" width="0.1514" height="3.1385" ry="0.0500" fill="currentColor"/>
<text transform="translate(113.5061, 20.3350)" font-family="sans-serif" font-size="1.9603" text-anchor="start" fill="currentColor">
<tspan>D</tspan>
</text>
<text transform="translate(114.9999, 20.3350)" font-family="sans-serif" font-size="1.9603" text-anchor="start" fill="currentColor">
<tspan/>
</text>
<text transform="translate(114.9999, 20.3350)" font-family="sans-serif" font-size="1.9603" text-anchor="start" fill="currentColor">
<tspan/>
</text>
<text transform="translate(114.9999, 19.4441)" font-family="sans-serif" font-size="1.3858" text-anchor="start" fill="currentColor">
<tspan/>
</text>
<path transform="translate(127.9897, 23.3776)" stroke-width="0.0931" stroke-linejoin="round" stroke-linecap="round" stroke="currentColor" fill="currentColor" d="M0.8504 3.7500C1.7419 4.5868 4.9452 4.5868 5.8367 3.7500L5.8367 3.7500C4.9452 4.4471 1.7419 4.4471 0.8504 3.7500z"/>
<polygon transform="translate(123.7944, 23.1958)" stroke-linejoin="round" stroke-linecap="round" stroke-width="0.1000" fill="currentColor" stroke="currentColor" points="5.4462 -0.0082 5.4462 0.3718 0.0500 0.1900 0.0500 -0.1900"/>
<path transform="translate(105.7358, 23.3776)" stroke-width="0.0931" stroke-linejoin="round" stroke-linecap="round" stroke="currentColor" fill="currentColor" d="M1.5008 2.0000C2.4902 2.8756 6.5809 2.8756 7.5703 2.0000L7.5703 2.0000C6.5809 2.7359 2.4902 2.7359 1.5008 2.0000z"/>
<rect transform="translate(115.3755, 30.3924)" x="0.0000" y="-0.5714" width="0.6600" height="0.1514" ry="0.0466" fill="currentColor"/>
<rect transform="translate(103.6912, 30.3924)" x="0.0000" y="-0.5714" width="0.6600" height="0.1514" ry="0.0466" fill="currentColor"/>
<polygon transform="translate(101.2905, 22.1958)" stroke-linejoin="round" stroke-linecap="round" stroke-width="0.1000" fill="currentColor" stroke="currentColor" points="5.6962 -0.8264 5.6962 -0.4464 0.0500 0.1900 0.0500 -0.1900"/>
<rect transform="translate(95.6146, 30.3924)" x="0.0000" y="-0.5714" width="0.6600" height="0.1514" ry="0.0466" fill="currentColor"/>
<polygon transform="translate(81.4621, 21.5594)" stroke-linejoin="round" stroke-linecap="round" stroke-width="0.1000" fill="currentColor" stroke="currentColor" points="5.4462 -0.1900 5.4462 0.1900 0.0500 0.1900 0.0500 -0.1900"/>
<text transform="translate(24.6662, 30.3924)" font-family="serif" font-size="2.4695" text-anchor="start" fill="currentColor">
<tspan>know</tspan>
</text>
<path transform="translate(52.5354, 23.3776)" stroke-width="0.0931" stroke-linejoin="round" stroke-linecap="round" stroke="currentColor" fill="currentColor" d="M0.8504 1.2070C1.7378 2.0420 4.9079 2.0420 5.7952 1.2070L5.7952 1.2070C4.9079 1.9023 1.7378 1.9023 0.8504 1.2070z"/>
<polygon transform="translate(48.5900, 20.5594)" stroke-linejoin="round" stroke-linecap="round" stroke-width="0.1000" fill="currentColor" stroke="currentColor" points="15.8858 0.4464 15.8858 0.8264 0.0500 0.1900 0.0500 -0.1900"/>
<path transform="translate(38.0518, 23.3776)" stroke-width="0.0931" stroke-linejoin="round" stroke-linecap="round" stroke="currentColor" fill="currentColor" d="M0.8504 -1.6459C2.0340 -2.5824 8.6556 -2.5824 9.8392 -1.6459L9.8392 -1.6459C8.6556 -2.4426 2.0340 -2.4426 0.8504 -1.6459z"/>
<path transform="translate(34.7289, 23.3776)" stroke-width="0.0931" stroke-linejoin="round" stroke-linecap="round" stroke="currentColor" fill="currentColor" d="M0.8504 -1.2250C1.4912 -1.9261 3.1325 -1.9261 3.7732 -1.2250L3.7732 -1.2250C3.1325 -1.7864 1.4912 -1.7864 0.8504 -1.2250z"/>
<polygon transform="translate(33.7046, 25.4764)" stroke-linejoin="round" stroke-linecap="round" stroke-width="0.1000" fill="currentColor" stroke="currentColor" points="1.1257 -0.2888 1.1257 0.0912 0.0500 0.1900 0.0500 -0.1900"/>
<polygon transform="translate(26.7685, 26.8776)" stroke-linejoin="round" stroke-linecap="round" stroke-width="0.1000" fill="currentColor" stroke="currentColor" points="8.0617 -0.8718 8.0617 -0.4918 0.0500 0.1900 0.0500 -0.1900"/>
<rect transform="translate(129.2149, 23.3776)" x="-0.0757" y="-0.0025" width="0.1514" height="2.8312" ry="0.0500" fill="currentColor"/>
<path transform="translate(133.3345, 26.3776) scale(0.0040, -0.0040)" d="M310 63c0 23 -19 40 -40 40c-4 0 -8 -1 -12 -2c-30 -8 -75 -38 -111 -61s-81 -52 -101 -76c-7 -8 -10 -17 -10 -27c0 -23 19 -40 40 -40c4 0 8 1 12 2c30 8 75 38 111 61s81 52 101 76c7 8 10 17 10 27zM256 138c50 0 90 -22 90 -77c0 -18 -5 -37 -10 -55
c-11 -38 -30 -74 -63 -96c-53 -35 -111 -48 -183 -48c-50 0 -90 22 -90 77c0 18 5 37 10 55c11 38 30 74 63 96c53 36 111 48 183 48z" fill="currentColor"/>
<rect transform="translate(134.6427, 23.3776)" x="-0.0757" y="-0.5000" width="0.1514" height="3.2544" ry="0.0500" fill="currentColor"/>
<text transform="translate(19.1072, 20.3350)" font-family="sans-serif" font-size="1.9603" text-anchor="start" fill="currentColor">
<tspan>D</tspan>
</text>
<text transform="translate(20.6009, 20.3350)" font-family="sans-serif" font-size="1.9603" text-anchor="start" fill="currentColor">
<tspan/>
</text>
<text transform="translate(20.6009, 20.3350)" font-family="sans-serif" font-size="1.9603" text-anchor="start" fill="currentColor">
<tspan/>
</text>
<text transform="translate(20.6009, 19.4441)" font-family="sans-serif" font-size="1.3858" text-anchor="start" fill="currentColor">
<tspan/>
</text>
<path transform="translate(38.0518, 22.8776) scale(0.0040, -0.0040)" d="M212 138c59 0 113 -31 113 -95c0 -71 -52 -120 -99 -148c-34 -21 -73 -33 -113 -33c-59 0 -113 31 -113 95c0 71 53 120 100 148c34 21 72 33 112 33z" fill="currentColor"/>
<rect transform="translate(38.1274, 23.3776)" x="-0.0757" y="-0.3287" width="0.1514" height="3.3287" ry="0.0500" fill="currentColor"/>
<path transform="translate(19.1072, 26.3776) scale(0.0040, -0.0040)" d="M212 138c59 0 113 -31 113 -95c0 -71 -52 -120 -99 -148c-34 -21 -73 -33 -113 -33c-59 0 -113 31 -113 95c0 71 53 120 100 148c34 21 72 33 112 33z" fill="currentColor"/>
<path transform="translate(47.4405, 22.8776) scale(0.0040, -0.0040)" d="M212 138c59 0 113 -31 113 -95c0 -71 -52 -120 -99 -148c-34 -21 -73 -33 -113 -33c-59 0 -113 31 -113 95c0 71 53 120 100 148c34 21 72 33 112 33z" fill="currentColor"/>
<rect transform="translate(48.6657, 23.3776)" x="-0.0757" y="-2.8152" width="0.1514" height="2.1439" ry="0.0500" fill="currentColor"/>
<rect transform="translate(34.8046, 23.3776)" x="-0.0757" y="-0.3287" width="0.1514" height="3.1532" ry="0.0500" fill="currentColor"/>
<path transform="translate(9.8338, 24.3776) scale(0.0040, -0.0040)" d="M379 264c3 0 7 1 10 1c157 0 258 -129 258 -263c0 -77 -33 -155 -108 -211c-22 -16 -46 -29 -72 -37c3 -33 4 -66 4 -99c0 -21 0 -41 -1 -62c-7 -121 -91 -229 -211 -229c-108 0 -196 88 -196 197c0 58 54 103 113 103c54 0 95 -47 95 -103c0 -52 -43 -95 -95 -95
c-9 0 -18 1 -27 4c25 -37 66 -61 113 -61h4c92 2 152 93 158 191c1 19 2 38 2 57c0 29 -1 58 -3 87c-29 -5 -58 -8 -88 -8c-189 0 -333 173 -333 376c0 177 129 308 244 443c-20 62 -40 124 -48 189c-7 52 -7 105 -7 158c0 114 54 221 147 288c-2 7 22 1 25 -1
c72 -83 135 -243 135 -356c0 -142 -84 -255 -176 -364c21 -68 40 -136 57 -205zM463 -201c65 24 110 94 110 161c0 88 -64 175 -167 188c24 -114 44 -227 57 -349zM77 25c0 -133 128 -243 261 -243c27 0 55 1 81 5c-13 126 -35 244 -60 362c-79 -8 -124 -60 -124 -118
c0 -43 25 -88 80 -120c5 -5 7 -11 7 -17c0 -12 -10 -23 -23 -23c-3 0 -7 1 -10 2c-81 43 -118 115 -118 186c0 89 60 177 163 200c-14 57 -30 113 -47 169c-105 -122 -210 -243 -210 -403zM403 1038c-99 -46 -161 -145 -161 -254c0 -71 21 -130 39 -188
c78 97 142 199 142 324c0 51 -4 72 -20 118z" fill="currentColor"/>
<path transform="translate(52.5354, 23.8776) scale(0.0040, -0.0040)" d="M212 138c59 0 113 -31 113 -95c0 -71 -52 -120 -99 -148c-34 -21 -73 -33 -113 -33c-59 0 -113 31 -113 95c0 71 53 120 100 148c34 21 72 33 112 33z" fill="currentColor"/>
<text transform="translate(52.5354, 30.3924)" font-family="serif" font-size="2.4695" text-anchor="start" fill="currentColor">
<tspan>and</tspan>
</text>
<rect transform="translate(53.7605, 23.3776)" x="-0.0757" y="-2.6117" width="0.1514" height="2.9404" ry="0.0500" fill="currentColor"/>
<path transform="translate(13.4743, 23.3776) scale(0.0040, -0.0040)" d="M31 37l-2 -62v-11c0 -22 2 -43 5 -64c43 38 89 80 89 137c0 32 -14 65 -42 65c-31 0 -49 -32 -50 -65zM-30 450c9 5 20 8 30 8s21 -3 30 -8l-8 -340c25 24 59 38 94 38c50 0 84 -50 84 -104c0 -78 -83 -117 -141 -169c-17 -15 -25 -44 -49 -44c-15 0 -26 13 -26 29z" fill="currentColor"/>
<path transform="translate(57.8802, 23.8776) scale(0.0040, -0.0040)" d="M212 138c59 0 113 -31 113 -95c0 -71 -52 -120 -99 -148c-34 -21 -73 -33 -113 -33c-59 0 -113 31 -113 95c0 71 53 120 100 148c34 21 72 33 112 33z" fill="currentColor"/>
<path transform="translate(122.6449, 23.3776)" stroke-width="0.0931" stroke-linejoin="round" stroke-linecap="round" stroke="currentColor" fill="currentColor" d="M0.6413 3.5527C3.2306 5.4085 21.7188 5.7978 24.3840 4.0527L24.3840 4.0527C21.7217 5.6582 3.2336 5.2688 0.6413 3.5527z"/>
<path transform="translate(26.7685, 23.8776) scale(0.0040, -0.0040)" d="M212 138c59 0 113 -31 113 -95c0 -71 -52 -120 -99 -148c-34 -21 -73 -33 -113 -33c-59 0 -113 31 -113 95c0 71 53 120 100 148c34 21 72 33 112 33z" fill="currentColor"/>
<path transform="translate(28.5108, 23.8776) scale(0.0040, -0.0040)" d="M0 0c0 30 25 55 55 55s55 -25 55 -55s-25 -55 -55 -55s-55 25 -55 55z" fill="currentColor"/>
<rect transform="translate(26.8442, 23.3776)" x="-0.0757" y="0.6713" width="0.1514" height="2.8223" ry="0.0500" fill="currentColor"/>
<path transform="translate(34.7289, 22.8776) scale(0.0040, -0.0040)" d="M212 138c59 0 113 -31 113 -95c0 -71 -52 -120 -99 -148c-34 -21 -73 -33 -113 -33c-59 0 -113 31 -113 95c0 71 53 120 100 148c34 21 72 33 112 33z" fill="currentColor"/>
<text transform="translate(34.7289, 30.3924)" font-family="serif" font-size="2.4695" text-anchor="start" fill="currentColor">
<tspan>Him</tspan>
</text>
<text transform="translate(79.9387, 30.3924)" font-family="serif" font-size="2.4695" text-anchor="start" fill="currentColor">
<tspan>of</tspan>
</text>
<text transform="translate(70.9238, 20.3350)" font-family="sans-serif" font-size="1.9603" text-anchor="start" fill="currentColor">
<tspan>G</tspan>
</text>
<text transform="translate(72.4603, 20.3350)" font-family="sans-serif" font-size="1.9603" text-anchor="start" fill="currentColor">
<tspan/>
</text>
<text transform="translate(72.4603, 20.3350)" font-family="sans-serif" font-size="1.9603" text-anchor="start" fill="currentColor">
<tspan/>
</text>
<text transform="translate(72.4603, 19.4441)" font-family="sans-serif" font-size="1.3858" text-anchor="start" fill="currentColor">
<tspan/>
</text>
<text transform="translate(68.6294, 30.3924)" font-family="serif" font-size="2.4695" text-anchor="start" fill="currentColor">
<tspan>pow’r</tspan>
</text>
<rect transform="translate(72.1490, 23.3776)" x="-0.0757" y="-2.5000" width="0.1514" height="3.3287" ry="0.0500" fill="currentColor"/>
<rect transform="translate(81.5378, 23.3776)" x="-0.0757" y="-1.8182" width="0.1514" height="3.1469" ry="0.0500" fill="currentColor"/>
<rect transform="translate(59.1053, 23.3776)" x="-0.0757" y="-2.3983" width="0.1514" height="2.7269" ry="0.0500" fill="currentColor"/>
<path transform="translate(70.9238, 24.3776) scale(0.0040, -0.0040)" d="M212 138c59 0 113 -31 113 -95c0 -71 -52 -120 -99 -148c-34 -21 -73 -33 -113 -33c-59 0 -113 31 -113 95c0 71 53 120 100 148c34 21 72 33 112 33z" fill="currentColor"/>
<path transform="translate(80.3126, 24.8776) scale(0.0040, -0.0040)" d="M212 138c59 0 113 -31 113 -95c0 -71 -52 -120 -99 -148c-34 -21 -73 -33 -113 -33c-59 0 -113 31 -113 95c0 71 53 120 100 148c34 21 72 33 112 33z" fill="currentColor"/>
<text transform="translate(18.3919, 30.3924)" font-family="serif" font-size="2.4695" text-anchor="start" fill="currentColor">
<tspan>To</tspan>
</text>
<rect transform="translate(64.4501, 23.3776)" x="-0.0757" y="-2.1848" width="0.1514" height="2.5135" ry="0.0500" fill="currentColor"/>
<text transform="translate(84.5793, 30.3924)" font-family="serif" font-size="2.4695" text-anchor="start" fill="currentColor">
<tspan>His</tspan>
</text>
<rect transform="translate(86.8826, 23.3776)" x="-0.0757" y="-1.8182" width="0.1514" height="3.1469" ry="0.0500" fill="currentColor"/>
<path transform="translate(15.4243, 23.3776) scale(0.0040, -0.0040)" d="M356 30c-48 0 -72 40 -72 72c0 37 26 75 70 75c3 0 6 -1 9 -1c-26 36 -67 59 -113 59c-107 0 -113 -74 -113 -189c0 -15 1 -30 1 -46s-1 -31 -1 -46c0 -115 6 -189 113 -189c78 0 133 70 151 149c2 8 8 11 14 11c7 0 15 -5 15 -14c0 -95 -103 -176 -180 -176
c-68 0 -137 20 -184 70c-49 52 -66 124 -66 195s17 143 66 195c47 50 116 70 184 70c86 0 156 -67 171 -153c1 -4 1 -9 1 -13c0 -38 -30 -69 -66 -69z" fill="currentColor"/>
<path transform="translate(85.6574, 24.8776) scale(0.0040, -0.0040)" d="M212 138c59 0 113 -31 113 -95c0 -71 -52 -120 -99 -148c-34 -21 -73 -33 -113 -33c-59 0 -113 31 -113 95c0 71 53 120 100 148c34 21 72 33 112 33z" fill="currentColor"/>
<path transform="translate(63.2250, 23.8776) scale(0.0040, -0.0040)" d="M212 138c59 0 113 -31 113 -95c0 -71 -52 -120 -99 -148c-34 -21 -73 -33 -113 -33c-59 0 -113 31 -113 95c0 71 53 120 100 148c34 21 72 33 112 33z" fill="currentColor"/>
<text transform="translate(62.3603, 30.3924)" font-family="serif" font-size="2.4695" text-anchor="start" fill="currentColor">
<tspan>the</tspan>
</text>
<rect transform="translate(9.0337, 38.5298)" x="28.8291" y="-0.1082" width="1.9513" height="0.2164" ry="0.1082" fill="currentColor"/>
<rect transform="translate(9.0337, 38.5298)" x="23.4434" y="-0.1082" width="1.9513" height="0.2164" ry="0.1082" fill="currentColor"/>
<rect transform="translate(9.0337, 38.5298)" x="7.3946" y="-0.1082" width="2.0758" height="0.2164" ry="0.1082" fill="currentColor"/>
<line transform="translate(9.0337, 37.5298)" stroke-linejoin="round" stroke-linecap="round" stroke-width="0.1164" stroke="currentColor" x1="0.0582" y1="-0.0000" x2="138.1582" y2="-0.0000"/>
<line transform="translate(9.0337, 36.5298)" stroke-linejoin="round" stroke-linecap="round" stroke-width="0.1164" stroke="currentColor" x1="0.0582" y1="-0.0000" x2="138.1582" y2="-0.0000"/>
<line transform="translate(9.0337, 35.5298)" stroke-linejoin="round" stroke-linecap="round" stroke-width="0.1164" stroke="currentColor" x1="0.0582" y1="-0.0000" x2="138.1582" y2="-0.0000"/>
<line transform="translate(9.0337, 34.5298)" stroke-linejoin="round" stroke-linecap="round" stroke-width="0.1164" stroke="currentColor" x1="0.0582" y1="-0.0000" x2="138.1582" y2="-0.0000"/>
<line transform="translate(9.0337, 33.5298)" stroke-linejoin="round" stroke-linecap="round" stroke-width="0.1164" stroke="currentColor" x1="0.0582" y1="-0.0000" x2="138.1582" y2="-0.0000"/>
<rect transform="translate(81.3018, 35.5298)" x="0.0000" y="-2.0000" width="0.2212" height="4.0000" ry="0.0000" fill="currentColor"/>
<rect transform="translate(43.7524, 35.5298)" x="0.0000" y="-2.0000" width="0.2212" height="4.0000" ry="0.0000" fill="currentColor"/>
<rect transform="translate(125.5596, 35.5298)" x="0.0000" y="-2.0000" width="0.2212" height="4.0000" ry="0.0000" fill="currentColor"/>
<rect transform="translate(147.0289, 35.5298)" x="0.0000" y="-2.0000" width="0.2212" height="4.0000" ry="0.0000" fill="currentColor"/>
<text transform="translate(99.8236, 41.3323)" font-family="serif" font-size="2.4695" text-anchor="start" fill="currentColor">
<tspan>suf</tspan>
</text>
<rect transform="translate(105.2850, 35.5298)" x="-0.0757" y="-0.3287" width="0.1514" height="3.3287" ry="0.0500" fill="currentColor"/>
<path transform="translate(105.2094, 35.0298) scale(0.0040, -0.0040)" d="M212 138c59 0 113 -31 113 -95c0 -71 -52 -120 -99 -148c-34 -21 -73 -33 -113 -33c-59 0 -113 31 -113 95c0 71 53 120 100 148c34 21 72 33 112 33z" fill="currentColor"/>
<rect transform="translate(99.8993, 35.5298)" x="-0.0757" y="-0.3287" width="0.1514" height="2.5105" ry="0.0500" fill="currentColor"/>
<path transform="translate(114.5861, 36.0298) scale(0.0040, -0.0040)" d="M212 138c59 0 113 -31 113 -95c0 -71 -52 -120 -99 -148c-34 -21 -73 -33 -113 -33c-59 0 -113 31 -113 95c0 71 53 120 100 148c34 21 72 33 112 33z" fill="currentColor"/>
<text transform="translate(113.8708, 41.3323)" font-family="serif" font-size="2.4695" text-anchor="start" fill="currentColor">
<tspan>fer</tspan>
</text>
<rect transform="translate(115.8112, 35.5298)" x="-0.0757" y="-2.1793" width="0.1514" height="2.5080" ry="0.0500" fill="currentColor"/>
<path transform="translate(119.9718, 36.5298) scale(0.0040, -0.0040)" d="M212 138c59 0 113 -31 113 -95c0 -71 -52 -120 -99 -148c-34 -21 -73 -33 -113 -33c-59 0 -113 31 -113 95c0 71 53 120 100 148c34 21 72 33 112 33z" fill="currentColor"/>
<text transform="translate(119.9718, 41.3323)" font-family="serif" font-size="2.4695" text-anchor="start" fill="currentColor">
<tspan>ings,</tspan>
</text>
<rect transform="translate(121.1970, 35.5298)" x="-0.0757" y="-2.0025" width="0.1514" height="2.8312" ry="0.0500" fill="currentColor"/>
<path transform="translate(89.0522, 35.0298) scale(0.0040, -0.0040)" d="M212 138c59 0 113 -31 113 -95c0 -71 -52 -120 -99 -148c-34 -21 -73 -33 -113 -33c-59 0 -113 31 -113 95c0 71 53 120 100 148c34 21 72 33 112 33z" fill="currentColor"/>
<polygon transform="translate(33.9518, 35.5298)" stroke-linejoin="round" stroke-linecap="round" stroke-width="0.1000" fill="currentColor" stroke="currentColor" points="5.4871 -0.1900 5.4871 0.1900 0.0500 0.1900 0.0500 -0.1900"/>
<path transform="translate(99.8236, 35.0298) scale(0.0040, -0.0040)" d="M212 138c59 0 113 -31 113 -95c0 -71 -52 -120 -99 -148c-34 -21 -73 -33 -113 -33c-59 0 -113 31 -113 95c0 71 53 120 100 148c34 21 72 33 112 33z" fill="currentColor"/>
<text transform="translate(89.0522, 41.3323)" font-family="serif" font-size="2.4695" text-anchor="start" fill="currentColor">
<tspan>His</tspan>
</text>
<rect transform="translate(89.1279, 35.5298)" x="-0.0757" y="-0.3287" width="0.1514" height="2.5105" ry="0.0500" fill="currentColor"/>
<path transform="translate(94.4379, 35.0298) scale(0.0040, -0.0040)" d="M212 138c59 0 113 -31 113 -95c0 -71 -52 -120 -99 -148c-34 -21 -73 -33 -113 -33c-59 0 -113 31 -113 95c0 71 53 120 100 148c34 21 72 33 112 33z" fill="currentColor"/>
<rect transform="translate(94.5136, 35.5298)" x="-0.0757" y="-0.3287" width="0.1514" height="2.5105" ry="0.0500" fill="currentColor"/>
<path transform="translate(119.9718, 35.5298)" stroke-width="0.0931" stroke-linejoin="round" stroke-linecap="round" stroke="currentColor" fill="currentColor" d="M0.8504 1.7500C2.0184 2.6822 8.3862 2.6822 9.5542 1.7500L9.5542 1.7500C8.3862 2.5425 2.0184 2.5425 0.8504 1.7500z"/>
<rect transform="translate(117.9570, 41.3323)" x="0.0000" y="-0.5714" width="0.6600" height="0.1514" ry="0.0466" fill="currentColor"/>
<polygon transform="translate(115.7356, 33.3480)" stroke-linejoin="round" stroke-linecap="round" stroke-width="0.1000" fill="currentColor" stroke="currentColor" points="5.4871 -0.0082 5.4871 0.3718 0.0500 0.1900 0.0500 -0.1900"/>
<path transform="translate(99.8236, 35.5298)" stroke-width="0.0931" stroke-linejoin="round" stroke-linecap="round" stroke="currentColor" fill="currentColor" d="M0.8504 -1.2064C1.7419 -2.0432 4.9447 -2.0432 5.8361 -1.2064L5.8361 -1.2064C4.9447 -1.9035 1.7419 -1.9035 0.8504 -1.2064z"/>
<rect transform="translate(108.0323, 41.3323)" x="0.0000" y="-0.5714" width="0.6600" height="0.1514" ry="0.0466" fill="currentColor"/>
<path transform="translate(89.0522, 35.5298)" stroke-width="0.0931" stroke-linejoin="round" stroke-linecap="round" stroke="currentColor" fill="currentColor" d="M0.8504 -1.2064C1.7419 -2.0432 4.9447 -2.0432 5.8361 -1.2064L5.8361 -1.2064C4.9447 -1.9035 1.7419 -1.9035 0.8504 -1.2064z"/>
<polygon transform="translate(83.6664, 37.7115)" stroke-linejoin="round" stroke-linecap="round" stroke-width="0.1000" fill="currentColor" stroke="currentColor" points="16.2585 -0.1900 16.2585 0.1900 0.0500 0.1900 0.0500 -0.1900"/>
<path transform="translate(62.4385, 35.5298)" stroke-width="0.0931" stroke-linejoin="round" stroke-linecap="round" stroke="currentColor" fill="currentColor" d="M0.8504 -1.2059C1.7460 -2.0444 4.9821 -2.0444 5.8777 -1.2059L5.8777 -1.2059C4.9821 -1.9047 1.7460 -1.9047 0.8504 -1.2059z"/>
<path transform="translate(51.6671, 35.5298)" stroke-width="0.0931" stroke-linejoin="round" stroke-linecap="round" stroke="currentColor" fill="currentColor" d="M0.8504 -1.2064C1.7419 -2.0432 4.9447 -2.0432 5.8361 -1.2064L5.8361 -1.2064C4.9447 -1.9035 1.7419 -1.9035 0.8504 -1.2064z"/>
<rect transform="translate(58.5793, 41.3323)" x="0.0000" y="-0.5714" width="0.6600" height="0.1514" ry="0.0466" fill="currentColor"/>
<rect transform="translate(49.4953, 41.3323)" x="0.0000" y="-0.5714" width="0.6600" height="0.1514" ry="0.0466" fill="currentColor"/>
<polygon transform="translate(46.0313, 38.3480)" stroke-linejoin="round" stroke-linecap="round" stroke-width="0.1000" fill="currentColor" stroke="currentColor" points="16.5085 -0.8264 16.5085 -0.4464 0.0500 0.1900 0.0500 -0.1900"/>
<text transform="translate(128.7626, 32.9289)" font-family="sans-serif" font-size="1.9603" text-anchor="start" fill="currentColor">
<tspan>A</tspan>
</text>
<text transform="translate(130.0857, 32.9289)" font-family="sans-serif" font-size="1.9603" text-anchor="start" fill="currentColor">
<tspan/>
</text>
<text transform="translate(130.0857, 32.9289)" font-family="sans-serif" font-size="1.9603" text-anchor="start" fill="currentColor">
<tspan/>
</text>
<text transform="translate(130.0857, 32.0380)" font-family="sans-serif" font-size="1.3858" text-anchor="start" fill="currentColor">
<tspan/>
</text>
<path transform="translate(128.7626, 36.5298) scale(0.0040, -0.0040)" d="M210 110c-49 0 -67 -43 -67 -88c0 -74 56 -132 129 -132c49 0 67 43 67 88c0 74 -56 132 -129 132zM482 0c0 -43 -33 -76 -71 -98c-51 -30 -111 -40 -170 -40s-119 10 -170 40c-38 22 -71 55 -71 98s33 76 71 98c51 30 111 40 170 40s119 -10 170 -40
c38 -22 71 -55 71 -98z" fill="currentColor"/>
<path transform="translate(32.8023, 38.5298) scale(0.0040, -0.0040)" d="M212 138c59 0 113 -31 113 -95c0 -71 -52 -120 -99 -148c-34 -21 -73 -33 -113 -33c-59 0 -113 31 -113 95c0 71 53 120 100 148c34 21 72 33 112 33z" fill="currentColor"/>
<text transform="translate(31.3188, 41.3323)" font-family="serif" font-size="2.4695" text-anchor="start" fill="currentColor">
<tspan>And</tspan>
</text>
<rect transform="translate(34.0275, 35.5298)" x="-0.0757" y="-0.0000" width="0.1514" height="2.8287" ry="0.0500" fill="currentColor"/>
<path transform="translate(38.1881, 38.5298) scale(0.0040, -0.0040)" d="M212 138c59 0 113 -31 113 -95c0 -71 -52 -120 -99 -148c-34 -21 -73 -33 -113 -33c-59 0 -113 31 -113 95c0 71 53 120 100 148c34 21 72 33 112 33z" fill="currentColor"/>
<text transform="translate(37.3234, 41.3323)" font-family="serif" font-size="2.4695" text-anchor="start" fill="currentColor">
<tspan>the</tspan>
</text>
<rect transform="translate(39.4132, 35.5298)" x="-0.0757" y="-0.0000" width="0.1514" height="2.8287" ry="0.0500" fill="currentColor"/>
<text transform="translate(46.0313, 32.9289)" font-family="sans-serif" font-size="1.9603" text-anchor="start" fill="currentColor">
<tspan>D</tspan>
</text>
<text transform="translate(47.5251, 32.9289)" font-family="sans-serif" font-size="1.9603" text-anchor="start" fill="currentColor">
<tspan/>
</text>
<text transform="translate(47.5251, 32.9289)" font-family="sans-serif" font-size="1.9603" text-anchor="start" fill="currentColor">
<tspan/>
</text>
<text transform="translate(47.5251, 32.0380)" font-family="sans-serif" font-size="1.3858" text-anchor="start" fill="currentColor">
<tspan/>
</text>
<path transform="translate(46.0313, 36.0298) scale(0.0040, -0.0040)" d="M212 138c59 0 113 -31 113 -95c0 -71 -52 -120 -99 -148c-34 -21 -73 -33 -113 -33c-59 0 -113 31 -113 95c0 71 53 120 100 148c34 21 72 33 112 33z" fill="currentColor"/>
<text transform="translate(45.3800, 41.3323)" font-family="serif" font-size="2.4695" text-anchor="start" fill="currentColor">
<tspan>fel</tspan>
</text>
<path transform="translate(9.8338, 36.5298) scale(0.0040, -0.0040)" d="M379 264c3 0 7 1 10 1c157 0 258 -129 258 -263c0 -77 -33 -155 -108 -211c-22 -16 -46 -29 -72 -37c3 -33 4 -66 4 -99c0 -21 0 -41 -1 -62c-7 -121 -91 -229 -211 -229c-108 0 -196 88 -196 197c0 58 54 103 113 103c54 0 95 -47 95 -103c0 -52 -43 -95 -95 -95
c-9 0 -18 1 -27 4c25 -37 66 -61 113 -61h4c92 2 152 93 158 191c1 19 2 38 2 57c0 29 -1 58 -3 87c-29 -5 -58 -8 -88 -8c-189 0 -333 173 -333 376c0 177 129 308 244 443c-20 62 -40 124 -48 189c-7 52 -7 105 -7 158c0 114 54 221 147 288c-2 7 22 1 25 -1
c72 -83 135 -243 135 -356c0 -142 -84 -255 -176 -364c21 -68 40 -136 57 -205zM463 -201c65 24 110 94 110 161c0 88 -64 175 -167 188c24 -114 44 -227 57 -349zM77 25c0 -133 128 -243 261 -243c27 0 55 1 81 5c-13 126 -35 244 -60 362c-79 -8 -124 -60 -124 -118
c0 -43 25 -88 80 -120c5 -5 7 -11 7 -17c0 -12 -10 -23 -23 -23c-3 0 -7 1 -10 2c-81 43 -118 115 -118 186c0 89 60 177 163 200c-14 57 -30 113 -47 169c-105 -122 -210 -243 -210 -403zM403 1038c-99 -46 -161 -145 -161 -254c0 -71 21 -130 39 -188
c78 97 142 199 142 324c0 51 -4 72 -20 118z" fill="currentColor"/>
<path transform="translate(9.0337, 35.5298)" stroke-width="0.0931" stroke-linejoin="round" stroke-linecap="round" stroke="currentColor" fill="currentColor" d="M5.2405 4.0527C6.0594 4.8354 7.6136 4.8354 8.4325 4.0527L8.4325 4.0527C7.6136 4.6957 6.0594 4.6957 5.2405 4.0527z"/>
<path transform="translate(128.7626, 35.5298)" stroke-width="0.0931" stroke-linejoin="round" stroke-linecap="round" stroke="currentColor" fill="currentColor" d="M0.9634 2.2027C3.2935 3.9081 15.9362 3.9081 18.2663 2.2027L18.2663 2.2027C15.9362 3.7684 3.2935 3.7684 0.9634 2.2027z"/>
<text transform="translate(8.1802, 32.4798)" font-family="serif" font-size="1.7463" text-anchor="start" fill="currentColor">
<tspan>4</tspan>
</text>
<rect transform="translate(46.1070, 35.5298)" x="-0.0757" y="0.6713" width="0.1514" height="2.1440" ry="0.0500" fill="currentColor"/>
<path transform="translate(13.4743, 35.5298) scale(0.0040, -0.0040)" d="M31 37l-2 -62v-11c0 -22 2 -43 5 -64c43 38 89 80 89 137c0 32 -14 65 -42 65c-31 0 -49 -32 -50 -65zM-30 450c9 5 20 8 30 8s21 -3 30 -8l-8 -340c25 24 59 38 94 38c50 0 84 -50 84 -104c0 -78 -83 -117 -141 -169c-17 -15 -25 -44 -49 -44c-15 0 -26 13 -26 29z" fill="currentColor"/>
<text transform="translate(16.7743, 32.9289)" font-family="sans-serif" font-size="1.9603" text-anchor="start" fill="currentColor">
<tspan>G</tspan>
</text>
<text transform="translate(18.3107, 32.9289)" font-family="sans-serif" font-size="1.9603" text-anchor="start" fill="currentColor">
<tspan/>
</text>
<text transform="translate(18.3107, 32.9289)" font-family="sans-serif" font-size="1.9603" text-anchor="start" fill="currentColor">
<tspan/>
</text>
<text transform="translate(18.3107, 32.0380)" font-family="sans-serif" font-size="1.3858" text-anchor="start" fill="currentColor">
<tspan/>
</text>
<path transform="translate(16.7743, 38.5298) scale(0.0040, -0.0040)" d="M310 63c0 23 -19 40 -40 40c-4 0 -8 -1 -12 -2c-30 -8 -75 -38 -111 -61s-81 -52 -101 -76c-7 -8 -10 -17 -10 -27c0 -23 19 -40 40 -40c4 0 8 1 12 2c30 8 75 38 111 61s81 52 101 76c7 8 10 17 10 27zM256 138c50 0 90 -22 90 -77c0 -18 -5 -37 -10 -55
c-11 -38 -30 -74 -63 -96c-53 -35 -111 -48 -183 -48c-50 0 -90 22 -90 77c0 18 5 37 10 55c11 38 30 74 63 96c53 36 111 48 183 48z" fill="currentColor"/>
<path transform="translate(18.5996, 38.0298) scale(0.0040, -0.0040)" d="M0 0c0 30 25 55 55 55s55 -25 55 -55s-25 -55 -55 -55s-55 25 -55 55z" fill="currentColor"/>
<rect transform="translate(18.0825, 35.5298)" x="-0.0757" y="-0.5000" width="0.1514" height="3.2544" ry="0.0500" fill="currentColor"/>
<path transform="translate(57.0528, 35.0298) scale(0.0040, -0.0040)" d="M212 138c59 0 113 -31 113 -95c0 -71 -52 -120 -99 -148c-34 -21 -73 -33 -113 -33c-59 0 -113 31 -113 95c0 71 53 120 100 148c34 21 72 33 112 33z" fill="currentColor"/>
<rect transform="translate(57.1285, 35.5298)" x="-0.0757" y="-0.3287" width="0.1514" height="2.7204" ry="0.0500" fill="currentColor"/>
<rect transform="translate(67.8999, 35.5298)" x="-0.0757" y="-0.2544" width="0.1514" height="3.2544" ry="0.0500" fill="currentColor"/>
<path transform="translate(67.8242, 35.0298) scale(0.0040, -0.0040)" d="M310 63c0 23 -19 40 -40 40c-4 0 -8 -1 -12 -2c-30 -8 -75 -38 -111 -61s-81 -52 -101 -76c-7 -8 -10 -17 -10 -27c0 -23 19 -40 40 -40c4 0 8 1 12 2c30 8 75 38 111 61s81 52 101 76c7 8 10 17 10 27zM256 138c50 0 90 -22 90 -77c0 -18 -5 -37 -10 -55
c-11 -38 -30 -74 -63 -96c-53 -35 -111 -48 -183 -48c-50 0 -90 22 -90 77c0 18 5 37 10 55c11 38 30 74 63 96c53 36 111 48 183 48z" fill="currentColor"/>
<path transform="translate(62.4385, 35.0298) scale(0.0040, -0.0040)" d="M212 138c59 0 113 -31 113 -95c0 -71 -52 -120 -99 -148c-34 -21 -73 -33 -113 -33c-59 0 -113 31 -113 95c0 71 53 120 100 148c34 21 72 33 112 33z" fill="currentColor"/>
<text transform="translate(62.4385, 41.3323)" font-family="serif" font-size="2.4695" text-anchor="start" fill="currentColor">
<tspan>ship</tspan>
</text>
<rect transform="translate(62.5142, 35.5298)" x="-0.0757" y="-0.3287" width="0.1514" height="2.5134" ry="0.0500" fill="currentColor"/>
<rect transform="translate(83.7421, 35.5298)" x="-0.0757" y="-0.8287" width="0.1514" height="3.0105" ry="0.0500" fill="currentColor"/>
<text transform="translate(83.2926, 41.3323)" font-family="serif" font-size="2.4695" text-anchor="start" fill="currentColor">
<tspan>of</tspan>
</text>
<path transform="translate(83.6664, 34.5298) scale(0.0040, -0.0040)" d="M212 138c59 0 113 -31 113 -95c0 -71 -52 -120 -99 -148c-34 -21 -73 -33 -113 -33c-59 0 -113 31 -113 95c0 71 53 120 100 148c34 21 72 33 112 33z" fill="currentColor"/>
<text transform="translate(83.6664, 32.9289)" font-family="sans-serif" font-size="1.9603" text-anchor="start" fill="currentColor">
<tspan>G</tspan>
</text>
<text transform="translate(85.2029, 32.9289)" font-family="sans-serif" font-size="1.9603" text-anchor="start" fill="currentColor">
<tspan/>
</text>
<text transform="translate(85.2029, 32.9289)" font-family="sans-serif" font-size="1.9603" text-anchor="start" fill="currentColor">
<tspan/>
</text>
<text transform="translate(85.2029, 32.0380)" font-family="sans-serif" font-size="1.3858" text-anchor="start" fill="currentColor">
<tspan/>
</text>
<path transform="translate(51.6671, 35.0298) scale(0.0040, -0.0040)" d="M212 138c59 0 113 -31 113 -95c0 -71 -52 -120 -99 -148c-34 -21 -73 -33 -113 -33c-59 0 -113 31 -113 95c0 71 53 120 100 148c34 21 72 33 112 33z" fill="currentColor"/>
<text transform="translate(51.6671, 41.3323)" font-family="serif" font-size="2.4695" text-anchor="start" fill="currentColor">
<tspan>low</tspan>
</text>
<rect transform="translate(51.7427, 35.5298)" x="-0.0757" y="-0.3287" width="0.1514" height="2.9274" ry="0.0500" fill="currentColor"/>
<line transform="translate(9.0337, 49.5298)" stroke-linejoin="round" stroke-linecap="round" stroke-width="0.1164" stroke="currentColor" x1="0.0582" y1="-0.0000" x2="138.1582" y2="-0.0000"/>
<line transform="translate(9.0337, 48.5298)" stroke-linejoin="round" stroke-linecap="round" stroke-width="0.1164" stroke="currentColor" x1="0.0582" y1="-0.0000" x2="138.1582" y2="-0.0000"/>
<line transform="translate(9.0337, 47.5298)" stroke-linejoin="round" stroke-linecap="round" stroke-width="0.1164" stroke="currentColor" x1="0.0582" y1="-0.0000" x2="138.1582" y2="-0.0000"/>
<line transform="translate(9.0337, 46.5298)" stroke-linejoin="round" stroke-linecap="round" stroke-width="0.1164" stroke="currentColor" x1="0.0582" y1="-0.0000" x2="138.1582" y2="-0.0000"/>
<line transform="translate(9.0337, 45.5298)" stroke-linejoin="round" stroke-linecap="round" stroke-width="0.1164" stroke="currentColor" x1="0.0582" y1="-0.0000" x2="138.1582" y2="-0.0000"/>
<rect transform="translate(108.6382, 47.5298)" x="0.0000" y="-2.0000" width="0.2212" height="4.0000" ry="0.0000" fill="currentColor"/>
<rect transform="translate(147.0289, 47.5298)" x="0.0000" y="-2.0000" width="0.2212" height="4.0000" ry="0.0000" fill="currentColor"/>
<rect transform="translate(47.4182, 47.5298)" x="0.0000" y="-2.0000" width="0.2212" height="4.0000" ry="0.0000" fill="currentColor"/>
<rect transform="translate(83.4082, 47.5298)" x="0.0000" y="-2.0000" width="0.2212" height="4.0000" ry="0.0000" fill="currentColor"/>
<path transform="translate(137.6035, 48.0298) scale(0.0040, -0.0040)" d="M212 138c59 0 113 -31 113 -95c0 -71 -52 -120 -99 -148c-34 -21 -73 -33 -113 -33c-59 0 -113 31 -113 95c0 71 53 120 100 148c34 21 72 33 112 33z" fill="currentColor"/>
<rect transform="translate(143.2975, 47.5298)" x="-0.0757" y="-2.1818" width="0.1514" height="3.5105" ry="0.0500" fill="currentColor"/>
<text transform="translate(142.0723, 53.1129)" font-family="serif" font-size="2.4695" text-anchor="start" fill="currentColor">
<tspan>tain</tspan>
</text>
<path transform="translate(142.0723, 49.0298) scale(0.0040, -0.0040)" d="M212 138c59 0 113 -31 113 -95c0 -71 -52 -120 -99 -148c-34 -21 -73 -33 -113 -33c-59 0 -113 31 -113 95c0 71 53 120 100 148c34 21 72 33 112 33z" fill="currentColor"/>
<rect transform="translate(138.8286, 47.5298)" x="-0.0757" y="-2.1818" width="0.1514" height="2.5105" ry="0.0500" fill="currentColor"/>
<rect transform="translate(49.5513, 47.5298)" x="-0.0757" y="0.1713" width="0.1514" height="3.1620" ry="0.0500" fill="currentColor"/>
<path transform="translate(42.5687, 47.5298) scale(0.0040, -0.0040)" d="M212 138c59 0 113 -31 113 -95c0 -71 -52 -120 -99 -148c-34 -21 -73 -33 -113 -33c-59 0 -113 31 -113 95c0 71 53 120 100 148c34 21 72 33 112 33z" fill="currentColor"/>
<text transform="translate(42.5687, 53.1129)" font-family="serif" font-size="2.4695" text-anchor="start" fill="currentColor">
<tspan>formed</tspan>
</text>
<rect transform="translate(43.7939, 47.5298)" x="-0.0757" y="-2.8139" width="0.1514" height="2.6426" ry="0.0500" fill="currentColor"/>
<text transform="translate(49.4757, 44.0298)" font-family="sans-serif" font-size="1.9603" text-anchor="start" fill="currentColor">
<tspan>G</tspan>
</text>
<text transform="translate(51.0121, 44.0298)" font-family="sans-serif" font-size="1.9603" text-anchor="start" fill="currentColor">
<tspan/>
</text>
<text transform="translate(51.0121, 44.0298)" font-family="sans-serif" font-size="1.9603" text-anchor="start" fill="currentColor">
<tspan/>
</text>
<text transform="translate(51.0121, 43.1389)" font-family="sans-serif" font-size="1.3858" text-anchor="start" fill="currentColor">
<tspan/>
</text>
<path transform="translate(49.4757, 47.5298) scale(0.0040, -0.0040)" d="M212 138c59 0 113 -31 113 -95c0 -71 -52 -120 -99 -148c-34 -21 -73 -33 -113 -33c-59 0 -113 31 -113 95c0 71 53 120 100 148c34 21 72 33 112 33z" fill="currentColor"/>
<path transform="translate(51.2179, 47.0298) scale(0.0040, -0.0040)" d="M0 0c0 30 25 55 55 55s55 -25 55 -55s-25 -55 -55 -55s-55 25 -55 55z" fill="currentColor"/>
<rect transform="translate(120.2032, 47.5298)" x="-0.0757" y="-2.9866" width="0.1514" height="2.3153" ry="0.0500" fill="currentColor"/>
<text transform="translate(128.1658, 44.0298)" font-family="sans-serif" font-size="1.9603" text-anchor="start" fill="currentColor">
<tspan>A</tspan>
</text>
<text transform="translate(129.4888, 44.0298)" font-family="sans-serif" font-size="1.9603" text-anchor="start" fill="currentColor">
<tspan/>
</text>
<text transform="translate(129.4888, 44.0298)" font-family="sans-serif" font-size="1.9603" text-anchor="start" fill="currentColor">
<tspan/>
</text>
<text transform="translate(129.4888, 43.1389)" font-family="sans-serif" font-size="1.3858" text-anchor="start" fill="currentColor">
<tspan/>
</text>
<polygon transform="translate(29.5617, 45.5298)" stroke-linejoin="round" stroke-linecap="round" stroke-width="0.1000" fill="currentColor" stroke="currentColor" points="14.2579 -1.0082 14.2579 -0.6282 0.0500 0.1900 0.0500 -0.1900"/>
<path transform="translate(123.4469, 48.5298) scale(0.0040, -0.0040)" d="M212 138c59 0 113 -31 113 -95c0 -71 -52 -120 -99 -148c-34 -21 -73 -33 -113 -33c-59 0 -113 31 -113 95c0 71 53 120 100 148c34 21 72 33 112 33z" fill="currentColor"/>
<text transform="translate(123.4469, 53.1129)" font-family="serif" font-size="2.4695" text-anchor="start" fill="currentColor">
<tspan>may</tspan>
</text>
<rect transform="translate(124.6721, 47.5298)" x="-0.0757" y="-2.1952" width="0.1514" height="3.0239" ry="0.0500" fill="currentColor"/>
<path transform="translate(28.4122, 49.0298) scale(0.0040, -0.0040)" d="M212 138c59 0 113 -31 113 -95c0 -71 -52 -120 -99 -148c-34 -21 -73 -33 -113 -33c-59 0 -113 31 -113 95c0 71 53 120 100 148c34 21 72 33 112 33z" fill="currentColor"/>
<path transform="translate(128.1658, 48.5298) scale(0.0040, -0.0040)" d="M212 138c59 0 113 -31 113 -95c0 -71 -52 -120 -99 -148c-34 -21 -73 -33 -113 -33c-59 0 -113 31 -113 95c0 71 53 120 100 148c34 21 72 33 112 33z" fill="currentColor"/>
<rect transform="translate(129.3909, 47.5298)" x="-0.0757" y="-2.1818" width="0.1514" height="3.0105" ry="0.0500" fill="currentColor"/>
<path transform="translate(132.8846, 48.0298) scale(0.0040, -0.0040)" d="M212 138c59 0 113 -31 113 -95c0 -71 -52 -120 -99 -148c-34 -21 -73 -33 -113 -33c-59 0 -113 31 -113 95c0 71 53 120 100 148c34 21 72 33 112 33z" fill="currentColor"/>
<text transform="translate(132.8846, 53.1129)" font-family="serif" font-size="2.4695" text-anchor="start" fill="currentColor">
<tspan>at</tspan>
</text>
<rect transform="translate(134.1098, 47.5298)" x="-0.0757" y="-2.1818" width="0.1514" height="2.5105" ry="0.0500" fill="currentColor"/>
<path transform="translate(132.8846, 47.5298)" stroke-width="0.0931" stroke-linejoin="round" stroke-linecap="round" stroke="currentColor" fill="currentColor" d="M0.8504 1.2169C1.6716 2.0215 4.3481 2.0215 5.1693 1.2169L5.1693 1.2169C4.3481 1.8817 1.6716 1.8817 0.8504 1.2169z"/>
<rect transform="translate(138.0447, 53.1129)" x="0.0000" y="-0.5714" width="0.6600" height="0.1514" ry="0.0466" fill="currentColor"/>
<polygon transform="translate(129.3152, 45.3480)" stroke-linejoin="round" stroke-linecap="round" stroke-width="0.1000" fill="currentColor" stroke="currentColor" points="14.0079 -0.1900 14.0079 0.1900 0.0500 0.1900 0.0500 -0.1900"/>
<path transform="translate(123.4469, 47.5298)" stroke-width="0.0931" stroke-linejoin="round" stroke-linecap="round" stroke="currentColor" fill="currentColor" d="M1.5008 1.2169C2.1556 1.9273 3.8640 1.9273 4.5188 1.2169L4.5188 1.2169C3.8640 1.7876 2.1556 1.7876 1.5008 1.2169z"/>
<polygon transform="translate(120.1275, 44.5298)" stroke-linejoin="round" stroke-linecap="round" stroke-width="0.1000" fill="currentColor" stroke="currentColor" points="4.5702 0.6282 4.5702 1.0082 0.0500 0.1900 0.0500 -0.1900"/>
<rect transform="translate(107.1226, 53.1129)" x="0.0000" y="-0.5714" width="0.6600" height="0.1514" ry="0.0466" fill="currentColor"/>
<polygon transform="translate(100.1480, 45.7115)" stroke-linejoin="round" stroke-linecap="round" stroke-width="0.1000" fill="currentColor" stroke="currentColor" points="4.8202 -0.5536 4.8202 -0.1736 0.0500 0.1900 0.0500 -0.1900"/>
<rect transform="translate(59.6876, 47.5298)" x="-0.0757" y="0.1713" width="0.1514" height="3.2037" ry="0.0500" fill="currentColor"/>
<path transform="translate(78.4873, 47.5298)" stroke-width="0.0931" stroke-linejoin="round" stroke-linecap="round" stroke="currentColor" fill="currentColor" d="M1.5008 1.1894C2.4105 2.0339 5.7642 2.0339 6.6739 1.1894L6.6739 1.1894C5.7642 1.8942 2.4105 1.8942 1.5008 1.1894z"/>
<path transform="translate(69.0496, 47.5298)" stroke-width="0.0931" stroke-linejoin="round" stroke-linecap="round" stroke="currentColor" fill="currentColor" d="M0.8504 1.2169C1.6716 2.0215 4.3481 2.0215 5.1693 1.2169L5.1693 1.2169C4.3481 1.8817 1.6716 1.8817 0.8504 1.2169z"/>
<polygon transform="translate(65.4803, 44.7115)" stroke-linejoin="round" stroke-linecap="round" stroke-width="0.1000" fill="currentColor" stroke="currentColor" points="14.2579 0.4464 14.2579 0.8264 0.0500 0.1900 0.0500 -0.1900"/>
<path transform="translate(59.6119, 47.5298)" stroke-width="0.0931" stroke-linejoin="round" stroke-linecap="round" stroke="currentColor" fill="currentColor" d="M1.5008 0.2250C2.1556 0.9354 3.8640 0.9354 4.5188 0.2250L4.5188 0.2250C3.8640 0.7957 2.1556 0.7957 1.5008 0.2250z"/>
<path transform="translate(42.5687, 47.5298)" stroke-width="0.0931" stroke-linejoin="round" stroke-linecap="round" stroke="currentColor" fill="currentColor" d="M1.6252 -0.1955C2.5260 -1.0363 5.8060 -1.0363 6.7069 -0.1955L6.7069 -0.1955C5.8060 -0.8966 2.5260 -0.8966 1.6252 -0.1955z"/>
<rect transform="translate(41.1008, 53.1129)" x="0.0000" y="-0.5714" width="0.6600" height="0.1514" ry="0.0466" fill="currentColor"/>
<rect transform="translate(30.9960, 53.1129)" x="0.0000" y="-0.5714" width="0.6600" height="0.1514" ry="0.0466" fill="currentColor"/>
<rect transform="translate(18.0825, 47.5298)" x="-0.0757" y="-2.5000" width="0.1514" height="3.2544" ry="0.0500" fill="currentColor"/>
<path transform="translate(37.8499, 48.0298) scale(0.0040, -0.0040)" d="M212 138c59 0 113 -31 113 -95c0 -71 -52 -120 -99 -148c-34 -21 -73 -33 -113 -33c-59 0 -113 31 -113 95c0 71 53 120 100 148c34 21 72 33 112 33z" fill="currentColor"/>
<rect transform="translate(34.3562, 47.5298)" x="-0.0757" y="-2.2742" width="0.1514" height="3.1028" ry="0.0500" fill="currentColor"/>
<text transform="translate(32.2023, 53.1129)" font-family="serif" font-size="2.4695" text-anchor="start" fill="currentColor">
<tspan>ing</tspan>
</text>
<path transform="translate(16.7743, 48.5298) scale(0.0040, -0.0040)" d="M310 63c0 23 -19 40 -40 40c-4 0 -8 -1 -12 -2c-30 -8 -75 -38 -111 -61s-81 -52 -101 -76c-7 -8 -10 -17 -10 -27c0 -23 19 -40 40 -40c4 0 8 1 12 2c30 8 75 38 111 61s81 52 101 76c7 8 10 17 10 27zM256 138c50 0 90 -22 90 -77c0 -18 -5 -37 -10 -55
c-11 -38 -30 -74 -63 -96c-53 -35 -111 -48 -183 -48c-50 0 -90 22 -90 77c0 18 5 37 10 55c11 38 30 74 63 96c53 36 111 48 183 48z" fill="currentColor"/>
<path transform="translate(33.1310, 48.5298) scale(0.0040, -0.0040)" d="M212 138c59 0 113 -31 113 -95c0 -71 -52 -120 -99 -148c-34 -21 -73 -33 -113 -33c-59 0 -113 31 -113 95c0 71 53 120 100 148c34 21 72 33 112 33z" fill="currentColor"/>
<text transform="translate(16.7743, 44.0298)" font-family="sans-serif" font-size="1.9603" text-anchor="start" fill="currentColor">
<tspan>A</tspan>
</text>
<text transform="translate(18.0973, 44.0298)" font-family="sans-serif" font-size="1.9603" text-anchor="start" fill="currentColor">
<tspan/>
</text>
<text transform="translate(18.0973, 44.0298)" font-family="sans-serif" font-size="1.9603" text-anchor="start" fill="currentColor">
<tspan/>
</text>
<text transform="translate(18.0973, 43.1389)" font-family="sans-serif" font-size="1.3858" text-anchor="start" fill="currentColor">
<tspan/>
</text>
<path transform="translate(59.6119, 47.5298) scale(0.0040, -0.0040)" d="M212 138c59 0 113 -31 113 -95c0 -71 -52 -120 -99 -148c-34 -21 -73 -33 -113 -33c-59 0 -113 31 -113 95c0 71 53 120 100 148c34 21 72 33 112 33z" fill="currentColor"/>
<text transform="translate(59.6119, 53.1129)" font-family="serif" font-size="2.4695" text-anchor="start" fill="currentColor">
<tspan>to</tspan>
</text>
<path transform="translate(69.0496, 48.0298) scale(0.0040, -0.0040)" d="M212 138c59 0 113 -31 113 -95c0 -71 -52 -120 -99 -148c-34 -21 -73 -33 -113 -33c-59 0 -113 31 -113 95c0 71 53 120 100 148c34 21 72 33 112 33z" fill="currentColor"/>
<text transform="translate(69.0496, 53.1129)" font-family="serif" font-size="2.4695" text-anchor="start" fill="currentColor">
<tspan>His</tspan>
</text>
<rect transform="translate(70.2748, 47.5298)" x="-0.0757" y="-2.6049" width="0.1514" height="2.9336" ry="0.0500" fill="currentColor"/>
<path transform="translate(73.7685, 48.0298) scale(0.0040, -0.0040)" d="M212 138c59 0 113 -31 113 -95c0 -71 -52 -120 -99 -148c-34 -21 -73 -33 -113 -33c-59 0 -113 31 -113 95c0 71 53 120 100 148c34 21 72 33 112 33z" fill="currentColor"/>
<rect transform="translate(74.9936, 47.5298)" x="-0.0757" y="-2.3951" width="0.1514" height="2.7237" ry="0.0500" fill="currentColor"/>
<rect transform="translate(39.0750, 47.5298)" x="-0.0757" y="-2.5440" width="0.1514" height="2.8727" ry="0.0500" fill="currentColor"/>
<path transform="translate(78.4873, 48.5298) scale(0.0040, -0.0040)" d="M212 138c59 0 113 -31 113 -95c0 -71 -52 -120 -99 -148c-34 -21 -73 -33 -113 -33c-59 0 -113 31 -113 95c0 71 53 120 100 148c34 21 72 33 112 33z" fill="currentColor"/>
<text transform="translate(78.4873, 53.1129)" font-family="serif" font-size="2.4695" text-anchor="start" fill="currentColor">
<tspan>death,</tspan>
</text>
<rect transform="translate(79.7125, 47.5298)" x="-0.0757" y="-2.1852" width="0.1514" height="3.0138" ry="0.0500" fill="currentColor"/>
<text transform="translate(85.3612, 44.0298)" font-family="sans-serif" font-size="1.9603" text-anchor="start" fill="currentColor">
<tspan>A</tspan>
</text>
<text transform="translate(86.6842, 44.0298)" font-family="sans-serif" font-size="1.9603" text-anchor="start" fill="currentColor">
<tspan/>
</text>
<text transform="translate(86.6842, 44.0298)" font-family="sans-serif" font-size="1.9603" text-anchor="start" fill="currentColor">
<tspan/>
</text>
<text transform="translate(86.6842, 43.1389)" font-family="sans-serif" font-size="1.3858" text-anchor="start" fill="currentColor">
<tspan/>
</text>
<path transform="translate(85.3612, 48.5298) scale(0.0040, -0.0040)" d="M310 63c0 23 -19 40 -40 40c-4 0 -8 -1 -12 -2c-30 -8 -75 -38 -111 -61s-81 -52 -101 -76c-7 -8 -10 -17 -10 -27c0 -23 19 -40 40 -40c4 0 8 1 12 2c30 8 75 38 111 61s81 52 101 76c7 8 10 17 10 27zM256 138c50 0 90 -22 90 -77c0 -18 -5 -37 -10 -55
c-11 -38 -30 -74 -63 -96c-53 -35 -111 -48 -183 -48c-50 0 -90 22 -90 77c0 18 5 37 10 55c11 38 30 74 63 96c53 36 111 48 183 48z" fill="currentColor"/>
<text transform="translate(119.2230, 53.1129)" font-family="serif" font-size="2.4695" text-anchor="start" fill="currentColor">
<tspan>I</tspan>
</text>
<path transform="translate(87.1865, 48.0298) scale(0.0040, -0.0040)" d="M0 0c0 30 25 55 55 55s55 -25 55 -55s-25 -55 -55 -55s-55 25 -55 55z" fill="currentColor"/>
<rect transform="translate(86.6694, 47.5298)" x="-0.0757" y="-2.5000" width="0.1514" height="3.2544" ry="0.0500" fill="currentColor"/>
<path transform="translate(9.0337, 47.5298)" stroke-width="0.0931" stroke-linejoin="round" stroke-linecap="round" stroke="currentColor" fill="currentColor" d="M5.2405 2.2027C6.0594 2.9854 7.6136 2.9854 8.4325 2.2027L8.4325 2.2027C7.6136 2.8457 6.0594 2.8457 5.2405 2.2027z"/>
<path transform="translate(142.0723, 47.5298)" stroke-width="0.0931" stroke-linejoin="round" stroke-linecap="round" stroke="currentColor" fill="currentColor" d="M0.6504 2.5527C1.6815 3.5162 3.9256 3.5162 4.9566 2.5527L4.9566 2.5527C3.9256 3.3765 1.6815 3.3765 0.6504 2.5527z"/>
<text transform="translate(8.1802, 44.4371)" font-family="serif" font-size="1.7463" text-anchor="start" fill="currentColor">
<tspan>8</tspan>
</text>
<path transform="translate(9.8338, 48.5298) scale(0.0040, -0.0040)" d="M379 264c3 0 7 1 10 1c157 0 258 -129 258 -263c0 -77 -33 -155 -108 -211c-22 -16 -46 -29 -72 -37c3 -33 4 -66 4 -99c0 -21 0 -41 -1 -62c-7 -121 -91 -229 -211 -229c-108 0 -196 88 -196 197c0 58 54 103 113 103c54 0 95 -47 95 -103c0 -52 -43 -95 -95 -95
c-9 0 -18 1 -27 4c25 -37 66 -61 113 -61h4c92 2 152 93 158 191c1 19 2 38 2 57c0 29 -1 58 -3 87c-29 -5 -58 -8 -88 -8c-189 0 -333 173 -333 376c0 177 129 308 244 443c-20 62 -40 124 -48 189c-7 52 -7 105 -7 158c0 114 54 221 147 288c-2 7 22 1 25 -1
c72 -83 135 -243 135 -356c0 -142 -84 -255 -176 -364c21 -68 40 -136 57 -205zM463 -201c65 24 110 94 110 161c0 88 -64 175 -167 188c24 -114 44 -227 57 -349zM77 25c0 -133 128 -243 261 -243c27 0 55 1 81 5c-13 126 -35 244 -60 362c-79 -8 -124 -60 -124 -118
c0 -43 25 -88 80 -120c5 -5 7 -11 7 -17c0 -12 -10 -23 -23 -23c-3 0 -7 1 -10 2c-81 43 -118 115 -118 186c0 89 60 177 163 200c-14 57 -30 113 -47 169c-105 -122 -210 -243 -210 -403zM403 1038c-99 -46 -161 -145 -161 -254c0 -71 21 -130 39 -188
c78 97 142 199 142 324c0 51 -4 72 -20 118z" fill="currentColor"/>
<path transform="translate(13.4743, 47.5298) scale(0.0040, -0.0040)" d="M31 37l-2 -62v-11c0 -22 2 -43 5 -64c43 38 89 80 89 137c0 32 -14 65 -42 65c-31 0 -49 -32 -50 -65zM-30 450c9 5 20 8 30 8s21 -3 30 -8l-8 -340c25 24 59 38 94 38c50 0 84 -50 84 -104c0 -78 -83 -117 -141 -169c-17 -15 -25 -44 -49 -44c-15 0 -26 13 -26 29z" fill="currentColor"/>
<text transform="translate(36.7078, 53.1129)" font-family="serif" font-size="2.4695" text-anchor="start" fill="currentColor">
<tspan>con</tspan>
</text>
<path transform="translate(59.7633, 50.8548) scale(0.0040, -0.0040)" d="M0 0h-19v250h19v-250zM0 0v250c95 59 220 149 220 259c0 56 -16 111 -41 161c-3 18 12 30 26 30c8 0 17 -4 22 -13c25 -56 40 -116 40 -178c0 -203 -267 -306 -267 -509z" fill="currentColor"/>
<path transform="translate(64.3308, 47.5298) scale(0.0040, -0.0040)" d="M212 138c59 0 113 -31 113 -95c0 -71 -52 -120 -99 -148c-34 -21 -73 -33 -113 -33c-59 0 -113 31 -113 95c0 71 53 120 100 148c34 21 72 33 112 33z" fill="currentColor"/>
<rect transform="translate(65.5559, 47.5298)" x="-0.0757" y="-2.8148" width="0.1514" height="2.6435" ry="0.0500" fill="currentColor"/>
<path transform="translate(103.7173, 48.5298) scale(0.0040, -0.0040)" d="M212 138c59 0 113 -31 113 -95c0 -71 -52 -120 -99 -148c-34 -21 -73 -33 -113 -33c-59 0 -113 31 -113 95c0 71 53 120 100 148c34 21 72 33 112 33z" fill="currentColor"/>
<text transform="translate(102.7886, 53.1129)" font-family="serif" font-size="2.4695" text-anchor="start" fill="currentColor">
<tspan>per</tspan>
</text>
<rect transform="translate(104.9425, 47.5298)" x="-0.0757" y="-2.1761" width="0.1514" height="3.0048" ry="0.0500" fill="currentColor"/>
<text transform="translate(110.5912, 44.0298)" font-family="sans-serif" font-size="1.9603" text-anchor="start" fill="currentColor">
<tspan>D</tspan>
</text>
<text transform="translate(112.0850, 44.0298)" font-family="sans-serif" font-size="1.9603" text-anchor="start" fill="currentColor">
<tspan/>
</text>
<text transform="translate(112.0850, 44.0298)" font-family="sans-serif" font-size="1.9603" text-anchor="start" fill="currentColor">
<tspan/>
</text>
<text transform="translate(112.0850, 43.1389)" font-family="sans-serif" font-size="1.3858" text-anchor="start" fill="currentColor">
<tspan/>
</text>
<rect transform="translate(111.8164, 47.5298)" x="-0.0757" y="-3.0000" width="0.1514" height="3.3287" ry="0.0500" fill="currentColor"/>
<path transform="translate(110.5912, 48.0298) scale(0.0040, -0.0040)" d="M212 138c59 0 113 -31 113 -95c0 -71 -52 -120 -99 -148c-34 -21 -73 -33 -113 -33c-59 0 -113 31 -113 95c0 71 53 120 100 148c34 21 72 33 112 33z" fill="currentColor"/>
<rect transform="translate(29.6373, 47.5298)" x="-0.0757" y="-2.0043" width="0.1514" height="3.3330" ry="0.0500" fill="currentColor"/>
<text transform="translate(108.9583, 53.1129)" font-family="serif" font-size="2.4695" text-anchor="start" fill="currentColor">
<tspan>haps</tspan>
</text>
<path transform="translate(118.9781, 47.0298) scale(0.0040, -0.0040)" d="M212 138c59 0 113 -31 113 -95c0 -71 -52 -120 -99 -148c-34 -21 -73 -33 -113 -33c-59 0 -113 31 -113 95c0 71 53 120 100 148c34 21 72 33 112 33z" fill="currentColor"/>
<rect transform="translate(100.2236, 47.5298)" x="-0.0757" y="-1.8239" width="0.1514" height="3.1525" ry="0.0500" fill="currentColor"/>
<text transform="translate(27.6755, 53.1129)" font-family="serif" font-size="2.4695" text-anchor="start" fill="currentColor">
<tspan>Be</tspan>
</text>
<path transform="translate(98.9985, 49.0298) scale(0.0040, -0.0040)" d="M212 138c59 0 113 -31 113 -95c0 -71 -52 -120 -99 -148c-34 -21 -73 -33 -113 -33c-59 0 -113 31 -113 95c0 71 53 120 100 148c34 21 72 33 112 33z" fill="currentColor"/>
<text transform="translate(98.8380, 53.1129)" font-family="serif" font-size="2.4695" text-anchor="start" fill="currentColor">
<tspan>If</tspan>
</text>
<rect transform="translate(9.0337, 62.5298)" x="26.2899" y="-0.1082" width="1.9513" height="0.2164" ry="0.1082" fill="currentColor"/>
<line transform="translate(9.0337, 61.5298)" stroke-linejoin="round" stroke-linecap="round" stroke-width="0.1164" stroke="currentColor" x1="0.0582" y1="-0.0000" x2="138.1582" y2="-0.0000"/>
<line transform="translate(9.0337, 60.5298)" stroke-linejoin="round" stroke-linecap="round" stroke-width="0.1164" stroke="currentColor" x1="0.0582" y1="-0.0000" x2="138.1582" y2="-0.0000"/>
<line transform="translate(9.0337, 59.5298)" stroke-linejoin="round" stroke-linecap="round" stroke-width="0.1164" stroke="currentColor" x1="0.0582" y1="-0.0000" x2="138.1582" y2="-0.0000"/>
<line transform="translate(9.0337, 58.5298)" stroke-linejoin="round" stroke-linecap="round" stroke-width="0.1164" stroke="currentColor" x1="0.0582" y1="-0.0000" x2="138.1582" y2="-0.0000"/>
<line transform="translate(9.0337, 57.5298)" stroke-linejoin="round" stroke-linecap="round" stroke-width="0.1164" stroke="currentColor" x1="0.0582" y1="-0.0000" x2="138.1582" y2="-0.0000"/>
<rect transform="translate(74.7064, 59.5298)" x="0.0000" y="-2.0000" width="0.2212" height="4.0000" ry="0.0000" fill="currentColor"/>
<rect transform="translate(40.1131, 59.5298)" x="0.0000" y="-2.0000" width="0.2212" height="4.0000" ry="0.0000" fill="currentColor"/>
<rect transform="translate(146.5516, 59.5298)" x="0.0000" y="-2.0000" width="0.6986" height="4.0000" ry="0.0000" fill="currentColor"/>
<rect transform="translate(145.9811, 59.5298)" x="0.0000" y="-2.0000" width="0.2212" height="4.0000" ry="0.0000" fill="currentColor"/>
<rect transform="translate(109.2680, 59.5298)" x="0.0000" y="-2.0000" width="0.2212" height="4.0000" ry="0.0000" fill="currentColor"/>
<rect transform="translate(125.6121, 59.5298)" x="0.0000" y="-2.0000" width="0.2212" height="4.0000" ry="0.0000" fill="currentColor"/>
<text transform="translate(99.3401, 65.6895)" font-family="serif" font-size="2.4695" text-anchor="start" fill="currentColor">
<tspan>the</tspan>
</text>
<rect transform="translate(106.0412, 59.5298)" x="-0.0757" y="-1.8182" width="0.1514" height="3.1469" ry="0.0500" fill="currentColor"/>
<text transform="translate(102.8203, 65.6895)" font-family="serif" font-size="2.4695" text-anchor="start" fill="currentColor">
<tspan>dead.</tspan>
</text>
<path transform="translate(104.8160, 61.0298) scale(0.0040, -0.0040)" d="M212 138c59 0 113 -31 113 -95c0 -71 -52 -120 -99 -148c-34 -21 -73 -33 -113 -33c-59 0 -113 31 -113 95c0 71 53 120 100 148c34 21 72 33 112 33z" fill="currentColor"/>
<rect transform="translate(101.4300, 59.5298)" x="-0.0757" y="-1.8182" width="0.1514" height="3.1469" ry="0.0500" fill="currentColor"/>
<text transform="translate(112.0318, 56.7899)" font-family="sans-serif" font-size="1.9603" text-anchor="start" fill="currentColor">
<tspan>D</tspan>
</text>
<text transform="translate(113.5255, 56.7899)" font-family="sans-serif" font-size="1.9603" text-anchor="start" fill="currentColor">
<tspan/>
</text>
<text transform="translate(113.5255, 56.7899)" font-family="sans-serif" font-size="1.9603" text-anchor="start" fill="currentColor">
<tspan/>
</text>
<text transform="translate(113.5255, 55.8990)" font-family="sans-serif" font-size="1.3858" text-anchor="start" fill="currentColor">
<tspan/>
</text>
<path transform="translate(112.0318, 61.0298) scale(0.0040, -0.0040)" d="M210 110c-49 0 -67 -43 -67 -88c0 -74 56 -132 129 -132c49 0 67 43 67 88c0 74 -56 132 -129 132zM482 0c0 -43 -33 -76 -71 -98c-51 -30 -111 -40 -170 -40s-119 10 -170 40c-38 22 -71 55 -71 98s33 76 71 98c51 30 111 40 170 40s119 -10 170 -40
c38 -22 71 -55 71 -98z" fill="currentColor"/>
<polygon transform="translate(32.8341, 58.7115)" stroke-linejoin="round" stroke-linecap="round" stroke-width="0.1000" fill="currentColor" stroke="currentColor" points="4.0656 0.4464 4.0656 0.8264 0.0500 0.1900 0.0500 -0.1900"/>
<path transform="translate(80.4344, 61.0298) scale(0.0040, -0.0040)" d="M212 138c59 0 113 -31 113 -95c0 -71 -52 -120 -99 -148c-34 -21 -73 -33 -113 -33c-59 0 -113 31 -113 95c0 71 53 120 100 148c34 21 72 33 112 33z" fill="currentColor"/>
<text transform="translate(80.4344, 65.6895)" font-family="serif" font-size="2.4695" text-anchor="start" fill="currentColor">
<tspan>tion</tspan>
</text>
<rect transform="translate(81.6595, 59.5298)" x="-0.0757" y="-1.7365" width="0.1514" height="3.0652" ry="0.0500" fill="currentColor"/>
<path transform="translate(84.6486, 61.0298) scale(0.0040, -0.0040)" d="M212 138c59 0 113 -31 113 -95c0 -71 -52 -120 -99 -148c-34 -21 -73 -33 -113 -33c-59 0 -113 31 -113 95c0 71 53 120 100 148c34 21 72 33 112 33z" fill="currentColor"/>
<rect transform="translate(85.8738, 59.5298)" x="-0.0757" y="-1.4616" width="0.1514" height="2.7903" ry="0.0500" fill="currentColor"/>
<path transform="translate(100.2048, 61.0298) scale(0.0040, -0.0040)" d="M212 138c59 0 113 -31 113 -95c0 -71 -52 -120 -99 -148c-34 -21 -73 -33 -113 -33c-59 0 -113 31 -113 95c0 71 53 120 100 148c34 21 72 33 112 33z" fill="currentColor"/>
<path transform="translate(88.8629, 61.5298) scale(0.0040, -0.0040)" d="M212 138c59 0 113 -31 113 -95c0 -71 -52 -120 -99 -148c-34 -21 -73 -33 -113 -33c-59 0 -113 31 -113 95c0 71 53 120 100 148c34 21 72 33 112 33z" fill="currentColor"/>
<text transform="translate(88.8629, 65.6895)" font-family="serif" font-size="2.4695" text-anchor="start" fill="currentColor">
<tspan>from</tspan>
</text>
<rect transform="translate(90.0880, 59.5298)" x="-0.0757" y="-1.1867" width="0.1514" height="3.0154" ry="0.0500" fill="currentColor"/>
<path transform="translate(93.0771, 61.5298) scale(0.0040, -0.0040)" d="M212 138c59 0 113 -31 113 -95c0 -71 -52 -120 -99 -148c-34 -21 -73 -33 -113 -33c-59 0 -113 31 -113 95c0 71 53 120 100 148c34 21 72 33 112 33z" fill="currentColor"/>
<rect transform="translate(94.3023, 59.5298)" x="-0.0757" y="-1.5000" width="0.1514" height="3.3287" ry="0.0500" fill="currentColor"/>
<path transform="translate(70.3258, 59.5298)" stroke-width="0.0931" stroke-linejoin="round" stroke-linecap="round" stroke="currentColor" fill="currentColor" d="M0.8504 1.1970C1.8123 2.0623 5.6329 2.0623 6.5947 1.1970L6.5947 1.1970C5.6329 1.9226 1.8123 1.9226 0.8504 1.1970z"/>
<path transform="translate(112.0318, 59.5298)" stroke-width="0.0931" stroke-linejoin="round" stroke-linecap="round" stroke="currentColor" fill="currentColor" d="M2.1267 2.0000C3.4815 2.9770 13.7894 2.9770 15.1441 2.0000L15.1441 2.0000C13.7894 2.8373 3.4815 2.8373 2.1267 2.0000z"/>
<path transform="translate(104.8160, 59.5298)" stroke-width="0.0931" stroke-linejoin="round" stroke-linecap="round" stroke="currentColor" fill="currentColor" d="M1.5008 2.0000C2.4424 2.8574 6.0742 2.8574 7.0158 2.0000L7.0158 2.0000C6.0742 2.7177 2.4424 2.7177 1.5008 2.0000z"/>
<polygon transform="translate(101.3543, 57.7115)" stroke-linejoin="round" stroke-linecap="round" stroke-width="0.1000" fill="currentColor" stroke="currentColor" points="4.7126 -0.1900 4.7126 0.1900 0.0500 0.1900 0.0500 -0.1900"/>
<path transform="translate(88.8629, 59.5298)" stroke-width="0.0931" stroke-linejoin="round" stroke-linecap="round" stroke="currentColor" fill="currentColor" d="M0.8504 2.7500C1.6122 3.5241 3.9029 3.5241 4.6647 2.7500L4.6647 2.7500C3.9029 3.3844 1.6122 3.3844 0.8504 2.7500z"/>
<path transform="translate(80.4344, 59.5298)" stroke-width="0.0931" stroke-linejoin="round" stroke-linecap="round" stroke="currentColor" fill="currentColor" d="M1.5008 2.0000C2.0777 2.6559 3.4373 2.6559 4.0143 2.0000L4.0143 2.0000C3.4373 2.5162 2.0777 2.5162 1.5008 2.0000z"/>
<polygon transform="translate(77.6196, 57.5298)" stroke-linejoin="round" stroke-linecap="round" stroke-width="0.1000" fill="currentColor" stroke="currentColor" points="12.4941 0.6282 12.4941 1.0082 0.0500 0.1900 0.0500 -0.1900"/>
<rect transform="translate(76.5652, 65.6895)" x="0.0000" y="-0.5714" width="0.6600" height="0.1514" ry="0.0466" fill="currentColor"/>
<rect transform="translate(68.9714, 65.6895)" x="0.0000" y="-0.5714" width="0.6600" height="0.1514" ry="0.0466" fill="currentColor"/>
<polygon transform="translate(67.2610, 57.5298)" stroke-linejoin="round" stroke-linecap="round" stroke-width="0.1000" fill="currentColor" stroke="currentColor" points="4.3156 -0.3718 4.3156 0.0082 0.0500 0.1900 0.0500 -0.1900"/>
<path transform="translate(54.7696, 59.5298)" stroke-width="0.0931" stroke-linejoin="round" stroke-linecap="round" stroke="currentColor" fill="currentColor" d="M1.5008 2.0000C2.0777 2.6559 3.4373 2.6559 4.0143 2.0000L4.0143 2.0000C3.4373 2.5162 2.0777 2.5162 1.5008 2.0000z"/>
<rect transform="translate(60.6385, 65.6895)" x="0.0000" y="-0.5714" width="0.6600" height="0.1514" ry="0.0466" fill="currentColor"/>
<path transform="translate(46.3411, 59.5298)" stroke-width="0.0931" stroke-linejoin="round" stroke-linecap="round" stroke="currentColor" fill="currentColor" d="M1.5008 2.0000C2.0777 2.6559 3.4373 2.6559 4.0143 2.0000L4.0143 2.0000C3.4373 2.5162 2.0777 2.5162 1.5008 2.0000z"/>
<rect transform="translate(49.5724, 65.6895)" x="0.0000" y="-0.5714" width="0.6600" height="0.1514" ry="0.0466" fill="currentColor"/>
<path transform="translate(41.8769, 59.5298)" stroke-width="0.0931" stroke-linejoin="round" stroke-linecap="round" stroke="currentColor" fill="currentColor" d="M0.7001 3.5527C2.5025 4.7521 7.8961 4.1306 9.3786 2.5527L9.3786 2.5527C7.8802 3.9918 2.4865 4.6133 0.7001 3.5527z"/>
<polygon transform="translate(43.0264, 58.3480)" stroke-linejoin="round" stroke-linecap="round" stroke-width="0.1000" fill="currentColor" stroke="currentColor" points="12.9941 -0.1900 12.9941 0.1900 0.0500 0.1900 0.0500 -0.1900"/>
<path transform="translate(127.3759, 61.0298) scale(0.0040, -0.0040)" d="M310 63c0 23 -19 40 -40 40c-4 0 -8 -1 -12 -2c-30 -8 -75 -38 -111 -61s-81 -52 -101 -76c-7 -8 -10 -17 -10 -27c0 -23 19 -40 40 -40c4 0 8 1 12 2c30 8 75 38 111 61s81 52 101 76c7 8 10 17 10 27zM256 138c50 0 90 -22 90 -77c0 -18 -5 -37 -10 -55
c-11 -38 -30 -74 -63 -96c-53 -35 -111 -48 -183 -48c-50 0 -90 22 -90 77c0 18 5 37 10 55c11 38 30 74 63 96c53 36 111 48 183 48z" fill="currentColor"/>
<path transform="translate(129.2012, 61.0298) scale(0.0040, -0.0040)" d="M0 0c0 30 25 55 55 55s55 -25 55 -55s-25 -55 -55 -55s-55 25 -55 55z" fill="currentColor"/>
<rect transform="translate(128.6841, 59.5298)" x="-0.0757" y="-2.0000" width="0.1514" height="3.2544" ry="0.0500" fill="currentColor"/>
<path transform="translate(139.2042, 59.5298) scale(0.0040, -0.0040)" d="M-24 -119c0 31 14 43 46 43c30 0 69 -9 106 -23l-126 151c-7 9 -11 17 -11 26c0 34 51 66 88 101c23 22 36 51 36 81c0 25 -9 50 -26 70l-31 37c-3 4 -4 8 -4 12c0 10 9 18 19 18c5 0 9 -1 13 -6l149 -178c7 -9 11 -17 11 -26c0 -34 -52 -66 -89 -101
c-23 -22 -35 -51 -35 -81c0 -25 9 -51 26 -71l79 -94c3 -4 4 -8 4 -12c0 -10 -9 -18 -19 -18c-5 0 -9 2 -13 7c-16 19 -57 33 -89 33c-41 0 -55 -23 -55 -65c0 -33 11 -73 27 -92c8 -9 -6 -20 -14 -11c-44 53 -92 145 -92 199z" fill="currentColor"/>
<rect transform="translate(32.9098, 59.5298)" x="-0.0757" y="-0.8065" width="0.1514" height="2.6352" ry="0.0500" fill="currentColor"/>
<path transform="translate(35.6489, 62.5298) scale(0.0040, -0.0040)" d="M212 138c59 0 113 -31 113 -95c0 -71 -52 -120 -99 -148c-34 -21 -73 -33 -113 -33c-59 0 -113 31 -113 95c0 71 53 120 100 148c34 21 72 33 112 33z" fill="currentColor"/>
<text transform="translate(34.7842, 65.6895)" font-family="serif" font-size="2.4695" text-anchor="start" fill="currentColor">
<tspan>the</tspan>
</text>
<rect transform="translate(36.8740, 59.5298)" x="-0.0757" y="-0.1935" width="0.1514" height="3.0222" ry="0.0500" fill="currentColor"/>
<text transform="translate(41.8769, 56.7899)" font-family="sans-serif" font-size="1.9603" text-anchor="start" fill="currentColor">
<tspan>G</tspan>
</text>
<text transform="translate(43.4133, 56.7899)" font-family="sans-serif" font-size="1.9603" text-anchor="start" fill="currentColor">
<tspan/>
</text>
<text transform="translate(43.4133, 56.7899)" font-family="sans-serif" font-size="1.9603" text-anchor="start" fill="currentColor">
<tspan/>
</text>
<text transform="translate(43.4133, 55.8990)" font-family="sans-serif" font-size="1.3858" text-anchor="start" fill="currentColor">
<tspan/>
</text>
<path transform="translate(41.8769, 62.0298) scale(0.0040, -0.0040)" d="M212 138c59 0 113 -31 113 -95c0 -71 -52 -120 -99 -148c-34 -21 -73 -33 -113 -33c-59 0 -113 31 -113 95c0 71 53 120 100 148c34 21 72 33 112 33z" fill="currentColor"/>
<text transform="translate(41.8769, 65.6895)" font-family="serif" font-size="2.4695" text-anchor="start" fill="currentColor">
<tspan>out</tspan>
</text>
<text transform="translate(30.9693, 65.6895)" font-family="serif" font-size="2.4695" text-anchor="start" fill="currentColor">
<tspan>To</tspan>
</text>
<rect transform="translate(43.1020, 59.5298)" x="-0.0757" y="-1.1818" width="0.1514" height="3.5105" ry="0.0500" fill="currentColor"/>
<path transform="translate(46.3411, 61.0298) scale(0.0040, -0.0040)" d="M212 138c59 0 113 -31 113 -95c0 -71 -52 -120 -99 -148c-34 -21 -73 -33 -113 -33c-59 0 -113 31 -113 95c0 71 53 120 100 148c34 21 72 33 112 33z" fill="currentColor"/>
<path transform="translate(9.0337, 59.5298)" stroke-width="0.0931" stroke-linejoin="round" stroke-linecap="round" stroke="currentColor" fill="currentColor" d="M5.2405 2.5527C6.0594 3.3354 7.6136 3.3354 8.4325 2.5527L8.4325 2.5527C7.6136 3.1957 6.0594 3.1957 5.2405 2.5527z"/>
<text transform="translate(7.3266, 56.4798)" font-family="serif" font-size="1.7463" text-anchor="start" fill="currentColor">
<tspan>12</tspan>
</text>
<path transform="translate(9.8338, 60.5298) scale(0.0040, -0.0040)" d="M379 264c3 0 7 1 10 1c157 0 258 -129 258 -263c0 -77 -33 -155 -108 -211c-22 -16 -46 -29 -72 -37c3 -33 4 -66 4 -99c0 -21 0 -41 -1 -62c-7 -121 -91 -229 -211 -229c-108 0 -196 88 -196 197c0 58 54 103 113 103c54 0 95 -47 95 -103c0 -52 -43 -95 -95 -95
c-9 0 -18 1 -27 4c25 -37 66 -61 113 -61h4c92 2 152 93 158 191c1 19 2 38 2 57c0 29 -1 58 -3 87c-29 -5 -58 -8 -88 -8c-189 0 -333 173 -333 376c0 177 129 308 244 443c-20 62 -40 124 -48 189c-7 52 -7 105 -7 158c0 114 54 221 147 288c-2 7 22 1 25 -1
c72 -83 135 -243 135 -356c0 -142 -84 -255 -176 -364c21 -68 40 -136 57 -205zM463 -201c65 24 110 94 110 161c0 88 -64 175 -167 188c24 -114 44 -227 57 -349zM77 25c0 -133 128 -243 261 -243c27 0 55 1 81 5c-13 126 -35 244 -60 362c-79 -8 -124 -60 -124 -118
c0 -43 25 -88 80 -120c5 -5 7 -11 7 -17c0 -12 -10 -23 -23 -23c-3 0 -7 1 -10 2c-81 43 -118 115 -118 186c0 89 60 177 163 200c-14 57 -30 113 -47 169c-105 -122 -210 -243 -210 -403zM403 1038c-99 -46 -161 -145 -161 -254c0 -71 21 -130 39 -188
c78 97 142 199 142 324c0 51 -4 72 -20 118z" fill="currentColor"/>
<path transform="translate(13.4743, 59.5298) scale(0.0040, -0.0040)" d="M31 37l-2 -62v-11c0 -22 2 -43 5 -64c43 38 89 80 89 137c0 32 -14 65 -42 65c-31 0 -49 -32 -50 -65zM-30 450c9 5 20 8 30 8s21 -3 30 -8l-8 -340c25 24 59 38 94 38c50 0 84 -50 84 -104c0 -78 -83 -117 -141 -169c-17 -15 -25 -44 -49 -44c-15 0 -26 13 -26 29z" fill="currentColor"/>
<text transform="translate(16.7743, 56.7899)" font-family="sans-serif" font-size="1.9603" text-anchor="start" fill="currentColor">
<tspan>B</tspan>
</text>
<text transform="translate(18.1400, 56.7899)" font-family="sans-serif" font-size="1.9603" text-anchor="start" fill="currentColor">
<tspan/>
</text>
<text transform="translate(18.1400, 56.7899)" font-family="sans-serif" font-size="1.9603" text-anchor="start" fill="currentColor">
<tspan>m</tspan>
</text>
<text transform="translate(20.0606, 55.8990)" font-family="sans-serif" font-size="1.3858" text-anchor="start" fill="currentColor">
<tspan/>
</text>
<path transform="translate(16.7743, 61.0298) scale(0.0040, -0.0040)" d="M310 63c0 23 -19 40 -40 40c-4 0 -8 -1 -12 -2c-30 -8 -75 -38 -111 -61s-81 -52 -101 -76c-7 -8 -10 -17 -10 -27c0 -23 19 -40 40 -40c4 0 8 1 12 2c30 8 75 38 111 61s81 52 101 76c7 8 10 17 10 27zM256 138c50 0 90 -22 90 -77c0 -18 -5 -37 -10 -55
c-11 -38 -30 -74 -63 -96c-53 -35 -111 -48 -183 -48c-50 0 -90 22 -90 77c0 18 5 37 10 55c11 38 30 74 63 96c53 36 111 48 183 48z" fill="currentColor"/>
<path transform="translate(18.5996, 61.0298) scale(0.0040, -0.0040)" d="M0 0c0 30 25 55 55 55s55 -25 55 -55s-25 -55 -55 -55s-55 25 -55 55z" fill="currentColor"/>
<rect transform="translate(18.0825, 59.5298)" x="-0.0757" y="-2.0000" width="0.1514" height="3.2544" ry="0.0500" fill="currentColor"/>
<text transform="translate(26.7145, 56.7899)" font-family="sans-serif" font-size="1.9603" text-anchor="start" fill="currentColor">
<tspan>D</tspan>
</text>
<text transform="translate(28.2083, 56.7899)" font-family="sans-serif" font-size="1.9603" text-anchor="start" fill="currentColor">
<tspan/>
</text>
<text transform="translate(28.2083, 56.7899)" font-family="sans-serif" font-size="1.9603" text-anchor="start" fill="currentColor">
<tspan/>
</text>
<text transform="translate(28.2083, 55.8990)" font-family="sans-serif" font-size="1.3858" text-anchor="start" fill="currentColor">
<tspan/>
</text>
<path transform="translate(31.6846, 61.5298) scale(0.0040, -0.0040)" d="M212 138c59 0 113 -31 113 -95c0 -71 -52 -120 -99 -148c-34 -21 -73 -33 -113 -33c-59 0 -113 31 -113 95c0 71 53 120 100 148c34 21 72 33 112 33z" fill="currentColor"/>
<rect transform="translate(71.5510, 59.5298)" x="-0.0757" y="-2.1786" width="0.1514" height="2.5073" ry="0.0500" fill="currentColor"/>
<path transform="translate(58.9839, 61.0298) scale(0.0040, -0.0040)" d="M212 138c59 0 113 -31 113 -95c0 -71 -52 -120 -99 -148c-34 -21 -73 -33 -113 -33c-59 0 -113 31 -113 95c0 71 53 120 100 148c34 21 72 33 112 33z" fill="currentColor"/>
<rect transform="translate(60.2090, 59.5298)" x="-0.0757" y="-2.0000" width="0.1514" height="3.3287" ry="0.0500" fill="currentColor"/>
<rect transform="translate(47.5663, 59.5298)" x="-0.0757" y="-1.1818" width="0.1514" height="2.5105" ry="0.0500" fill="currentColor"/>
<path transform="translate(66.1116, 60.5298) scale(0.0040, -0.0040)" d="M212 138c59 0 113 -31 113 -95c0 -71 -52 -120 -99 -148c-34 -21 -73 -33 -113 -33c-59 0 -113 31 -113 95c0 71 53 120 100 148c34 21 72 33 112 33z" fill="currentColor"/>
<text transform="translate(65.2469, 65.6895)" font-family="serif" font-size="2.4695" text-anchor="start" fill="currentColor">
<tspan>sur</tspan>
</text>
<rect transform="translate(67.3367, 59.5298)" x="-0.0757" y="-2.0032" width="0.1514" height="2.8318" ry="0.0500" fill="currentColor"/>
<path transform="translate(70.3258, 60.0298) scale(0.0040, -0.0040)" d="M212 138c59 0 113 -31 113 -95c0 -71 -52 -120 -99 -148c-34 -21 -73 -33 -113 -33c-59 0 -113 31 -113 95c0 71 53 120 100 148c34 21 72 33 112 33z" fill="currentColor"/>
<text transform="translate(70.3258, 65.6895)" font-family="serif" font-size="2.4695" text-anchor="start" fill="currentColor">
<tspan>rec</tspan>
</text>
<text transform="translate(76.4701, 56.7899)" font-family="sans-serif" font-size="1.9603" text-anchor="start" fill="currentColor">
<tspan>A</tspan>
</text>
<text transform="translate(77.7932, 56.7899)" font-family="sans-serif" font-size="1.9603" text-anchor="start" fill="currentColor">
<tspan/>
</text>
<text transform="translate(77.7932, 56.7899)" font-family="sans-serif" font-size="1.9603" text-anchor="start" fill="currentColor">
<tspan/>
</text>
<text transform="translate(77.7932, 55.8990)" font-family="sans-serif" font-size="1.3858" text-anchor="start" fill="currentColor">
<tspan/>
</text>
<path transform="translate(76.4701, 60.0298) scale(0.0040, -0.0040)" d="M212 138c59 0 113 -31 113 -95c0 -71 -52 -120 -99 -148c-34 -21 -73 -33 -113 -33c-59 0 -113 31 -113 95c0 71 53 120 100 148c34 21 72 33 112 33z" fill="currentColor"/>
<rect transform="translate(77.6953, 59.5298)" x="-0.0757" y="-1.9951" width="0.1514" height="2.3237" ry="0.0500" fill="currentColor"/>
<rect transform="translate(51.7805, 59.5298)" x="-0.0757" y="-1.1818" width="0.1514" height="2.5105" ry="0.0500" fill="currentColor"/>
<path transform="translate(54.7696, 61.0298) scale(0.0040, -0.0040)" d="M212 138c59 0 113 -31 113 -95c0 -71 -52 -120 -99 -148c-34 -21 -73 -33 -113 -33c-59 0 -113 31 -113 95c0 71 53 120 100 148c34 21 72 33 112 33z" fill="currentColor"/>
<text transform="translate(54.7696, 65.6895)" font-family="serif" font-size="2.4695" text-anchor="start" fill="currentColor">
<tspan>re</tspan>
</text>
<rect transform="translate(55.9948, 59.5298)" x="-0.0757" y="-1.1818" width="0.1514" height="2.5105" ry="0.0500" fill="currentColor"/>
<path transform="translate(50.5554, 61.0298) scale(0.0040, -0.0040)" d="M212 138c59 0 113 -31 113 -95c0 -71 -52 -120 -99 -148c-34 -21 -73 -33 -113 -33c-59 0 -113 31 -113 95c0 71 53 120 100 148c34 21 72 33 112 33z" fill="currentColor"/>
<text transform="translate(69.7341, 189.4189)" font-family="Trebuchet MS" font-size="2.1999" text-anchor="start" fill="currentColor">
<tspan>www.hymnal.net</tspan>
</text>
<text transform="translate(78.1419, 192.4189)" font-family="serif" font-size="2.1999" text-anchor="start" fill="currentColor">
<tspan/>
</text>
</svg>
